%TF.GenerationSoftware,KiCad,Pcbnew,6.0.4-6f826c9f35~116~ubuntu21.10.1*%
%TF.CreationDate,2023-03-02T20:15:44+02:00*%
%TF.ProjectId,rgbw-light,72676277-2d6c-4696-9768-742e6b696361,rev?*%
%TF.SameCoordinates,Original*%
%TF.FileFunction,Paste,Top*%
%TF.FilePolarity,Positive*%
%FSLAX46Y46*%
G04 Gerber Fmt 4.6, Leading zero omitted, Abs format (unit mm)*
G04 Created by KiCad (PCBNEW 6.0.4-6f826c9f35~116~ubuntu21.10.1) date 2023-03-02 20:15:44*
%MOMM*%
%LPD*%
G01*
G04 APERTURE LIST*
G04 Aperture macros list*
%AMRoundRect*
0 Rectangle with rounded corners*
0 $1 Rounding radius*
0 $2 $3 $4 $5 $6 $7 $8 $9 X,Y pos of 4 corners*
0 Add a 4 corners polygon primitive as box body*
4,1,4,$2,$3,$4,$5,$6,$7,$8,$9,$2,$3,0*
0 Add four circle primitives for the rounded corners*
1,1,$1+$1,$2,$3*
1,1,$1+$1,$4,$5*
1,1,$1+$1,$6,$7*
1,1,$1+$1,$8,$9*
0 Add four rect primitives between the rounded corners*
20,1,$1+$1,$2,$3,$4,$5,0*
20,1,$1+$1,$4,$5,$6,$7,0*
20,1,$1+$1,$6,$7,$8,$9,0*
20,1,$1+$1,$8,$9,$2,$3,0*%
G04 Aperture macros list end*
%ADD10RoundRect,0.200000X0.285000X0.200000X-0.285000X0.200000X-0.285000X-0.200000X0.285000X-0.200000X0*%
%ADD11RoundRect,0.175000X-0.175000X-0.475000X0.175000X-0.475000X0.175000X0.475000X-0.175000X0.475000X0*%
%ADD12RoundRect,0.325000X0.459619X0.000000X0.000000X0.459619X-0.459619X0.000000X0.000000X-0.459619X0*%
%ADD13RoundRect,0.175000X0.175000X0.475000X-0.175000X0.475000X-0.175000X-0.475000X0.175000X-0.475000X0*%
%ADD14RoundRect,0.200000X-0.285000X-0.200000X0.285000X-0.200000X0.285000X0.200000X-0.285000X0.200000X0*%
%ADD15RoundRect,0.175000X0.175000X-0.525000X0.175000X0.525000X-0.175000X0.525000X-0.175000X-0.525000X0*%
%ADD16R,2.850000X1.150000*%
%ADD17R,0.450000X0.450000*%
%ADD18RoundRect,0.112500X-0.112500X-0.112500X0.112500X-0.112500X0.112500X0.112500X-0.112500X0.112500X0*%
%ADD19RoundRect,0.175000X-0.525000X-0.175000X0.525000X-0.175000X0.525000X0.175000X-0.525000X0.175000X0*%
%ADD20RoundRect,0.175000X0.475000X-0.175000X0.475000X0.175000X-0.475000X0.175000X-0.475000X-0.175000X0*%
%ADD21RoundRect,0.175000X0.525000X0.175000X-0.525000X0.175000X-0.525000X-0.175000X0.525000X-0.175000X0*%
%ADD22RoundRect,0.200000X0.200000X-0.285000X0.200000X0.285000X-0.200000X0.285000X-0.200000X-0.285000X0*%
%ADD23RoundRect,0.325000X-0.459619X0.000000X0.000000X-0.459619X0.459619X0.000000X0.000000X0.459619X0*%
%ADD24RoundRect,0.175000X-0.175000X0.525000X-0.175000X-0.525000X0.175000X-0.525000X0.175000X0.525000X0*%
%ADD25RoundRect,0.200000X-0.200000X0.285000X-0.200000X-0.285000X0.200000X-0.285000X0.200000X0.285000X0*%
%ADD26RoundRect,0.175000X-0.475000X0.175000X-0.475000X-0.175000X0.475000X-0.175000X0.475000X0.175000X0*%
%ADD27RoundRect,0.325000X0.000000X-0.459619X0.459619X0.000000X0.000000X0.459619X-0.459619X0.000000X0*%
G04 APERTURE END LIST*
D10*
%TO.C,R4*%
X150000000Y-98500000D03*
X148400000Y-98500000D03*
%TD*%
D11*
%TO.C,C4*%
X136000000Y-98500000D03*
X137900000Y-98500000D03*
%TD*%
D12*
%TO.C,L2*%
X137760660Y-102560660D03*
X135639340Y-100439340D03*
%TD*%
D13*
%TO.C,C3*%
X142400000Y-104250000D03*
X140500000Y-104250000D03*
%TD*%
D14*
%TO.C,R1*%
X140900000Y-99000000D03*
X142500000Y-99000000D03*
%TD*%
D15*
%TO.C,IC3*%
X147750000Y-102700000D03*
X148700000Y-102700000D03*
X149650000Y-102700000D03*
X149650000Y-100300000D03*
X147750000Y-100300000D03*
%TD*%
D13*
%TO.C,C2*%
X143950000Y-91000000D03*
X142050000Y-91000000D03*
%TD*%
D11*
%TO.C,C7*%
X148250000Y-93250000D03*
X150150000Y-93250000D03*
%TD*%
%TO.C,C8*%
X146450000Y-91000000D03*
X148350000Y-91000000D03*
%TD*%
D16*
%TO.C,D1*%
X145200000Y-96000000D03*
D17*
X144000000Y-94800000D03*
D18*
X144800000Y-94800000D03*
X145600000Y-94800000D03*
X146400000Y-94800000D03*
X146400000Y-97200000D03*
X145600000Y-97200000D03*
X144800000Y-97200000D03*
X144000000Y-97200000D03*
%TD*%
D19*
%TO.C,IC2*%
X140000000Y-100550000D03*
X140000000Y-101500000D03*
X140000000Y-102450000D03*
X142400000Y-102450000D03*
X142400000Y-100550000D03*
%TD*%
D20*
%TO.C,C1*%
X138950000Y-96950000D03*
X138950000Y-95050000D03*
%TD*%
D21*
%TO.C,IC4*%
X150400000Y-96950000D03*
X150400000Y-96000000D03*
X150400000Y-95050000D03*
X148000000Y-95050000D03*
X148000000Y-96950000D03*
%TD*%
D22*
%TO.C,R3*%
X145950000Y-100300000D03*
X145950000Y-98700000D03*
%TD*%
D23*
%TO.C,L3*%
X149639340Y-104939340D03*
X151760660Y-107060660D03*
%TD*%
D24*
%TO.C,IC1*%
X142650000Y-94800000D03*
X141700000Y-94800000D03*
X140750000Y-94800000D03*
X140750000Y-97200000D03*
X142650000Y-97200000D03*
%TD*%
D25*
%TO.C,NTC1*%
X145200000Y-102450000D03*
X145200000Y-104050000D03*
%TD*%
D26*
%TO.C,C5*%
X151450000Y-100550000D03*
X151450000Y-102450000D03*
%TD*%
D20*
%TO.C,C6*%
X153700000Y-105050000D03*
X153700000Y-106950000D03*
%TD*%
D22*
%TO.C,R2*%
X144450000Y-100300000D03*
X144450000Y-98700000D03*
%TD*%
D12*
%TO.C,L1*%
X140760660Y-92810660D03*
X138639340Y-90689340D03*
%TD*%
D27*
%TO.C,L4*%
X152639340Y-95060660D03*
X154760660Y-92939340D03*
%TD*%
M02*
