%TF.GenerationSoftware,KiCad,Pcbnew,7.0.9-7.0.9~ubuntu22.04.1*%
%TF.CreationDate,2024-03-19T19:09:07+02:00*%
%TF.ProjectId,rgbw-light,72676277-2d6c-4696-9768-742e6b696361,rev?*%
%TF.SameCoordinates,Original*%
%TF.FileFunction,Copper,L2,Bot*%
%TF.FilePolarity,Positive*%
%FSLAX46Y46*%
G04 Gerber Fmt 4.6, Leading zero omitted, Abs format (unit mm)*
G04 Created by KiCad (PCBNEW 7.0.9-7.0.9~ubuntu22.04.1) date 2024-03-19 19:09:07*
%MOMM*%
%LPD*%
G01*
G04 APERTURE LIST*
G04 Aperture macros list*
%AMRoundRect*
0 Rectangle with rounded corners*
0 $1 Rounding radius*
0 $2 $3 $4 $5 $6 $7 $8 $9 X,Y pos of 4 corners*
0 Add a 4 corners polygon primitive as box body*
4,1,4,$2,$3,$4,$5,$6,$7,$8,$9,$2,$3,0*
0 Add four circle primitives for the rounded corners*
1,1,$1+$1,$2,$3*
1,1,$1+$1,$4,$5*
1,1,$1+$1,$6,$7*
1,1,$1+$1,$8,$9*
0 Add four rect primitives between the rounded corners*
20,1,$1+$1,$2,$3,$4,$5,0*
20,1,$1+$1,$4,$5,$6,$7,0*
20,1,$1+$1,$6,$7,$8,$9,0*
20,1,$1+$1,$8,$9,$2,$3,0*%
G04 Aperture macros list end*
%TA.AperFunction,ComponentPad*%
%ADD10C,1.524000*%
%TD*%
%TA.AperFunction,ComponentPad*%
%ADD11RoundRect,0.381000X-0.381000X-0.381000X0.381000X-0.381000X0.381000X0.381000X-0.381000X0.381000X0*%
%TD*%
%TA.AperFunction,ViaPad*%
%ADD12C,0.800000*%
%TD*%
%TA.AperFunction,ViaPad*%
%ADD13C,4.000000*%
%TD*%
%TA.AperFunction,Conductor*%
%ADD14C,0.500000*%
%TD*%
%TA.AperFunction,Conductor*%
%ADD15C,0.250000*%
%TD*%
G04 APERTURE END LIST*
D10*
%TO.P,CN2,8*%
%TO.N,Net-(CN2-Pad8)*%
X155360000Y-103620000D03*
%TO.P,CN2,7*%
%TO.N,unconnected-(CN2-Pad7)*%
X155360000Y-101080000D03*
%TO.P,CN2,6*%
%TO.N,unconnected-(CN2-Pad6)*%
X155360000Y-98540000D03*
%TO.P,CN2,5*%
%TO.N,unconnected-(CN2-Pad5)*%
X155360000Y-96000000D03*
%TO.P,CN2,4*%
%TO.N,unconnected-(CN2-Pad4)*%
X155360000Y-93460000D03*
%TO.P,CN2,3*%
%TO.N,unconnected-(CN2-Pad3)*%
X155360000Y-90920000D03*
%TO.P,CN2,2*%
%TO.N,/Temperature*%
X155360000Y-88380000D03*
D11*
%TO.P,CN2,1*%
%TO.N,unconnected-(CN2-Pad1)*%
X155360000Y-85840000D03*
%TD*%
%TO.P,CN1,1*%
%TO.N,unconnected-(CN1-Pad1)*%
X132500000Y-85840000D03*
D10*
%TO.P,CN1,2*%
%TO.N,unconnected-(CN1-Pad2)*%
X132500000Y-88380000D03*
%TO.P,CN1,3*%
%TO.N,/R*%
X132500000Y-90920000D03*
%TO.P,CN1,4*%
%TO.N,/G*%
X132500000Y-93460000D03*
%TO.P,CN1,5*%
%TO.N,/B*%
X132500000Y-96000000D03*
%TO.P,CN1,6*%
%TO.N,/W*%
X132500000Y-98540000D03*
%TO.P,CN1,7*%
%TO.N,GND*%
X132500000Y-101080000D03*
%TO.P,CN1,8*%
%TO.N,5V*%
X132500000Y-103620000D03*
%TD*%
D12*
%TO.N,GND*%
X154430000Y-109730000D03*
X149430000Y-109730000D03*
X143930000Y-109730000D03*
X138430000Y-109730000D03*
X143930000Y-90480000D03*
X151930000Y-102730000D03*
X146930000Y-102730000D03*
X140930000Y-102730000D03*
X135930000Y-102730000D03*
X151830000Y-100430000D03*
X146830000Y-100430000D03*
%TO.N,/W*%
X150930000Y-105730000D03*
%TO.N,/B*%
X145930000Y-105930000D03*
%TO.N,/G*%
X139930000Y-105879500D03*
%TO.N,/R*%
X134980000Y-105954500D03*
%TO.N,GND*%
X143930000Y-102730000D03*
X138530000Y-91930000D03*
X136130000Y-96330000D03*
X151730000Y-96330000D03*
%TO.N,Net-(CN2-Pad8)*%
X152730000Y-94730000D03*
%TO.N,GND*%
X143930000Y-100130000D03*
X149330000Y-91930000D03*
X145930000Y-94730000D03*
X141930000Y-94730000D03*
X144730000Y-94730000D03*
X143130000Y-94730000D03*
X140730000Y-96930000D03*
X146730000Y-96930000D03*
%TO.N,Net-(D1D-A)*%
X145530000Y-92130000D03*
X149930000Y-100530000D03*
%TO.N,Net-(D1C-A)*%
X144730000Y-91530000D03*
X148930000Y-100530000D03*
%TO.N,Net-(D1B-A)*%
X143130000Y-91530000D03*
X138930000Y-100530000D03*
%TO.N,Net-(D1A-A)*%
X142330000Y-92130000D03*
X137930000Y-100530000D03*
%TO.N,5V*%
X135930000Y-101530000D03*
X140930000Y-101530000D03*
X146930000Y-101530000D03*
X151930000Y-101530000D03*
D13*
%TO.N,GND*%
X128930000Y-79730000D03*
X158930000Y-79730000D03*
X128930000Y-109730000D03*
X158930000Y-109730000D03*
%TD*%
D14*
%TO.N,5V*%
X146930000Y-101530000D02*
X147480000Y-101530000D01*
X147480000Y-101530000D02*
X147930000Y-101980000D01*
X150930000Y-101980000D02*
X151380000Y-101530000D01*
X147930000Y-101980000D02*
X150930000Y-101980000D01*
X151380000Y-101530000D02*
X151930000Y-101530000D01*
X140930000Y-101530000D02*
X146930000Y-101530000D01*
X135930000Y-101530000D02*
X136480000Y-101530000D01*
X136480000Y-101530000D02*
X136930000Y-101980000D01*
X136930000Y-101980000D02*
X139930000Y-101980000D01*
X139930000Y-101980000D02*
X140380000Y-101530000D01*
X140380000Y-101530000D02*
X140930000Y-101530000D01*
X132500000Y-103620000D02*
X134590000Y-101530000D01*
X134590000Y-101530000D02*
X135930000Y-101530000D01*
D15*
%TO.N,/W*%
X150930000Y-105730000D02*
X150530000Y-105730000D01*
X150530000Y-105730000D02*
X149130000Y-104330000D01*
X149130000Y-104330000D02*
X134180952Y-104330000D01*
X130880000Y-98980000D02*
X131320000Y-98540000D01*
X134180952Y-104330000D02*
X133680952Y-104830000D01*
X132102792Y-104830000D02*
X130880000Y-103607208D01*
X133680952Y-104830000D02*
X132102792Y-104830000D01*
X130880000Y-103607208D02*
X130880000Y-98980000D01*
X131320000Y-98540000D02*
X132500000Y-98540000D01*
%TO.N,/B*%
X145930000Y-105930000D02*
X144780000Y-104780000D01*
X144780000Y-104780000D02*
X134367348Y-104780000D01*
X134367348Y-104780000D02*
X133867348Y-105280000D01*
X133867348Y-105280000D02*
X131916396Y-105280000D01*
X131916396Y-105280000D02*
X130430000Y-103793604D01*
X130430000Y-103793604D02*
X130430000Y-96830000D01*
X130430000Y-96830000D02*
X131260000Y-96000000D01*
X131260000Y-96000000D02*
X132500000Y-96000000D01*
%TO.N,/G*%
X139930000Y-105879500D02*
X139280500Y-105230000D01*
X134053744Y-105730000D02*
X131730000Y-105730000D01*
X139280500Y-105230000D02*
X134553744Y-105230000D01*
X129980000Y-103980000D02*
X129980000Y-94480000D01*
X134553744Y-105230000D02*
X134053744Y-105730000D01*
X131730000Y-105730000D02*
X129980000Y-103980000D01*
X129980000Y-94480000D02*
X131000000Y-93460000D01*
X131000000Y-93460000D02*
X132500000Y-93460000D01*
%TO.N,/R*%
X134980000Y-105954500D02*
X134505500Y-105954500D01*
X134505500Y-105954500D02*
X134280000Y-106180000D01*
X129530000Y-92530000D02*
X131140000Y-90920000D01*
X134280000Y-106180000D02*
X131543604Y-106180000D01*
X131543604Y-106180000D02*
X129530000Y-104166396D01*
X129530000Y-104166396D02*
X129530000Y-92530000D01*
X131140000Y-90920000D02*
X132500000Y-90920000D01*
%TO.N,Net-(CN2-Pad8)*%
X152730000Y-94730000D02*
X153530000Y-95530000D01*
X153530000Y-101790000D02*
X155360000Y-103620000D01*
X153530000Y-95530000D02*
X153530000Y-101790000D01*
D14*
%TO.N,Net-(D1C-A)*%
X144730000Y-91530000D02*
X144680000Y-91580000D01*
X144680000Y-91580000D02*
X144680000Y-92482082D01*
X144680000Y-92482082D02*
X145177918Y-92980000D01*
X148930000Y-95730000D02*
X148930000Y-100530000D01*
X145177918Y-92980000D02*
X146180000Y-92980000D01*
X146180000Y-92980000D02*
X148930000Y-95730000D01*
%TO.N,Net-(D1D-A)*%
X149930000Y-100530000D02*
X149930000Y-95330000D01*
X149930000Y-95330000D02*
X146730000Y-92130000D01*
X146730000Y-92130000D02*
X145530000Y-92130000D01*
%TO.N,Net-(D1B-A)*%
X138930000Y-100530000D02*
X138930000Y-95530000D01*
X138930000Y-95530000D02*
X141480000Y-92980000D01*
X141480000Y-92980000D02*
X142682082Y-92980000D01*
X142682082Y-92980000D02*
X143180000Y-92482082D01*
X143180000Y-91580000D02*
X143130000Y-91530000D01*
X143180000Y-92482082D02*
X143180000Y-91580000D01*
%TO.N,Net-(D1A-A)*%
X137930000Y-100530000D02*
X137930000Y-95130000D01*
X137930000Y-95130000D02*
X140930000Y-92130000D01*
X140930000Y-92130000D02*
X142330000Y-92130000D01*
%TD*%
%TA.AperFunction,Conductor*%
%TO.N,GND*%
G36*
X158931293Y-76730567D02*
G01*
X159063628Y-76737503D01*
X159247654Y-76747838D01*
X159252597Y-76748367D01*
X159405647Y-76772608D01*
X159568763Y-76800322D01*
X159573252Y-76801303D01*
X159726693Y-76842418D01*
X159856782Y-76879896D01*
X159882235Y-76887229D01*
X159886265Y-76888579D01*
X160036183Y-76946127D01*
X160184469Y-77007549D01*
X160187981Y-77009169D01*
X160273741Y-77052866D01*
X160331922Y-77082511D01*
X160471864Y-77159854D01*
X160474839Y-77161638D01*
X160610858Y-77249970D01*
X160610872Y-77249979D01*
X160741071Y-77342361D01*
X160743578Y-77344263D01*
X160868985Y-77445814D01*
X160870802Y-77447359D01*
X160987568Y-77551707D01*
X160988967Y-77552958D01*
X160990985Y-77554866D01*
X161105132Y-77669013D01*
X161107040Y-77671031D01*
X161212625Y-77789180D01*
X161214184Y-77791013D01*
X161315735Y-77916420D01*
X161317637Y-77918927D01*
X161410020Y-78049127D01*
X161498340Y-78185127D01*
X161500150Y-78188144D01*
X161577488Y-78328077D01*
X161650825Y-78472008D01*
X161652453Y-78475539D01*
X161713877Y-78623829D01*
X161771416Y-78773726D01*
X161772769Y-78777763D01*
X161817579Y-78933297D01*
X161858693Y-79086739D01*
X161859680Y-79091261D01*
X161887394Y-79254369D01*
X161911629Y-79407388D01*
X161912161Y-79412359D01*
X161922509Y-79596616D01*
X161929432Y-79728699D01*
X161929500Y-79731291D01*
X161929500Y-109728708D01*
X161929432Y-109731300D01*
X161922509Y-109863383D01*
X161912161Y-110047639D01*
X161911629Y-110052609D01*
X161887394Y-110205630D01*
X161859680Y-110368737D01*
X161858693Y-110373259D01*
X161817579Y-110526702D01*
X161772769Y-110682235D01*
X161771416Y-110686272D01*
X161713877Y-110836170D01*
X161652453Y-110984459D01*
X161650825Y-110987990D01*
X161577488Y-111131922D01*
X161500150Y-111271855D01*
X161498340Y-111274871D01*
X161410020Y-111410872D01*
X161317637Y-111541071D01*
X161315735Y-111543579D01*
X161214184Y-111668985D01*
X161212625Y-111670818D01*
X161107040Y-111788967D01*
X161105132Y-111790985D01*
X160990985Y-111905132D01*
X160988967Y-111907040D01*
X160870818Y-112012625D01*
X160868985Y-112014184D01*
X160743579Y-112115735D01*
X160741071Y-112117637D01*
X160610872Y-112210020D01*
X160474871Y-112298340D01*
X160471855Y-112300150D01*
X160331922Y-112377488D01*
X160187990Y-112450825D01*
X160184459Y-112452453D01*
X160036170Y-112513877D01*
X159886272Y-112571416D01*
X159882235Y-112572769D01*
X159726702Y-112617579D01*
X159573259Y-112658693D01*
X159568737Y-112659680D01*
X159405630Y-112687394D01*
X159252609Y-112711629D01*
X159247639Y-112712161D01*
X159063383Y-112722509D01*
X158966388Y-112727592D01*
X158931293Y-112729432D01*
X158928709Y-112729500D01*
X128931291Y-112729500D01*
X128928706Y-112729432D01*
X128890744Y-112727442D01*
X128796616Y-112722509D01*
X128612359Y-112712161D01*
X128607388Y-112711629D01*
X128454369Y-112687394D01*
X128291261Y-112659680D01*
X128286739Y-112658693D01*
X128133297Y-112617579D01*
X127977763Y-112572769D01*
X127973726Y-112571416D01*
X127823829Y-112513877D01*
X127675539Y-112452453D01*
X127672008Y-112450825D01*
X127528077Y-112377488D01*
X127388144Y-112300150D01*
X127385127Y-112298340D01*
X127249127Y-112210020D01*
X127118927Y-112117637D01*
X127116420Y-112115735D01*
X126991013Y-112014184D01*
X126989190Y-112012633D01*
X126871031Y-111907040D01*
X126869013Y-111905132D01*
X126754866Y-111790985D01*
X126752958Y-111788967D01*
X126751707Y-111787568D01*
X126647359Y-111670802D01*
X126645814Y-111668985D01*
X126544263Y-111543578D01*
X126542361Y-111541071D01*
X126449979Y-111410872D01*
X126421119Y-111366432D01*
X126361638Y-111274839D01*
X126359849Y-111271855D01*
X126282511Y-111131922D01*
X126209173Y-110987990D01*
X126207545Y-110984459D01*
X126146122Y-110836170D01*
X126134832Y-110806759D01*
X126088579Y-110686265D01*
X126087229Y-110682235D01*
X126042420Y-110526702D01*
X126001305Y-110373259D01*
X126000322Y-110368763D01*
X125972601Y-110205606D01*
X125948367Y-110052597D01*
X125947838Y-110047654D01*
X125937490Y-109863383D01*
X125930567Y-109731294D01*
X125930500Y-109728709D01*
X125930500Y-104195202D01*
X129200736Y-104195202D01*
X129211354Y-104234832D01*
X129212289Y-104239048D01*
X129219411Y-104279441D01*
X129220164Y-104280744D01*
X129230054Y-104304620D01*
X129230443Y-104306075D01*
X129230446Y-104306080D01*
X129253971Y-104339677D01*
X129256292Y-104343320D01*
X129276806Y-104378851D01*
X129308224Y-104405214D01*
X129311410Y-104408133D01*
X131301861Y-106398584D01*
X131304779Y-106401769D01*
X131329709Y-106431478D01*
X131331149Y-106433194D01*
X131366677Y-106453706D01*
X131370316Y-106456025D01*
X131403915Y-106479551D01*
X131403917Y-106479552D01*
X131403920Y-106479554D01*
X131405371Y-106479942D01*
X131429263Y-106489840D01*
X131429790Y-106490143D01*
X131430559Y-106490588D01*
X131470955Y-106497710D01*
X131475152Y-106498640D01*
X131514797Y-106509264D01*
X131555677Y-106505687D01*
X131559978Y-106505500D01*
X134263626Y-106505500D01*
X134267926Y-106505687D01*
X134308807Y-106509264D01*
X134348452Y-106498640D01*
X134352650Y-106497710D01*
X134393045Y-106490588D01*
X134393047Y-106490587D01*
X134394345Y-106489838D01*
X134418236Y-106479942D01*
X134418464Y-106479880D01*
X134419684Y-106479554D01*
X134453293Y-106456019D01*
X134456911Y-106453714D01*
X134492455Y-106433194D01*
X134492455Y-106433193D01*
X134499956Y-106428863D01*
X134500804Y-106430332D01*
X134548005Y-106411261D01*
X134607373Y-106426062D01*
X134615180Y-106431478D01*
X134677159Y-106479036D01*
X134677160Y-106479036D01*
X134677161Y-106479037D01*
X134764085Y-106515042D01*
X134823238Y-106539544D01*
X134940809Y-106555022D01*
X134979999Y-106560182D01*
X134980000Y-106560182D01*
X134980001Y-106560182D01*
X135011352Y-106556054D01*
X135136762Y-106539544D01*
X135282841Y-106479036D01*
X135408282Y-106382782D01*
X135504536Y-106257341D01*
X135565044Y-106111262D01*
X135585682Y-105954500D01*
X135585322Y-105951769D01*
X135571919Y-105849957D01*
X135565044Y-105797738D01*
X135536986Y-105729999D01*
X135521406Y-105692385D01*
X135516605Y-105631389D01*
X135548575Y-105579220D01*
X135605103Y-105555805D01*
X135612870Y-105555500D01*
X139104666Y-105555500D01*
X139162857Y-105574407D01*
X139174670Y-105584496D01*
X139306706Y-105716532D01*
X139334483Y-105771049D01*
X139334855Y-105799457D01*
X139324318Y-105879498D01*
X139324318Y-105879500D01*
X139344955Y-106036258D01*
X139344957Y-106036266D01*
X139405462Y-106182338D01*
X139405462Y-106182339D01*
X139463013Y-106257341D01*
X139501718Y-106307782D01*
X139627159Y-106404036D01*
X139627160Y-106404036D01*
X139627161Y-106404037D01*
X139752671Y-106456025D01*
X139773238Y-106464544D01*
X139883316Y-106479036D01*
X139929999Y-106485182D01*
X139930000Y-106485182D01*
X139930001Y-106485182D01*
X139969802Y-106479942D01*
X140086762Y-106464544D01*
X140232841Y-106404036D01*
X140358282Y-106307782D01*
X140454536Y-106182341D01*
X140515044Y-106036262D01*
X140535682Y-105879500D01*
X140515044Y-105722738D01*
X140454537Y-105576661D01*
X140454537Y-105576660D01*
X140358286Y-105451223D01*
X140358285Y-105451222D01*
X140358282Y-105451218D01*
X140358277Y-105451214D01*
X140358276Y-105451213D01*
X140232838Y-105354962D01*
X140090403Y-105295964D01*
X140043877Y-105256228D01*
X140029593Y-105196733D01*
X140053008Y-105140205D01*
X140105177Y-105108235D01*
X140128288Y-105105500D01*
X144604166Y-105105500D01*
X144662357Y-105124407D01*
X144674170Y-105134496D01*
X145306706Y-105767032D01*
X145334483Y-105821549D01*
X145334855Y-105849957D01*
X145324318Y-105929998D01*
X145324318Y-105930000D01*
X145344955Y-106086758D01*
X145344957Y-106086766D01*
X145405462Y-106232838D01*
X145405462Y-106232839D01*
X145468540Y-106315044D01*
X145501718Y-106358282D01*
X145627159Y-106454536D01*
X145627160Y-106454536D01*
X145627161Y-106454537D01*
X145759281Y-106509263D01*
X145773238Y-106515044D01*
X145890809Y-106530522D01*
X145929999Y-106535682D01*
X145930000Y-106535682D01*
X145930001Y-106535682D01*
X145961352Y-106531554D01*
X146086762Y-106515044D01*
X146232841Y-106454536D01*
X146358282Y-106358282D01*
X146454536Y-106232841D01*
X146515044Y-106086762D01*
X146535682Y-105930000D01*
X146515044Y-105773238D01*
X146497134Y-105729999D01*
X146454537Y-105627161D01*
X146454537Y-105627160D01*
X146358286Y-105501723D01*
X146358285Y-105501722D01*
X146358282Y-105501718D01*
X146358277Y-105501714D01*
X146358276Y-105501713D01*
X146261116Y-105427160D01*
X146232841Y-105405464D01*
X146232840Y-105405463D01*
X146232838Y-105405462D01*
X146086766Y-105344957D01*
X146086758Y-105344955D01*
X145930001Y-105324318D01*
X145929998Y-105324318D01*
X145849957Y-105334855D01*
X145789797Y-105323705D01*
X145767032Y-105306706D01*
X145284830Y-104824504D01*
X145257053Y-104769987D01*
X145266624Y-104709555D01*
X145309889Y-104666290D01*
X145354834Y-104655500D01*
X148954166Y-104655500D01*
X149012357Y-104674407D01*
X149024170Y-104684496D01*
X150288257Y-105948584D01*
X150291175Y-105951769D01*
X150317544Y-105983193D01*
X150317545Y-105983194D01*
X150353073Y-106003706D01*
X150356712Y-106006025D01*
X150397412Y-106034523D01*
X150396739Y-106035482D01*
X150424722Y-106057939D01*
X150501718Y-106158282D01*
X150627159Y-106254536D01*
X150627160Y-106254536D01*
X150627161Y-106254537D01*
X150773233Y-106315042D01*
X150773238Y-106315044D01*
X150890809Y-106330522D01*
X150929999Y-106335682D01*
X150930000Y-106335682D01*
X150930001Y-106335682D01*
X150961352Y-106331554D01*
X151086762Y-106315044D01*
X151232841Y-106254536D01*
X151358282Y-106158282D01*
X151454536Y-106032841D01*
X151515044Y-105886762D01*
X151535682Y-105730000D01*
X151515044Y-105573238D01*
X151507697Y-105555500D01*
X151454537Y-105427161D01*
X151454537Y-105427160D01*
X151358286Y-105301723D01*
X151358285Y-105301722D01*
X151358282Y-105301718D01*
X151358277Y-105301714D01*
X151358276Y-105301713D01*
X151259234Y-105225716D01*
X151232841Y-105205464D01*
X151232840Y-105205463D01*
X151232838Y-105205462D01*
X151086766Y-105144957D01*
X151086758Y-105144955D01*
X150930001Y-105124318D01*
X150929999Y-105124318D01*
X150773241Y-105144955D01*
X150773233Y-105144957D01*
X150627161Y-105205462D01*
X150627157Y-105205464D01*
X150604728Y-105222674D01*
X150547051Y-105243096D01*
X150488386Y-105225716D01*
X150474460Y-105214134D01*
X149371741Y-104111414D01*
X149368822Y-104108229D01*
X149342456Y-104076806D01*
X149319818Y-104063736D01*
X149306918Y-104056288D01*
X149303283Y-104053972D01*
X149269684Y-104030446D01*
X149269679Y-104030443D01*
X149268224Y-104030054D01*
X149244348Y-104020164D01*
X149243045Y-104019411D01*
X149202652Y-104012289D01*
X149198436Y-104011354D01*
X149172153Y-104004312D01*
X149158807Y-104000736D01*
X149158806Y-104000736D01*
X149154381Y-104001123D01*
X149117926Y-104004312D01*
X149113626Y-104004500D01*
X134197326Y-104004500D01*
X134193025Y-104004312D01*
X134152145Y-104000736D01*
X134152139Y-104000736D01*
X134112516Y-104011353D01*
X134108301Y-104012287D01*
X134067912Y-104019410D01*
X134067900Y-104019414D01*
X134066592Y-104020170D01*
X134042738Y-104030051D01*
X134041276Y-104030442D01*
X134041268Y-104030446D01*
X134007668Y-104053972D01*
X134004032Y-104056288D01*
X133995827Y-104061025D01*
X133968497Y-104076805D01*
X133942127Y-104108231D01*
X133939209Y-104111415D01*
X133575123Y-104475503D01*
X133520606Y-104503281D01*
X133505119Y-104504500D01*
X133216117Y-104504500D01*
X133157926Y-104485593D01*
X133121962Y-104436093D01*
X133121962Y-104374907D01*
X133153312Y-104328972D01*
X133183883Y-104303883D01*
X133304162Y-104157324D01*
X133393537Y-103990115D01*
X133448573Y-103808683D01*
X133448574Y-103808678D01*
X133467157Y-103620003D01*
X133467157Y-103619996D01*
X133448574Y-103431321D01*
X133448573Y-103431319D01*
X133448573Y-103431317D01*
X133437220Y-103393891D01*
X133438421Y-103332718D01*
X133461951Y-103295151D01*
X134747608Y-102009496D01*
X134802125Y-101981719D01*
X134817612Y-101980500D01*
X135497068Y-101980500D01*
X135555259Y-101999407D01*
X135557315Y-102000943D01*
X135627159Y-102054536D01*
X135773238Y-102115044D01*
X135890809Y-102130522D01*
X135929999Y-102135682D01*
X135930000Y-102135682D01*
X135930001Y-102135682D01*
X135961352Y-102131554D01*
X136086762Y-102115044D01*
X136232841Y-102054536D01*
X136232844Y-102054534D01*
X136240115Y-102048955D01*
X136297790Y-102028529D01*
X136356456Y-102045905D01*
X136370387Y-102057491D01*
X136591588Y-102278691D01*
X136595289Y-102282832D01*
X136620121Y-102313970D01*
X136669271Y-102347480D01*
X136717118Y-102382793D01*
X136717120Y-102382793D01*
X136723677Y-102386259D01*
X136723469Y-102386651D01*
X136725450Y-102387651D01*
X136725643Y-102387253D01*
X136732324Y-102390470D01*
X136732327Y-102390472D01*
X136789177Y-102408007D01*
X136845301Y-102427646D01*
X136845305Y-102427646D01*
X136852593Y-102429026D01*
X136852510Y-102429460D01*
X136854693Y-102429830D01*
X136854759Y-102429394D01*
X136862098Y-102430500D01*
X136921573Y-102430500D01*
X136923642Y-102430577D01*
X136981010Y-102432724D01*
X136981015Y-102432722D01*
X136988385Y-102431893D01*
X136988434Y-102432331D01*
X137002344Y-102430500D01*
X139901913Y-102430500D01*
X139907459Y-102430811D01*
X139947035Y-102435270D01*
X140005479Y-102424211D01*
X140064287Y-102415348D01*
X140064294Y-102415344D01*
X140071381Y-102413159D01*
X140071512Y-102413584D01*
X140073613Y-102412892D01*
X140073467Y-102412473D01*
X140080464Y-102410024D01*
X140080472Y-102410023D01*
X140094322Y-102402702D01*
X140133072Y-102382223D01*
X140159857Y-102369323D01*
X140186642Y-102356425D01*
X140186646Y-102356421D01*
X140192778Y-102352242D01*
X140193028Y-102352609D01*
X140194832Y-102351329D01*
X140194568Y-102350971D01*
X140200529Y-102346570D01*
X140200538Y-102346566D01*
X140242599Y-102304504D01*
X140286194Y-102264055D01*
X140286198Y-102264047D01*
X140290820Y-102258253D01*
X140291166Y-102258529D01*
X140299704Y-102247398D01*
X140489612Y-102057489D01*
X140544127Y-102029713D01*
X140604559Y-102039284D01*
X140619881Y-102048952D01*
X140627157Y-102054535D01*
X140627159Y-102054536D01*
X140773238Y-102115044D01*
X140890809Y-102130522D01*
X140929999Y-102135682D01*
X140930000Y-102135682D01*
X140930001Y-102135682D01*
X140961352Y-102131554D01*
X141086762Y-102115044D01*
X141232841Y-102054536D01*
X141302665Y-102000957D01*
X141360341Y-101980534D01*
X141362932Y-101980500D01*
X146497068Y-101980500D01*
X146555259Y-101999407D01*
X146557315Y-102000943D01*
X146627159Y-102054536D01*
X146773238Y-102115044D01*
X146890809Y-102130522D01*
X146929999Y-102135682D01*
X146930000Y-102135682D01*
X146930001Y-102135682D01*
X146961352Y-102131554D01*
X147086762Y-102115044D01*
X147232841Y-102054536D01*
X147232844Y-102054534D01*
X147240115Y-102048955D01*
X147297790Y-102028529D01*
X147356456Y-102045905D01*
X147370387Y-102057491D01*
X147591588Y-102278691D01*
X147595289Y-102282832D01*
X147620121Y-102313970D01*
X147669271Y-102347480D01*
X147717118Y-102382793D01*
X147717120Y-102382793D01*
X147723677Y-102386259D01*
X147723469Y-102386651D01*
X147725450Y-102387651D01*
X147725643Y-102387253D01*
X147732324Y-102390470D01*
X147732327Y-102390472D01*
X147789177Y-102408007D01*
X147845301Y-102427646D01*
X147845305Y-102427646D01*
X147852593Y-102429026D01*
X147852510Y-102429460D01*
X147854693Y-102429830D01*
X147854759Y-102429394D01*
X147862098Y-102430500D01*
X147921573Y-102430500D01*
X147923642Y-102430577D01*
X147981010Y-102432724D01*
X147981015Y-102432722D01*
X147988385Y-102431893D01*
X147988434Y-102432331D01*
X148002344Y-102430500D01*
X150901913Y-102430500D01*
X150907459Y-102430811D01*
X150947035Y-102435270D01*
X151005479Y-102424211D01*
X151064287Y-102415348D01*
X151064294Y-102415344D01*
X151071381Y-102413159D01*
X151071512Y-102413584D01*
X151073613Y-102412892D01*
X151073467Y-102412473D01*
X151080464Y-102410024D01*
X151080472Y-102410023D01*
X151094322Y-102402702D01*
X151133072Y-102382223D01*
X151159857Y-102369323D01*
X151186642Y-102356425D01*
X151186646Y-102356421D01*
X151192778Y-102352242D01*
X151193028Y-102352609D01*
X151194832Y-102351329D01*
X151194568Y-102350971D01*
X151200529Y-102346570D01*
X151200538Y-102346566D01*
X151242599Y-102304504D01*
X151286194Y-102264055D01*
X151286198Y-102264047D01*
X151290820Y-102258253D01*
X151291166Y-102258529D01*
X151299704Y-102247398D01*
X151489612Y-102057489D01*
X151544127Y-102029713D01*
X151604559Y-102039284D01*
X151619881Y-102048952D01*
X151627157Y-102054535D01*
X151627159Y-102054536D01*
X151773238Y-102115044D01*
X151890809Y-102130522D01*
X151929999Y-102135682D01*
X151930000Y-102135682D01*
X151930001Y-102135682D01*
X151961352Y-102131554D01*
X152086762Y-102115044D01*
X152232841Y-102054536D01*
X152358282Y-101958282D01*
X152454536Y-101832841D01*
X152515044Y-101686762D01*
X152535682Y-101530000D01*
X152515044Y-101373238D01*
X152469216Y-101262600D01*
X152454537Y-101227161D01*
X152454537Y-101227160D01*
X152358286Y-101101723D01*
X152358285Y-101101722D01*
X152358282Y-101101718D01*
X152358277Y-101101714D01*
X152358276Y-101101713D01*
X152232838Y-101005462D01*
X152086766Y-100944957D01*
X152086758Y-100944955D01*
X151930001Y-100924318D01*
X151929999Y-100924318D01*
X151773241Y-100944955D01*
X151773233Y-100944957D01*
X151627161Y-101005462D01*
X151588994Y-101034748D01*
X151557334Y-101059042D01*
X151499659Y-101079466D01*
X151497068Y-101079500D01*
X151408087Y-101079500D01*
X151402541Y-101079189D01*
X151362965Y-101074730D01*
X151362961Y-101074730D01*
X151304519Y-101085788D01*
X151245714Y-101094650D01*
X151238628Y-101096837D01*
X151238498Y-101096418D01*
X151236381Y-101097115D01*
X151236526Y-101097529D01*
X151229529Y-101099976D01*
X151229528Y-101099977D01*
X151229526Y-101099977D01*
X151229526Y-101099978D01*
X151176936Y-101127773D01*
X151123357Y-101153575D01*
X151117229Y-101157754D01*
X151116982Y-101157392D01*
X151115169Y-101158678D01*
X151115430Y-101159031D01*
X151109459Y-101163437D01*
X151067413Y-101205483D01*
X151023804Y-101245945D01*
X151019181Y-101251743D01*
X151018838Y-101251469D01*
X151010293Y-101262602D01*
X150772394Y-101500503D01*
X150717877Y-101528281D01*
X150702390Y-101529500D01*
X148157611Y-101529500D01*
X148099420Y-101510593D01*
X148087607Y-101500504D01*
X147818402Y-101231298D01*
X147814700Y-101227155D01*
X147789879Y-101196030D01*
X147740728Y-101162519D01*
X147692882Y-101127207D01*
X147692879Y-101127205D01*
X147686322Y-101123740D01*
X147686526Y-101123352D01*
X147684544Y-101122352D01*
X147684355Y-101122746D01*
X147677673Y-101119528D01*
X147620822Y-101101992D01*
X147564700Y-101082354D01*
X147557414Y-101080976D01*
X147557495Y-101080544D01*
X147555302Y-101080171D01*
X147555237Y-101080605D01*
X147547903Y-101079500D01*
X147547902Y-101079500D01*
X147488427Y-101079500D01*
X147468614Y-101078758D01*
X147428990Y-101077276D01*
X147428989Y-101077276D01*
X147428988Y-101077276D01*
X147421615Y-101078107D01*
X147421565Y-101077668D01*
X147407656Y-101079500D01*
X147362932Y-101079500D01*
X147304741Y-101060593D01*
X147302684Y-101059056D01*
X147232841Y-101005464D01*
X147232840Y-101005463D01*
X147232838Y-101005462D01*
X147086766Y-100944957D01*
X147086758Y-100944955D01*
X146930001Y-100924318D01*
X146929999Y-100924318D01*
X146773241Y-100944955D01*
X146773233Y-100944957D01*
X146627161Y-101005462D01*
X146588994Y-101034748D01*
X146557334Y-101059042D01*
X146499659Y-101079466D01*
X146497068Y-101079500D01*
X141362932Y-101079500D01*
X141304741Y-101060593D01*
X141302684Y-101059056D01*
X141232841Y-101005464D01*
X141232840Y-101005463D01*
X141232838Y-101005462D01*
X141086766Y-100944957D01*
X141086758Y-100944955D01*
X140930001Y-100924318D01*
X140929999Y-100924318D01*
X140773241Y-100944955D01*
X140773233Y-100944957D01*
X140627161Y-101005462D01*
X140588994Y-101034748D01*
X140557334Y-101059042D01*
X140499659Y-101079466D01*
X140497068Y-101079500D01*
X140408087Y-101079500D01*
X140402541Y-101079189D01*
X140362965Y-101074730D01*
X140362961Y-101074730D01*
X140304519Y-101085788D01*
X140245714Y-101094650D01*
X140238628Y-101096837D01*
X140238498Y-101096418D01*
X140236381Y-101097115D01*
X140236526Y-101097529D01*
X140229529Y-101099976D01*
X140229528Y-101099977D01*
X140229526Y-101099977D01*
X140229526Y-101099978D01*
X140176936Y-101127773D01*
X140123357Y-101153575D01*
X140117229Y-101157754D01*
X140116982Y-101157392D01*
X140115169Y-101158678D01*
X140115430Y-101159031D01*
X140109459Y-101163437D01*
X140067413Y-101205483D01*
X140023804Y-101245945D01*
X140019181Y-101251743D01*
X140018838Y-101251469D01*
X140010293Y-101262602D01*
X139772394Y-101500503D01*
X139717877Y-101528281D01*
X139702390Y-101529500D01*
X137157611Y-101529500D01*
X137099420Y-101510593D01*
X137087607Y-101500504D01*
X136818402Y-101231298D01*
X136814700Y-101227155D01*
X136789879Y-101196030D01*
X136740728Y-101162519D01*
X136692882Y-101127207D01*
X136692879Y-101127205D01*
X136686322Y-101123740D01*
X136686526Y-101123352D01*
X136684544Y-101122352D01*
X136684355Y-101122746D01*
X136677673Y-101119528D01*
X136620822Y-101101992D01*
X136564700Y-101082354D01*
X136557414Y-101080976D01*
X136557495Y-101080544D01*
X136555302Y-101080171D01*
X136555237Y-101080605D01*
X136547903Y-101079500D01*
X136547902Y-101079500D01*
X136488427Y-101079500D01*
X136468614Y-101078758D01*
X136428990Y-101077276D01*
X136428989Y-101077276D01*
X136428988Y-101077276D01*
X136421615Y-101078107D01*
X136421565Y-101077668D01*
X136407656Y-101079500D01*
X136362932Y-101079500D01*
X136304741Y-101060593D01*
X136302684Y-101059056D01*
X136232841Y-101005464D01*
X136232840Y-101005463D01*
X136232838Y-101005462D01*
X136086766Y-100944957D01*
X136086758Y-100944955D01*
X135930001Y-100924318D01*
X135929999Y-100924318D01*
X135773241Y-100944955D01*
X135773233Y-100944957D01*
X135627161Y-101005462D01*
X135588994Y-101034748D01*
X135557334Y-101059042D01*
X135499659Y-101079466D01*
X135497068Y-101079500D01*
X134618087Y-101079500D01*
X134612541Y-101079189D01*
X134572965Y-101074730D01*
X134572961Y-101074730D01*
X134514519Y-101085788D01*
X134455714Y-101094650D01*
X134448628Y-101096837D01*
X134448498Y-101096418D01*
X134446381Y-101097115D01*
X134446526Y-101097529D01*
X134439529Y-101099976D01*
X134439528Y-101099977D01*
X134439526Y-101099977D01*
X134439526Y-101099978D01*
X134386936Y-101127773D01*
X134333357Y-101153575D01*
X134327229Y-101157754D01*
X134326982Y-101157392D01*
X134325169Y-101158678D01*
X134325430Y-101159031D01*
X134319459Y-101163437D01*
X134277413Y-101205483D01*
X134233804Y-101245945D01*
X134229181Y-101251743D01*
X134228837Y-101251469D01*
X134220295Y-101262600D01*
X132824849Y-102658046D01*
X132770332Y-102685823D01*
X132726108Y-102682779D01*
X132688688Y-102671428D01*
X132688673Y-102671425D01*
X132500003Y-102652843D01*
X132499997Y-102652843D01*
X132311321Y-102671425D01*
X132311316Y-102671426D01*
X132129884Y-102726463D01*
X132129879Y-102726465D01*
X131962681Y-102815835D01*
X131962671Y-102815841D01*
X131816121Y-102936113D01*
X131816113Y-102936121D01*
X131695841Y-103082671D01*
X131695835Y-103082681D01*
X131606465Y-103249879D01*
X131606463Y-103249884D01*
X131551426Y-103431316D01*
X131551425Y-103431321D01*
X131537245Y-103575300D01*
X131512725Y-103631357D01*
X131459938Y-103662296D01*
X131399048Y-103656299D01*
X131368718Y-103635600D01*
X131234496Y-103501378D01*
X131206719Y-103446861D01*
X131205500Y-103431374D01*
X131205500Y-101080003D01*
X131533345Y-101080003D01*
X131551917Y-101268580D01*
X131551918Y-101268585D01*
X131606927Y-101449923D01*
X131696255Y-101617043D01*
X131696259Y-101617049D01*
X131720851Y-101647014D01*
X132143525Y-101224339D01*
X132146266Y-101235162D01*
X132215813Y-101341612D01*
X132316157Y-101419713D01*
X132358039Y-101434091D01*
X131932984Y-101859147D01*
X131962950Y-101883740D01*
X131962956Y-101883744D01*
X132130076Y-101973072D01*
X132311414Y-102028081D01*
X132311419Y-102028082D01*
X132499997Y-102046655D01*
X132500003Y-102046655D01*
X132688580Y-102028082D01*
X132688585Y-102028081D01*
X132869923Y-101973072D01*
X133037046Y-101883742D01*
X133067014Y-101859147D01*
X132643449Y-101435582D01*
X132737251Y-101384820D01*
X132823371Y-101291269D01*
X132853869Y-101221736D01*
X133279147Y-101647014D01*
X133303742Y-101617046D01*
X133393072Y-101449923D01*
X133448081Y-101268585D01*
X133448082Y-101268580D01*
X133466655Y-101080003D01*
X133466655Y-101079996D01*
X133448082Y-100891419D01*
X133448081Y-100891414D01*
X133393072Y-100710076D01*
X133303744Y-100542956D01*
X133303740Y-100542950D01*
X133293112Y-100530000D01*
X137324318Y-100530000D01*
X137344955Y-100686758D01*
X137344957Y-100686766D01*
X137405462Y-100832838D01*
X137405462Y-100832839D01*
X137491493Y-100944957D01*
X137501718Y-100958282D01*
X137627159Y-101054536D01*
X137627160Y-101054536D01*
X137627161Y-101054537D01*
X137741054Y-101101713D01*
X137773238Y-101115044D01*
X137865626Y-101127207D01*
X137929999Y-101135682D01*
X137930000Y-101135682D01*
X137930001Y-101135682D01*
X137961352Y-101131554D01*
X138086762Y-101115044D01*
X138232841Y-101054536D01*
X138358282Y-100958282D01*
X138358288Y-100958273D01*
X138359996Y-100956567D01*
X138361547Y-100955776D01*
X138363430Y-100954332D01*
X138363697Y-100954680D01*
X138414513Y-100928790D01*
X138474945Y-100938361D01*
X138500004Y-100956567D01*
X138501713Y-100958276D01*
X138501718Y-100958282D01*
X138627159Y-101054536D01*
X138627160Y-101054536D01*
X138627161Y-101054537D01*
X138741054Y-101101713D01*
X138773238Y-101115044D01*
X138865626Y-101127207D01*
X138929999Y-101135682D01*
X138930000Y-101135682D01*
X138930001Y-101135682D01*
X138961352Y-101131554D01*
X139086762Y-101115044D01*
X139232841Y-101054536D01*
X139358282Y-100958282D01*
X139454536Y-100832841D01*
X139515044Y-100686762D01*
X139535682Y-100530000D01*
X139515044Y-100373238D01*
X139454537Y-100227161D01*
X139454537Y-100227160D01*
X139400958Y-100157334D01*
X139380534Y-100099658D01*
X139380500Y-100097067D01*
X139380500Y-95757611D01*
X139399407Y-95699420D01*
X139409496Y-95687607D01*
X141637607Y-93459496D01*
X141692124Y-93431719D01*
X141707611Y-93430500D01*
X142653995Y-93430500D01*
X142659541Y-93430811D01*
X142699117Y-93435270D01*
X142757561Y-93424211D01*
X142816369Y-93415348D01*
X142816376Y-93415344D01*
X142823463Y-93413159D01*
X142823594Y-93413584D01*
X142825695Y-93412892D01*
X142825549Y-93412473D01*
X142832546Y-93410024D01*
X142832554Y-93410023D01*
X142846404Y-93402702D01*
X142885154Y-93382223D01*
X142911939Y-93369323D01*
X142938724Y-93356425D01*
X142938728Y-93356421D01*
X142944860Y-93352242D01*
X142945110Y-93352609D01*
X142946914Y-93351329D01*
X142946650Y-93350971D01*
X142952611Y-93346570D01*
X142952620Y-93346566D01*
X142994682Y-93304503D01*
X143038276Y-93264055D01*
X143038277Y-93264052D01*
X143038279Y-93264051D01*
X143042905Y-93258251D01*
X143043250Y-93258526D01*
X143051786Y-93247398D01*
X143478704Y-92820481D01*
X143482835Y-92816788D01*
X143513970Y-92791961D01*
X143547476Y-92742816D01*
X143582792Y-92694965D01*
X143582793Y-92694959D01*
X143586258Y-92688406D01*
X143586650Y-92688613D01*
X143587651Y-92686630D01*
X143587253Y-92686438D01*
X143590468Y-92679759D01*
X143590472Y-92679755D01*
X143608008Y-92622902D01*
X143627646Y-92566782D01*
X143627646Y-92566779D01*
X143629026Y-92559490D01*
X143629460Y-92559572D01*
X143629831Y-92557389D01*
X143629394Y-92557324D01*
X143630500Y-92549986D01*
X143630500Y-92490509D01*
X143631583Y-92461564D01*
X143632724Y-92431072D01*
X143632722Y-92431067D01*
X143631893Y-92423697D01*
X143632331Y-92423647D01*
X143630500Y-92409737D01*
X143630500Y-91897771D01*
X143649407Y-91839580D01*
X143650960Y-91837501D01*
X143654536Y-91832841D01*
X143715044Y-91686762D01*
X143735682Y-91530000D01*
X144124318Y-91530000D01*
X144144955Y-91686758D01*
X144144957Y-91686766D01*
X144205462Y-91832838D01*
X144205463Y-91832839D01*
X144205464Y-91832841D01*
X144209040Y-91837501D01*
X144229466Y-91895176D01*
X144229500Y-91897771D01*
X144229500Y-92453995D01*
X144229189Y-92459541D01*
X144224730Y-92499116D01*
X144224730Y-92499118D01*
X144235788Y-92557561D01*
X144244652Y-92616369D01*
X144246840Y-92623463D01*
X144246417Y-92623593D01*
X144247109Y-92625695D01*
X144247526Y-92625550D01*
X144249975Y-92632550D01*
X144277777Y-92685155D01*
X144303574Y-92738723D01*
X144307753Y-92744852D01*
X144307389Y-92745099D01*
X144308677Y-92746913D01*
X144309030Y-92746653D01*
X144313431Y-92752617D01*
X144355496Y-92794682D01*
X144395944Y-92838276D01*
X144401743Y-92842900D01*
X144401467Y-92843245D01*
X144412600Y-92851786D01*
X144839514Y-93278701D01*
X144843215Y-93282843D01*
X144868038Y-93313969D01*
X144868038Y-93313970D01*
X144915842Y-93346562D01*
X144917183Y-93347476D01*
X144965035Y-93382792D01*
X144965040Y-93382793D01*
X144971594Y-93386258D01*
X144971387Y-93386648D01*
X144973370Y-93387648D01*
X144973561Y-93387253D01*
X144980242Y-93390470D01*
X144980245Y-93390472D01*
X145037097Y-93408008D01*
X145093217Y-93427646D01*
X145100510Y-93429026D01*
X145100427Y-93429460D01*
X145102615Y-93429831D01*
X145102681Y-93429394D01*
X145110014Y-93430499D01*
X145110016Y-93430500D01*
X145169490Y-93430500D01*
X145171633Y-93430580D01*
X145228928Y-93432724D01*
X145228934Y-93432722D01*
X145236303Y-93431893D01*
X145236352Y-93432331D01*
X145250262Y-93430500D01*
X145952388Y-93430500D01*
X146010579Y-93449407D01*
X146022392Y-93459496D01*
X148450504Y-95887607D01*
X148478281Y-95942124D01*
X148479500Y-95957611D01*
X148479500Y-100097067D01*
X148460593Y-100155258D01*
X148459042Y-100157334D01*
X148405462Y-100227160D01*
X148405462Y-100227161D01*
X148344957Y-100373233D01*
X148344955Y-100373241D01*
X148324318Y-100529999D01*
X148324318Y-100530000D01*
X148344955Y-100686758D01*
X148344957Y-100686766D01*
X148405462Y-100832838D01*
X148405462Y-100832839D01*
X148491493Y-100944957D01*
X148501718Y-100958282D01*
X148627159Y-101054536D01*
X148627160Y-101054536D01*
X148627161Y-101054537D01*
X148741054Y-101101713D01*
X148773238Y-101115044D01*
X148865626Y-101127207D01*
X148929999Y-101135682D01*
X148930000Y-101135682D01*
X148930001Y-101135682D01*
X148961352Y-101131554D01*
X149086762Y-101115044D01*
X149232841Y-101054536D01*
X149358282Y-100958282D01*
X149358288Y-100958273D01*
X149359996Y-100956567D01*
X149361547Y-100955776D01*
X149363430Y-100954332D01*
X149363697Y-100954680D01*
X149414513Y-100928790D01*
X149474945Y-100938361D01*
X149500004Y-100956567D01*
X149501713Y-100958276D01*
X149501718Y-100958282D01*
X149627159Y-101054536D01*
X149627160Y-101054536D01*
X149627161Y-101054537D01*
X149741054Y-101101713D01*
X149773238Y-101115044D01*
X149865626Y-101127207D01*
X149929999Y-101135682D01*
X149930000Y-101135682D01*
X149930001Y-101135682D01*
X149961352Y-101131554D01*
X150086762Y-101115044D01*
X150232841Y-101054536D01*
X150358282Y-100958282D01*
X150454536Y-100832841D01*
X150515044Y-100686762D01*
X150535682Y-100530000D01*
X150515044Y-100373238D01*
X150454537Y-100227161D01*
X150454537Y-100227160D01*
X150400958Y-100157334D01*
X150380534Y-100099658D01*
X150380500Y-100097067D01*
X150380500Y-95358085D01*
X150380811Y-95352538D01*
X150385270Y-95312965D01*
X150374211Y-95254520D01*
X150365348Y-95195713D01*
X150365346Y-95195709D01*
X150363160Y-95188622D01*
X150363582Y-95188491D01*
X150362890Y-95186388D01*
X150362474Y-95186534D01*
X150360022Y-95179526D01*
X150332226Y-95126936D01*
X150306423Y-95073354D01*
X150302244Y-95067225D01*
X150302607Y-95066977D01*
X150301324Y-95065169D01*
X150300970Y-95065431D01*
X150296567Y-95059465D01*
X150296566Y-95059464D01*
X150296565Y-95059462D01*
X150254516Y-95017413D01*
X150214056Y-94973806D01*
X150208258Y-94969183D01*
X150208532Y-94968839D01*
X150197397Y-94960294D01*
X149967103Y-94730000D01*
X152124318Y-94730000D01*
X152144955Y-94886758D01*
X152144957Y-94886766D01*
X152205462Y-95032838D01*
X152205462Y-95032839D01*
X152273550Y-95121573D01*
X152301718Y-95158282D01*
X152427159Y-95254536D01*
X152573238Y-95315044D01*
X152730000Y-95335682D01*
X152810041Y-95325143D01*
X152870199Y-95336292D01*
X152892966Y-95353292D01*
X153175504Y-95635830D01*
X153203281Y-95690347D01*
X153204500Y-95705834D01*
X153204500Y-101773625D01*
X153204312Y-101777927D01*
X153200736Y-101818807D01*
X153204496Y-101832839D01*
X153211354Y-101858436D01*
X153212289Y-101862652D01*
X153219411Y-101903045D01*
X153220164Y-101904348D01*
X153230054Y-101928224D01*
X153230443Y-101929679D01*
X153230446Y-101929684D01*
X153250470Y-101958282D01*
X153253971Y-101963281D01*
X153256288Y-101966918D01*
X153260108Y-101973534D01*
X153276806Y-102002455D01*
X153308224Y-102028818D01*
X153311410Y-102031737D01*
X154439190Y-103159516D01*
X154466967Y-103214033D01*
X154463923Y-103258258D01*
X154411426Y-103431316D01*
X154411425Y-103431321D01*
X154392843Y-103619996D01*
X154392843Y-103620003D01*
X154411425Y-103808678D01*
X154411426Y-103808683D01*
X154466463Y-103990115D01*
X154466465Y-103990120D01*
X154500595Y-104053972D01*
X154555838Y-104157324D01*
X154676117Y-104303883D01*
X154822676Y-104424162D01*
X154989885Y-104513537D01*
X155116280Y-104551877D01*
X155171316Y-104568573D01*
X155171321Y-104568574D01*
X155359997Y-104587157D01*
X155360000Y-104587157D01*
X155360003Y-104587157D01*
X155548678Y-104568574D01*
X155548683Y-104568573D01*
X155730115Y-104513537D01*
X155897324Y-104424162D01*
X156043883Y-104303883D01*
X156164162Y-104157324D01*
X156253537Y-103990115D01*
X156308573Y-103808683D01*
X156308574Y-103808678D01*
X156327157Y-103620003D01*
X156327157Y-103619996D01*
X156308574Y-103431321D01*
X156308573Y-103431316D01*
X156267267Y-103295149D01*
X156253537Y-103249885D01*
X156164162Y-103082676D01*
X156043883Y-102936117D01*
X155897324Y-102815838D01*
X155857959Y-102794797D01*
X155730120Y-102726465D01*
X155730115Y-102726463D01*
X155548683Y-102671426D01*
X155548678Y-102671425D01*
X155360003Y-102652843D01*
X155359997Y-102652843D01*
X155171321Y-102671425D01*
X155171316Y-102671426D01*
X154998258Y-102723923D01*
X154937084Y-102722722D01*
X154899516Y-102699190D01*
X153884496Y-101684170D01*
X153856719Y-101629653D01*
X153855500Y-101614166D01*
X153855500Y-101080003D01*
X154392843Y-101080003D01*
X154411425Y-101268678D01*
X154411426Y-101268683D01*
X154466463Y-101450115D01*
X154466465Y-101450120D01*
X154508895Y-101529500D01*
X154555838Y-101617324D01*
X154555840Y-101617326D01*
X154555841Y-101617328D01*
X154612825Y-101686762D01*
X154676117Y-101763883D01*
X154760138Y-101832838D01*
X154793874Y-101860525D01*
X154822676Y-101884162D01*
X154989885Y-101973537D01*
X155108428Y-102009496D01*
X155171316Y-102028573D01*
X155171321Y-102028574D01*
X155359997Y-102047157D01*
X155360000Y-102047157D01*
X155360003Y-102047157D01*
X155548678Y-102028574D01*
X155548683Y-102028573D01*
X155550305Y-102028081D01*
X155730115Y-101973537D01*
X155897324Y-101884162D01*
X156043883Y-101763883D01*
X156164162Y-101617324D01*
X156253537Y-101450115D01*
X156308573Y-101268683D01*
X156308574Y-101268678D01*
X156327157Y-101080003D01*
X156327157Y-101079996D01*
X156308574Y-100891321D01*
X156308573Y-100891316D01*
X156290834Y-100832838D01*
X156253537Y-100709885D01*
X156164162Y-100542676D01*
X156043883Y-100396117D01*
X155897832Y-100276255D01*
X155897328Y-100275841D01*
X155897326Y-100275840D01*
X155897324Y-100275838D01*
X155806252Y-100227159D01*
X155730120Y-100186465D01*
X155730115Y-100186463D01*
X155548683Y-100131426D01*
X155548678Y-100131425D01*
X155360003Y-100112843D01*
X155359997Y-100112843D01*
X155171321Y-100131425D01*
X155171316Y-100131426D01*
X154989884Y-100186463D01*
X154989879Y-100186465D01*
X154822681Y-100275835D01*
X154822671Y-100275841D01*
X154676121Y-100396113D01*
X154676113Y-100396121D01*
X154555841Y-100542671D01*
X154555835Y-100542681D01*
X154466465Y-100709879D01*
X154466463Y-100709884D01*
X154411426Y-100891316D01*
X154411425Y-100891321D01*
X154392843Y-101079996D01*
X154392843Y-101080003D01*
X153855500Y-101080003D01*
X153855500Y-98540003D01*
X154392843Y-98540003D01*
X154411425Y-98728678D01*
X154411426Y-98728683D01*
X154466463Y-98910115D01*
X154466465Y-98910120D01*
X154470587Y-98917831D01*
X154555838Y-99077324D01*
X154555840Y-99077326D01*
X154555841Y-99077328D01*
X154586615Y-99114826D01*
X154676117Y-99223883D01*
X154822676Y-99344162D01*
X154989885Y-99433537D01*
X155116280Y-99471877D01*
X155171316Y-99488573D01*
X155171321Y-99488574D01*
X155359997Y-99507157D01*
X155360000Y-99507157D01*
X155360003Y-99507157D01*
X155548678Y-99488574D01*
X155548683Y-99488573D01*
X155730115Y-99433537D01*
X155897324Y-99344162D01*
X156043883Y-99223883D01*
X156164162Y-99077324D01*
X156253537Y-98910115D01*
X156308573Y-98728683D01*
X156308574Y-98728678D01*
X156327157Y-98540003D01*
X156327157Y-98539996D01*
X156308574Y-98351321D01*
X156308573Y-98351316D01*
X156282454Y-98265212D01*
X156253537Y-98169885D01*
X156164162Y-98002676D01*
X156043883Y-97856117D01*
X155897324Y-97735838D01*
X155857959Y-97714797D01*
X155730120Y-97646465D01*
X155730115Y-97646463D01*
X155548683Y-97591426D01*
X155548678Y-97591425D01*
X155360003Y-97572843D01*
X155359997Y-97572843D01*
X155171321Y-97591425D01*
X155171316Y-97591426D01*
X154989884Y-97646463D01*
X154989879Y-97646465D01*
X154822681Y-97735835D01*
X154822671Y-97735841D01*
X154676121Y-97856113D01*
X154676113Y-97856121D01*
X154555841Y-98002671D01*
X154555835Y-98002681D01*
X154466465Y-98169879D01*
X154466463Y-98169884D01*
X154411426Y-98351316D01*
X154411425Y-98351321D01*
X154392843Y-98539996D01*
X154392843Y-98540003D01*
X153855500Y-98540003D01*
X153855500Y-96000003D01*
X154392843Y-96000003D01*
X154411425Y-96188678D01*
X154411426Y-96188683D01*
X154466463Y-96370115D01*
X154466465Y-96370120D01*
X154470587Y-96377831D01*
X154555838Y-96537324D01*
X154676117Y-96683883D01*
X154822676Y-96804162D01*
X154989885Y-96893537D01*
X155116280Y-96931877D01*
X155171316Y-96948573D01*
X155171321Y-96948574D01*
X155359997Y-96967157D01*
X155360000Y-96967157D01*
X155360003Y-96967157D01*
X155548678Y-96948574D01*
X155548683Y-96948573D01*
X155551749Y-96947643D01*
X155730115Y-96893537D01*
X155897324Y-96804162D01*
X156043883Y-96683883D01*
X156164162Y-96537324D01*
X156253537Y-96370115D01*
X156308573Y-96188683D01*
X156308574Y-96188678D01*
X156327157Y-96000003D01*
X156327157Y-95999996D01*
X156308574Y-95811321D01*
X156308573Y-95811316D01*
X156279842Y-95716603D01*
X156253537Y-95629885D01*
X156164162Y-95462676D01*
X156043883Y-95316117D01*
X155897324Y-95195838D01*
X155827062Y-95158282D01*
X155730120Y-95106465D01*
X155730115Y-95106463D01*
X155548683Y-95051426D01*
X155548678Y-95051425D01*
X155360003Y-95032843D01*
X155359997Y-95032843D01*
X155171321Y-95051425D01*
X155171316Y-95051426D01*
X154989884Y-95106463D01*
X154989879Y-95106465D01*
X154822681Y-95195835D01*
X154822671Y-95195841D01*
X154676121Y-95316113D01*
X154676113Y-95316121D01*
X154555841Y-95462671D01*
X154555835Y-95462681D01*
X154466465Y-95629879D01*
X154466463Y-95629884D01*
X154411426Y-95811316D01*
X154411425Y-95811321D01*
X154392843Y-95999996D01*
X154392843Y-96000003D01*
X153855500Y-96000003D01*
X153855500Y-95546373D01*
X153855687Y-95542072D01*
X153859264Y-95501193D01*
X153848640Y-95461548D01*
X153847710Y-95457348D01*
X153845586Y-95445301D01*
X153840588Y-95416955D01*
X153839840Y-95415659D01*
X153829942Y-95391767D01*
X153829554Y-95390316D01*
X153829552Y-95390313D01*
X153829551Y-95390311D01*
X153806025Y-95356712D01*
X153803703Y-95353068D01*
X153783193Y-95317543D01*
X153762069Y-95299819D01*
X153751765Y-95291173D01*
X153748588Y-95288261D01*
X153353292Y-94892966D01*
X153325515Y-94838449D01*
X153325143Y-94810046D01*
X153335682Y-94730000D01*
X153315044Y-94573238D01*
X153254537Y-94427161D01*
X153254537Y-94427160D01*
X153158286Y-94301723D01*
X153158285Y-94301722D01*
X153158282Y-94301718D01*
X153158277Y-94301714D01*
X153158276Y-94301713D01*
X153032838Y-94205462D01*
X152886766Y-94144957D01*
X152886758Y-94144955D01*
X152730001Y-94124318D01*
X152729999Y-94124318D01*
X152573241Y-94144955D01*
X152573233Y-94144957D01*
X152427161Y-94205462D01*
X152427160Y-94205462D01*
X152301723Y-94301713D01*
X152301713Y-94301723D01*
X152205462Y-94427160D01*
X152205462Y-94427161D01*
X152144957Y-94573233D01*
X152144955Y-94573241D01*
X152124318Y-94729999D01*
X152124318Y-94730000D01*
X149967103Y-94730000D01*
X148697106Y-93460003D01*
X154392843Y-93460003D01*
X154411425Y-93648678D01*
X154411426Y-93648683D01*
X154466463Y-93830115D01*
X154466465Y-93830120D01*
X154470587Y-93837831D01*
X154555838Y-93997324D01*
X154676117Y-94143883D01*
X154822676Y-94264162D01*
X154989885Y-94353537D01*
X155116280Y-94391877D01*
X155171316Y-94408573D01*
X155171321Y-94408574D01*
X155359997Y-94427157D01*
X155360000Y-94427157D01*
X155360003Y-94427157D01*
X155548678Y-94408574D01*
X155548683Y-94408573D01*
X155730115Y-94353537D01*
X155897324Y-94264162D01*
X156043883Y-94143883D01*
X156164162Y-93997324D01*
X156253537Y-93830115D01*
X156308573Y-93648683D01*
X156308574Y-93648678D01*
X156327157Y-93460003D01*
X156327157Y-93459996D01*
X156308574Y-93271321D01*
X156308573Y-93271316D01*
X156282454Y-93185212D01*
X156253537Y-93089885D01*
X156164162Y-92922676D01*
X156043883Y-92776117D01*
X155933047Y-92685155D01*
X155897328Y-92655841D01*
X155897326Y-92655840D01*
X155897324Y-92655838D01*
X155853755Y-92632550D01*
X155730120Y-92566465D01*
X155730115Y-92566463D01*
X155548683Y-92511426D01*
X155548678Y-92511425D01*
X155360003Y-92492843D01*
X155359997Y-92492843D01*
X155171321Y-92511425D01*
X155171316Y-92511426D01*
X154989884Y-92566463D01*
X154989879Y-92566465D01*
X154822681Y-92655835D01*
X154822671Y-92655841D01*
X154676121Y-92776113D01*
X154676113Y-92776121D01*
X154555841Y-92922671D01*
X154555835Y-92922681D01*
X154466465Y-93089879D01*
X154466463Y-93089884D01*
X154411426Y-93271316D01*
X154411425Y-93271321D01*
X154392843Y-93459996D01*
X154392843Y-93460003D01*
X148697106Y-93460003D01*
X147068402Y-91831298D01*
X147064700Y-91827155D01*
X147053840Y-91813537D01*
X147039879Y-91796030D01*
X146990728Y-91762519D01*
X146942882Y-91727207D01*
X146942879Y-91727205D01*
X146936322Y-91723740D01*
X146936526Y-91723352D01*
X146934544Y-91722352D01*
X146934355Y-91722746D01*
X146927673Y-91719528D01*
X146870822Y-91701992D01*
X146814700Y-91682354D01*
X146807414Y-91680976D01*
X146807495Y-91680544D01*
X146805302Y-91680171D01*
X146805237Y-91680605D01*
X146797903Y-91679500D01*
X146797902Y-91679500D01*
X146738427Y-91679500D01*
X146718614Y-91678758D01*
X146678990Y-91677276D01*
X146678989Y-91677276D01*
X146678988Y-91677276D01*
X146671615Y-91678107D01*
X146671565Y-91677668D01*
X146657656Y-91679500D01*
X145962932Y-91679500D01*
X145904741Y-91660593D01*
X145902684Y-91659056D01*
X145832841Y-91605464D01*
X145832840Y-91605463D01*
X145832838Y-91605462D01*
X145686766Y-91544957D01*
X145686758Y-91544955D01*
X145530001Y-91524318D01*
X145529999Y-91524318D01*
X145436410Y-91536639D01*
X145376249Y-91525489D01*
X145334132Y-91481106D01*
X145325335Y-91451408D01*
X145315044Y-91373240D01*
X145315044Y-91373238D01*
X145254537Y-91227161D01*
X145254537Y-91227160D01*
X145158286Y-91101723D01*
X145158285Y-91101722D01*
X145158282Y-91101718D01*
X145158277Y-91101714D01*
X145158276Y-91101713D01*
X145032838Y-91005462D01*
X144886766Y-90944957D01*
X144886758Y-90944955D01*
X144730001Y-90924318D01*
X144729999Y-90924318D01*
X144573241Y-90944955D01*
X144573233Y-90944957D01*
X144427161Y-91005462D01*
X144427160Y-91005462D01*
X144301723Y-91101713D01*
X144301713Y-91101723D01*
X144205462Y-91227160D01*
X144205462Y-91227161D01*
X144144957Y-91373233D01*
X144144955Y-91373241D01*
X144124318Y-91529999D01*
X144124318Y-91530000D01*
X143735682Y-91530000D01*
X143715044Y-91373238D01*
X143654537Y-91227161D01*
X143654537Y-91227160D01*
X143558286Y-91101723D01*
X143558285Y-91101722D01*
X143558282Y-91101718D01*
X143558277Y-91101714D01*
X143558276Y-91101713D01*
X143432838Y-91005462D01*
X143286766Y-90944957D01*
X143286758Y-90944955D01*
X143130001Y-90924318D01*
X143129999Y-90924318D01*
X142973241Y-90944955D01*
X142973233Y-90944957D01*
X142827161Y-91005462D01*
X142827160Y-91005462D01*
X142701723Y-91101713D01*
X142701713Y-91101723D01*
X142605462Y-91227160D01*
X142605462Y-91227161D01*
X142544957Y-91373233D01*
X142544955Y-91373240D01*
X142534664Y-91451409D01*
X142508322Y-91506634D01*
X142454551Y-91535828D01*
X142423589Y-91536639D01*
X142330001Y-91524318D01*
X142329999Y-91524318D01*
X142173241Y-91544955D01*
X142173233Y-91544957D01*
X142027161Y-91605462D01*
X141988994Y-91634748D01*
X141957334Y-91659042D01*
X141899659Y-91679466D01*
X141897068Y-91679500D01*
X140958087Y-91679500D01*
X140952541Y-91679189D01*
X140912966Y-91674730D01*
X140912961Y-91674730D01*
X140854510Y-91685789D01*
X140795714Y-91694651D01*
X140788632Y-91696836D01*
X140788503Y-91696418D01*
X140786386Y-91697114D01*
X140786531Y-91697526D01*
X140779528Y-91699976D01*
X140775714Y-91701992D01*
X140726926Y-91727777D01*
X140691647Y-91744766D01*
X140673359Y-91753574D01*
X140667233Y-91757751D01*
X140666987Y-91757391D01*
X140665172Y-91758679D01*
X140665430Y-91759029D01*
X140659464Y-91763432D01*
X140617413Y-91805483D01*
X140573804Y-91845945D01*
X140569181Y-91851743D01*
X140568837Y-91851469D01*
X140560295Y-91862600D01*
X137631301Y-94791593D01*
X137627160Y-94795294D01*
X137596031Y-94820119D01*
X137562519Y-94869271D01*
X137527207Y-94917116D01*
X137523742Y-94923674D01*
X137523353Y-94923468D01*
X137522350Y-94925455D01*
X137522746Y-94925646D01*
X137519528Y-94932327D01*
X137501992Y-94989177D01*
X137482355Y-95045297D01*
X137480976Y-95052587D01*
X137480544Y-95052505D01*
X137480171Y-95054700D01*
X137480605Y-95054766D01*
X137479500Y-95062099D01*
X137479500Y-95121572D01*
X137477276Y-95181010D01*
X137478107Y-95188385D01*
X137477668Y-95188434D01*
X137479500Y-95202344D01*
X137479500Y-100097067D01*
X137460593Y-100155258D01*
X137459042Y-100157334D01*
X137405462Y-100227160D01*
X137405462Y-100227161D01*
X137344957Y-100373233D01*
X137344955Y-100373241D01*
X137324318Y-100529999D01*
X137324318Y-100530000D01*
X133293112Y-100530000D01*
X133279147Y-100512984D01*
X132856473Y-100935657D01*
X132853734Y-100924838D01*
X132784187Y-100818388D01*
X132683843Y-100740287D01*
X132641957Y-100725907D01*
X133067014Y-100300851D01*
X133067015Y-100300851D01*
X133037049Y-100276259D01*
X133037043Y-100276255D01*
X132869923Y-100186927D01*
X132688585Y-100131918D01*
X132688580Y-100131917D01*
X132500003Y-100113345D01*
X132499997Y-100113345D01*
X132311419Y-100131917D01*
X132311414Y-100131918D01*
X132130076Y-100186927D01*
X132130071Y-100186929D01*
X131962961Y-100276252D01*
X131962951Y-100276258D01*
X131932984Y-100300851D01*
X132356550Y-100724417D01*
X132262749Y-100775180D01*
X132176629Y-100868731D01*
X132146130Y-100938263D01*
X131720851Y-100512984D01*
X131696258Y-100542951D01*
X131696252Y-100542961D01*
X131606929Y-100710071D01*
X131606927Y-100710076D01*
X131551918Y-100891414D01*
X131551917Y-100891419D01*
X131533345Y-101079996D01*
X131533345Y-101080003D01*
X131205500Y-101080003D01*
X131205500Y-99155834D01*
X131224407Y-99097643D01*
X131234496Y-99085830D01*
X131425830Y-98894496D01*
X131480347Y-98866719D01*
X131495834Y-98865500D01*
X131523277Y-98865500D01*
X131581468Y-98884407D01*
X131610587Y-98917831D01*
X131695837Y-99077322D01*
X131695841Y-99077328D01*
X131726615Y-99114826D01*
X131816117Y-99223883D01*
X131962676Y-99344162D01*
X132129885Y-99433537D01*
X132256280Y-99471877D01*
X132311316Y-99488573D01*
X132311321Y-99488574D01*
X132499997Y-99507157D01*
X132500000Y-99507157D01*
X132500003Y-99507157D01*
X132688678Y-99488574D01*
X132688683Y-99488573D01*
X132870115Y-99433537D01*
X133037324Y-99344162D01*
X133183883Y-99223883D01*
X133304162Y-99077324D01*
X133393537Y-98910115D01*
X133448573Y-98728683D01*
X133448574Y-98728678D01*
X133467157Y-98540003D01*
X133467157Y-98539996D01*
X133448574Y-98351321D01*
X133448573Y-98351316D01*
X133422454Y-98265212D01*
X133393537Y-98169885D01*
X133304162Y-98002676D01*
X133183883Y-97856117D01*
X133037324Y-97735838D01*
X132997959Y-97714797D01*
X132870120Y-97646465D01*
X132870115Y-97646463D01*
X132688683Y-97591426D01*
X132688678Y-97591425D01*
X132500003Y-97572843D01*
X132499997Y-97572843D01*
X132311321Y-97591425D01*
X132311316Y-97591426D01*
X132129884Y-97646463D01*
X132129879Y-97646465D01*
X131962681Y-97735835D01*
X131962671Y-97735841D01*
X131816121Y-97856113D01*
X131816113Y-97856121D01*
X131695841Y-98002671D01*
X131695837Y-98002677D01*
X131610587Y-98162169D01*
X131566481Y-98204575D01*
X131523277Y-98214500D01*
X131336374Y-98214500D01*
X131332073Y-98214312D01*
X131291193Y-98210736D01*
X131291187Y-98210736D01*
X131251564Y-98221353D01*
X131247349Y-98222287D01*
X131206960Y-98229410D01*
X131206948Y-98229414D01*
X131205640Y-98230170D01*
X131181786Y-98240051D01*
X131180324Y-98240442D01*
X131180316Y-98240446D01*
X131146716Y-98263972D01*
X131143080Y-98266288D01*
X131134875Y-98271025D01*
X131107545Y-98286805D01*
X131081175Y-98318231D01*
X131078257Y-98321415D01*
X130924504Y-98475169D01*
X130869987Y-98502947D01*
X130809555Y-98493376D01*
X130766291Y-98450111D01*
X130755500Y-98405166D01*
X130755500Y-97005834D01*
X130774407Y-96947643D01*
X130784496Y-96935830D01*
X131365831Y-96354496D01*
X131420348Y-96326719D01*
X131435835Y-96325500D01*
X131523277Y-96325500D01*
X131581468Y-96344407D01*
X131610587Y-96377831D01*
X131695838Y-96537324D01*
X131816117Y-96683883D01*
X131962676Y-96804162D01*
X132129885Y-96893537D01*
X132256280Y-96931877D01*
X132311316Y-96948573D01*
X132311321Y-96948574D01*
X132499997Y-96967157D01*
X132500000Y-96967157D01*
X132500003Y-96967157D01*
X132688678Y-96948574D01*
X132688683Y-96948573D01*
X132691749Y-96947643D01*
X132870115Y-96893537D01*
X133037324Y-96804162D01*
X133183883Y-96683883D01*
X133304162Y-96537324D01*
X133393537Y-96370115D01*
X133448573Y-96188683D01*
X133448574Y-96188678D01*
X133467157Y-96000003D01*
X133467157Y-95999996D01*
X133448574Y-95811321D01*
X133448573Y-95811316D01*
X133419842Y-95716603D01*
X133393537Y-95629885D01*
X133304162Y-95462676D01*
X133183883Y-95316117D01*
X133037324Y-95195838D01*
X132967062Y-95158282D01*
X132870120Y-95106465D01*
X132870115Y-95106463D01*
X132688683Y-95051426D01*
X132688678Y-95051425D01*
X132500003Y-95032843D01*
X132499997Y-95032843D01*
X132311321Y-95051425D01*
X132311316Y-95051426D01*
X132129884Y-95106463D01*
X132129879Y-95106465D01*
X131962681Y-95195835D01*
X131962671Y-95195841D01*
X131816121Y-95316113D01*
X131816113Y-95316121D01*
X131695841Y-95462671D01*
X131695837Y-95462677D01*
X131610587Y-95622169D01*
X131566481Y-95664575D01*
X131523277Y-95674500D01*
X131276366Y-95674500D01*
X131272065Y-95674312D01*
X131235726Y-95671133D01*
X131231194Y-95670737D01*
X131231189Y-95670737D01*
X131191570Y-95681353D01*
X131187354Y-95682288D01*
X131146956Y-95689411D01*
X131146948Y-95689414D01*
X131145640Y-95690170D01*
X131121786Y-95700051D01*
X131120324Y-95700442D01*
X131120314Y-95700447D01*
X131086716Y-95723971D01*
X131083075Y-95726290D01*
X131047545Y-95746804D01*
X131021186Y-95778218D01*
X131018268Y-95781402D01*
X130474504Y-96325168D01*
X130419987Y-96352945D01*
X130359555Y-96343374D01*
X130316290Y-96300109D01*
X130305500Y-96255164D01*
X130305500Y-94655834D01*
X130324407Y-94597643D01*
X130334496Y-94585830D01*
X131105830Y-93814496D01*
X131160347Y-93786719D01*
X131175834Y-93785500D01*
X131523277Y-93785500D01*
X131581468Y-93804407D01*
X131610587Y-93837831D01*
X131695838Y-93997324D01*
X131816117Y-94143883D01*
X131962676Y-94264162D01*
X132129885Y-94353537D01*
X132256280Y-94391877D01*
X132311316Y-94408573D01*
X132311321Y-94408574D01*
X132499997Y-94427157D01*
X132500000Y-94427157D01*
X132500003Y-94427157D01*
X132688678Y-94408574D01*
X132688683Y-94408573D01*
X132870115Y-94353537D01*
X133037324Y-94264162D01*
X133183883Y-94143883D01*
X133304162Y-93997324D01*
X133393537Y-93830115D01*
X133448573Y-93648683D01*
X133448574Y-93648678D01*
X133467157Y-93460003D01*
X133467157Y-93459996D01*
X133448574Y-93271321D01*
X133448573Y-93271316D01*
X133422454Y-93185212D01*
X133393537Y-93089885D01*
X133304162Y-92922676D01*
X133183883Y-92776117D01*
X133073047Y-92685155D01*
X133037328Y-92655841D01*
X133037326Y-92655840D01*
X133037324Y-92655838D01*
X132993755Y-92632550D01*
X132870120Y-92566465D01*
X132870115Y-92566463D01*
X132688683Y-92511426D01*
X132688678Y-92511425D01*
X132500003Y-92492843D01*
X132499997Y-92492843D01*
X132311321Y-92511425D01*
X132311316Y-92511426D01*
X132129884Y-92566463D01*
X132129879Y-92566465D01*
X131962681Y-92655835D01*
X131962671Y-92655841D01*
X131816121Y-92776113D01*
X131816113Y-92776121D01*
X131695841Y-92922671D01*
X131695837Y-92922677D01*
X131610587Y-93082169D01*
X131566481Y-93124575D01*
X131523277Y-93134500D01*
X131016374Y-93134500D01*
X131012073Y-93134312D01*
X130971193Y-93130736D01*
X130971187Y-93130736D01*
X130931564Y-93141353D01*
X130927349Y-93142287D01*
X130886960Y-93149410D01*
X130886948Y-93149414D01*
X130885640Y-93150170D01*
X130861786Y-93160051D01*
X130860324Y-93160442D01*
X130860316Y-93160446D01*
X130826716Y-93183972D01*
X130823080Y-93186288D01*
X130814875Y-93191025D01*
X130787545Y-93206805D01*
X130761181Y-93238224D01*
X130758263Y-93241408D01*
X130024504Y-93975169D01*
X129969987Y-94002946D01*
X129909555Y-93993375D01*
X129866290Y-93950110D01*
X129855500Y-93905165D01*
X129855500Y-92705834D01*
X129874407Y-92647643D01*
X129884496Y-92635830D01*
X131245830Y-91274496D01*
X131300347Y-91246719D01*
X131315834Y-91245500D01*
X131523277Y-91245500D01*
X131581468Y-91264407D01*
X131610587Y-91297831D01*
X131695837Y-91457322D01*
X131695841Y-91457328D01*
X131736306Y-91506634D01*
X131816117Y-91603883D01*
X131883328Y-91659042D01*
X131960950Y-91722746D01*
X131962676Y-91724162D01*
X132036149Y-91763434D01*
X132097133Y-91796031D01*
X132129885Y-91813537D01*
X132254932Y-91851469D01*
X132311316Y-91868573D01*
X132311321Y-91868574D01*
X132499997Y-91887157D01*
X132500000Y-91887157D01*
X132500003Y-91887157D01*
X132688678Y-91868574D01*
X132688683Y-91868573D01*
X132703214Y-91864165D01*
X132870115Y-91813537D01*
X133037324Y-91724162D01*
X133183883Y-91603883D01*
X133304162Y-91457324D01*
X133393537Y-91290115D01*
X133448573Y-91108683D01*
X133448574Y-91108678D01*
X133467157Y-90920003D01*
X154392843Y-90920003D01*
X154411425Y-91108678D01*
X154411426Y-91108683D01*
X154466463Y-91290115D01*
X154466465Y-91290120D01*
X154470587Y-91297831D01*
X154555838Y-91457324D01*
X154555840Y-91457326D01*
X154555841Y-91457328D01*
X154596306Y-91506634D01*
X154676117Y-91603883D01*
X154743328Y-91659042D01*
X154820950Y-91722746D01*
X154822676Y-91724162D01*
X154896149Y-91763434D01*
X154957133Y-91796031D01*
X154989885Y-91813537D01*
X155114932Y-91851469D01*
X155171316Y-91868573D01*
X155171321Y-91868574D01*
X155359997Y-91887157D01*
X155360000Y-91887157D01*
X155360003Y-91887157D01*
X155548678Y-91868574D01*
X155548683Y-91868573D01*
X155563214Y-91864165D01*
X155730115Y-91813537D01*
X155897324Y-91724162D01*
X156043883Y-91603883D01*
X156164162Y-91457324D01*
X156253537Y-91290115D01*
X156308573Y-91108683D01*
X156308574Y-91108678D01*
X156327157Y-90920003D01*
X156327157Y-90919996D01*
X156308574Y-90731321D01*
X156308573Y-90731316D01*
X156282454Y-90645212D01*
X156253537Y-90549885D01*
X156164162Y-90382676D01*
X156043883Y-90236117D01*
X155897324Y-90115838D01*
X155857959Y-90094797D01*
X155730120Y-90026465D01*
X155730115Y-90026463D01*
X155548683Y-89971426D01*
X155548678Y-89971425D01*
X155360003Y-89952843D01*
X155359997Y-89952843D01*
X155171321Y-89971425D01*
X155171316Y-89971426D01*
X154989884Y-90026463D01*
X154989879Y-90026465D01*
X154822681Y-90115835D01*
X154822671Y-90115841D01*
X154676121Y-90236113D01*
X154676113Y-90236121D01*
X154555841Y-90382671D01*
X154555835Y-90382681D01*
X154466465Y-90549879D01*
X154466463Y-90549884D01*
X154411426Y-90731316D01*
X154411425Y-90731321D01*
X154392843Y-90919996D01*
X154392843Y-90920003D01*
X133467157Y-90920003D01*
X133467157Y-90919996D01*
X133448574Y-90731321D01*
X133448573Y-90731316D01*
X133422454Y-90645212D01*
X133393537Y-90549885D01*
X133304162Y-90382676D01*
X133183883Y-90236117D01*
X133037324Y-90115838D01*
X132997959Y-90094797D01*
X132870120Y-90026465D01*
X132870115Y-90026463D01*
X132688683Y-89971426D01*
X132688678Y-89971425D01*
X132500003Y-89952843D01*
X132499997Y-89952843D01*
X132311321Y-89971425D01*
X132311316Y-89971426D01*
X132129884Y-90026463D01*
X132129879Y-90026465D01*
X131962681Y-90115835D01*
X131962671Y-90115841D01*
X131816121Y-90236113D01*
X131816113Y-90236121D01*
X131695841Y-90382671D01*
X131695837Y-90382677D01*
X131610587Y-90542169D01*
X131566481Y-90584575D01*
X131523277Y-90594500D01*
X131156374Y-90594500D01*
X131152073Y-90594312D01*
X131111193Y-90590736D01*
X131111187Y-90590736D01*
X131071564Y-90601353D01*
X131067349Y-90602287D01*
X131026960Y-90609410D01*
X131026948Y-90609414D01*
X131025640Y-90610170D01*
X131001786Y-90620051D01*
X131000324Y-90620442D01*
X131000316Y-90620446D01*
X130966716Y-90643972D01*
X130963080Y-90646288D01*
X130954875Y-90651025D01*
X130927545Y-90666805D01*
X130901181Y-90698224D01*
X130898263Y-90701408D01*
X129311413Y-92288259D01*
X129308229Y-92291176D01*
X129276807Y-92317542D01*
X129276806Y-92317544D01*
X129256292Y-92353075D01*
X129253972Y-92356716D01*
X129230446Y-92390316D01*
X129230442Y-92390324D01*
X129230051Y-92391786D01*
X129220170Y-92415640D01*
X129219414Y-92416948D01*
X129219410Y-92416960D01*
X129212287Y-92457349D01*
X129211353Y-92461564D01*
X129200736Y-92501187D01*
X129200736Y-92501193D01*
X129204312Y-92542072D01*
X129204500Y-92546373D01*
X129204500Y-104150021D01*
X129204312Y-104154323D01*
X129204050Y-104157328D01*
X129200736Y-104195202D01*
X125930500Y-104195202D01*
X125930500Y-88380003D01*
X131532843Y-88380003D01*
X131551425Y-88568678D01*
X131551426Y-88568683D01*
X131606463Y-88750115D01*
X131606465Y-88750120D01*
X131674797Y-88877959D01*
X131695838Y-88917324D01*
X131816117Y-89063883D01*
X131962676Y-89184162D01*
X132129885Y-89273537D01*
X132256280Y-89311877D01*
X132311316Y-89328573D01*
X132311321Y-89328574D01*
X132499997Y-89347157D01*
X132500000Y-89347157D01*
X132500003Y-89347157D01*
X132688678Y-89328574D01*
X132688683Y-89328573D01*
X132870115Y-89273537D01*
X133037324Y-89184162D01*
X133183883Y-89063883D01*
X133304162Y-88917324D01*
X133393537Y-88750115D01*
X133448573Y-88568683D01*
X133448574Y-88568678D01*
X133467157Y-88380003D01*
X154392843Y-88380003D01*
X154411425Y-88568678D01*
X154411426Y-88568683D01*
X154466463Y-88750115D01*
X154466465Y-88750120D01*
X154534797Y-88877959D01*
X154555838Y-88917324D01*
X154676117Y-89063883D01*
X154822676Y-89184162D01*
X154989885Y-89273537D01*
X155116280Y-89311877D01*
X155171316Y-89328573D01*
X155171321Y-89328574D01*
X155359997Y-89347157D01*
X155360000Y-89347157D01*
X155360003Y-89347157D01*
X155548678Y-89328574D01*
X155548683Y-89328573D01*
X155730115Y-89273537D01*
X155897324Y-89184162D01*
X156043883Y-89063883D01*
X156164162Y-88917324D01*
X156253537Y-88750115D01*
X156308573Y-88568683D01*
X156308574Y-88568678D01*
X156327157Y-88380003D01*
X156327157Y-88379996D01*
X156308574Y-88191321D01*
X156308573Y-88191316D01*
X156291877Y-88136280D01*
X156253537Y-88009885D01*
X156164162Y-87842676D01*
X156043883Y-87696117D01*
X155897324Y-87575838D01*
X155857959Y-87554797D01*
X155730120Y-87486465D01*
X155730115Y-87486463D01*
X155548683Y-87431426D01*
X155548678Y-87431425D01*
X155360003Y-87412843D01*
X155359997Y-87412843D01*
X155171321Y-87431425D01*
X155171316Y-87431426D01*
X154989884Y-87486463D01*
X154989879Y-87486465D01*
X154822681Y-87575835D01*
X154822671Y-87575841D01*
X154676121Y-87696113D01*
X154676113Y-87696121D01*
X154555841Y-87842671D01*
X154555835Y-87842681D01*
X154466465Y-88009879D01*
X154466463Y-88009884D01*
X154411426Y-88191316D01*
X154411425Y-88191321D01*
X154392843Y-88379996D01*
X154392843Y-88380003D01*
X133467157Y-88380003D01*
X133467157Y-88379996D01*
X133448574Y-88191321D01*
X133448573Y-88191316D01*
X133431877Y-88136280D01*
X133393537Y-88009885D01*
X133304162Y-87842676D01*
X133183883Y-87696117D01*
X133037324Y-87575838D01*
X132997959Y-87554797D01*
X132870120Y-87486465D01*
X132870115Y-87486463D01*
X132688683Y-87431426D01*
X132688678Y-87431425D01*
X132500003Y-87412843D01*
X132499997Y-87412843D01*
X132311321Y-87431425D01*
X132311316Y-87431426D01*
X132129884Y-87486463D01*
X132129879Y-87486465D01*
X131962681Y-87575835D01*
X131962671Y-87575841D01*
X131816121Y-87696113D01*
X131816113Y-87696121D01*
X131695841Y-87842671D01*
X131695835Y-87842681D01*
X131606465Y-88009879D01*
X131606463Y-88009884D01*
X131551426Y-88191316D01*
X131551425Y-88191321D01*
X131532843Y-88379996D01*
X131532843Y-88380003D01*
X125930500Y-88380003D01*
X125930500Y-86259116D01*
X131537500Y-86259116D01*
X131552467Y-86372802D01*
X131611061Y-86514259D01*
X131704269Y-86635731D01*
X131825741Y-86728939D01*
X131967198Y-86787533D01*
X132080884Y-86802500D01*
X132080885Y-86802500D01*
X132919115Y-86802500D01*
X132919116Y-86802500D01*
X133032802Y-86787533D01*
X133174259Y-86728939D01*
X133295731Y-86635731D01*
X133388939Y-86514259D01*
X133447533Y-86372802D01*
X133462500Y-86259116D01*
X154397500Y-86259116D01*
X154412467Y-86372802D01*
X154471061Y-86514259D01*
X154564269Y-86635731D01*
X154685741Y-86728939D01*
X154827198Y-86787533D01*
X154940884Y-86802500D01*
X154940885Y-86802500D01*
X155779115Y-86802500D01*
X155779116Y-86802500D01*
X155892802Y-86787533D01*
X156034259Y-86728939D01*
X156155731Y-86635731D01*
X156248939Y-86514259D01*
X156307533Y-86372802D01*
X156322500Y-86259116D01*
X156322500Y-85420884D01*
X156307533Y-85307198D01*
X156248939Y-85165741D01*
X156155731Y-85044269D01*
X156034259Y-84951061D01*
X155892802Y-84892467D01*
X155892799Y-84892466D01*
X155892798Y-84892466D01*
X155779116Y-84877500D01*
X154940884Y-84877500D01*
X154940883Y-84877500D01*
X154827201Y-84892466D01*
X154827196Y-84892468D01*
X154685742Y-84951060D01*
X154564273Y-85044265D01*
X154564265Y-85044273D01*
X154471060Y-85165742D01*
X154412468Y-85307196D01*
X154412466Y-85307201D01*
X154397500Y-85420883D01*
X154397500Y-85420884D01*
X154397500Y-86259116D01*
X133462500Y-86259116D01*
X133462500Y-85420884D01*
X133447533Y-85307198D01*
X133388939Y-85165741D01*
X133295731Y-85044269D01*
X133174259Y-84951061D01*
X133032802Y-84892467D01*
X133032799Y-84892466D01*
X133032798Y-84892466D01*
X132919116Y-84877500D01*
X132080884Y-84877500D01*
X132080883Y-84877500D01*
X131967201Y-84892466D01*
X131967196Y-84892468D01*
X131825742Y-84951060D01*
X131704273Y-85044265D01*
X131704265Y-85044273D01*
X131611060Y-85165742D01*
X131552468Y-85307196D01*
X131552466Y-85307201D01*
X131537500Y-85420883D01*
X131537500Y-85420884D01*
X131537500Y-86259116D01*
X125930500Y-86259116D01*
X125930500Y-79731290D01*
X125930568Y-79728699D01*
X125937490Y-79596617D01*
X125937491Y-79596616D01*
X125937497Y-79596486D01*
X125947839Y-79412341D01*
X125948367Y-79407406D01*
X125972611Y-79254331D01*
X126000324Y-79091227D01*
X126001301Y-79086756D01*
X126042425Y-78933279D01*
X126087232Y-78777752D01*
X126088574Y-78773748D01*
X126146127Y-78623815D01*
X126207557Y-78475510D01*
X126209159Y-78472037D01*
X126282515Y-78328068D01*
X126359880Y-78188088D01*
X126361622Y-78185185D01*
X126449985Y-78049117D01*
X126542377Y-77918905D01*
X126544263Y-77916420D01*
X126606848Y-77839133D01*
X126645836Y-77790986D01*
X126647324Y-77789236D01*
X126752990Y-77670996D01*
X126754848Y-77669031D01*
X126869031Y-77554848D01*
X126870996Y-77552990D01*
X126989236Y-77447324D01*
X126990986Y-77445836D01*
X127116420Y-77344263D01*
X127118905Y-77342377D01*
X127249117Y-77249985D01*
X127385185Y-77161622D01*
X127388088Y-77159880D01*
X127528055Y-77082522D01*
X127672037Y-77009159D01*
X127675510Y-77007557D01*
X127823815Y-76946127D01*
X127973748Y-76888574D01*
X127977752Y-76887232D01*
X128133279Y-76842425D01*
X128286756Y-76801301D01*
X128291227Y-76800324D01*
X128454284Y-76772618D01*
X128607406Y-76748367D01*
X128612341Y-76747839D01*
X128796566Y-76737493D01*
X128928706Y-76730567D01*
X128931290Y-76730500D01*
X158928710Y-76730500D01*
X158931293Y-76730567D01*
G37*
%TD.AperFunction*%
%TD*%
M02*
