M48
; DRILL file {KiCad 6.0.4-6f826c9f35~116~ubuntu21.10.1} date to  2. maaliskuuta 2023 20.15.49
; FORMAT={-:-/ absolute / inch / decimal}
; #@! TF.CreationDate,2023-03-02T20:15:49+02:00
; #@! TF.GenerationSoftware,Kicad,Pcbnew,6.0.4-6f826c9f35~116~ubuntu21.10.1
; #@! TF.FileFunction,Plated,1,2,PTH
FMAT,2
INCH
; #@! TA.AperFunction,Plated,PTH,ViaDrill
T1C0.0157
; #@! TA.AperFunction,Plated,PTH,ComponentDrill
T2C0.0300
; #@! TA.AperFunction,Plated,PTH,ViaDrill
T3C0.1260
%
G90
G05
T1
X5.2638Y-4.0354
X5.2835Y-3.9134
X5.4016Y-3.7598
X5.4409Y-4.1535
X5.4567Y-3.9567
X5.4902Y-3.8878
X5.5295Y-3.5827
X5.5669Y-3.3701
X5.5689Y-3.9961
X5.5787Y-3.7894
X5.6181Y-3.6713
X5.6673Y-4.1929
X5.687Y-3.7795
X5.7165Y-3.4744
X5.7165Y-3.9862
X5.7165Y-4.1437
X5.7165Y-4.3071
X5.7461Y-3.7795
X5.815Y-4.3051
X5.8165Y-4.2028
X5.8504Y-4.1732
X5.8543Y-3.9862
X5.8642Y-3.7795
X5.9035Y-3.563
X5.9528Y-4.0846
X5.9626Y-3.6811
X5.9724Y-3.8189
X6.0079Y-4.1732
X6.0315Y-3.8976
X6.1024Y-4.0866
X6.1998Y-3.8189
T2
X5.4165Y-3.2795
X5.5165Y-3.2795
X5.6165Y-3.2795
X5.7165Y-3.2795
X5.8165Y-3.2795
X5.9165Y-3.2795
X6.0165Y-3.2795
T3
X5.2165Y-3.2795
X5.2165Y-4.2795
X6.2165Y-3.2795
X6.2165Y-4.2795
T0
M30
