%TF.GenerationSoftware,KiCad,Pcbnew,6.0.4-6f826c9f35~116~ubuntu21.10.1*%
%TF.CreationDate,2023-03-02T20:15:44+02:00*%
%TF.ProjectId,rgbw-light,72676277-2d6c-4696-9768-742e6b696361,rev?*%
%TF.SameCoordinates,Original*%
%TF.FileFunction,Legend,Top*%
%TF.FilePolarity,Positive*%
%FSLAX46Y46*%
G04 Gerber Fmt 4.6, Leading zero omitted, Abs format (unit mm)*
G04 Created by KiCad (PCBNEW 6.0.4-6f826c9f35~116~ubuntu21.10.1) date 2023-03-02 20:15:44*
%MOMM*%
%LPD*%
G01*
G04 APERTURE LIST*
%ADD10C,0.150000*%
%ADD11C,0.120000*%
%ADD12C,0.200000*%
G04 APERTURE END LIST*
D10*
X149994285Y-85292380D02*
X150565714Y-85292380D01*
X150280000Y-86292380D02*
X150280000Y-85292380D01*
X140429523Y-86292380D02*
X140096190Y-85816190D01*
X139858095Y-86292380D02*
X139858095Y-85292380D01*
X140239047Y-85292380D01*
X140334285Y-85340000D01*
X140381904Y-85387619D01*
X140429523Y-85482857D01*
X140429523Y-85625714D01*
X140381904Y-85720952D01*
X140334285Y-85768571D01*
X140239047Y-85816190D01*
X139858095Y-85816190D01*
X152058095Y-85340000D02*
X151962857Y-85292380D01*
X151820000Y-85292380D01*
X151677142Y-85340000D01*
X151581904Y-85435238D01*
X151534285Y-85530476D01*
X151486666Y-85720952D01*
X151486666Y-85863809D01*
X151534285Y-86054285D01*
X151581904Y-86149523D01*
X151677142Y-86244761D01*
X151820000Y-86292380D01*
X151915238Y-86292380D01*
X152058095Y-86244761D01*
X152105714Y-86197142D01*
X152105714Y-85863809D01*
X151915238Y-85863809D01*
X152534285Y-86292380D02*
X152534285Y-85292380D01*
X153105714Y-86292380D01*
X153105714Y-85292380D01*
X153581904Y-86292380D02*
X153581904Y-85292380D01*
X153820000Y-85292380D01*
X153962857Y-85340000D01*
X154058095Y-85435238D01*
X154105714Y-85530476D01*
X154153333Y-85720952D01*
X154153333Y-85863809D01*
X154105714Y-86054285D01*
X154058095Y-86149523D01*
X153962857Y-86244761D01*
X153820000Y-86292380D01*
X153581904Y-86292380D01*
X137389523Y-85292380D02*
X136913333Y-85292380D01*
X136865714Y-85768571D01*
X136913333Y-85720952D01*
X137008571Y-85673333D01*
X137246666Y-85673333D01*
X137341904Y-85720952D01*
X137389523Y-85768571D01*
X137437142Y-85863809D01*
X137437142Y-86101904D01*
X137389523Y-86197142D01*
X137341904Y-86244761D01*
X137246666Y-86292380D01*
X137008571Y-86292380D01*
X136913333Y-86244761D01*
X136865714Y-86197142D01*
X137722857Y-85292380D02*
X138056190Y-86292380D01*
X138389523Y-85292380D01*
X145271428Y-85768571D02*
X145414285Y-85816190D01*
X145461904Y-85863809D01*
X145509523Y-85959047D01*
X145509523Y-86101904D01*
X145461904Y-86197142D01*
X145414285Y-86244761D01*
X145319047Y-86292380D01*
X144938095Y-86292380D01*
X144938095Y-85292380D01*
X145271428Y-85292380D01*
X145366666Y-85340000D01*
X145414285Y-85387619D01*
X145461904Y-85482857D01*
X145461904Y-85578095D01*
X145414285Y-85673333D01*
X145366666Y-85720952D01*
X145271428Y-85768571D01*
X144938095Y-85768571D01*
X142921904Y-85340000D02*
X142826666Y-85292380D01*
X142683809Y-85292380D01*
X142540952Y-85340000D01*
X142445714Y-85435238D01*
X142398095Y-85530476D01*
X142350476Y-85720952D01*
X142350476Y-85863809D01*
X142398095Y-86054285D01*
X142445714Y-86149523D01*
X142540952Y-86244761D01*
X142683809Y-86292380D01*
X142779047Y-86292380D01*
X142921904Y-86244761D01*
X142969523Y-86197142D01*
X142969523Y-85863809D01*
X142779047Y-85863809D01*
X147311428Y-85292380D02*
X147549523Y-86292380D01*
X147740000Y-85578095D01*
X147930476Y-86292380D01*
X148168571Y-85292380D01*
%TO.C,CN1*%
X147105000Y-82030000D02*
X148375000Y-82030000D01*
X149010000Y-82665000D02*
X149645000Y-82030000D01*
X144565000Y-82030000D02*
X145835000Y-82030000D01*
X143295000Y-84570000D02*
X142025000Y-84570000D01*
X149645000Y-84570000D02*
X149010000Y-83935000D01*
X153455000Y-84570000D02*
X152185000Y-84570000D01*
X152185000Y-82030000D02*
X153455000Y-82030000D01*
X142025000Y-84570000D02*
X141390000Y-83935000D01*
X138215000Y-84570000D02*
X136945000Y-84570000D01*
X138850000Y-82665000D02*
X139485000Y-82030000D01*
X143930000Y-83935000D02*
X143295000Y-84570000D01*
X153455000Y-82030000D02*
X154090000Y-82665000D01*
X139485000Y-82030000D02*
X140755000Y-82030000D01*
X147105000Y-84570000D02*
X146470000Y-83935000D01*
X152185000Y-84570000D02*
X151550000Y-83935000D01*
X144565000Y-84570000D02*
X143930000Y-83935000D01*
X136945000Y-84570000D02*
X136310000Y-83935000D01*
X138850000Y-83935000D02*
X138215000Y-84570000D01*
X140755000Y-82030000D02*
X141390000Y-82665000D01*
X148375000Y-84570000D02*
X147105000Y-84570000D01*
X154090000Y-82665000D02*
X154090000Y-83935000D01*
X149010000Y-83935000D02*
X148375000Y-84570000D01*
X136310000Y-82665000D02*
X136945000Y-82030000D01*
X140755000Y-84570000D02*
X139485000Y-84570000D01*
X142025000Y-82030000D02*
X143295000Y-82030000D01*
X136310000Y-83935000D02*
X136310000Y-82665000D01*
X139485000Y-84570000D02*
X138850000Y-83935000D01*
X145835000Y-82030000D02*
X146470000Y-82665000D01*
X154090000Y-83935000D02*
X153455000Y-84570000D01*
X138215000Y-82030000D02*
X138850000Y-82665000D01*
X143295000Y-82030000D02*
X143930000Y-82665000D01*
X143930000Y-82665000D02*
X144565000Y-82030000D01*
X149645000Y-82030000D02*
X150915000Y-82030000D01*
X146470000Y-82665000D02*
X147105000Y-82030000D01*
X146470000Y-83935000D02*
X145835000Y-84570000D01*
X145835000Y-84570000D02*
X144565000Y-84570000D01*
X151550000Y-82665000D02*
X152185000Y-82030000D01*
X150915000Y-84570000D02*
X149645000Y-84570000D01*
X136945000Y-82030000D02*
X138215000Y-82030000D01*
X151550000Y-83935000D02*
X150915000Y-84570000D01*
X148375000Y-82030000D02*
X149010000Y-82665000D01*
X141390000Y-83935000D02*
X140755000Y-84570000D01*
X150915000Y-82030000D02*
X151550000Y-82665000D01*
X141390000Y-82665000D02*
X142025000Y-82030000D01*
D11*
%TO.C,D1*%
X143950000Y-97750000D02*
X143450000Y-97750000D01*
X146950000Y-94750000D02*
X146950000Y-94250000D01*
X143450000Y-97750000D02*
X143450000Y-97250000D01*
X146950000Y-94250000D02*
X146450000Y-94250000D01*
X146950000Y-97250000D02*
X146950000Y-97750000D01*
X146950000Y-97750000D02*
X146450000Y-97750000D01*
D12*
X143550000Y-94250000D02*
G75*
G03*
X143550000Y-94250000I-100000J0D01*
G01*
%TD*%
M02*
