%TF.GenerationSoftware,KiCad,Pcbnew,6.0.4-6f826c9f35~116~ubuntu21.10.1*%
%TF.CreationDate,2023-03-02T20:15:44+02:00*%
%TF.ProjectId,rgbw-light,72676277-2d6c-4696-9768-742e6b696361,rev?*%
%TF.SameCoordinates,Original*%
%TF.FileFunction,Copper,L1,Top*%
%TF.FilePolarity,Positive*%
%FSLAX46Y46*%
G04 Gerber Fmt 4.6, Leading zero omitted, Abs format (unit mm)*
G04 Created by KiCad (PCBNEW 6.0.4-6f826c9f35~116~ubuntu21.10.1) date 2023-03-02 20:15:44*
%MOMM*%
%LPD*%
G01*
G04 APERTURE LIST*
G04 Aperture macros list*
%AMRoundRect*
0 Rectangle with rounded corners*
0 $1 Rounding radius*
0 $2 $3 $4 $5 $6 $7 $8 $9 X,Y pos of 4 corners*
0 Add a 4 corners polygon primitive as box body*
4,1,4,$2,$3,$4,$5,$6,$7,$8,$9,$2,$3,0*
0 Add four circle primitives for the rounded corners*
1,1,$1+$1,$2,$3*
1,1,$1+$1,$4,$5*
1,1,$1+$1,$6,$7*
1,1,$1+$1,$8,$9*
0 Add four rect primitives between the rounded corners*
20,1,$1+$1,$2,$3,$4,$5,0*
20,1,$1+$1,$4,$5,$6,$7,0*
20,1,$1+$1,$6,$7,$8,$9,0*
20,1,$1+$1,$8,$9,$2,$3,0*%
G04 Aperture macros list end*
%TA.AperFunction,SMDPad,CuDef*%
%ADD10RoundRect,0.200000X0.285000X0.200000X-0.285000X0.200000X-0.285000X-0.200000X0.285000X-0.200000X0*%
%TD*%
%TA.AperFunction,SMDPad,CuDef*%
%ADD11RoundRect,0.175000X-0.175000X-0.475000X0.175000X-0.475000X0.175000X0.475000X-0.175000X0.475000X0*%
%TD*%
%TA.AperFunction,ComponentPad*%
%ADD12RoundRect,0.381000X-0.381000X0.381000X-0.381000X-0.381000X0.381000X-0.381000X0.381000X0.381000X0*%
%TD*%
%TA.AperFunction,ComponentPad*%
%ADD13C,1.524000*%
%TD*%
%TA.AperFunction,SMDPad,CuDef*%
%ADD14RoundRect,0.325000X0.459619X0.000000X0.000000X0.459619X-0.459619X0.000000X0.000000X-0.459619X0*%
%TD*%
%TA.AperFunction,SMDPad,CuDef*%
%ADD15RoundRect,0.175000X0.175000X0.475000X-0.175000X0.475000X-0.175000X-0.475000X0.175000X-0.475000X0*%
%TD*%
%TA.AperFunction,SMDPad,CuDef*%
%ADD16RoundRect,0.200000X-0.285000X-0.200000X0.285000X-0.200000X0.285000X0.200000X-0.285000X0.200000X0*%
%TD*%
%TA.AperFunction,SMDPad,CuDef*%
%ADD17RoundRect,0.175000X0.175000X-0.525000X0.175000X0.525000X-0.175000X0.525000X-0.175000X-0.525000X0*%
%TD*%
%TA.AperFunction,SMDPad,CuDef*%
%ADD18R,2.850000X1.150000*%
%TD*%
%TA.AperFunction,SMDPad,CuDef*%
%ADD19R,0.450000X0.450000*%
%TD*%
%TA.AperFunction,SMDPad,CuDef*%
%ADD20RoundRect,0.112500X-0.112500X-0.112500X0.112500X-0.112500X0.112500X0.112500X-0.112500X0.112500X0*%
%TD*%
%TA.AperFunction,SMDPad,CuDef*%
%ADD21RoundRect,0.175000X-0.525000X-0.175000X0.525000X-0.175000X0.525000X0.175000X-0.525000X0.175000X0*%
%TD*%
%TA.AperFunction,SMDPad,CuDef*%
%ADD22RoundRect,0.175000X0.475000X-0.175000X0.475000X0.175000X-0.475000X0.175000X-0.475000X-0.175000X0*%
%TD*%
%TA.AperFunction,SMDPad,CuDef*%
%ADD23RoundRect,0.175000X0.525000X0.175000X-0.525000X0.175000X-0.525000X-0.175000X0.525000X-0.175000X0*%
%TD*%
%TA.AperFunction,SMDPad,CuDef*%
%ADD24RoundRect,0.200000X0.200000X-0.285000X0.200000X0.285000X-0.200000X0.285000X-0.200000X-0.285000X0*%
%TD*%
%TA.AperFunction,SMDPad,CuDef*%
%ADD25RoundRect,0.325000X-0.459619X0.000000X0.000000X-0.459619X0.459619X0.000000X0.000000X0.459619X0*%
%TD*%
%TA.AperFunction,SMDPad,CuDef*%
%ADD26RoundRect,0.175000X-0.175000X0.525000X-0.175000X-0.525000X0.175000X-0.525000X0.175000X0.525000X0*%
%TD*%
%TA.AperFunction,SMDPad,CuDef*%
%ADD27RoundRect,0.200000X-0.200000X0.285000X-0.200000X-0.285000X0.200000X-0.285000X0.200000X0.285000X0*%
%TD*%
%TA.AperFunction,SMDPad,CuDef*%
%ADD28RoundRect,0.175000X-0.475000X0.175000X-0.475000X-0.175000X0.475000X-0.175000X0.475000X0.175000X0*%
%TD*%
%TA.AperFunction,SMDPad,CuDef*%
%ADD29RoundRect,0.325000X0.000000X-0.459619X0.459619X0.000000X0.000000X0.459619X-0.459619X0.000000X0*%
%TD*%
%TA.AperFunction,ViaPad*%
%ADD30C,0.800000*%
%TD*%
%TA.AperFunction,ViaPad*%
%ADD31C,4.000000*%
%TD*%
%TA.AperFunction,Conductor*%
%ADD32C,0.500000*%
%TD*%
%TA.AperFunction,Conductor*%
%ADD33C,0.250000*%
%TD*%
%TA.AperFunction,Conductor*%
%ADD34C,0.200000*%
%TD*%
%TA.AperFunction,Conductor*%
%ADD35C,1.000000*%
%TD*%
G04 APERTURE END LIST*
D10*
%TO.P,R4,1*%
%TO.N,GND*%
X150000000Y-98500000D03*
%TO.P,R4,2*%
%TO.N,Net-(D1-Pad5)*%
X148400000Y-98500000D03*
%TD*%
D11*
%TO.P,C4,1*%
%TO.N,Net-(C4-Pad1)*%
X136000000Y-98500000D03*
%TO.P,C4,2*%
%TO.N,GND*%
X137900000Y-98500000D03*
%TD*%
D12*
%TO.P,CN1,1*%
%TO.N,GND*%
X152820000Y-83300000D03*
D13*
%TO.P,CN1,2*%
%TO.N,/Temperature*%
X150280000Y-83300000D03*
%TO.P,CN1,3*%
%TO.N,/W*%
X147740000Y-83300000D03*
%TO.P,CN1,4*%
%TO.N,/B*%
X145200000Y-83300000D03*
%TO.P,CN1,5*%
%TO.N,/G*%
X142660000Y-83300000D03*
%TO.P,CN1,6*%
%TO.N,/R*%
X140120000Y-83300000D03*
%TO.P,CN1,7*%
%TO.N,5V*%
X137580000Y-83300000D03*
%TD*%
D14*
%TO.P,L2,1*%
%TO.N,Net-(IC2-Pad3)*%
X137760660Y-102560660D03*
%TO.P,L2,2*%
%TO.N,Net-(C4-Pad1)*%
X135639340Y-100439340D03*
%TD*%
D15*
%TO.P,C3,1*%
%TO.N,5V*%
X142400000Y-104250000D03*
%TO.P,C3,2*%
%TO.N,GND*%
X140500000Y-104250000D03*
%TD*%
D16*
%TO.P,R1,1*%
%TO.N,GND*%
X140900000Y-99000000D03*
%TO.P,R1,2*%
%TO.N,Net-(D1-Pad8)*%
X142500000Y-99000000D03*
%TD*%
D17*
%TO.P,IC3,1,EN*%
%TO.N,/B*%
X147750000Y-102700000D03*
%TO.P,IC3,2,GND*%
%TO.N,GND*%
X148700000Y-102700000D03*
%TO.P,IC3,3,SW*%
%TO.N,Net-(IC3-Pad3)*%
X149650000Y-102700000D03*
%TO.P,IC3,4,Vin*%
%TO.N,5V*%
X149650000Y-100300000D03*
%TO.P,IC3,5,FB*%
%TO.N,Net-(D1-Pad6)*%
X147750000Y-100300000D03*
%TD*%
D15*
%TO.P,C2,1*%
%TO.N,Net-(C2-Pad1)*%
X143950000Y-91000000D03*
%TO.P,C2,2*%
%TO.N,GND*%
X142050000Y-91000000D03*
%TD*%
D11*
%TO.P,C7,1*%
%TO.N,5V*%
X148250000Y-93250000D03*
%TO.P,C7,2*%
%TO.N,GND*%
X150150000Y-93250000D03*
%TD*%
%TO.P,C8,1*%
%TO.N,Net-(C8-Pad1)*%
X146450000Y-91000000D03*
%TO.P,C8,2*%
%TO.N,GND*%
X148350000Y-91000000D03*
%TD*%
D18*
%TO.P,D1,0*%
%TO.N,GND*%
X145200000Y-96000000D03*
D19*
%TO.P,D1,1,A*%
%TO.N,Net-(C2-Pad1)*%
X144000000Y-94800000D03*
D20*
%TO.P,D1,2,A*%
%TO.N,Net-(C4-Pad1)*%
X144800000Y-94800000D03*
%TO.P,D1,3,A*%
%TO.N,Net-(C6-Pad1)*%
X145600000Y-94800000D03*
%TO.P,D1,4,A*%
%TO.N,Net-(C8-Pad1)*%
X146400000Y-94800000D03*
%TO.P,D1,5,K*%
%TO.N,Net-(D1-Pad5)*%
X146400000Y-97200000D03*
%TO.P,D1,6,K*%
%TO.N,Net-(D1-Pad6)*%
X145600000Y-97200000D03*
%TO.P,D1,7,K*%
%TO.N,Net-(D1-Pad7)*%
X144800000Y-97200000D03*
%TO.P,D1,8,K*%
%TO.N,Net-(D1-Pad8)*%
X144000000Y-97200000D03*
%TD*%
D21*
%TO.P,IC2,1,EN*%
%TO.N,/G*%
X140000000Y-100550000D03*
%TO.P,IC2,2,GND*%
%TO.N,GND*%
X140000000Y-101500000D03*
%TO.P,IC2,3,SW*%
%TO.N,Net-(IC2-Pad3)*%
X140000000Y-102450000D03*
%TO.P,IC2,4,Vin*%
%TO.N,5V*%
X142400000Y-102450000D03*
%TO.P,IC2,5,FB*%
%TO.N,Net-(D1-Pad7)*%
X142400000Y-100550000D03*
%TD*%
D22*
%TO.P,C1,1*%
%TO.N,5V*%
X138950000Y-96950000D03*
%TO.P,C1,2*%
%TO.N,GND*%
X138950000Y-95050000D03*
%TD*%
D23*
%TO.P,IC4,1,EN*%
%TO.N,/W*%
X150400000Y-96950000D03*
%TO.P,IC4,2,GND*%
%TO.N,GND*%
X150400000Y-96000000D03*
%TO.P,IC4,3,SW*%
%TO.N,Net-(IC4-Pad3)*%
X150400000Y-95050000D03*
%TO.P,IC4,4,Vin*%
%TO.N,5V*%
X148000000Y-95050000D03*
%TO.P,IC4,5,FB*%
%TO.N,Net-(D1-Pad5)*%
X148000000Y-96950000D03*
%TD*%
D24*
%TO.P,R3,1*%
%TO.N,GND*%
X145950000Y-100300000D03*
%TO.P,R3,2*%
%TO.N,Net-(D1-Pad6)*%
X145950000Y-98700000D03*
%TD*%
D25*
%TO.P,L3,1*%
%TO.N,Net-(IC3-Pad3)*%
X149639340Y-104939340D03*
%TO.P,L3,2*%
%TO.N,Net-(C6-Pad1)*%
X151760660Y-107060660D03*
%TD*%
D26*
%TO.P,IC1,1,EN*%
%TO.N,/R*%
X142650000Y-94800000D03*
%TO.P,IC1,2,GND*%
%TO.N,GND*%
X141700000Y-94800000D03*
%TO.P,IC1,3,SW*%
%TO.N,Net-(IC1-Pad3)*%
X140750000Y-94800000D03*
%TO.P,IC1,4,Vin*%
%TO.N,5V*%
X140750000Y-97200000D03*
%TO.P,IC1,5,FB*%
%TO.N,Net-(D1-Pad8)*%
X142650000Y-97200000D03*
%TD*%
D27*
%TO.P,NTC1,1*%
%TO.N,GND*%
X145200000Y-102450000D03*
%TO.P,NTC1,2*%
%TO.N,/Temperature*%
X145200000Y-104050000D03*
%TD*%
D28*
%TO.P,C5,1*%
%TO.N,5V*%
X151450000Y-100550000D03*
%TO.P,C5,2*%
%TO.N,GND*%
X151450000Y-102450000D03*
%TD*%
D22*
%TO.P,C6,2*%
%TO.N,GND*%
X153700000Y-105050000D03*
%TO.P,C6,1*%
%TO.N,Net-(C6-Pad1)*%
X153700000Y-106950000D03*
%TD*%
D24*
%TO.P,R2,1*%
%TO.N,GND*%
X144450000Y-100300000D03*
%TO.P,R2,2*%
%TO.N,Net-(D1-Pad7)*%
X144450000Y-98700000D03*
%TD*%
D14*
%TO.P,L1,1*%
%TO.N,Net-(IC1-Pad3)*%
X140760660Y-92810660D03*
%TO.P,L1,2*%
%TO.N,Net-(C2-Pad1)*%
X138639340Y-90689340D03*
%TD*%
D29*
%TO.P,L4,1*%
%TO.N,Net-(IC4-Pad3)*%
X152639340Y-95060660D03*
%TO.P,L4,2*%
%TO.N,Net-(C8-Pad1)*%
X154760660Y-92939340D03*
%TD*%
D30*
%TO.N,GND*%
X155000000Y-103800000D03*
X151450000Y-93500000D03*
X143950000Y-106500000D03*
X148950000Y-96000000D03*
X141700000Y-96250000D03*
X133700000Y-102500000D03*
X145200000Y-101250000D03*
X149950000Y-90500000D03*
X138200000Y-105500000D03*
X145200000Y-88250000D03*
X137200000Y-95500000D03*
X145950000Y-96000000D03*
X148600000Y-106000000D03*
X152600000Y-106000000D03*
X151200000Y-103750000D03*
D31*
X132500000Y-83300000D03*
D30*
X153200000Y-99000000D03*
D31*
X157900000Y-83300000D03*
D30*
X144450000Y-96000000D03*
D31*
X132500000Y-108700000D03*
D30*
X139450000Y-98750000D03*
X141450000Y-101500000D03*
D31*
X157900000Y-108700000D03*
D30*
X140450000Y-91000000D03*
X148700000Y-101250000D03*
%TO.N,/R*%
X141400000Y-85600000D03*
X142700000Y-93250000D03*
%TO.N,/G*%
X138600000Y-100500000D03*
X134200000Y-99400000D03*
%TO.N,/B*%
X147740000Y-106750000D03*
X147700000Y-109349500D03*
%TO.N,/W*%
X151700000Y-97000000D03*
X157474020Y-97000000D03*
%TO.N,/Temperature*%
X145200000Y-109400000D03*
X145200000Y-105250000D03*
%TD*%
D32*
%TO.N,Net-(C6-Pad1)*%
X154243933Y-106950000D02*
X156200000Y-104993933D01*
X156200000Y-104993933D02*
X156200000Y-92600000D01*
X151600000Y-88000000D02*
X147450000Y-88000000D01*
X156200000Y-92600000D02*
X151600000Y-88000000D01*
X145600000Y-89850000D02*
X145600000Y-94800000D01*
X147450000Y-88000000D02*
X145600000Y-89850000D01*
%TO.N,Net-(C4-Pad1)*%
X144800000Y-94800000D02*
X144800000Y-89850000D01*
X144800000Y-89850000D02*
X142950000Y-88000000D01*
X142950000Y-88000000D02*
X139600000Y-88000000D01*
X139600000Y-88000000D02*
X136000000Y-91600000D01*
X136000000Y-91600000D02*
X136000000Y-98500000D01*
D33*
%TO.N,Net-(C6-Pad1)*%
X153700000Y-106950000D02*
X154243933Y-106950000D01*
D32*
X153700000Y-106950000D02*
X151871320Y-106950000D01*
D33*
X151871320Y-106950000D02*
X151760660Y-107060660D01*
D32*
%TO.N,Net-(C8-Pad1)*%
X146450000Y-91000000D02*
X146450000Y-90250000D01*
X146450000Y-90250000D02*
X147700000Y-89000000D01*
X147700000Y-89000000D02*
X150821320Y-89000000D01*
X146400000Y-91050000D02*
X146450000Y-91000000D01*
X150821320Y-89000000D02*
X154760660Y-92939340D01*
X146400000Y-94800000D02*
X146400000Y-91050000D01*
%TO.N,Net-(C2-Pad1)*%
X138639340Y-90560660D02*
X138639340Y-90939340D01*
X144000000Y-94800000D02*
X144000000Y-91050000D01*
X144000000Y-91050000D02*
X143950000Y-91000000D01*
X143950000Y-91000000D02*
X143950000Y-90250000D01*
X143950000Y-90250000D02*
X142700000Y-89000000D01*
X142700000Y-89000000D02*
X140200000Y-89000000D01*
X140200000Y-89000000D02*
X138639340Y-90560660D01*
D33*
%TO.N,/G*%
X134200000Y-99400000D02*
X134200000Y-90600000D01*
X134200000Y-90600000D02*
X138000000Y-86800000D01*
X142200000Y-86800000D02*
X142612212Y-86387788D01*
X138000000Y-86800000D02*
X142200000Y-86800000D01*
X142612212Y-86387788D02*
X142612212Y-83347788D01*
X142612212Y-83347788D02*
X142660000Y-83300000D01*
D34*
%TO.N,/R*%
X141400000Y-85600000D02*
X140120000Y-84320000D01*
X140120000Y-84320000D02*
X140120000Y-83300000D01*
%TO.N,Net-(D1-Pad7)*%
X142400000Y-100550000D02*
X142400000Y-100000000D01*
X142400000Y-100000000D02*
X142625000Y-99775000D01*
X142625000Y-99775000D02*
X143175000Y-99775000D01*
X143600000Y-99350000D02*
X143600000Y-99000000D01*
X143175000Y-99775000D02*
X143600000Y-99350000D01*
X143600000Y-99000000D02*
X143900000Y-98700000D01*
X143900000Y-98700000D02*
X144450000Y-98700000D01*
%TO.N,/R*%
X142650000Y-93300000D02*
X142650000Y-94800000D01*
X142700000Y-93250000D02*
X142650000Y-93300000D01*
%TO.N,/B*%
X147740000Y-106750000D02*
X147740000Y-102710000D01*
X147740000Y-102710000D02*
X147750000Y-102700000D01*
D32*
%TO.N,Net-(C4-Pad1)*%
X136000000Y-99700000D02*
X135700000Y-100000000D01*
D33*
X135700000Y-100378680D02*
X135639340Y-100439340D01*
D32*
X136000000Y-98500000D02*
X136000000Y-99700000D01*
D33*
X135700000Y-100000000D02*
X135700000Y-100378680D01*
%TO.N,/G*%
X138650000Y-100550000D02*
X138600000Y-100500000D01*
X140000000Y-100550000D02*
X138650000Y-100550000D01*
D34*
%TO.N,/B*%
X151800000Y-87200000D02*
X146000000Y-87200000D01*
X147700000Y-109349500D02*
X147974980Y-109074520D01*
X156774520Y-92174520D02*
X151800000Y-87200000D01*
X145200000Y-86400000D02*
X145200000Y-83300000D01*
X147974980Y-109074520D02*
X148791528Y-109074520D01*
X148791528Y-109074520D02*
X149466048Y-108400000D01*
X153606427Y-108400000D02*
X156774520Y-105231907D01*
X156774520Y-105231907D02*
X156774520Y-92174520D01*
X149466048Y-108400000D02*
X153606427Y-108400000D01*
X146000000Y-87200000D02*
X145200000Y-86400000D01*
%TO.N,/W*%
X150400000Y-96950000D02*
X151650000Y-96950000D01*
D33*
X151650000Y-96950000D02*
X151700000Y-97000000D01*
D34*
X147740000Y-83300000D02*
X147740000Y-86140000D01*
X148350480Y-86750480D02*
X151986197Y-86750480D01*
X151986197Y-86750480D02*
X157249520Y-92013802D01*
X147740000Y-86140000D02*
X148350480Y-86750480D01*
X157249520Y-92013802D02*
X157249520Y-96299520D01*
X157249520Y-96299520D02*
X157474020Y-96524020D01*
X157474020Y-96524020D02*
X157474020Y-97000000D01*
%TO.N,/Temperature*%
X150280000Y-83300000D02*
X150280000Y-85880000D01*
X149631534Y-108799520D02*
X148382043Y-110049011D01*
X150725960Y-86325960D02*
X152325960Y-86325960D01*
X145200000Y-105250000D02*
X145200000Y-104050000D01*
X150280000Y-85880000D02*
X150725960Y-86325960D01*
X153771913Y-108799520D02*
X149631534Y-108799520D01*
X158224011Y-96524011D02*
X158224011Y-97475989D01*
X146600000Y-109400000D02*
X145200000Y-109400000D01*
X147249011Y-110049011D02*
X146600000Y-109400000D01*
X157700000Y-91700000D02*
X157700000Y-96000000D01*
X148382043Y-110049011D02*
X147249011Y-110049011D01*
X157200000Y-98500000D02*
X157200000Y-105371434D01*
X157700000Y-96000000D02*
X158224011Y-96524011D01*
X157200000Y-105371434D02*
X153771913Y-108799520D01*
X152325960Y-86325960D02*
X157700000Y-91700000D01*
X158224011Y-97475989D02*
X157200000Y-98500000D01*
D32*
%TO.N,5V*%
X149900000Y-100550000D02*
X149650000Y-100300000D01*
X151500000Y-100500000D02*
X151450000Y-100550000D01*
X138950000Y-96950000D02*
X137500000Y-96950000D01*
X154450000Y-94750000D02*
X151450000Y-91750000D01*
X133300000Y-104900000D02*
X133300000Y-105100000D01*
X148250000Y-93250000D02*
X148250000Y-94800000D01*
X148250000Y-94800000D02*
X148000000Y-95050000D01*
X136950000Y-97500000D02*
X136950000Y-101250000D01*
X149750000Y-91750000D02*
X148250000Y-93250000D01*
D35*
X132200000Y-104000000D02*
X132200000Y-88680000D01*
D32*
X152700000Y-100500000D02*
X151500000Y-100500000D01*
X142400000Y-108250000D02*
X142400000Y-104250000D01*
D35*
X133300000Y-105100000D02*
X132200000Y-104000000D01*
D32*
X154450000Y-100750000D02*
X154450000Y-94750000D01*
X151450000Y-91750000D02*
X149750000Y-91750000D01*
D35*
X153700000Y-103000000D02*
X148450000Y-108250000D01*
X148450000Y-108250000D02*
X136450000Y-108250000D01*
D32*
X138950000Y-96950000D02*
X140500000Y-96950000D01*
D35*
X153700000Y-101500000D02*
X153700000Y-103000000D01*
D32*
X136950000Y-101250000D02*
X133300000Y-104900000D01*
X153700000Y-101500000D02*
X154450000Y-100750000D01*
X153700000Y-101500000D02*
X152700000Y-100500000D01*
X140500000Y-96950000D02*
X140750000Y-97200000D01*
D35*
X136450000Y-108250000D02*
X133300000Y-105100000D01*
D32*
X137500000Y-96950000D02*
X136950000Y-97500000D01*
X151450000Y-100550000D02*
X149900000Y-100550000D01*
D35*
X132200000Y-88680000D02*
X137580000Y-83300000D01*
D32*
X142400000Y-104250000D02*
X142400000Y-102450000D01*
%TO.N,Net-(D1-Pad5)*%
X148000000Y-96950000D02*
X148000000Y-98100000D01*
X147750000Y-97200000D02*
X148000000Y-96950000D01*
X148000000Y-98100000D02*
X148400000Y-98500000D01*
X146400000Y-97200000D02*
X147750000Y-97200000D01*
D34*
%TO.N,Net-(D1-Pad6)*%
X145950000Y-98700000D02*
X146250000Y-99000000D01*
X147750000Y-100050000D02*
X147750000Y-100300000D01*
X146250000Y-99000000D02*
X146700000Y-99000000D01*
D32*
X145600000Y-98350000D02*
X145950000Y-98700000D01*
D34*
X146700000Y-99000000D02*
X147750000Y-100050000D01*
D32*
X145600000Y-97200000D02*
X145600000Y-98350000D01*
%TO.N,Net-(D1-Pad7)*%
X144800000Y-97200000D02*
X144800000Y-98350000D01*
X144800000Y-98350000D02*
X144450000Y-98700000D01*
%TO.N,Net-(D1-Pad8)*%
X142650000Y-98850000D02*
X142500000Y-99000000D01*
X142650000Y-97200000D02*
X142650000Y-98850000D01*
X144000000Y-97200000D02*
X142650000Y-97200000D01*
%TO.N,Net-(IC1-Pad3)*%
X140750000Y-92821320D02*
X140760660Y-92810660D01*
X140750000Y-94800000D02*
X140750000Y-92821320D01*
%TO.N,Net-(IC2-Pad3)*%
X137871320Y-102450000D02*
X137760660Y-102560660D01*
X140000000Y-102450000D02*
X137871320Y-102450000D01*
%TO.N,Net-(IC3-Pad3)*%
X149650000Y-104928680D02*
X149639340Y-104939340D01*
X149650000Y-102700000D02*
X149650000Y-104928680D01*
%TO.N,Net-(IC4-Pad3)*%
X152628680Y-95050000D02*
X152639340Y-95060660D01*
X150400000Y-95050000D02*
X152628680Y-95050000D01*
%TD*%
%TA.AperFunction,Conductor*%
%TO.N,GND*%
G36*
X157888169Y-80963018D02*
G01*
X157899641Y-80965656D01*
X157910517Y-80963195D01*
X157921664Y-80963214D01*
X157921664Y-80963243D01*
X157931772Y-80962422D01*
X158072548Y-80970937D01*
X158176024Y-80977197D01*
X158187880Y-80978636D01*
X158453995Y-81027404D01*
X158465588Y-81030261D01*
X158674696Y-81095422D01*
X158723879Y-81110748D01*
X158735057Y-81114987D01*
X158981763Y-81226020D01*
X158992348Y-81231576D01*
X159223860Y-81371530D01*
X159233699Y-81378321D01*
X159446656Y-81545162D01*
X159455605Y-81553089D01*
X159646911Y-81744395D01*
X159654838Y-81753344D01*
X159821679Y-81966301D01*
X159828470Y-81976140D01*
X159968424Y-82207652D01*
X159973980Y-82218237D01*
X160085013Y-82464943D01*
X160089252Y-82476121D01*
X160097090Y-82501274D01*
X160137823Y-82631988D01*
X160169737Y-82734404D01*
X160172596Y-82746005D01*
X160221364Y-83012122D01*
X160222803Y-83023974D01*
X160235912Y-83240677D01*
X160237547Y-83267712D01*
X160236724Y-83277627D01*
X160236862Y-83277627D01*
X160236842Y-83288777D01*
X160234344Y-83299641D01*
X160236804Y-83310513D01*
X160237059Y-83311638D01*
X160239500Y-83333488D01*
X160239500Y-108665983D01*
X160236982Y-108688169D01*
X160234344Y-108699641D01*
X160236805Y-108710517D01*
X160236786Y-108721664D01*
X160236757Y-108721664D01*
X160237578Y-108731772D01*
X160232780Y-108811097D01*
X160224121Y-108954252D01*
X160222804Y-108976018D01*
X160221364Y-108987880D01*
X160173389Y-109249674D01*
X160172598Y-109253988D01*
X160169739Y-109265588D01*
X160126027Y-109405864D01*
X160089252Y-109523879D01*
X160085013Y-109535057D01*
X159973980Y-109781763D01*
X159968424Y-109792348D01*
X159828470Y-110023860D01*
X159821679Y-110033699D01*
X159654838Y-110246656D01*
X159646911Y-110255605D01*
X159455605Y-110446911D01*
X159446656Y-110454838D01*
X159233699Y-110621679D01*
X159223860Y-110628470D01*
X158992348Y-110768424D01*
X158981763Y-110773980D01*
X158735057Y-110885013D01*
X158723879Y-110889252D01*
X158465588Y-110969739D01*
X158453995Y-110972596D01*
X158187878Y-111021364D01*
X158176026Y-111022803D01*
X157932287Y-111037547D01*
X157922373Y-111036724D01*
X157922373Y-111036862D01*
X157911223Y-111036842D01*
X157900359Y-111034344D01*
X157888359Y-111037059D01*
X157866512Y-111039500D01*
X132534017Y-111039500D01*
X132511831Y-111036982D01*
X132511801Y-111036975D01*
X132500359Y-111034344D01*
X132489483Y-111036805D01*
X132478336Y-111036786D01*
X132478336Y-111036757D01*
X132468228Y-111037578D01*
X132327452Y-111029063D01*
X132223976Y-111022803D01*
X132212120Y-111021364D01*
X131946005Y-110972596D01*
X131934412Y-110969739D01*
X131676121Y-110889252D01*
X131664943Y-110885013D01*
X131418237Y-110773980D01*
X131407652Y-110768424D01*
X131176140Y-110628470D01*
X131166301Y-110621679D01*
X130953344Y-110454838D01*
X130944395Y-110446911D01*
X130753089Y-110255605D01*
X130745162Y-110246656D01*
X130578321Y-110033699D01*
X130571530Y-110023860D01*
X130431576Y-109792348D01*
X130426020Y-109781763D01*
X130314987Y-109535057D01*
X130310748Y-109523879D01*
X130273973Y-109405864D01*
X130230261Y-109265588D01*
X130227402Y-109253988D01*
X130226612Y-109249674D01*
X130178636Y-108987880D01*
X130177196Y-108976018D01*
X130175880Y-108954252D01*
X130162469Y-108732548D01*
X130164207Y-108711810D01*
X130163747Y-108711757D01*
X130164389Y-108706179D01*
X130165655Y-108700718D01*
X130165656Y-108700000D01*
X130164412Y-108694545D01*
X130162980Y-108688266D01*
X130160500Y-108666248D01*
X130160500Y-104036930D01*
X131495322Y-104036930D01*
X131496347Y-104042801D01*
X131496347Y-104042806D01*
X131506298Y-104099820D01*
X131507055Y-104104947D01*
X131514007Y-104162396D01*
X131514724Y-104168320D01*
X131516833Y-104173901D01*
X131517978Y-104176932D01*
X131522892Y-104194895D01*
X131524473Y-104203954D01*
X131526873Y-104209421D01*
X131550130Y-104262404D01*
X131552088Y-104267202D01*
X131574655Y-104326923D01*
X131578033Y-104331838D01*
X131578037Y-104331846D01*
X131579865Y-104334505D01*
X131588923Y-104350778D01*
X131592621Y-104359202D01*
X131596252Y-104363934D01*
X131596255Y-104363939D01*
X131631487Y-104409854D01*
X131634533Y-104414046D01*
X131670688Y-104466651D01*
X131675141Y-104470618D01*
X131675144Y-104470622D01*
X131717226Y-104508115D01*
X131721372Y-104512028D01*
X132834726Y-105625383D01*
X132834745Y-105625401D01*
X135935078Y-108725735D01*
X135939677Y-108730659D01*
X135977831Y-108774396D01*
X135982713Y-108777827D01*
X135982714Y-108777828D01*
X136030052Y-108811097D01*
X136034214Y-108814188D01*
X136079758Y-108849900D01*
X136079761Y-108849902D01*
X136084457Y-108853584D01*
X136089900Y-108856042D01*
X136089901Y-108856042D01*
X136092835Y-108857367D01*
X136109028Y-108866602D01*
X136116547Y-108871887D01*
X136122106Y-108874054D01*
X136122109Y-108874056D01*
X136176027Y-108895078D01*
X136180803Y-108897086D01*
X136209080Y-108909853D01*
X136238984Y-108923355D01*
X136247713Y-108924973D01*
X136248026Y-108925031D01*
X136265938Y-108930133D01*
X136274513Y-108933476D01*
X136337819Y-108941810D01*
X136342914Y-108942616D01*
X136375087Y-108948580D01*
X136399820Y-108953164D01*
X136399823Y-108953164D01*
X136405692Y-108954252D01*
X136467925Y-108950664D01*
X136473622Y-108950500D01*
X144589643Y-108950500D01*
X144647834Y-108969407D01*
X144683798Y-109018907D01*
X144683798Y-109080093D01*
X144677214Y-109094878D01*
X144675464Y-109097159D01*
X144614956Y-109243238D01*
X144594318Y-109400000D01*
X144614956Y-109556762D01*
X144675464Y-109702841D01*
X144771718Y-109828282D01*
X144897159Y-109924536D01*
X145043238Y-109985044D01*
X145200000Y-110005682D01*
X145356762Y-109985044D01*
X145502841Y-109924536D01*
X145628282Y-109828282D01*
X145696613Y-109739232D01*
X145747037Y-109704577D01*
X145775154Y-109700500D01*
X146434521Y-109700500D01*
X146492712Y-109719407D01*
X146504525Y-109729496D01*
X146998691Y-110223662D01*
X147001391Y-110226791D01*
X147003586Y-110231280D01*
X147010289Y-110237498D01*
X147039833Y-110264904D01*
X147042509Y-110267480D01*
X147056288Y-110281259D01*
X147059998Y-110283804D01*
X147063911Y-110287240D01*
X147085657Y-110307412D01*
X147094145Y-110310799D01*
X147094146Y-110310799D01*
X147096347Y-110311677D01*
X147115663Y-110321991D01*
X147117618Y-110323332D01*
X147117621Y-110323333D01*
X147125157Y-110328503D01*
X147151069Y-110334652D01*
X147164895Y-110339025D01*
X147183143Y-110346305D01*
X147183145Y-110346305D01*
X147189633Y-110348894D01*
X147195926Y-110349511D01*
X147202095Y-110349511D01*
X147224954Y-110352186D01*
X147225184Y-110352241D01*
X147225186Y-110352241D01*
X147234077Y-110354351D01*
X147262999Y-110350415D01*
X147276348Y-110349511D01*
X148328535Y-110349511D01*
X148332660Y-110349814D01*
X148337385Y-110351436D01*
X148386804Y-110349581D01*
X148390517Y-110349511D01*
X148409991Y-110349511D01*
X148414421Y-110348686D01*
X148419614Y-110348350D01*
X148435645Y-110347748D01*
X148440118Y-110347580D01*
X148449251Y-110347237D01*
X148457645Y-110343631D01*
X148457648Y-110343630D01*
X148459826Y-110342694D01*
X148480777Y-110336328D01*
X148492096Y-110334220D01*
X148514772Y-110320243D01*
X148527639Y-110313559D01*
X148545685Y-110305806D01*
X148545686Y-110305805D01*
X148552106Y-110303047D01*
X148556992Y-110299033D01*
X148561356Y-110294669D01*
X148579411Y-110280398D01*
X148587391Y-110275479D01*
X148605061Y-110252242D01*
X148613853Y-110242172D01*
X149727009Y-109129016D01*
X149781526Y-109101239D01*
X149797013Y-109100020D01*
X153718405Y-109100020D01*
X153722530Y-109100323D01*
X153727255Y-109101945D01*
X153776674Y-109100090D01*
X153780387Y-109100020D01*
X153799861Y-109100020D01*
X153804291Y-109099195D01*
X153809484Y-109098859D01*
X153825515Y-109098257D01*
X153829988Y-109098089D01*
X153839121Y-109097746D01*
X153847515Y-109094140D01*
X153847518Y-109094139D01*
X153849696Y-109093203D01*
X153870647Y-109086837D01*
X153881966Y-109084729D01*
X153904642Y-109070752D01*
X153917509Y-109064068D01*
X153935555Y-109056315D01*
X153935556Y-109056314D01*
X153941976Y-109053556D01*
X153946862Y-109049542D01*
X153951226Y-109045178D01*
X153969281Y-109030907D01*
X153977261Y-109025988D01*
X153994931Y-109002751D01*
X154003723Y-108992681D01*
X157374651Y-105621754D01*
X157377780Y-105619054D01*
X157382269Y-105616859D01*
X157415893Y-105580612D01*
X157418469Y-105577936D01*
X157432247Y-105564158D01*
X157434792Y-105560447D01*
X157438220Y-105556542D01*
X157458401Y-105534788D01*
X157462666Y-105524098D01*
X157472980Y-105504782D01*
X157474321Y-105502827D01*
X157474322Y-105502824D01*
X157479492Y-105495288D01*
X157485641Y-105469375D01*
X157490014Y-105455550D01*
X157497294Y-105437302D01*
X157497294Y-105437300D01*
X157499883Y-105430812D01*
X157500500Y-105424519D01*
X157500500Y-105418351D01*
X157503175Y-105395492D01*
X157503230Y-105395262D01*
X157503230Y-105395258D01*
X157505340Y-105386368D01*
X157501404Y-105357446D01*
X157500500Y-105344097D01*
X157500500Y-98665479D01*
X157519407Y-98607288D01*
X157529496Y-98595475D01*
X157951018Y-98173954D01*
X158398667Y-97726305D01*
X158401792Y-97723608D01*
X158406280Y-97721414D01*
X158439891Y-97685181D01*
X158442467Y-97682505D01*
X158456259Y-97668713D01*
X158458804Y-97665002D01*
X158462245Y-97661083D01*
X158476196Y-97646044D01*
X158476196Y-97646043D01*
X158482412Y-97639343D01*
X158485798Y-97630855D01*
X158485800Y-97630852D01*
X158486678Y-97628651D01*
X158496992Y-97609335D01*
X158498333Y-97607380D01*
X158498334Y-97607378D01*
X158503503Y-97599843D01*
X158507605Y-97582560D01*
X158509652Y-97573931D01*
X158514025Y-97560105D01*
X158521305Y-97541857D01*
X158521305Y-97541855D01*
X158523894Y-97535367D01*
X158524511Y-97529074D01*
X158524511Y-97522905D01*
X158527186Y-97500046D01*
X158527241Y-97499816D01*
X158527241Y-97499814D01*
X158529351Y-97490923D01*
X158525415Y-97462001D01*
X158524511Y-97448652D01*
X158524511Y-96577518D01*
X158524814Y-96573394D01*
X158526436Y-96568669D01*
X158524581Y-96519261D01*
X158524511Y-96515547D01*
X158524511Y-96496063D01*
X158523686Y-96491631D01*
X158523348Y-96486426D01*
X158522844Y-96472981D01*
X158522236Y-96456802D01*
X158517694Y-96446230D01*
X158511328Y-96425277D01*
X158510894Y-96422945D01*
X158510893Y-96422943D01*
X158509220Y-96413958D01*
X158495240Y-96391279D01*
X158488560Y-96378418D01*
X158480807Y-96360372D01*
X158478047Y-96353948D01*
X158474033Y-96349062D01*
X158469669Y-96344698D01*
X158455398Y-96326643D01*
X158455275Y-96326444D01*
X158450479Y-96318663D01*
X158427242Y-96300993D01*
X158417172Y-96292201D01*
X158029496Y-95904525D01*
X158001719Y-95850008D01*
X158000500Y-95834521D01*
X158000500Y-91753508D01*
X158000803Y-91749383D01*
X158002425Y-91744658D01*
X158000570Y-91695238D01*
X158000500Y-91691525D01*
X158000500Y-91672052D01*
X157999675Y-91667622D01*
X157999338Y-91662417D01*
X157999277Y-91660777D01*
X157998226Y-91632791D01*
X157993681Y-91622212D01*
X157987317Y-91601263D01*
X157986884Y-91598936D01*
X157986882Y-91598931D01*
X157985209Y-91589947D01*
X157971232Y-91567271D01*
X157964548Y-91554404D01*
X157956795Y-91536358D01*
X157956794Y-91536357D01*
X157954036Y-91529937D01*
X157950022Y-91525051D01*
X157945658Y-91520687D01*
X157931387Y-91502632D01*
X157931264Y-91502433D01*
X157926468Y-91494652D01*
X157903231Y-91476982D01*
X157893161Y-91468190D01*
X152576280Y-86151309D01*
X152573580Y-86148180D01*
X152571385Y-86143691D01*
X152535138Y-86110067D01*
X152532462Y-86107491D01*
X152518683Y-86093712D01*
X152514973Y-86091167D01*
X152511060Y-86087731D01*
X152496015Y-86073775D01*
X152489314Y-86067559D01*
X152478624Y-86063294D01*
X152459308Y-86052980D01*
X152457353Y-86051639D01*
X152457350Y-86051638D01*
X152449814Y-86046468D01*
X152423901Y-86040319D01*
X152410076Y-86035946D01*
X152391828Y-86028666D01*
X152391826Y-86028666D01*
X152385338Y-86026077D01*
X152379045Y-86025460D01*
X152372876Y-86025460D01*
X152350017Y-86022785D01*
X152349787Y-86022730D01*
X152349785Y-86022730D01*
X152340894Y-86020620D01*
X152311973Y-86024556D01*
X152298623Y-86025460D01*
X150891439Y-86025460D01*
X150833248Y-86006553D01*
X150821436Y-85996464D01*
X150609497Y-85784526D01*
X150581719Y-85730009D01*
X150580500Y-85714522D01*
X150580500Y-84287485D01*
X150599407Y-84229294D01*
X150634864Y-84199119D01*
X150793905Y-84118783D01*
X150793911Y-84118779D01*
X150798229Y-84116598D01*
X150946970Y-84000388D01*
X150950132Y-83996725D01*
X150950137Y-83996720D01*
X151067143Y-83861166D01*
X151070307Y-83857501D01*
X151081007Y-83838667D01*
X151150786Y-83715834D01*
X151858001Y-83715834D01*
X151858424Y-83722292D01*
X151872108Y-83826236D01*
X151875439Y-83838667D01*
X151929015Y-83968012D01*
X151935449Y-83979156D01*
X152020672Y-84090221D01*
X152029779Y-84099328D01*
X152140845Y-84184551D01*
X152151989Y-84190985D01*
X152281332Y-84244561D01*
X152293765Y-84247892D01*
X152397710Y-84261577D01*
X152404164Y-84262000D01*
X152654320Y-84262000D01*
X152667005Y-84257878D01*
X152670000Y-84253757D01*
X152670000Y-84246319D01*
X152970000Y-84246319D01*
X152974122Y-84259004D01*
X152978243Y-84261999D01*
X153235834Y-84261999D01*
X153242292Y-84261576D01*
X153346236Y-84247892D01*
X153358667Y-84244561D01*
X153488012Y-84190985D01*
X153499156Y-84184551D01*
X153610221Y-84099328D01*
X153619328Y-84090221D01*
X153704551Y-83979155D01*
X153710985Y-83968011D01*
X153764561Y-83838668D01*
X153767892Y-83826235D01*
X153781577Y-83722290D01*
X153782000Y-83715836D01*
X153782000Y-83465680D01*
X153777878Y-83452995D01*
X153773757Y-83450000D01*
X152985680Y-83450000D01*
X152972995Y-83454122D01*
X152970000Y-83458243D01*
X152970000Y-84246319D01*
X152670000Y-84246319D01*
X152670000Y-83465680D01*
X152665878Y-83452995D01*
X152661757Y-83450000D01*
X151873681Y-83450000D01*
X151860996Y-83454122D01*
X151858001Y-83458243D01*
X151858001Y-83715834D01*
X151150786Y-83715834D01*
X151161153Y-83697584D01*
X151161154Y-83697581D01*
X151163542Y-83693378D01*
X151177515Y-83651376D01*
X151221596Y-83518863D01*
X151221596Y-83518861D01*
X151223123Y-83514272D01*
X151246780Y-83327005D01*
X151247157Y-83300000D01*
X151232156Y-83147005D01*
X151230912Y-83134320D01*
X151858000Y-83134320D01*
X151862122Y-83147005D01*
X151866243Y-83150000D01*
X152654320Y-83150000D01*
X152667005Y-83145878D01*
X152670000Y-83141757D01*
X152670000Y-83134320D01*
X152970000Y-83134320D01*
X152974122Y-83147005D01*
X152978243Y-83150000D01*
X153766319Y-83150000D01*
X153779004Y-83145878D01*
X153781999Y-83141757D01*
X153781999Y-82884166D01*
X153781576Y-82877708D01*
X153767892Y-82773764D01*
X153764561Y-82761333D01*
X153710985Y-82631988D01*
X153704551Y-82620844D01*
X153619328Y-82509779D01*
X153610221Y-82500672D01*
X153499155Y-82415449D01*
X153488011Y-82409015D01*
X153358668Y-82355439D01*
X153346235Y-82352108D01*
X153242290Y-82338423D01*
X153235836Y-82338000D01*
X152985680Y-82338000D01*
X152972995Y-82342122D01*
X152970000Y-82346243D01*
X152970000Y-83134320D01*
X152670000Y-83134320D01*
X152670000Y-82353681D01*
X152665878Y-82340996D01*
X152661757Y-82338001D01*
X152404166Y-82338001D01*
X152397708Y-82338424D01*
X152293764Y-82352108D01*
X152281333Y-82355439D01*
X152151988Y-82409015D01*
X152140844Y-82415449D01*
X152029779Y-82500672D01*
X152020672Y-82509779D01*
X151935449Y-82620845D01*
X151929015Y-82631989D01*
X151875439Y-82761332D01*
X151872108Y-82773765D01*
X151858423Y-82877710D01*
X151858000Y-82884164D01*
X151858000Y-83134320D01*
X151230912Y-83134320D01*
X151229210Y-83116955D01*
X151229209Y-83116951D01*
X151228738Y-83112145D01*
X151174181Y-82931445D01*
X151085566Y-82764783D01*
X150966266Y-82618508D01*
X150820827Y-82498191D01*
X150654788Y-82408414D01*
X150474474Y-82352597D01*
X150462524Y-82351341D01*
X150291568Y-82333373D01*
X150291566Y-82333373D01*
X150286752Y-82332867D01*
X150231883Y-82337860D01*
X150103592Y-82349535D01*
X150103588Y-82349536D01*
X150098773Y-82349974D01*
X150080205Y-82355439D01*
X149922344Y-82401900D01*
X149922341Y-82401901D01*
X149917697Y-82403268D01*
X149894397Y-82415449D01*
X149754717Y-82488471D01*
X149754713Y-82488474D01*
X149750420Y-82490718D01*
X149746644Y-82493754D01*
X149746641Y-82493756D01*
X149607088Y-82605960D01*
X149603316Y-82608993D01*
X149600207Y-82612698D01*
X149600204Y-82612701D01*
X149535996Y-82689221D01*
X149481986Y-82753588D01*
X149391052Y-82918996D01*
X149333978Y-83098917D01*
X149332494Y-83112145D01*
X149314212Y-83275132D01*
X149312937Y-83286496D01*
X149315954Y-83322427D01*
X149327984Y-83465680D01*
X149328732Y-83474590D01*
X149330065Y-83479238D01*
X149330065Y-83479239D01*
X149340111Y-83514272D01*
X149380760Y-83656034D01*
X149382975Y-83660344D01*
X149464827Y-83819612D01*
X149464830Y-83819616D01*
X149467040Y-83823917D01*
X149584285Y-83971844D01*
X149587972Y-83974982D01*
X149587974Y-83974984D01*
X149724342Y-84091042D01*
X149724347Y-84091045D01*
X149728030Y-84094180D01*
X149732253Y-84096540D01*
X149732257Y-84096543D01*
X149855203Y-84165255D01*
X149892800Y-84186267D01*
X149897403Y-84187763D01*
X149897404Y-84187763D01*
X149911091Y-84192210D01*
X149960591Y-84228173D01*
X149979500Y-84286365D01*
X149979500Y-85826492D01*
X149979197Y-85830617D01*
X149977575Y-85835342D01*
X149977918Y-85844476D01*
X149979430Y-85884761D01*
X149979500Y-85888474D01*
X149979500Y-85907948D01*
X149980325Y-85912378D01*
X149980661Y-85917571D01*
X149981774Y-85947208D01*
X149985380Y-85955602D01*
X149985381Y-85955605D01*
X149986317Y-85957783D01*
X149992683Y-85978734D01*
X149994791Y-85990053D01*
X149999588Y-85997835D01*
X150008768Y-86012728D01*
X150015452Y-86025596D01*
X150021778Y-86040319D01*
X150025964Y-86050063D01*
X150029978Y-86054949D01*
X150034342Y-86059313D01*
X150048613Y-86077368D01*
X150053532Y-86085348D01*
X150076769Y-86103018D01*
X150086839Y-86111810D01*
X150256005Y-86280976D01*
X150283782Y-86335493D01*
X150274211Y-86395925D01*
X150230946Y-86439190D01*
X150186001Y-86449980D01*
X148515959Y-86449980D01*
X148457768Y-86431073D01*
X148445955Y-86420984D01*
X148069496Y-86044525D01*
X148041719Y-85990008D01*
X148040500Y-85974521D01*
X148040500Y-84287485D01*
X148059407Y-84229294D01*
X148094864Y-84199119D01*
X148253905Y-84118783D01*
X148253911Y-84118779D01*
X148258229Y-84116598D01*
X148406970Y-84000388D01*
X148410132Y-83996725D01*
X148410137Y-83996720D01*
X148527143Y-83861166D01*
X148530307Y-83857501D01*
X148541007Y-83838667D01*
X148621153Y-83697584D01*
X148621154Y-83697581D01*
X148623542Y-83693378D01*
X148637515Y-83651376D01*
X148681596Y-83518863D01*
X148681596Y-83518861D01*
X148683123Y-83514272D01*
X148706780Y-83327005D01*
X148707157Y-83300000D01*
X148692156Y-83147005D01*
X148689210Y-83116955D01*
X148689209Y-83116951D01*
X148688738Y-83112145D01*
X148634181Y-82931445D01*
X148545566Y-82764783D01*
X148426266Y-82618508D01*
X148280827Y-82498191D01*
X148114788Y-82408414D01*
X147934474Y-82352597D01*
X147922524Y-82351341D01*
X147751568Y-82333373D01*
X147751566Y-82333373D01*
X147746752Y-82332867D01*
X147691883Y-82337860D01*
X147563592Y-82349535D01*
X147563588Y-82349536D01*
X147558773Y-82349974D01*
X147540205Y-82355439D01*
X147382344Y-82401900D01*
X147382341Y-82401901D01*
X147377697Y-82403268D01*
X147354397Y-82415449D01*
X147214717Y-82488471D01*
X147214713Y-82488474D01*
X147210420Y-82490718D01*
X147206644Y-82493754D01*
X147206641Y-82493756D01*
X147067088Y-82605960D01*
X147063316Y-82608993D01*
X147060207Y-82612698D01*
X147060204Y-82612701D01*
X146995996Y-82689221D01*
X146941986Y-82753588D01*
X146851052Y-82918996D01*
X146793978Y-83098917D01*
X146792494Y-83112145D01*
X146774212Y-83275132D01*
X146772937Y-83286496D01*
X146775954Y-83322427D01*
X146787984Y-83465680D01*
X146788732Y-83474590D01*
X146790065Y-83479238D01*
X146790065Y-83479239D01*
X146800111Y-83514272D01*
X146840760Y-83656034D01*
X146842975Y-83660344D01*
X146924827Y-83819612D01*
X146924830Y-83819616D01*
X146927040Y-83823917D01*
X147044285Y-83971844D01*
X147047972Y-83974982D01*
X147047974Y-83974984D01*
X147184342Y-84091042D01*
X147184347Y-84091045D01*
X147188030Y-84094180D01*
X147192253Y-84096540D01*
X147192257Y-84096543D01*
X147315203Y-84165255D01*
X147352800Y-84186267D01*
X147357403Y-84187763D01*
X147357404Y-84187763D01*
X147371091Y-84192210D01*
X147420591Y-84228173D01*
X147439500Y-84286365D01*
X147439500Y-86086492D01*
X147439197Y-86090617D01*
X147437575Y-86095342D01*
X147437918Y-86104476D01*
X147439430Y-86144761D01*
X147439500Y-86148474D01*
X147439500Y-86167948D01*
X147440325Y-86172378D01*
X147440661Y-86177571D01*
X147441774Y-86207208D01*
X147445380Y-86215602D01*
X147445381Y-86215605D01*
X147446317Y-86217783D01*
X147452683Y-86238734D01*
X147454791Y-86250053D01*
X147459588Y-86257835D01*
X147468768Y-86272728D01*
X147475451Y-86285595D01*
X147485964Y-86310063D01*
X147489978Y-86314949D01*
X147494342Y-86319313D01*
X147508613Y-86337368D01*
X147513532Y-86345348D01*
X147536769Y-86363018D01*
X147546839Y-86371810D01*
X147905525Y-86730496D01*
X147933302Y-86785013D01*
X147923731Y-86845445D01*
X147880466Y-86888710D01*
X147835521Y-86899500D01*
X146165479Y-86899500D01*
X146107288Y-86880593D01*
X146095475Y-86870504D01*
X145529496Y-86304525D01*
X145501719Y-86250008D01*
X145500500Y-86234521D01*
X145500500Y-84287485D01*
X145519407Y-84229294D01*
X145554864Y-84199119D01*
X145713905Y-84118783D01*
X145713911Y-84118779D01*
X145718229Y-84116598D01*
X145866970Y-84000388D01*
X145870132Y-83996725D01*
X145870137Y-83996720D01*
X145987143Y-83861166D01*
X145990307Y-83857501D01*
X146001007Y-83838667D01*
X146081153Y-83697584D01*
X146081154Y-83697581D01*
X146083542Y-83693378D01*
X146097515Y-83651376D01*
X146141596Y-83518863D01*
X146141596Y-83518861D01*
X146143123Y-83514272D01*
X146166780Y-83327005D01*
X146167157Y-83300000D01*
X146152156Y-83147005D01*
X146149210Y-83116955D01*
X146149209Y-83116951D01*
X146148738Y-83112145D01*
X146094181Y-82931445D01*
X146005566Y-82764783D01*
X145886266Y-82618508D01*
X145740827Y-82498191D01*
X145574788Y-82408414D01*
X145394474Y-82352597D01*
X145382524Y-82351341D01*
X145211568Y-82333373D01*
X145211566Y-82333373D01*
X145206752Y-82332867D01*
X145151883Y-82337860D01*
X145023592Y-82349535D01*
X145023588Y-82349536D01*
X145018773Y-82349974D01*
X145000205Y-82355439D01*
X144842344Y-82401900D01*
X144842341Y-82401901D01*
X144837697Y-82403268D01*
X144814397Y-82415449D01*
X144674717Y-82488471D01*
X144674713Y-82488474D01*
X144670420Y-82490718D01*
X144666644Y-82493754D01*
X144666641Y-82493756D01*
X144527088Y-82605960D01*
X144523316Y-82608993D01*
X144520207Y-82612698D01*
X144520204Y-82612701D01*
X144455996Y-82689221D01*
X144401986Y-82753588D01*
X144311052Y-82918996D01*
X144253978Y-83098917D01*
X144252494Y-83112145D01*
X144234212Y-83275132D01*
X144232937Y-83286496D01*
X144235954Y-83322427D01*
X144247984Y-83465680D01*
X144248732Y-83474590D01*
X144250065Y-83479238D01*
X144250065Y-83479239D01*
X144260111Y-83514272D01*
X144300760Y-83656034D01*
X144302975Y-83660344D01*
X144384827Y-83819612D01*
X144384830Y-83819616D01*
X144387040Y-83823917D01*
X144504285Y-83971844D01*
X144507972Y-83974982D01*
X144507974Y-83974984D01*
X144644342Y-84091042D01*
X144644347Y-84091045D01*
X144648030Y-84094180D01*
X144652253Y-84096540D01*
X144652257Y-84096543D01*
X144775203Y-84165255D01*
X144812800Y-84186267D01*
X144817403Y-84187763D01*
X144817404Y-84187763D01*
X144831091Y-84192210D01*
X144880591Y-84228173D01*
X144899500Y-84286365D01*
X144899500Y-86346492D01*
X144899197Y-86350617D01*
X144897575Y-86355342D01*
X144897918Y-86364476D01*
X144899430Y-86404761D01*
X144899500Y-86408474D01*
X144899500Y-86427948D01*
X144900325Y-86432378D01*
X144900661Y-86437571D01*
X144901774Y-86467208D01*
X144905380Y-86475602D01*
X144905381Y-86475605D01*
X144906317Y-86477783D01*
X144912683Y-86498734D01*
X144914791Y-86510053D01*
X144919588Y-86517835D01*
X144928768Y-86532728D01*
X144935452Y-86545596D01*
X144942862Y-86562842D01*
X144945964Y-86570063D01*
X144949978Y-86574949D01*
X144954342Y-86579313D01*
X144968613Y-86597368D01*
X144973532Y-86605348D01*
X144996769Y-86623018D01*
X145006839Y-86631810D01*
X145749680Y-87374651D01*
X145752380Y-87377780D01*
X145754575Y-87382269D01*
X145761278Y-87388487D01*
X145790822Y-87415893D01*
X145793498Y-87418469D01*
X145807277Y-87432248D01*
X145810987Y-87434793D01*
X145814900Y-87438229D01*
X145836646Y-87458401D01*
X145845132Y-87461787D01*
X145845134Y-87461788D01*
X145847337Y-87462667D01*
X145866648Y-87472978D01*
X145868607Y-87474322D01*
X145868610Y-87474323D01*
X145876146Y-87479493D01*
X145885038Y-87481603D01*
X145885040Y-87481604D01*
X145902066Y-87485644D01*
X145915885Y-87490014D01*
X145940622Y-87499883D01*
X145946915Y-87500500D01*
X145953085Y-87500500D01*
X145975941Y-87503175D01*
X145985066Y-87505340D01*
X146013988Y-87501404D01*
X146027337Y-87500500D01*
X147073389Y-87500500D01*
X147131580Y-87519407D01*
X147167544Y-87568907D01*
X147167544Y-87630093D01*
X147143393Y-87669504D01*
X147139540Y-87673357D01*
X147136737Y-87676051D01*
X147099876Y-87710124D01*
X147099874Y-87710127D01*
X147094444Y-87715146D01*
X147090922Y-87721210D01*
X147084362Y-87728535D01*
X145304516Y-89508381D01*
X145295804Y-89516122D01*
X145267890Y-89538128D01*
X145267031Y-89539371D01*
X145215895Y-89567482D01*
X145155192Y-89559812D01*
X145127342Y-89540239D01*
X145126643Y-89539540D01*
X145123949Y-89536737D01*
X145089876Y-89499876D01*
X145089873Y-89499874D01*
X145084854Y-89494444D01*
X145078790Y-89490922D01*
X145071465Y-89484362D01*
X143291619Y-87704516D01*
X143283877Y-87695803D01*
X143266453Y-87673701D01*
X143261872Y-87667890D01*
X143213251Y-87634286D01*
X143210728Y-87632483D01*
X143169139Y-87601764D01*
X143169137Y-87601763D01*
X143163184Y-87597366D01*
X143156368Y-87594973D01*
X143150431Y-87590869D01*
X143143372Y-87588636D01*
X143143371Y-87588636D01*
X143123027Y-87582202D01*
X143094071Y-87573044D01*
X143091186Y-87572082D01*
X143035369Y-87552481D01*
X143029327Y-87552244D01*
X143026653Y-87551723D01*
X143021270Y-87550020D01*
X143014663Y-87549500D01*
X142961459Y-87549500D01*
X142957572Y-87549424D01*
X142907397Y-87547452D01*
X142907394Y-87547452D01*
X142900006Y-87547162D01*
X142893228Y-87548959D01*
X142883403Y-87549500D01*
X139632627Y-87549500D01*
X139620991Y-87548814D01*
X139619454Y-87548632D01*
X139585690Y-87544636D01*
X139527567Y-87555251D01*
X139524520Y-87555758D01*
X139501128Y-87559275D01*
X139473353Y-87563451D01*
X139473352Y-87563451D01*
X139466038Y-87564551D01*
X139459528Y-87567677D01*
X139452427Y-87568974D01*
X139418811Y-87586435D01*
X139400005Y-87596204D01*
X139397227Y-87597592D01*
X139350600Y-87619983D01*
X139350596Y-87619985D01*
X139343921Y-87623191D01*
X139339483Y-87627294D01*
X139337220Y-87628819D01*
X139332212Y-87631420D01*
X139327172Y-87635725D01*
X139289540Y-87673357D01*
X139286737Y-87676051D01*
X139249876Y-87710124D01*
X139249874Y-87710127D01*
X139244444Y-87715146D01*
X139240922Y-87721210D01*
X139234362Y-87728535D01*
X135704516Y-91258381D01*
X135695804Y-91266122D01*
X135667890Y-91288128D01*
X135663683Y-91294215D01*
X135660444Y-91298902D01*
X135648339Y-91316417D01*
X135634292Y-91336741D01*
X135632488Y-91339264D01*
X135626334Y-91347597D01*
X135605056Y-91376405D01*
X135597366Y-91386816D01*
X135594973Y-91393632D01*
X135590869Y-91399569D01*
X135588636Y-91406628D01*
X135588636Y-91406629D01*
X135573049Y-91455915D01*
X135572082Y-91458814D01*
X135552481Y-91514631D01*
X135552244Y-91520673D01*
X135551723Y-91523347D01*
X135550020Y-91528730D01*
X135549500Y-91535337D01*
X135549500Y-91588541D01*
X135549424Y-91592428D01*
X135548254Y-91622212D01*
X135547162Y-91649994D01*
X135548959Y-91656772D01*
X135549500Y-91666597D01*
X135549500Y-97728487D01*
X135530593Y-97786678D01*
X135521070Y-97797838D01*
X135520856Y-97798138D01*
X135515073Y-97803931D01*
X135511480Y-97811282D01*
X135463790Y-97908844D01*
X135460174Y-97916241D01*
X135456815Y-97939265D01*
X135450787Y-97980591D01*
X135449500Y-97989410D01*
X135449500Y-99010590D01*
X135460365Y-99084396D01*
X135463755Y-99091300D01*
X135463755Y-99091301D01*
X135469575Y-99103154D01*
X135515459Y-99196610D01*
X135521250Y-99202391D01*
X135526014Y-99209045D01*
X135524723Y-99209969D01*
X135548267Y-99256074D01*
X135549500Y-99271649D01*
X135549500Y-99380938D01*
X135530593Y-99439129D01*
X135489818Y-99471795D01*
X135418488Y-99502663D01*
X135364558Y-99526001D01*
X135359556Y-99529923D01*
X135320260Y-99560735D01*
X135296626Y-99579266D01*
X134779267Y-100096626D01*
X134726001Y-100164558D01*
X134668820Y-100296693D01*
X134667904Y-100303381D01*
X134667903Y-100303384D01*
X134650377Y-100431333D01*
X134649280Y-100439340D01*
X134650196Y-100446027D01*
X134666274Y-100563397D01*
X134668820Y-100581987D01*
X134726001Y-100714122D01*
X134729923Y-100719124D01*
X134765253Y-100764182D01*
X134779266Y-100782054D01*
X135296626Y-101299413D01*
X135298967Y-101301249D01*
X135298972Y-101301253D01*
X135316075Y-101314663D01*
X135364558Y-101352679D01*
X135496693Y-101409860D01*
X135503381Y-101410776D01*
X135503384Y-101410777D01*
X135632653Y-101428484D01*
X135639340Y-101429400D01*
X135646027Y-101428484D01*
X135775296Y-101410777D01*
X135775299Y-101410776D01*
X135781987Y-101409860D01*
X135914122Y-101352679D01*
X135927293Y-101342352D01*
X135979709Y-101301253D01*
X135979712Y-101301250D01*
X135982054Y-101299414D01*
X135984159Y-101297309D01*
X135984166Y-101297303D01*
X136330496Y-100950972D01*
X136385013Y-100923194D01*
X136445445Y-100932765D01*
X136488710Y-100976030D01*
X136499500Y-101020975D01*
X136499500Y-101022388D01*
X136480593Y-101080579D01*
X136470504Y-101092392D01*
X134947217Y-102615680D01*
X133446781Y-104116116D01*
X133392264Y-104143893D01*
X133331832Y-104134322D01*
X133306773Y-104116116D01*
X132929496Y-103738839D01*
X132901719Y-103684322D01*
X132900500Y-103668835D01*
X132900500Y-99400000D01*
X133594318Y-99400000D01*
X133614956Y-99556762D01*
X133617440Y-99562759D01*
X133626371Y-99584319D01*
X133675464Y-99702841D01*
X133771718Y-99828282D01*
X133897159Y-99924536D01*
X134043238Y-99985044D01*
X134200000Y-100005682D01*
X134356762Y-99985044D01*
X134502841Y-99924536D01*
X134628282Y-99828282D01*
X134724536Y-99702841D01*
X134773629Y-99584319D01*
X134782560Y-99562759D01*
X134785044Y-99556762D01*
X134805682Y-99400000D01*
X134785044Y-99243238D01*
X134724536Y-99097159D01*
X134628282Y-98971718D01*
X134564233Y-98922571D01*
X134529577Y-98872148D01*
X134525500Y-98844030D01*
X134525500Y-90775834D01*
X134544407Y-90717643D01*
X134554496Y-90705830D01*
X138105830Y-87154496D01*
X138160347Y-87126719D01*
X138175834Y-87125500D01*
X142181466Y-87125500D01*
X142190095Y-87125877D01*
X142228807Y-87129264D01*
X142238305Y-87126719D01*
X142266349Y-87119204D01*
X142274784Y-87117334D01*
X142304517Y-87112092D01*
X142304519Y-87112091D01*
X142313045Y-87110588D01*
X142320544Y-87106258D01*
X142326029Y-87104262D01*
X142331316Y-87101796D01*
X142339684Y-87099554D01*
X142371511Y-87077268D01*
X142378795Y-87072627D01*
X142412455Y-87053194D01*
X142437431Y-87023429D01*
X142443265Y-87017061D01*
X142829269Y-86631057D01*
X142835637Y-86625222D01*
X142838274Y-86623009D01*
X142865406Y-86600243D01*
X142884841Y-86566580D01*
X142889480Y-86559299D01*
X142893582Y-86553441D01*
X142911766Y-86527472D01*
X142914008Y-86519104D01*
X142916474Y-86513817D01*
X142918470Y-86508332D01*
X142922800Y-86500833D01*
X142925080Y-86487905D01*
X142929546Y-86462572D01*
X142931416Y-86454137D01*
X142939234Y-86424962D01*
X142941476Y-86416595D01*
X142938089Y-86377879D01*
X142937712Y-86369251D01*
X142937712Y-84296924D01*
X142956619Y-84238733D01*
X143000911Y-84204624D01*
X143005085Y-84203005D01*
X143009748Y-84201703D01*
X143178229Y-84116598D01*
X143326970Y-84000388D01*
X143330132Y-83996725D01*
X143330137Y-83996720D01*
X143447143Y-83861166D01*
X143450307Y-83857501D01*
X143461007Y-83838667D01*
X143541153Y-83697584D01*
X143541154Y-83697581D01*
X143543542Y-83693378D01*
X143557515Y-83651376D01*
X143601596Y-83518863D01*
X143601596Y-83518861D01*
X143603123Y-83514272D01*
X143626780Y-83327005D01*
X143627157Y-83300000D01*
X143612156Y-83147005D01*
X143609210Y-83116955D01*
X143609209Y-83116951D01*
X143608738Y-83112145D01*
X143554181Y-82931445D01*
X143465566Y-82764783D01*
X143346266Y-82618508D01*
X143200827Y-82498191D01*
X143034788Y-82408414D01*
X142854474Y-82352597D01*
X142842524Y-82351341D01*
X142671568Y-82333373D01*
X142671566Y-82333373D01*
X142666752Y-82332867D01*
X142611883Y-82337860D01*
X142483592Y-82349535D01*
X142483588Y-82349536D01*
X142478773Y-82349974D01*
X142460205Y-82355439D01*
X142302344Y-82401900D01*
X142302341Y-82401901D01*
X142297697Y-82403268D01*
X142274397Y-82415449D01*
X142134717Y-82488471D01*
X142134713Y-82488474D01*
X142130420Y-82490718D01*
X142126644Y-82493754D01*
X142126641Y-82493756D01*
X141987088Y-82605960D01*
X141983316Y-82608993D01*
X141980207Y-82612698D01*
X141980204Y-82612701D01*
X141915996Y-82689221D01*
X141861986Y-82753588D01*
X141771052Y-82918996D01*
X141713978Y-83098917D01*
X141712494Y-83112145D01*
X141694212Y-83275132D01*
X141692937Y-83286496D01*
X141695954Y-83322427D01*
X141707984Y-83465680D01*
X141708732Y-83474590D01*
X141710065Y-83479238D01*
X141710065Y-83479239D01*
X141720111Y-83514272D01*
X141760760Y-83656034D01*
X141762975Y-83660344D01*
X141844827Y-83819612D01*
X141844830Y-83819616D01*
X141847040Y-83823917D01*
X141964285Y-83971844D01*
X141967972Y-83974982D01*
X141967974Y-83974984D01*
X142104342Y-84091042D01*
X142104347Y-84091045D01*
X142108030Y-84094180D01*
X142112253Y-84096540D01*
X142112257Y-84096543D01*
X142236010Y-84165706D01*
X142277582Y-84210599D01*
X142286712Y-84252125D01*
X142286712Y-86211954D01*
X142267805Y-86270145D01*
X142257716Y-86281958D01*
X142094170Y-86445504D01*
X142039653Y-86473281D01*
X142024166Y-86474500D01*
X138018535Y-86474500D01*
X138009906Y-86474123D01*
X138000282Y-86473281D01*
X137971194Y-86470736D01*
X137962830Y-86472977D01*
X137933651Y-86480795D01*
X137925222Y-86482664D01*
X137911108Y-86485153D01*
X137886955Y-86489412D01*
X137879454Y-86493743D01*
X137873964Y-86495741D01*
X137868683Y-86498204D01*
X137860316Y-86500446D01*
X137841781Y-86513425D01*
X137828489Y-86522732D01*
X137821208Y-86527371D01*
X137787545Y-86546806D01*
X137781978Y-86553441D01*
X137762569Y-86576571D01*
X137756735Y-86582939D01*
X133982943Y-90356731D01*
X133976576Y-90362565D01*
X133946806Y-90387545D01*
X133930239Y-90416241D01*
X133927373Y-90421205D01*
X133922732Y-90428489D01*
X133900446Y-90460316D01*
X133898204Y-90468684D01*
X133895738Y-90473971D01*
X133893742Y-90479456D01*
X133889412Y-90486955D01*
X133887909Y-90495481D01*
X133887908Y-90495483D01*
X133882666Y-90525216D01*
X133880796Y-90533650D01*
X133870736Y-90571193D01*
X133871491Y-90579822D01*
X133874123Y-90609905D01*
X133874500Y-90618534D01*
X133874500Y-98844030D01*
X133855593Y-98902221D01*
X133835768Y-98922571D01*
X133771718Y-98971718D01*
X133675464Y-99097159D01*
X133614956Y-99243238D01*
X133594318Y-99400000D01*
X132900500Y-99400000D01*
X132900500Y-89011164D01*
X132919407Y-88952973D01*
X132929496Y-88941160D01*
X137581483Y-84289174D01*
X137636000Y-84261397D01*
X137643883Y-84260471D01*
X137747945Y-84252464D01*
X137929748Y-84201703D01*
X138098229Y-84116598D01*
X138246970Y-84000388D01*
X138250132Y-83996725D01*
X138250137Y-83996720D01*
X138367143Y-83861166D01*
X138370307Y-83857501D01*
X138381007Y-83838667D01*
X138461153Y-83697584D01*
X138461154Y-83697581D01*
X138463542Y-83693378D01*
X138477515Y-83651376D01*
X138521596Y-83518863D01*
X138521596Y-83518861D01*
X138523123Y-83514272D01*
X138546780Y-83327005D01*
X138547157Y-83300000D01*
X138545833Y-83286496D01*
X139152937Y-83286496D01*
X139155954Y-83322427D01*
X139167984Y-83465680D01*
X139168732Y-83474590D01*
X139170065Y-83479238D01*
X139170065Y-83479239D01*
X139180111Y-83514272D01*
X139220760Y-83656034D01*
X139222975Y-83660344D01*
X139304827Y-83819612D01*
X139304830Y-83819616D01*
X139307040Y-83823917D01*
X139424285Y-83971844D01*
X139427972Y-83974982D01*
X139427974Y-83974984D01*
X139564342Y-84091042D01*
X139564347Y-84091045D01*
X139568030Y-84094180D01*
X139572253Y-84096540D01*
X139572257Y-84096543D01*
X139695203Y-84165255D01*
X139732800Y-84186267D01*
X139749492Y-84191690D01*
X139798991Y-84227652D01*
X139817830Y-84282132D01*
X139819430Y-84324761D01*
X139819500Y-84328474D01*
X139819500Y-84347948D01*
X139820325Y-84352378D01*
X139820661Y-84357571D01*
X139821774Y-84387208D01*
X139825380Y-84395602D01*
X139825381Y-84395605D01*
X139826317Y-84397783D01*
X139832683Y-84418734D01*
X139834791Y-84430053D01*
X139839588Y-84437835D01*
X139848768Y-84452728D01*
X139855451Y-84465595D01*
X139865964Y-84490063D01*
X139869978Y-84494949D01*
X139874342Y-84499313D01*
X139888613Y-84517368D01*
X139893532Y-84525348D01*
X139916769Y-84543018D01*
X139926839Y-84551810D01*
X140780820Y-85405791D01*
X140808597Y-85460308D01*
X140808969Y-85488714D01*
X140794318Y-85600000D01*
X140814956Y-85756762D01*
X140875464Y-85902841D01*
X140971718Y-86028282D01*
X141097159Y-86124536D01*
X141243238Y-86185044D01*
X141400000Y-86205682D01*
X141556762Y-86185044D01*
X141702841Y-86124536D01*
X141828282Y-86028282D01*
X141924536Y-85902841D01*
X141985044Y-85756762D01*
X142005682Y-85600000D01*
X141985044Y-85443238D01*
X141924536Y-85297159D01*
X141828282Y-85171718D01*
X141702841Y-85075464D01*
X141556762Y-85014956D01*
X141400000Y-84994318D01*
X141288716Y-85008969D01*
X141228557Y-84997819D01*
X141205791Y-84980820D01*
X140537837Y-84312866D01*
X140510060Y-84258349D01*
X140519631Y-84197917D01*
X140563204Y-84154496D01*
X140633908Y-84118781D01*
X140633911Y-84118779D01*
X140638229Y-84116598D01*
X140786970Y-84000388D01*
X140790132Y-83996725D01*
X140790137Y-83996720D01*
X140907143Y-83861166D01*
X140910307Y-83857501D01*
X140921007Y-83838667D01*
X141001153Y-83697584D01*
X141001154Y-83697581D01*
X141003542Y-83693378D01*
X141017515Y-83651376D01*
X141061596Y-83518863D01*
X141061596Y-83518861D01*
X141063123Y-83514272D01*
X141086780Y-83327005D01*
X141087157Y-83300000D01*
X141072156Y-83147005D01*
X141069210Y-83116955D01*
X141069209Y-83116951D01*
X141068738Y-83112145D01*
X141014181Y-82931445D01*
X140925566Y-82764783D01*
X140806266Y-82618508D01*
X140660827Y-82498191D01*
X140494788Y-82408414D01*
X140314474Y-82352597D01*
X140302524Y-82351341D01*
X140131568Y-82333373D01*
X140131566Y-82333373D01*
X140126752Y-82332867D01*
X140071883Y-82337860D01*
X139943592Y-82349535D01*
X139943588Y-82349536D01*
X139938773Y-82349974D01*
X139920205Y-82355439D01*
X139762344Y-82401900D01*
X139762341Y-82401901D01*
X139757697Y-82403268D01*
X139734397Y-82415449D01*
X139594717Y-82488471D01*
X139594713Y-82488474D01*
X139590420Y-82490718D01*
X139586644Y-82493754D01*
X139586641Y-82493756D01*
X139447088Y-82605960D01*
X139443316Y-82608993D01*
X139440207Y-82612698D01*
X139440204Y-82612701D01*
X139375996Y-82689221D01*
X139321986Y-82753588D01*
X139231052Y-82918996D01*
X139173978Y-83098917D01*
X139172494Y-83112145D01*
X139154212Y-83275132D01*
X139152937Y-83286496D01*
X138545833Y-83286496D01*
X138532156Y-83147005D01*
X138529210Y-83116955D01*
X138529209Y-83116951D01*
X138528738Y-83112145D01*
X138474181Y-82931445D01*
X138385566Y-82764783D01*
X138266266Y-82618508D01*
X138120827Y-82498191D01*
X137954788Y-82408414D01*
X137774474Y-82352597D01*
X137762524Y-82351341D01*
X137591568Y-82333373D01*
X137591566Y-82333373D01*
X137586752Y-82332867D01*
X137531883Y-82337860D01*
X137403592Y-82349535D01*
X137403588Y-82349536D01*
X137398773Y-82349974D01*
X137380205Y-82355439D01*
X137222344Y-82401900D01*
X137222341Y-82401901D01*
X137217697Y-82403268D01*
X137194397Y-82415449D01*
X137054717Y-82488471D01*
X137054713Y-82488474D01*
X137050420Y-82490718D01*
X137046644Y-82493754D01*
X137046641Y-82493756D01*
X136907088Y-82605960D01*
X136903316Y-82608993D01*
X136900207Y-82612698D01*
X136900204Y-82612701D01*
X136835996Y-82689221D01*
X136781986Y-82753588D01*
X136691052Y-82918996D01*
X136633978Y-83098917D01*
X136628584Y-83147005D01*
X136618077Y-83240677D01*
X136589698Y-83299646D01*
X134139017Y-85750326D01*
X131724265Y-88165078D01*
X131719341Y-88169677D01*
X131675604Y-88207831D01*
X131672173Y-88212713D01*
X131672172Y-88212714D01*
X131638903Y-88260052D01*
X131635818Y-88264205D01*
X131596416Y-88314457D01*
X131593958Y-88319900D01*
X131593958Y-88319901D01*
X131592633Y-88322835D01*
X131583398Y-88339028D01*
X131578113Y-88346547D01*
X131575946Y-88352106D01*
X131575944Y-88352109D01*
X131554922Y-88406027D01*
X131552914Y-88410803D01*
X131526645Y-88468984D01*
X131525558Y-88474851D01*
X131524969Y-88478026D01*
X131519867Y-88495938D01*
X131516524Y-88504513D01*
X131508621Y-88564551D01*
X131508192Y-88567808D01*
X131507384Y-88572914D01*
X131501488Y-88604723D01*
X131497157Y-88628092D01*
X131495748Y-88635692D01*
X131497999Y-88674730D01*
X131499336Y-88697924D01*
X131499500Y-88703622D01*
X131499500Y-103972271D01*
X131499271Y-103979005D01*
X131495322Y-104036930D01*
X130160500Y-104036930D01*
X130160500Y-83334281D01*
X130163057Y-83311926D01*
X130163141Y-83311565D01*
X130165655Y-83300718D01*
X130165656Y-83300000D01*
X130164413Y-83294549D01*
X130163791Y-83288995D01*
X130164159Y-83288954D01*
X130162438Y-83267973D01*
X130170522Y-83134320D01*
X130177197Y-83023974D01*
X130178636Y-83012122D01*
X130227404Y-82746005D01*
X130230263Y-82734404D01*
X130262178Y-82631988D01*
X130302910Y-82501274D01*
X130310748Y-82476121D01*
X130314987Y-82464943D01*
X130426020Y-82218237D01*
X130431576Y-82207652D01*
X130571530Y-81976140D01*
X130578321Y-81966301D01*
X130745162Y-81753344D01*
X130753089Y-81744395D01*
X130944395Y-81553089D01*
X130953344Y-81545162D01*
X131166301Y-81378321D01*
X131176140Y-81371530D01*
X131407652Y-81231576D01*
X131418237Y-81226020D01*
X131664943Y-81114987D01*
X131676121Y-81110748D01*
X131725304Y-81095422D01*
X131934412Y-81030261D01*
X131946005Y-81027404D01*
X132212122Y-80978636D01*
X132223974Y-80977197D01*
X132467713Y-80962453D01*
X132477627Y-80963276D01*
X132477627Y-80963138D01*
X132488777Y-80963158D01*
X132499641Y-80965656D01*
X132511641Y-80962941D01*
X132533488Y-80960500D01*
X157865983Y-80960500D01*
X157888169Y-80963018D01*
G37*
%TD.AperFunction*%
%TA.AperFunction,Conductor*%
G36*
X142530580Y-89469407D02*
G01*
X142542393Y-89479496D01*
X143385197Y-90322300D01*
X143412974Y-90376817D01*
X143410155Y-90416238D01*
X143410174Y-90416241D01*
X143399500Y-90489410D01*
X143399500Y-91510590D01*
X143402170Y-91528730D01*
X143406934Y-91561086D01*
X143410365Y-91584396D01*
X143465459Y-91696610D01*
X143471250Y-91702391D01*
X143520442Y-91751497D01*
X143548268Y-91805990D01*
X143549500Y-91821562D01*
X143549500Y-94833850D01*
X143564551Y-94933962D01*
X143567754Y-94940633D01*
X143569930Y-94947705D01*
X143567923Y-94948323D01*
X143574500Y-94977218D01*
X143574500Y-95044748D01*
X143575448Y-95049512D01*
X143580986Y-95077353D01*
X143586133Y-95103231D01*
X143598988Y-95122469D01*
X143630448Y-95169552D01*
X143627261Y-95171682D01*
X143646720Y-95209873D01*
X143637149Y-95270305D01*
X143629940Y-95280228D01*
X143630808Y-95280808D01*
X143592021Y-95338858D01*
X143584702Y-95356526D01*
X143575948Y-95400538D01*
X143575000Y-95410160D01*
X143575000Y-95484320D01*
X143579122Y-95497005D01*
X143583243Y-95500000D01*
X146809320Y-95500000D01*
X146822005Y-95495878D01*
X146825000Y-95491757D01*
X146825000Y-95410160D01*
X146824052Y-95400538D01*
X146815298Y-95356526D01*
X146807979Y-95338858D01*
X146774611Y-95288918D01*
X146761084Y-95275391D01*
X146760186Y-95274791D01*
X146759076Y-95273383D01*
X146754189Y-95268496D01*
X146754767Y-95267918D01*
X146722305Y-95226743D01*
X146719900Y-95165605D01*
X146745180Y-95122469D01*
X146772850Y-95094799D01*
X146780986Y-95077353D01*
X146816296Y-95001629D01*
X146819499Y-94994760D01*
X146824478Y-94956944D01*
X146828237Y-94940021D01*
X146849980Y-94871270D01*
X146850500Y-94864663D01*
X146850500Y-91821600D01*
X146869407Y-91763409D01*
X146879435Y-91751658D01*
X146928914Y-91702093D01*
X146934927Y-91696069D01*
X146965858Y-91632791D01*
X146986453Y-91590660D01*
X146986454Y-91590658D01*
X146989826Y-91583759D01*
X146998366Y-91525218D01*
X146999983Y-91514135D01*
X146999983Y-91514133D01*
X147000500Y-91510590D01*
X147000500Y-91506925D01*
X147800000Y-91506925D01*
X147800526Y-91514117D01*
X147809730Y-91576639D01*
X147814241Y-91591156D01*
X147862267Y-91688973D01*
X147871660Y-91702093D01*
X147948434Y-91778734D01*
X147961576Y-91788108D01*
X148059482Y-91835965D01*
X148073991Y-91840449D01*
X148135913Y-91849483D01*
X148143040Y-91850000D01*
X148184320Y-91850000D01*
X148197005Y-91845878D01*
X148200000Y-91841757D01*
X148200000Y-91834320D01*
X148500000Y-91834320D01*
X148504122Y-91847005D01*
X148508243Y-91850000D01*
X148556925Y-91850000D01*
X148564117Y-91849474D01*
X148626639Y-91840270D01*
X148641156Y-91835759D01*
X148738973Y-91787733D01*
X148752093Y-91778340D01*
X148828734Y-91701566D01*
X148838108Y-91688424D01*
X148885965Y-91590518D01*
X148890449Y-91576009D01*
X148899483Y-91514087D01*
X148900000Y-91506960D01*
X148900000Y-91165680D01*
X148895878Y-91152995D01*
X148891757Y-91150000D01*
X148515680Y-91150000D01*
X148502995Y-91154122D01*
X148500000Y-91158243D01*
X148500000Y-91834320D01*
X148200000Y-91834320D01*
X148200000Y-91165680D01*
X148195878Y-91152995D01*
X148191757Y-91150000D01*
X147815680Y-91150000D01*
X147802995Y-91154122D01*
X147800000Y-91158243D01*
X147800000Y-91506925D01*
X147000500Y-91506925D01*
X147000500Y-90834320D01*
X147800000Y-90834320D01*
X147804122Y-90847005D01*
X147808243Y-90850000D01*
X148184320Y-90850000D01*
X148197005Y-90845878D01*
X148200000Y-90841757D01*
X148200000Y-90834320D01*
X148500000Y-90834320D01*
X148504122Y-90847005D01*
X148508243Y-90850000D01*
X148884320Y-90850000D01*
X148897005Y-90845878D01*
X148900000Y-90841757D01*
X148900000Y-90493075D01*
X148899474Y-90485883D01*
X148890270Y-90423361D01*
X148885759Y-90408844D01*
X148837733Y-90311027D01*
X148828340Y-90297907D01*
X148751566Y-90221266D01*
X148738424Y-90211892D01*
X148640518Y-90164035D01*
X148626009Y-90159551D01*
X148564087Y-90150517D01*
X148556960Y-90150000D01*
X148515680Y-90150000D01*
X148502995Y-90154122D01*
X148500000Y-90158243D01*
X148500000Y-90834320D01*
X148200000Y-90834320D01*
X148200000Y-90165680D01*
X148195878Y-90152995D01*
X148191757Y-90150000D01*
X148143075Y-90150000D01*
X148135883Y-90150526D01*
X148073361Y-90159730D01*
X148058844Y-90164241D01*
X147961027Y-90212267D01*
X147947907Y-90221660D01*
X147871266Y-90298434D01*
X147861892Y-90311576D01*
X147814035Y-90409482D01*
X147809551Y-90423991D01*
X147800517Y-90485913D01*
X147800000Y-90493040D01*
X147800000Y-90834320D01*
X147000500Y-90834320D01*
X147000500Y-90489410D01*
X146989635Y-90415604D01*
X146990355Y-90415498D01*
X146991063Y-90360494D01*
X147014812Y-90322291D01*
X147857607Y-89479496D01*
X147912124Y-89451719D01*
X147927611Y-89450500D01*
X150593709Y-89450500D01*
X150651900Y-89469407D01*
X150663713Y-89479496D01*
X153800186Y-92615969D01*
X153827963Y-92670486D01*
X153821039Y-92725291D01*
X153790140Y-92796693D01*
X153789224Y-92803381D01*
X153789223Y-92803384D01*
X153786712Y-92821718D01*
X153770600Y-92939340D01*
X153771516Y-92946027D01*
X153773363Y-92959507D01*
X153790140Y-93081987D01*
X153847321Y-93214122D01*
X153851243Y-93219124D01*
X153880498Y-93256434D01*
X153900586Y-93282054D01*
X154417946Y-93799413D01*
X154420287Y-93801249D01*
X154420292Y-93801253D01*
X154443900Y-93819764D01*
X154485878Y-93852679D01*
X154595228Y-93900000D01*
X154604754Y-93904122D01*
X154618013Y-93909860D01*
X154624701Y-93910776D01*
X154624704Y-93910777D01*
X154753973Y-93928484D01*
X154760660Y-93929400D01*
X154767347Y-93928484D01*
X154896616Y-93910777D01*
X154896619Y-93910776D01*
X154903307Y-93909860D01*
X154916567Y-93904122D01*
X154943165Y-93892611D01*
X155035442Y-93852679D01*
X155050952Y-93840518D01*
X155101029Y-93801253D01*
X155101032Y-93801250D01*
X155103374Y-93799414D01*
X155105479Y-93797309D01*
X155105486Y-93797303D01*
X155580496Y-93322292D01*
X155635013Y-93294514D01*
X155695445Y-93304085D01*
X155738710Y-93347350D01*
X155749500Y-93392295D01*
X155749500Y-104766322D01*
X155730593Y-104824513D01*
X155720504Y-104836326D01*
X154186326Y-106370504D01*
X154131809Y-106398281D01*
X154116322Y-106399500D01*
X153189410Y-106399500D01*
X153158672Y-106404025D01*
X153123217Y-106409244D01*
X153123215Y-106409245D01*
X153115604Y-106410365D01*
X153003390Y-106465459D01*
X152997609Y-106471250D01*
X152990955Y-106476014D01*
X152990031Y-106474723D01*
X152943926Y-106498267D01*
X152928351Y-106499500D01*
X152443295Y-106499500D01*
X152385104Y-106480593D01*
X152373292Y-106470504D01*
X152105488Y-106202701D01*
X152103374Y-106200587D01*
X152035442Y-106147321D01*
X151903307Y-106090140D01*
X151896619Y-106089224D01*
X151896616Y-106089223D01*
X151862291Y-106084522D01*
X151834586Y-106080726D01*
X151779500Y-106054098D01*
X151750587Y-106000175D01*
X151758890Y-105939556D01*
X151778018Y-105912639D01*
X152433732Y-105256925D01*
X152850000Y-105256925D01*
X152850526Y-105264117D01*
X152859730Y-105326639D01*
X152864241Y-105341156D01*
X152912267Y-105438973D01*
X152921660Y-105452093D01*
X152998434Y-105528734D01*
X153011576Y-105538108D01*
X153109482Y-105585965D01*
X153123991Y-105590449D01*
X153185913Y-105599483D01*
X153193040Y-105600000D01*
X153534320Y-105600000D01*
X153547005Y-105595878D01*
X153550000Y-105591757D01*
X153550000Y-105584320D01*
X153850000Y-105584320D01*
X153854122Y-105597005D01*
X153858243Y-105600000D01*
X154206925Y-105600000D01*
X154214117Y-105599474D01*
X154276639Y-105590270D01*
X154291156Y-105585759D01*
X154388973Y-105537733D01*
X154402093Y-105528340D01*
X154478734Y-105451566D01*
X154488108Y-105438424D01*
X154535965Y-105340518D01*
X154540449Y-105326009D01*
X154549483Y-105264087D01*
X154550000Y-105256960D01*
X154550000Y-105215680D01*
X154545878Y-105202995D01*
X154541757Y-105200000D01*
X153865680Y-105200000D01*
X153852995Y-105204122D01*
X153850000Y-105208243D01*
X153850000Y-105584320D01*
X153550000Y-105584320D01*
X153550000Y-105215680D01*
X153545878Y-105202995D01*
X153541757Y-105200000D01*
X152865680Y-105200000D01*
X152852995Y-105204122D01*
X152850000Y-105208243D01*
X152850000Y-105256925D01*
X152433732Y-105256925D01*
X152764168Y-104926489D01*
X152818685Y-104898712D01*
X152849660Y-104898712D01*
X152857792Y-104900000D01*
X153534320Y-104900000D01*
X153547005Y-104895878D01*
X153550000Y-104891757D01*
X153550000Y-104884320D01*
X153850000Y-104884320D01*
X153854122Y-104897005D01*
X153858243Y-104900000D01*
X154534320Y-104900000D01*
X154547005Y-104895878D01*
X154550000Y-104891757D01*
X154550000Y-104843075D01*
X154549474Y-104835883D01*
X154540270Y-104773361D01*
X154535759Y-104758844D01*
X154487733Y-104661027D01*
X154478340Y-104647907D01*
X154401566Y-104571266D01*
X154388424Y-104561892D01*
X154290518Y-104514035D01*
X154276009Y-104509551D01*
X154214087Y-104500517D01*
X154206960Y-104500000D01*
X153865680Y-104500000D01*
X153852995Y-104504122D01*
X153850000Y-104508243D01*
X153850000Y-104884320D01*
X153550000Y-104884320D01*
X153550000Y-104515680D01*
X153545878Y-104502995D01*
X153541757Y-104500000D01*
X153429665Y-104500000D01*
X153371474Y-104481093D01*
X153335510Y-104431593D01*
X153335510Y-104370407D01*
X153359661Y-104330996D01*
X154175735Y-103514922D01*
X154180659Y-103510323D01*
X154219899Y-103476092D01*
X154224396Y-103472169D01*
X154261100Y-103419944D01*
X154264190Y-103415784D01*
X154299898Y-103370243D01*
X154299899Y-103370242D01*
X154303583Y-103365543D01*
X154307369Y-103357158D01*
X154316596Y-103340982D01*
X154321887Y-103333453D01*
X154345091Y-103273938D01*
X154347071Y-103269227D01*
X154373355Y-103211016D01*
X154375031Y-103201974D01*
X154380134Y-103184058D01*
X154383476Y-103175487D01*
X154391810Y-103112181D01*
X154392619Y-103107070D01*
X154403164Y-103050180D01*
X154403164Y-103050177D01*
X154404252Y-103044308D01*
X154400664Y-102982075D01*
X154400500Y-102976378D01*
X154400500Y-101477611D01*
X154419407Y-101419420D01*
X154429496Y-101407607D01*
X154745484Y-101091619D01*
X154754197Y-101083877D01*
X154758381Y-101080579D01*
X154782110Y-101061872D01*
X154815714Y-101013251D01*
X154817517Y-101010728D01*
X154848236Y-100969139D01*
X154848237Y-100969137D01*
X154852634Y-100963184D01*
X154855027Y-100956368D01*
X154859131Y-100950431D01*
X154862019Y-100941301D01*
X154876951Y-100894085D01*
X154877918Y-100891186D01*
X154897519Y-100835369D01*
X154897756Y-100829327D01*
X154898277Y-100826653D01*
X154899980Y-100821270D01*
X154900500Y-100814663D01*
X154900500Y-100761459D01*
X154900576Y-100757572D01*
X154900600Y-100756963D01*
X154902838Y-100700006D01*
X154901041Y-100693227D01*
X154900500Y-100683407D01*
X154900500Y-94782627D01*
X154901186Y-94770991D01*
X154902565Y-94759340D01*
X154905364Y-94735690D01*
X154894749Y-94677567D01*
X154894240Y-94674510D01*
X154892296Y-94661576D01*
X154885449Y-94616038D01*
X154882323Y-94609528D01*
X154881026Y-94602427D01*
X154853796Y-94550005D01*
X154852408Y-94547227D01*
X154830017Y-94500600D01*
X154830015Y-94500596D01*
X154826809Y-94493921D01*
X154822706Y-94489483D01*
X154821181Y-94487220D01*
X154818580Y-94482212D01*
X154814275Y-94477172D01*
X154776643Y-94439540D01*
X154773949Y-94436737D01*
X154739876Y-94399876D01*
X154739873Y-94399874D01*
X154734854Y-94394444D01*
X154728790Y-94390922D01*
X154721465Y-94384362D01*
X151791619Y-91454516D01*
X151783877Y-91445803D01*
X151766453Y-91423701D01*
X151761872Y-91417890D01*
X151713251Y-91384286D01*
X151710728Y-91382483D01*
X151669139Y-91351764D01*
X151669137Y-91351763D01*
X151663184Y-91347366D01*
X151656368Y-91344973D01*
X151650431Y-91340869D01*
X151643372Y-91338636D01*
X151643371Y-91338636D01*
X151623027Y-91332202D01*
X151594071Y-91323044D01*
X151591186Y-91322082D01*
X151535369Y-91302481D01*
X151529327Y-91302244D01*
X151526653Y-91301723D01*
X151521270Y-91300020D01*
X151514663Y-91299500D01*
X151461459Y-91299500D01*
X151457572Y-91299424D01*
X151407397Y-91297452D01*
X151407394Y-91297452D01*
X151400006Y-91297162D01*
X151393228Y-91298959D01*
X151383403Y-91299500D01*
X149782626Y-91299500D01*
X149770990Y-91298814D01*
X149769453Y-91298632D01*
X149735689Y-91294636D01*
X149728413Y-91295965D01*
X149728409Y-91295965D01*
X149677573Y-91305250D01*
X149674505Y-91305761D01*
X149627493Y-91312829D01*
X149616038Y-91314551D01*
X149609525Y-91317679D01*
X149602427Y-91318975D01*
X149568656Y-91336517D01*
X149550002Y-91346207D01*
X149547236Y-91347590D01*
X149493921Y-91373191D01*
X149489481Y-91377295D01*
X149487218Y-91378820D01*
X149482211Y-91381421D01*
X149477172Y-91385725D01*
X149439540Y-91423357D01*
X149436737Y-91426051D01*
X149399876Y-91460124D01*
X149399874Y-91460127D01*
X149394444Y-91465146D01*
X149390922Y-91471210D01*
X149384362Y-91478535D01*
X148492393Y-92370504D01*
X148437876Y-92398281D01*
X148422389Y-92399500D01*
X148039410Y-92399500D01*
X148008672Y-92404025D01*
X147973217Y-92409244D01*
X147973215Y-92409245D01*
X147965604Y-92410365D01*
X147958700Y-92413755D01*
X147958699Y-92413755D01*
X147913523Y-92435935D01*
X147853390Y-92465459D01*
X147765073Y-92553931D01*
X147761482Y-92561278D01*
X147713790Y-92658844D01*
X147710174Y-92666241D01*
X147699500Y-92739410D01*
X147699500Y-93760590D01*
X147703790Y-93789729D01*
X147704905Y-93797303D01*
X147710365Y-93834396D01*
X147765459Y-93946610D01*
X147771250Y-93952391D01*
X147776014Y-93959045D01*
X147774723Y-93959969D01*
X147798267Y-94006074D01*
X147799500Y-94021649D01*
X147799500Y-94400500D01*
X147780593Y-94458691D01*
X147731093Y-94494655D01*
X147700500Y-94499500D01*
X147439410Y-94499500D01*
X147408672Y-94504025D01*
X147373217Y-94509244D01*
X147373215Y-94509245D01*
X147365604Y-94510365D01*
X147358700Y-94513755D01*
X147358699Y-94513755D01*
X147313523Y-94535935D01*
X147253390Y-94565459D01*
X147247610Y-94571250D01*
X147247609Y-94571250D01*
X147219409Y-94599500D01*
X147165073Y-94653931D01*
X147137070Y-94711218D01*
X147113790Y-94758844D01*
X147110174Y-94766241D01*
X147099500Y-94839410D01*
X147099500Y-95260590D01*
X147110365Y-95334396D01*
X147113755Y-95341300D01*
X147113755Y-95341301D01*
X147124966Y-95364135D01*
X147165459Y-95446610D01*
X147253931Y-95534927D01*
X147276725Y-95546069D01*
X147359340Y-95586453D01*
X147359342Y-95586454D01*
X147366241Y-95589826D01*
X147403440Y-95595253D01*
X147435865Y-95599983D01*
X147435867Y-95599983D01*
X147439410Y-95600500D01*
X148560590Y-95600500D01*
X148595540Y-95595355D01*
X148626783Y-95590756D01*
X148626785Y-95590755D01*
X148634396Y-95589635D01*
X148645222Y-95584320D01*
X148686477Y-95564065D01*
X148746610Y-95534541D01*
X148752675Y-95528466D01*
X148828619Y-95452388D01*
X148834927Y-95446069D01*
X148878462Y-95357008D01*
X148886453Y-95340660D01*
X148886454Y-95340658D01*
X148889826Y-95333759D01*
X148895253Y-95296560D01*
X148899983Y-95264135D01*
X148899983Y-95264133D01*
X148900500Y-95260590D01*
X149499500Y-95260590D01*
X149510365Y-95334396D01*
X149513755Y-95341300D01*
X149513755Y-95341301D01*
X149524966Y-95364135D01*
X149565459Y-95446610D01*
X149574217Y-95455352D01*
X149602040Y-95509844D01*
X149592520Y-95570284D01*
X149574339Y-95595355D01*
X149571267Y-95598433D01*
X149561892Y-95611576D01*
X149514035Y-95709482D01*
X149509551Y-95723991D01*
X149500517Y-95785913D01*
X149500000Y-95793040D01*
X149500000Y-95834320D01*
X149504122Y-95847005D01*
X149508243Y-95850000D01*
X151284320Y-95850000D01*
X151297005Y-95845878D01*
X151300000Y-95841757D01*
X151300000Y-95793075D01*
X151299474Y-95785883D01*
X151290270Y-95723361D01*
X151285759Y-95708844D01*
X151253496Y-95643132D01*
X151244822Y-95582564D01*
X151273405Y-95528466D01*
X151328328Y-95501500D01*
X151342363Y-95500500D01*
X151835385Y-95500500D01*
X151893576Y-95519407D01*
X151905388Y-95529496D01*
X152161776Y-95785883D01*
X152296626Y-95920733D01*
X152364558Y-95973999D01*
X152496693Y-96031180D01*
X152503381Y-96032096D01*
X152503384Y-96032097D01*
X152632653Y-96049804D01*
X152639340Y-96050720D01*
X152646027Y-96049804D01*
X152775296Y-96032097D01*
X152775299Y-96032096D01*
X152781987Y-96031180D01*
X152914122Y-95973999D01*
X152982054Y-95920734D01*
X153499413Y-95403374D01*
X153552679Y-95335442D01*
X153609860Y-95203307D01*
X153615025Y-95165605D01*
X153628484Y-95067347D01*
X153629400Y-95060660D01*
X153617970Y-94977218D01*
X153610777Y-94924704D01*
X153610776Y-94924701D01*
X153609860Y-94918013D01*
X153552679Y-94785878D01*
X153545551Y-94776787D01*
X153501253Y-94720291D01*
X153501250Y-94720288D01*
X153499414Y-94717946D01*
X152982054Y-94200587D01*
X152979713Y-94198751D01*
X152979708Y-94198747D01*
X152938251Y-94166241D01*
X152914122Y-94147321D01*
X152797851Y-94097005D01*
X152788187Y-94092823D01*
X152781987Y-94090140D01*
X152775299Y-94089224D01*
X152775296Y-94089223D01*
X152646027Y-94071516D01*
X152639340Y-94070600D01*
X152632653Y-94071516D01*
X152503384Y-94089223D01*
X152503381Y-94089224D01*
X152496693Y-94090140D01*
X152490493Y-94092823D01*
X152480829Y-94097005D01*
X152364558Y-94147321D01*
X152296626Y-94200586D01*
X152097337Y-94399876D01*
X151926710Y-94570503D01*
X151872193Y-94598281D01*
X151856706Y-94599500D01*
X151221513Y-94599500D01*
X151163322Y-94580593D01*
X151152162Y-94571070D01*
X151151861Y-94570855D01*
X151146069Y-94565073D01*
X151092279Y-94538780D01*
X151040660Y-94513547D01*
X151040658Y-94513546D01*
X151033759Y-94510174D01*
X150984548Y-94502995D01*
X150964135Y-94500017D01*
X150964133Y-94500017D01*
X150960590Y-94499500D01*
X149839410Y-94499500D01*
X149808672Y-94504025D01*
X149773217Y-94509244D01*
X149773215Y-94509245D01*
X149765604Y-94510365D01*
X149758700Y-94513755D01*
X149758699Y-94513755D01*
X149713523Y-94535935D01*
X149653390Y-94565459D01*
X149647610Y-94571250D01*
X149647609Y-94571250D01*
X149619409Y-94599500D01*
X149565073Y-94653931D01*
X149537070Y-94711218D01*
X149513790Y-94758844D01*
X149510174Y-94766241D01*
X149499500Y-94839410D01*
X149499500Y-95260590D01*
X148900500Y-95260590D01*
X148900500Y-94839410D01*
X148891883Y-94780876D01*
X148890756Y-94773217D01*
X148890755Y-94773215D01*
X148889635Y-94765604D01*
X148834541Y-94653390D01*
X148746069Y-94565073D01*
X148741154Y-94562670D01*
X148705616Y-94514645D01*
X148700500Y-94483231D01*
X148700500Y-94021513D01*
X148719407Y-93963322D01*
X148728930Y-93952162D01*
X148729144Y-93951862D01*
X148734927Y-93946069D01*
X148761220Y-93892279D01*
X148786453Y-93840660D01*
X148786454Y-93840658D01*
X148789826Y-93833759D01*
X148800500Y-93760590D01*
X148800500Y-93756925D01*
X149600000Y-93756925D01*
X149600526Y-93764117D01*
X149609730Y-93826639D01*
X149614241Y-93841156D01*
X149662267Y-93938973D01*
X149671660Y-93952093D01*
X149748434Y-94028734D01*
X149761576Y-94038108D01*
X149859482Y-94085965D01*
X149873991Y-94090449D01*
X149935913Y-94099483D01*
X149943040Y-94100000D01*
X149984320Y-94100000D01*
X149997005Y-94095878D01*
X150000000Y-94091757D01*
X150000000Y-94084320D01*
X150300000Y-94084320D01*
X150304122Y-94097005D01*
X150308243Y-94100000D01*
X150356925Y-94100000D01*
X150364117Y-94099474D01*
X150426639Y-94090270D01*
X150441156Y-94085759D01*
X150538973Y-94037733D01*
X150552093Y-94028340D01*
X150628734Y-93951566D01*
X150638108Y-93938424D01*
X150685965Y-93840518D01*
X150690449Y-93826009D01*
X150699483Y-93764087D01*
X150700000Y-93756960D01*
X150700000Y-93415680D01*
X150695878Y-93402995D01*
X150691757Y-93400000D01*
X150315680Y-93400000D01*
X150302995Y-93404122D01*
X150300000Y-93408243D01*
X150300000Y-94084320D01*
X150000000Y-94084320D01*
X150000000Y-93415680D01*
X149995878Y-93402995D01*
X149991757Y-93400000D01*
X149615680Y-93400000D01*
X149602995Y-93404122D01*
X149600000Y-93408243D01*
X149600000Y-93756925D01*
X148800500Y-93756925D01*
X148800500Y-93377611D01*
X148819407Y-93319420D01*
X148829496Y-93307607D01*
X149430996Y-92706107D01*
X149485513Y-92678330D01*
X149545945Y-92687901D01*
X149589210Y-92731166D01*
X149600000Y-92776111D01*
X149600000Y-93084320D01*
X149604122Y-93097005D01*
X149608243Y-93100000D01*
X149984320Y-93100000D01*
X149997005Y-93095878D01*
X150000000Y-93091757D01*
X150000000Y-93084320D01*
X150300000Y-93084320D01*
X150304122Y-93097005D01*
X150308243Y-93100000D01*
X150684320Y-93100000D01*
X150697005Y-93095878D01*
X150700000Y-93091757D01*
X150700000Y-92743075D01*
X150699474Y-92735883D01*
X150690270Y-92673361D01*
X150685759Y-92658844D01*
X150637733Y-92561027D01*
X150628340Y-92547907D01*
X150551566Y-92471266D01*
X150538424Y-92461892D01*
X150440518Y-92414035D01*
X150426009Y-92409551D01*
X150364087Y-92400517D01*
X150356960Y-92400000D01*
X150315680Y-92400000D01*
X150302995Y-92404122D01*
X150300000Y-92408243D01*
X150300000Y-93084320D01*
X150000000Y-93084320D01*
X150000000Y-92415680D01*
X149995878Y-92402995D01*
X149991757Y-92400000D01*
X149976111Y-92400000D01*
X149917920Y-92381093D01*
X149881956Y-92331593D01*
X149881956Y-92270407D01*
X149906107Y-92230996D01*
X149907607Y-92229496D01*
X149962124Y-92201719D01*
X149977611Y-92200500D01*
X151222389Y-92200500D01*
X151280580Y-92219407D01*
X151292393Y-92229496D01*
X153970504Y-94907607D01*
X153998281Y-94962124D01*
X153999500Y-94977611D01*
X153999500Y-100522389D01*
X153980593Y-100580580D01*
X153970504Y-100592393D01*
X153792322Y-100770575D01*
X153737805Y-100798352D01*
X153721802Y-100799570D01*
X153678317Y-100799342D01*
X153676929Y-100799335D01*
X153618838Y-100780123D01*
X153607443Y-100770340D01*
X153041615Y-100204512D01*
X153033873Y-100195798D01*
X153016455Y-100173703D01*
X153016454Y-100173702D01*
X153011872Y-100167890D01*
X152963251Y-100134286D01*
X152960728Y-100132483D01*
X152919139Y-100101764D01*
X152919137Y-100101763D01*
X152913184Y-100097366D01*
X152906368Y-100094973D01*
X152900431Y-100090869D01*
X152893372Y-100088636D01*
X152893371Y-100088636D01*
X152867939Y-100080593D01*
X152844071Y-100073044D01*
X152841186Y-100072082D01*
X152785369Y-100052481D01*
X152779327Y-100052244D01*
X152776653Y-100051723D01*
X152771270Y-100050020D01*
X152764663Y-100049500D01*
X152711459Y-100049500D01*
X152707572Y-100049424D01*
X152657397Y-100047452D01*
X152657394Y-100047452D01*
X152650006Y-100047162D01*
X152643228Y-100048959D01*
X152633403Y-100049500D01*
X152137111Y-100049500D01*
X152093638Y-100039444D01*
X152033759Y-100010174D01*
X151985618Y-100003151D01*
X151964135Y-100000017D01*
X151964133Y-100000017D01*
X151960590Y-99999500D01*
X150939410Y-99999500D01*
X150908672Y-100004025D01*
X150873217Y-100009244D01*
X150873215Y-100009245D01*
X150865604Y-100010365D01*
X150858700Y-100013755D01*
X150858699Y-100013755D01*
X150835767Y-100025014D01*
X150753390Y-100065459D01*
X150747609Y-100071250D01*
X150740955Y-100076014D01*
X150740031Y-100074723D01*
X150693926Y-100098267D01*
X150678351Y-100099500D01*
X150299500Y-100099500D01*
X150241309Y-100080593D01*
X150205345Y-100031093D01*
X150200500Y-100000500D01*
X150200500Y-99739410D01*
X150189635Y-99665604D01*
X150177648Y-99641188D01*
X150157125Y-99599389D01*
X150134541Y-99553390D01*
X150104575Y-99523476D01*
X150051858Y-99470852D01*
X150046069Y-99465073D01*
X149982718Y-99434106D01*
X149940660Y-99413547D01*
X149940658Y-99413546D01*
X149933759Y-99410174D01*
X149885165Y-99403085D01*
X149864135Y-99400017D01*
X149864133Y-99400017D01*
X149860590Y-99399500D01*
X149439410Y-99399500D01*
X149415057Y-99403085D01*
X149373217Y-99409244D01*
X149373215Y-99409245D01*
X149365604Y-99410365D01*
X149358700Y-99413755D01*
X149358699Y-99413755D01*
X149323359Y-99431106D01*
X149253390Y-99465459D01*
X149165073Y-99553931D01*
X149148974Y-99586865D01*
X149113861Y-99658699D01*
X149110174Y-99666241D01*
X149099500Y-99739410D01*
X149099500Y-100860590D01*
X149100029Y-100864182D01*
X149109023Y-100925278D01*
X149110365Y-100934396D01*
X149113755Y-100941300D01*
X149113755Y-100941301D01*
X149127423Y-100969139D01*
X149165459Y-101046610D01*
X149171250Y-101052390D01*
X149171250Y-101052391D01*
X149199488Y-101080579D01*
X149253931Y-101134927D01*
X149311218Y-101162930D01*
X149359340Y-101186453D01*
X149359342Y-101186454D01*
X149366241Y-101189826D01*
X149396670Y-101194265D01*
X149435865Y-101199983D01*
X149435867Y-101199983D01*
X149439410Y-101200500D01*
X149860590Y-101200500D01*
X149891328Y-101195975D01*
X149926783Y-101190756D01*
X149926785Y-101190755D01*
X149934396Y-101189635D01*
X149947098Y-101183399D01*
X149986477Y-101164065D01*
X150046610Y-101134541D01*
X150134927Y-101046069D01*
X150137330Y-101041154D01*
X150185355Y-101005616D01*
X150216769Y-101000500D01*
X150678487Y-101000500D01*
X150736678Y-101019407D01*
X150747838Y-101028930D01*
X150748138Y-101029144D01*
X150753931Y-101034927D01*
X150807721Y-101061220D01*
X150859340Y-101086453D01*
X150859342Y-101086454D01*
X150866241Y-101089826D01*
X150883831Y-101092392D01*
X150935865Y-101099983D01*
X150935867Y-101099983D01*
X150939410Y-101100500D01*
X151960590Y-101100500D01*
X151995540Y-101095355D01*
X152026783Y-101090756D01*
X152026785Y-101090755D01*
X152034396Y-101089635D01*
X152081613Y-101066453D01*
X152103341Y-101055785D01*
X152146610Y-101034541D01*
X152154119Y-101027019D01*
X152201497Y-100979558D01*
X152255990Y-100951732D01*
X152271562Y-100950500D01*
X152472389Y-100950500D01*
X152530580Y-100969407D01*
X152542393Y-100979496D01*
X152970504Y-101407607D01*
X152998281Y-101462124D01*
X152999500Y-101477611D01*
X152999500Y-102668836D01*
X152980593Y-102727027D01*
X152970504Y-102738840D01*
X150787361Y-104921982D01*
X150732844Y-104949759D01*
X150672412Y-104940188D01*
X150629147Y-104896923D01*
X150619273Y-104865413D01*
X150610777Y-104803384D01*
X150610776Y-104803381D01*
X150609860Y-104796693D01*
X150552679Y-104664558D01*
X150499414Y-104596626D01*
X150129497Y-104226710D01*
X150101719Y-104172193D01*
X150100500Y-104156706D01*
X150100500Y-103521513D01*
X150119407Y-103463322D01*
X150128930Y-103452162D01*
X150129144Y-103451862D01*
X150134927Y-103446069D01*
X150171992Y-103370243D01*
X150186453Y-103340660D01*
X150186454Y-103340658D01*
X150189826Y-103333759D01*
X150200500Y-103260590D01*
X150200500Y-102656925D01*
X150600000Y-102656925D01*
X150600526Y-102664117D01*
X150609730Y-102726639D01*
X150614241Y-102741156D01*
X150662267Y-102838973D01*
X150671660Y-102852093D01*
X150748434Y-102928734D01*
X150761576Y-102938108D01*
X150859482Y-102985965D01*
X150873991Y-102990449D01*
X150935913Y-102999483D01*
X150943040Y-103000000D01*
X151284320Y-103000000D01*
X151297005Y-102995878D01*
X151300000Y-102991757D01*
X151300000Y-102984320D01*
X151600000Y-102984320D01*
X151604122Y-102997005D01*
X151608243Y-103000000D01*
X151956925Y-103000000D01*
X151964117Y-102999474D01*
X152026639Y-102990270D01*
X152041156Y-102985759D01*
X152138973Y-102937733D01*
X152152093Y-102928340D01*
X152228734Y-102851566D01*
X152238108Y-102838424D01*
X152285965Y-102740518D01*
X152290449Y-102726009D01*
X152299483Y-102664087D01*
X152300000Y-102656960D01*
X152300000Y-102615680D01*
X152295878Y-102602995D01*
X152291757Y-102600000D01*
X151615680Y-102600000D01*
X151602995Y-102604122D01*
X151600000Y-102608243D01*
X151600000Y-102984320D01*
X151300000Y-102984320D01*
X151300000Y-102615680D01*
X151295878Y-102602995D01*
X151291757Y-102600000D01*
X150615680Y-102600000D01*
X150602995Y-102604122D01*
X150600000Y-102608243D01*
X150600000Y-102656925D01*
X150200500Y-102656925D01*
X150200500Y-102284320D01*
X150600000Y-102284320D01*
X150604122Y-102297005D01*
X150608243Y-102300000D01*
X151284320Y-102300000D01*
X151297005Y-102295878D01*
X151300000Y-102291757D01*
X151300000Y-102284320D01*
X151600000Y-102284320D01*
X151604122Y-102297005D01*
X151608243Y-102300000D01*
X152284320Y-102300000D01*
X152297005Y-102295878D01*
X152300000Y-102291757D01*
X152300000Y-102243075D01*
X152299474Y-102235883D01*
X152290270Y-102173361D01*
X152285759Y-102158844D01*
X152237733Y-102061027D01*
X152228340Y-102047907D01*
X152151566Y-101971266D01*
X152138424Y-101961892D01*
X152040518Y-101914035D01*
X152026009Y-101909551D01*
X151964087Y-101900517D01*
X151956960Y-101900000D01*
X151615680Y-101900000D01*
X151602995Y-101904122D01*
X151600000Y-101908243D01*
X151600000Y-102284320D01*
X151300000Y-102284320D01*
X151300000Y-101915680D01*
X151295878Y-101902995D01*
X151291757Y-101900000D01*
X150943075Y-101900000D01*
X150935883Y-101900526D01*
X150873361Y-101909730D01*
X150858844Y-101914241D01*
X150761027Y-101962267D01*
X150747907Y-101971660D01*
X150671266Y-102048434D01*
X150661892Y-102061576D01*
X150614035Y-102159482D01*
X150609551Y-102173991D01*
X150600517Y-102235913D01*
X150600000Y-102243040D01*
X150600000Y-102284320D01*
X150200500Y-102284320D01*
X150200500Y-102139410D01*
X150189635Y-102065604D01*
X150180802Y-102047612D01*
X150143449Y-101971534D01*
X150134541Y-101953390D01*
X150110826Y-101929716D01*
X150055226Y-101874214D01*
X150046069Y-101865073D01*
X149982139Y-101833823D01*
X149940660Y-101813547D01*
X149940658Y-101813546D01*
X149933759Y-101810174D01*
X149884548Y-101802995D01*
X149864135Y-101800017D01*
X149864133Y-101800017D01*
X149860590Y-101799500D01*
X149439410Y-101799500D01*
X149408672Y-101804025D01*
X149373217Y-101809244D01*
X149373215Y-101809245D01*
X149365604Y-101810365D01*
X149358700Y-101813755D01*
X149358699Y-101813755D01*
X149317825Y-101833823D01*
X149253390Y-101865459D01*
X149244648Y-101874217D01*
X149190156Y-101902040D01*
X149129716Y-101892520D01*
X149104645Y-101874339D01*
X149101567Y-101871267D01*
X149088424Y-101861892D01*
X148990518Y-101814035D01*
X148976009Y-101809551D01*
X148914087Y-101800517D01*
X148906960Y-101800000D01*
X148865680Y-101800000D01*
X148852995Y-101804122D01*
X148850000Y-101808243D01*
X148850000Y-103584320D01*
X148854122Y-103597005D01*
X148858243Y-103600000D01*
X148906925Y-103600000D01*
X148914117Y-103599474D01*
X148976639Y-103590270D01*
X148991156Y-103585759D01*
X149056868Y-103553496D01*
X149117436Y-103544822D01*
X149171534Y-103573405D01*
X149198500Y-103628328D01*
X149199500Y-103642363D01*
X149199500Y-104135385D01*
X149180593Y-104193576D01*
X149170504Y-104205388D01*
X148779267Y-104596626D01*
X148726001Y-104664558D01*
X148668820Y-104796693D01*
X148667904Y-104803381D01*
X148667903Y-104803384D01*
X148655233Y-104895878D01*
X148649280Y-104939340D01*
X148668820Y-105081987D01*
X148726001Y-105214122D01*
X148729923Y-105219124D01*
X148765202Y-105264117D01*
X148779266Y-105282054D01*
X149296626Y-105799413D01*
X149298967Y-105801249D01*
X149298972Y-105801253D01*
X149322580Y-105819764D01*
X149364558Y-105852679D01*
X149496693Y-105909860D01*
X149503381Y-105910776D01*
X149503384Y-105910777D01*
X149537709Y-105915478D01*
X149565414Y-105919274D01*
X149620500Y-105945902D01*
X149649413Y-105999825D01*
X149641110Y-106060444D01*
X149621982Y-106087361D01*
X148188839Y-107520504D01*
X148134322Y-107548281D01*
X148118835Y-107549500D01*
X147778254Y-107549500D01*
X147744689Y-107538594D01*
X147701746Y-107549500D01*
X142949500Y-107549500D01*
X142891309Y-107530593D01*
X142855345Y-107481093D01*
X142850500Y-107450500D01*
X142850500Y-106750000D01*
X147134318Y-106750000D01*
X147154956Y-106906762D01*
X147215464Y-107052841D01*
X147311718Y-107178282D01*
X147437159Y-107274536D01*
X147583238Y-107335044D01*
X147713284Y-107352165D01*
X147714668Y-107352347D01*
X147737743Y-107363353D01*
X147765332Y-107352347D01*
X147766716Y-107352165D01*
X147896762Y-107335044D01*
X148042841Y-107274536D01*
X148168282Y-107178282D01*
X148264536Y-107052841D01*
X148325044Y-106906762D01*
X148345682Y-106750000D01*
X148325044Y-106593238D01*
X148264536Y-106447159D01*
X148168282Y-106321718D01*
X148079232Y-106253387D01*
X148044577Y-106202963D01*
X148040500Y-106174846D01*
X148040500Y-103648320D01*
X148059407Y-103590129D01*
X148095868Y-103559454D01*
X148146610Y-103534541D01*
X148155352Y-103525783D01*
X148209844Y-103497960D01*
X148270284Y-103507480D01*
X148295355Y-103525661D01*
X148298433Y-103528733D01*
X148311576Y-103538108D01*
X148409482Y-103585965D01*
X148423991Y-103590449D01*
X148485913Y-103599483D01*
X148493040Y-103600000D01*
X148534320Y-103600000D01*
X148547005Y-103595878D01*
X148550000Y-103591757D01*
X148550000Y-101815680D01*
X148545878Y-101802995D01*
X148541757Y-101800000D01*
X148493075Y-101800000D01*
X148485883Y-101800526D01*
X148423361Y-101809730D01*
X148408844Y-101814241D01*
X148311027Y-101862267D01*
X148297912Y-101871657D01*
X148295359Y-101874214D01*
X148291805Y-101876029D01*
X148291253Y-101876424D01*
X148291194Y-101876341D01*
X148240867Y-101902040D01*
X148180426Y-101892523D01*
X148155349Y-101874337D01*
X148152665Y-101871657D01*
X148146069Y-101865073D01*
X148082139Y-101833823D01*
X148040660Y-101813547D01*
X148040658Y-101813546D01*
X148033759Y-101810174D01*
X147984548Y-101802995D01*
X147964135Y-101800017D01*
X147964133Y-101800017D01*
X147960590Y-101799500D01*
X147539410Y-101799500D01*
X147508672Y-101804025D01*
X147473217Y-101809244D01*
X147473215Y-101809245D01*
X147465604Y-101810365D01*
X147458700Y-101813755D01*
X147458699Y-101813755D01*
X147417825Y-101833823D01*
X147353390Y-101865459D01*
X147347610Y-101871250D01*
X147347609Y-101871250D01*
X147318893Y-101900017D01*
X147265073Y-101953931D01*
X147256407Y-101971660D01*
X147213861Y-102058699D01*
X147210174Y-102066241D01*
X147199500Y-102139410D01*
X147199500Y-103260590D01*
X147210365Y-103334396D01*
X147265459Y-103446610D01*
X147271250Y-103452390D01*
X147271250Y-103452391D01*
X147297256Y-103478351D01*
X147353931Y-103534927D01*
X147383979Y-103549615D01*
X147427952Y-103592155D01*
X147439500Y-103638556D01*
X147439500Y-106174846D01*
X147420593Y-106233037D01*
X147400769Y-106253387D01*
X147311718Y-106321718D01*
X147215464Y-106447159D01*
X147154956Y-106593238D01*
X147134318Y-106750000D01*
X142850500Y-106750000D01*
X142850500Y-105250000D01*
X144594318Y-105250000D01*
X144595165Y-105256434D01*
X144597684Y-105275569D01*
X144614956Y-105406762D01*
X144675464Y-105552841D01*
X144771718Y-105678282D01*
X144897159Y-105774536D01*
X145043238Y-105835044D01*
X145200000Y-105855682D01*
X145356762Y-105835044D01*
X145502841Y-105774536D01*
X145628282Y-105678282D01*
X145724536Y-105552841D01*
X145785044Y-105406762D01*
X145802316Y-105275569D01*
X145804835Y-105256434D01*
X145805682Y-105250000D01*
X145785044Y-105093238D01*
X145724536Y-104947159D01*
X145628282Y-104821718D01*
X145623129Y-104817764D01*
X145621013Y-104815648D01*
X145593236Y-104761131D01*
X145602807Y-104700699D01*
X145632360Y-104666098D01*
X145638342Y-104663050D01*
X145728050Y-104573342D01*
X145757431Y-104515680D01*
X145782110Y-104467244D01*
X145782110Y-104467243D01*
X145785646Y-104460304D01*
X145790194Y-104431593D01*
X145799891Y-104370365D01*
X145799891Y-104370363D01*
X145800500Y-104366519D01*
X145800499Y-103733482D01*
X145785646Y-103639696D01*
X145744760Y-103559453D01*
X145731586Y-103533597D01*
X145731585Y-103533595D01*
X145728050Y-103526658D01*
X145638342Y-103436950D01*
X145631405Y-103433415D01*
X145631403Y-103433414D01*
X145532244Y-103382890D01*
X145532243Y-103382890D01*
X145525304Y-103379354D01*
X145517610Y-103378135D01*
X145517609Y-103378135D01*
X145435365Y-103365109D01*
X145435363Y-103365109D01*
X145431519Y-103364500D01*
X145200030Y-103364500D01*
X144968482Y-103364501D01*
X144964639Y-103365110D01*
X144964634Y-103365110D01*
X144932225Y-103370243D01*
X144874696Y-103379354D01*
X144833144Y-103400526D01*
X144768597Y-103433414D01*
X144768595Y-103433415D01*
X144761658Y-103436950D01*
X144671950Y-103526658D01*
X144668415Y-103533595D01*
X144668414Y-103533597D01*
X144634580Y-103600000D01*
X144614354Y-103639696D01*
X144613135Y-103647390D01*
X144613135Y-103647391D01*
X144608922Y-103673991D01*
X144599500Y-103733481D01*
X144599501Y-104366518D01*
X144600110Y-104370361D01*
X144600110Y-104370366D01*
X144604804Y-104400000D01*
X144614354Y-104460304D01*
X144671950Y-104573342D01*
X144761658Y-104663050D01*
X144767530Y-104666042D01*
X144803137Y-104715050D01*
X144803138Y-104776236D01*
X144778987Y-104815648D01*
X144776871Y-104817764D01*
X144771718Y-104821718D01*
X144675464Y-104947159D01*
X144614956Y-105093238D01*
X144594318Y-105250000D01*
X142850500Y-105250000D01*
X142850500Y-105021513D01*
X142869407Y-104963322D01*
X142878930Y-104952162D01*
X142879144Y-104951862D01*
X142884927Y-104946069D01*
X142935272Y-104843075D01*
X142936453Y-104840660D01*
X142936454Y-104840658D01*
X142939826Y-104833759D01*
X142950500Y-104760590D01*
X142950500Y-103739410D01*
X142945975Y-103708672D01*
X142940756Y-103673217D01*
X142940755Y-103673215D01*
X142939635Y-103665604D01*
X142930693Y-103647390D01*
X142905401Y-103595878D01*
X142884541Y-103553390D01*
X142878750Y-103547609D01*
X142873986Y-103540955D01*
X142875277Y-103540031D01*
X142851733Y-103493926D01*
X142850500Y-103478351D01*
X142850500Y-103099500D01*
X142869407Y-103041309D01*
X142918907Y-103005345D01*
X142949500Y-103000500D01*
X142960590Y-103000500D01*
X142991987Y-102995878D01*
X143026783Y-102990756D01*
X143026785Y-102990755D01*
X143034396Y-102989635D01*
X143045222Y-102984320D01*
X143086477Y-102964065D01*
X143146610Y-102934541D01*
X143161718Y-102919407D01*
X143228616Y-102852391D01*
X143234927Y-102846069D01*
X143275734Y-102762588D01*
X143275735Y-102762585D01*
X144600001Y-102762585D01*
X144600611Y-102770329D01*
X144613616Y-102852449D01*
X144618373Y-102867091D01*
X144668823Y-102966106D01*
X144677865Y-102978551D01*
X144756449Y-103057135D01*
X144768894Y-103066177D01*
X144867912Y-103116629D01*
X144882547Y-103121384D01*
X144964673Y-103134391D01*
X144972412Y-103135000D01*
X145034320Y-103135000D01*
X145047005Y-103130878D01*
X145050000Y-103126757D01*
X145050000Y-103119319D01*
X145350000Y-103119319D01*
X145354122Y-103132004D01*
X145358243Y-103134999D01*
X145427585Y-103134999D01*
X145435329Y-103134389D01*
X145517449Y-103121384D01*
X145532091Y-103116627D01*
X145631106Y-103066177D01*
X145643551Y-103057135D01*
X145722135Y-102978551D01*
X145731177Y-102966106D01*
X145781629Y-102867088D01*
X145786384Y-102852453D01*
X145799391Y-102770327D01*
X145800000Y-102762588D01*
X145800000Y-102615680D01*
X145795878Y-102602995D01*
X145791757Y-102600000D01*
X145365680Y-102600000D01*
X145352995Y-102604122D01*
X145350000Y-102608243D01*
X145350000Y-103119319D01*
X145050000Y-103119319D01*
X145050000Y-102615680D01*
X145045878Y-102602995D01*
X145041757Y-102600000D01*
X144615681Y-102600000D01*
X144602996Y-102604122D01*
X144600001Y-102608243D01*
X144600001Y-102762585D01*
X143275735Y-102762585D01*
X143286453Y-102740660D01*
X143286454Y-102740658D01*
X143289826Y-102733759D01*
X143300500Y-102660590D01*
X143300500Y-102284320D01*
X144600000Y-102284320D01*
X144604122Y-102297005D01*
X144608243Y-102300000D01*
X145034320Y-102300000D01*
X145047005Y-102295878D01*
X145050000Y-102291757D01*
X145050000Y-102284320D01*
X145350000Y-102284320D01*
X145354122Y-102297005D01*
X145358243Y-102300000D01*
X145784319Y-102300000D01*
X145797004Y-102295878D01*
X145799999Y-102291757D01*
X145799999Y-102137415D01*
X145799389Y-102129671D01*
X145786384Y-102047551D01*
X145781627Y-102032909D01*
X145731177Y-101933894D01*
X145722135Y-101921449D01*
X145643551Y-101842865D01*
X145631106Y-101833823D01*
X145532088Y-101783371D01*
X145517453Y-101778616D01*
X145435327Y-101765609D01*
X145427588Y-101765000D01*
X145365680Y-101765000D01*
X145352995Y-101769122D01*
X145350000Y-101773243D01*
X145350000Y-102284320D01*
X145050000Y-102284320D01*
X145050000Y-101780681D01*
X145045878Y-101767996D01*
X145041757Y-101765001D01*
X144972415Y-101765001D01*
X144964671Y-101765611D01*
X144882551Y-101778616D01*
X144867909Y-101783373D01*
X144768894Y-101833823D01*
X144756449Y-101842865D01*
X144677865Y-101921449D01*
X144668823Y-101933894D01*
X144618371Y-102032912D01*
X144613616Y-102047547D01*
X144600609Y-102129673D01*
X144600000Y-102137412D01*
X144600000Y-102284320D01*
X143300500Y-102284320D01*
X143300500Y-102239410D01*
X143289635Y-102165604D01*
X143276775Y-102139410D01*
X143244583Y-102073844D01*
X143234541Y-102053390D01*
X143146069Y-101965073D01*
X143056825Y-101921449D01*
X143040660Y-101913547D01*
X143040658Y-101913546D01*
X143033759Y-101910174D01*
X142984548Y-101902995D01*
X142964135Y-101900017D01*
X142964133Y-101900017D01*
X142960590Y-101899500D01*
X141839410Y-101899500D01*
X141808672Y-101904025D01*
X141773217Y-101909244D01*
X141773215Y-101909245D01*
X141765604Y-101910365D01*
X141758700Y-101913755D01*
X141758699Y-101913755D01*
X141751202Y-101917436D01*
X141653390Y-101965459D01*
X141647610Y-101971250D01*
X141647609Y-101971250D01*
X141628736Y-101990156D01*
X141565073Y-102053931D01*
X141561482Y-102061278D01*
X141513790Y-102158844D01*
X141510174Y-102166241D01*
X141499500Y-102239410D01*
X141499500Y-102660590D01*
X141510365Y-102734396D01*
X141565459Y-102846610D01*
X141653931Y-102934927D01*
X141711218Y-102962930D01*
X141759340Y-102986453D01*
X141759342Y-102986454D01*
X141766241Y-102989826D01*
X141803440Y-102995253D01*
X141835865Y-102999983D01*
X141835867Y-102999983D01*
X141839410Y-103000500D01*
X141850500Y-103000500D01*
X141908691Y-103019407D01*
X141944655Y-103068907D01*
X141949500Y-103099500D01*
X141949500Y-103478487D01*
X141930593Y-103536678D01*
X141921070Y-103547838D01*
X141920856Y-103548138D01*
X141915073Y-103553931D01*
X141894569Y-103595878D01*
X141863790Y-103658844D01*
X141860174Y-103666241D01*
X141849500Y-103739410D01*
X141849500Y-104760590D01*
X141850029Y-104764182D01*
X141858499Y-104821718D01*
X141860365Y-104834396D01*
X141915459Y-104946610D01*
X141921250Y-104952391D01*
X141926014Y-104959045D01*
X141924723Y-104959969D01*
X141948267Y-105006074D01*
X141949500Y-105021649D01*
X141949500Y-107450500D01*
X141930593Y-107508691D01*
X141881093Y-107544655D01*
X141850500Y-107549500D01*
X136781164Y-107549500D01*
X136722973Y-107530593D01*
X136711160Y-107520504D01*
X134083884Y-104893227D01*
X134056107Y-104838710D01*
X134065678Y-104778278D01*
X134081191Y-104756925D01*
X139950000Y-104756925D01*
X139950526Y-104764117D01*
X139959730Y-104826639D01*
X139964241Y-104841156D01*
X140012267Y-104938973D01*
X140021660Y-104952093D01*
X140098434Y-105028734D01*
X140111576Y-105038108D01*
X140209482Y-105085965D01*
X140223991Y-105090449D01*
X140285913Y-105099483D01*
X140293040Y-105100000D01*
X140334320Y-105100000D01*
X140347005Y-105095878D01*
X140350000Y-105091757D01*
X140350000Y-105084320D01*
X140650000Y-105084320D01*
X140654122Y-105097005D01*
X140658243Y-105100000D01*
X140706925Y-105100000D01*
X140714117Y-105099474D01*
X140776639Y-105090270D01*
X140791156Y-105085759D01*
X140888973Y-105037733D01*
X140902093Y-105028340D01*
X140978734Y-104951566D01*
X140988108Y-104938424D01*
X141035965Y-104840518D01*
X141040449Y-104826009D01*
X141049483Y-104764087D01*
X141050000Y-104756960D01*
X141050000Y-104415680D01*
X141045878Y-104402995D01*
X141041757Y-104400000D01*
X140665680Y-104400000D01*
X140652995Y-104404122D01*
X140650000Y-104408243D01*
X140650000Y-105084320D01*
X140350000Y-105084320D01*
X140350000Y-104415680D01*
X140345878Y-104402995D01*
X140341757Y-104400000D01*
X139965680Y-104400000D01*
X139952995Y-104404122D01*
X139950000Y-104408243D01*
X139950000Y-104756925D01*
X134081191Y-104756925D01*
X134083884Y-104753219D01*
X134752783Y-104084320D01*
X139950000Y-104084320D01*
X139954122Y-104097005D01*
X139958243Y-104100000D01*
X140334320Y-104100000D01*
X140347005Y-104095878D01*
X140350000Y-104091757D01*
X140350000Y-104084320D01*
X140650000Y-104084320D01*
X140654122Y-104097005D01*
X140658243Y-104100000D01*
X141034320Y-104100000D01*
X141047005Y-104095878D01*
X141050000Y-104091757D01*
X141050000Y-103743075D01*
X141049474Y-103735883D01*
X141040270Y-103673361D01*
X141035759Y-103658844D01*
X140987733Y-103561027D01*
X140978340Y-103547907D01*
X140901566Y-103471266D01*
X140888424Y-103461892D01*
X140790518Y-103414035D01*
X140776009Y-103409551D01*
X140714087Y-103400517D01*
X140706960Y-103400000D01*
X140665680Y-103400000D01*
X140652995Y-103404122D01*
X140650000Y-103408243D01*
X140650000Y-104084320D01*
X140350000Y-104084320D01*
X140350000Y-103415680D01*
X140345878Y-103402995D01*
X140341757Y-103400000D01*
X140293075Y-103400000D01*
X140285883Y-103400526D01*
X140223361Y-103409730D01*
X140208844Y-103414241D01*
X140111027Y-103462267D01*
X140097907Y-103471660D01*
X140021266Y-103548434D01*
X140011892Y-103561576D01*
X139964035Y-103659482D01*
X139959551Y-103673991D01*
X139950517Y-103735913D01*
X139950000Y-103743040D01*
X139950000Y-104084320D01*
X134752783Y-104084320D01*
X135631959Y-103205145D01*
X136276444Y-102560660D01*
X136770600Y-102560660D01*
X136771516Y-102567347D01*
X136784781Y-102664182D01*
X136790140Y-102703307D01*
X136847321Y-102835442D01*
X136851243Y-102840444D01*
X136898333Y-102900500D01*
X136900586Y-102903374D01*
X137417946Y-103420733D01*
X137420287Y-103422569D01*
X137420292Y-103422573D01*
X137443900Y-103441084D01*
X137485878Y-103473999D01*
X137618013Y-103531180D01*
X137624701Y-103532096D01*
X137624704Y-103532097D01*
X137753973Y-103549804D01*
X137760660Y-103550720D01*
X137767347Y-103549804D01*
X137896616Y-103532097D01*
X137896619Y-103532096D01*
X137903307Y-103531180D01*
X138035442Y-103473999D01*
X138075671Y-103442456D01*
X138101029Y-103422573D01*
X138101032Y-103422570D01*
X138103374Y-103420734D01*
X138594611Y-102929496D01*
X138649128Y-102901719D01*
X138664615Y-102900500D01*
X139178487Y-102900500D01*
X139236678Y-102919407D01*
X139247838Y-102928930D01*
X139248138Y-102929144D01*
X139253931Y-102934927D01*
X139307721Y-102961220D01*
X139359340Y-102986453D01*
X139359342Y-102986454D01*
X139366241Y-102989826D01*
X139403440Y-102995253D01*
X139435865Y-102999983D01*
X139435867Y-102999983D01*
X139439410Y-103000500D01*
X140560590Y-103000500D01*
X140591987Y-102995878D01*
X140626783Y-102990756D01*
X140626785Y-102990755D01*
X140634396Y-102989635D01*
X140645222Y-102984320D01*
X140686477Y-102964065D01*
X140746610Y-102934541D01*
X140761718Y-102919407D01*
X140828616Y-102852391D01*
X140834927Y-102846069D01*
X140875734Y-102762588D01*
X140886453Y-102740660D01*
X140886454Y-102740658D01*
X140889826Y-102733759D01*
X140900500Y-102660590D01*
X140900500Y-102239410D01*
X140889635Y-102165604D01*
X140876775Y-102139410D01*
X140844583Y-102073844D01*
X140834541Y-102053390D01*
X140825783Y-102044648D01*
X140797960Y-101990156D01*
X140807480Y-101929716D01*
X140825661Y-101904645D01*
X140828733Y-101901567D01*
X140838108Y-101888424D01*
X140885965Y-101790518D01*
X140890449Y-101776009D01*
X140899483Y-101714087D01*
X140900000Y-101706960D01*
X140900000Y-101665680D01*
X140895878Y-101652995D01*
X140891757Y-101650000D01*
X139115680Y-101650000D01*
X139102995Y-101654122D01*
X139100000Y-101658243D01*
X139100000Y-101706925D01*
X139100526Y-101714117D01*
X139109730Y-101776639D01*
X139114241Y-101791156D01*
X139146504Y-101856868D01*
X139155178Y-101917436D01*
X139126595Y-101971534D01*
X139071672Y-101998500D01*
X139057637Y-101999500D01*
X138443295Y-101999500D01*
X138385104Y-101980593D01*
X138373292Y-101970504D01*
X138105488Y-101702701D01*
X138103374Y-101700587D01*
X138035442Y-101647321D01*
X137903307Y-101590140D01*
X137896619Y-101589224D01*
X137896616Y-101589223D01*
X137767347Y-101571516D01*
X137760660Y-101570600D01*
X137753973Y-101571516D01*
X137624704Y-101589223D01*
X137624701Y-101589224D01*
X137618013Y-101590140D01*
X137485878Y-101647321D01*
X137480876Y-101651243D01*
X137425734Y-101694479D01*
X137406793Y-101701410D01*
X137392168Y-101726364D01*
X137147283Y-101971250D01*
X136900587Y-102217946D01*
X136898751Y-102220287D01*
X136898747Y-102220292D01*
X136886522Y-102235883D01*
X136847321Y-102285878D01*
X136790140Y-102418013D01*
X136770600Y-102560660D01*
X136276444Y-102560660D01*
X137245489Y-101591615D01*
X137254203Y-101583873D01*
X137260874Y-101578614D01*
X137277437Y-101572503D01*
X137283204Y-101560289D01*
X137315699Y-101513273D01*
X137317498Y-101510756D01*
X137348240Y-101469133D01*
X137352635Y-101463183D01*
X137355029Y-101456366D01*
X137359131Y-101450431D01*
X137362792Y-101438857D01*
X137376943Y-101394110D01*
X137377928Y-101391159D01*
X137395068Y-101342352D01*
X137395068Y-101342350D01*
X137397520Y-101335369D01*
X137397758Y-101329327D01*
X137398280Y-101326647D01*
X137399980Y-101321270D01*
X137400500Y-101314663D01*
X137400500Y-101261484D01*
X137400576Y-101257597D01*
X137400596Y-101257097D01*
X137402839Y-101200006D01*
X137401041Y-101193224D01*
X137400500Y-101183399D01*
X137400500Y-100500000D01*
X137994318Y-100500000D01*
X138014956Y-100656762D01*
X138075464Y-100802841D01*
X138171718Y-100928282D01*
X138297159Y-101024536D01*
X138407604Y-101070284D01*
X138432459Y-101080579D01*
X138443238Y-101085044D01*
X138600000Y-101105682D01*
X138756762Y-101085044D01*
X138767542Y-101080579D01*
X138792396Y-101070284D01*
X138902841Y-101024536D01*
X139028227Y-100928324D01*
X139085903Y-100907900D01*
X139144568Y-100925278D01*
X139164664Y-100944990D01*
X139165459Y-100946610D01*
X139174217Y-100955352D01*
X139202040Y-101009844D01*
X139192520Y-101070284D01*
X139174339Y-101095355D01*
X139171267Y-101098433D01*
X139161892Y-101111576D01*
X139114035Y-101209482D01*
X139109551Y-101223991D01*
X139100517Y-101285913D01*
X139100000Y-101293040D01*
X139100000Y-101334320D01*
X139104122Y-101347005D01*
X139108243Y-101350000D01*
X140884320Y-101350000D01*
X140897005Y-101345878D01*
X140900000Y-101341757D01*
X140900000Y-101293075D01*
X140899474Y-101285883D01*
X140890270Y-101223361D01*
X140885759Y-101208844D01*
X140837733Y-101111027D01*
X140828343Y-101097912D01*
X140825786Y-101095359D01*
X140823971Y-101091805D01*
X140823576Y-101091253D01*
X140823659Y-101091194D01*
X140797960Y-101040867D01*
X140807477Y-100980426D01*
X140825663Y-100955349D01*
X140826013Y-100954999D01*
X140834927Y-100946069D01*
X140878462Y-100857008D01*
X140886453Y-100840660D01*
X140886454Y-100840658D01*
X140889826Y-100833759D01*
X140897385Y-100781943D01*
X140899983Y-100764135D01*
X140899983Y-100764133D01*
X140900500Y-100760590D01*
X141499500Y-100760590D01*
X141502643Y-100781943D01*
X141508433Y-100821270D01*
X141510365Y-100834396D01*
X141513755Y-100841300D01*
X141513755Y-100841301D01*
X141524966Y-100864135D01*
X141565459Y-100946610D01*
X141571250Y-100952390D01*
X141571250Y-100952391D01*
X141588208Y-100969319D01*
X141653931Y-101034927D01*
X141709054Y-101061872D01*
X141759340Y-101086453D01*
X141759342Y-101086454D01*
X141766241Y-101089826D01*
X141783831Y-101092392D01*
X141835865Y-101099983D01*
X141835867Y-101099983D01*
X141839410Y-101100500D01*
X142960590Y-101100500D01*
X142995540Y-101095355D01*
X143026783Y-101090756D01*
X143026785Y-101090755D01*
X143034396Y-101089635D01*
X143081613Y-101066453D01*
X143103341Y-101055785D01*
X143146610Y-101034541D01*
X143156598Y-101024536D01*
X143229148Y-100951858D01*
X143229149Y-100951857D01*
X143234927Y-100946069D01*
X143278462Y-100857008D01*
X143286453Y-100840660D01*
X143286454Y-100840658D01*
X143289826Y-100833759D01*
X143297385Y-100781943D01*
X143299983Y-100764135D01*
X143299983Y-100764133D01*
X143300500Y-100760590D01*
X143300500Y-100612585D01*
X143850001Y-100612585D01*
X143850611Y-100620329D01*
X143863616Y-100702449D01*
X143868373Y-100717091D01*
X143918823Y-100816106D01*
X143927865Y-100828551D01*
X144006449Y-100907135D01*
X144018894Y-100916177D01*
X144117912Y-100966629D01*
X144132547Y-100971384D01*
X144214673Y-100984391D01*
X144222412Y-100985000D01*
X144284320Y-100985000D01*
X144297005Y-100980878D01*
X144300000Y-100976757D01*
X144300000Y-100969319D01*
X144600000Y-100969319D01*
X144604122Y-100982004D01*
X144608243Y-100984999D01*
X144677585Y-100984999D01*
X144685329Y-100984389D01*
X144767449Y-100971384D01*
X144782091Y-100966627D01*
X144881106Y-100916177D01*
X144893551Y-100907135D01*
X144972135Y-100828551D01*
X144981177Y-100816106D01*
X145031629Y-100717088D01*
X145036384Y-100702453D01*
X145049391Y-100620327D01*
X145050000Y-100612588D01*
X145050000Y-100612585D01*
X145350001Y-100612585D01*
X145350611Y-100620329D01*
X145363616Y-100702449D01*
X145368373Y-100717091D01*
X145418823Y-100816106D01*
X145427865Y-100828551D01*
X145506449Y-100907135D01*
X145518894Y-100916177D01*
X145617912Y-100966629D01*
X145632547Y-100971384D01*
X145714673Y-100984391D01*
X145722412Y-100985000D01*
X145784320Y-100985000D01*
X145797005Y-100980878D01*
X145800000Y-100976757D01*
X145800000Y-100969319D01*
X146100000Y-100969319D01*
X146104122Y-100982004D01*
X146108243Y-100984999D01*
X146177585Y-100984999D01*
X146185329Y-100984389D01*
X146267449Y-100971384D01*
X146282091Y-100966627D01*
X146381106Y-100916177D01*
X146393551Y-100907135D01*
X146472135Y-100828551D01*
X146481177Y-100816106D01*
X146531629Y-100717088D01*
X146536384Y-100702453D01*
X146549391Y-100620327D01*
X146550000Y-100612588D01*
X146550000Y-100465680D01*
X146545878Y-100452995D01*
X146541757Y-100450000D01*
X146115680Y-100450000D01*
X146102995Y-100454122D01*
X146100000Y-100458243D01*
X146100000Y-100969319D01*
X145800000Y-100969319D01*
X145800000Y-100465680D01*
X145795878Y-100452995D01*
X145791757Y-100450000D01*
X145365681Y-100450000D01*
X145352996Y-100454122D01*
X145350001Y-100458243D01*
X145350001Y-100612585D01*
X145050000Y-100612585D01*
X145050000Y-100465680D01*
X145045878Y-100452995D01*
X145041757Y-100450000D01*
X144615680Y-100450000D01*
X144602995Y-100454122D01*
X144600000Y-100458243D01*
X144600000Y-100969319D01*
X144300000Y-100969319D01*
X144300000Y-100465680D01*
X144295878Y-100452995D01*
X144291757Y-100450000D01*
X143865681Y-100450000D01*
X143852996Y-100454122D01*
X143850001Y-100458243D01*
X143850001Y-100612585D01*
X143300500Y-100612585D01*
X143300500Y-100339410D01*
X143289635Y-100265604D01*
X143250787Y-100186479D01*
X143243317Y-100134320D01*
X143850000Y-100134320D01*
X143854122Y-100147005D01*
X143858243Y-100150000D01*
X144284320Y-100150000D01*
X144297005Y-100145878D01*
X144300000Y-100141757D01*
X144300000Y-100134320D01*
X144600000Y-100134320D01*
X144604122Y-100147005D01*
X144608243Y-100150000D01*
X145034319Y-100150000D01*
X145047004Y-100145878D01*
X145049999Y-100141757D01*
X145049999Y-100134320D01*
X145350000Y-100134320D01*
X145354122Y-100147005D01*
X145358243Y-100150000D01*
X145784320Y-100150000D01*
X145797005Y-100145878D01*
X145800000Y-100141757D01*
X145800000Y-100134320D01*
X146100000Y-100134320D01*
X146104122Y-100147005D01*
X146108243Y-100150000D01*
X146534319Y-100150000D01*
X146547004Y-100145878D01*
X146549999Y-100141757D01*
X146549999Y-99987415D01*
X146549389Y-99979671D01*
X146536384Y-99897551D01*
X146531627Y-99882909D01*
X146481177Y-99783894D01*
X146472135Y-99771449D01*
X146393551Y-99692865D01*
X146381106Y-99683823D01*
X146282088Y-99633371D01*
X146267453Y-99628616D01*
X146185327Y-99615609D01*
X146177588Y-99615000D01*
X146115680Y-99615000D01*
X146102995Y-99619122D01*
X146100000Y-99623243D01*
X146100000Y-100134320D01*
X145800000Y-100134320D01*
X145800000Y-99630681D01*
X145795878Y-99617996D01*
X145791757Y-99615001D01*
X145722415Y-99615001D01*
X145714671Y-99615611D01*
X145632551Y-99628616D01*
X145617909Y-99633373D01*
X145518894Y-99683823D01*
X145506449Y-99692865D01*
X145427865Y-99771449D01*
X145418823Y-99783894D01*
X145368371Y-99882912D01*
X145363616Y-99897547D01*
X145350609Y-99979673D01*
X145350000Y-99987412D01*
X145350000Y-100134320D01*
X145049999Y-100134320D01*
X145049999Y-99987415D01*
X145049389Y-99979671D01*
X145036384Y-99897551D01*
X145031627Y-99882909D01*
X144981177Y-99783894D01*
X144972135Y-99771449D01*
X144893551Y-99692865D01*
X144881106Y-99683823D01*
X144782088Y-99633371D01*
X144767453Y-99628616D01*
X144685327Y-99615609D01*
X144677588Y-99615000D01*
X144615680Y-99615000D01*
X144602995Y-99619122D01*
X144600000Y-99623243D01*
X144600000Y-100134320D01*
X144300000Y-100134320D01*
X144300000Y-99630681D01*
X144295878Y-99617996D01*
X144291757Y-99615001D01*
X144222415Y-99615001D01*
X144214671Y-99615611D01*
X144132551Y-99628616D01*
X144117909Y-99633373D01*
X144018894Y-99683823D01*
X144006449Y-99692865D01*
X143927865Y-99771449D01*
X143918823Y-99783894D01*
X143868371Y-99882912D01*
X143863616Y-99897547D01*
X143850609Y-99979673D01*
X143850000Y-99987412D01*
X143850000Y-100134320D01*
X143243317Y-100134320D01*
X143242113Y-100125913D01*
X143270697Y-100071815D01*
X143287705Y-100058574D01*
X143305749Y-100047452D01*
X143307730Y-100046231D01*
X143320596Y-100039548D01*
X143320841Y-100039443D01*
X143326242Y-100037123D01*
X143338642Y-100031795D01*
X143338643Y-100031794D01*
X143345063Y-100029036D01*
X143349949Y-100025022D01*
X143354313Y-100020658D01*
X143372368Y-100006387D01*
X143380348Y-100001468D01*
X143398018Y-99978231D01*
X143406810Y-99968161D01*
X143774651Y-99600320D01*
X143777780Y-99597620D01*
X143782269Y-99595425D01*
X143794621Y-99582110D01*
X143815893Y-99559178D01*
X143818469Y-99556502D01*
X143832248Y-99542723D01*
X143834793Y-99539013D01*
X143838229Y-99535100D01*
X143852187Y-99520053D01*
X143858401Y-99513354D01*
X143861788Y-99504866D01*
X143862667Y-99502663D01*
X143872978Y-99483352D01*
X143874322Y-99481393D01*
X143874323Y-99481390D01*
X143879493Y-99473854D01*
X143882405Y-99461586D01*
X143885644Y-99447934D01*
X143890014Y-99434115D01*
X143899883Y-99409378D01*
X143900500Y-99403085D01*
X143900500Y-99402691D01*
X143902218Y-99395631D01*
X143905062Y-99396323D01*
X143924532Y-99351758D01*
X143977306Y-99320797D01*
X144043509Y-99329279D01*
X144117753Y-99367109D01*
X144117757Y-99367110D01*
X144124696Y-99370646D01*
X144132390Y-99371865D01*
X144132391Y-99371865D01*
X144214635Y-99384891D01*
X144214637Y-99384891D01*
X144218481Y-99385500D01*
X144449970Y-99385500D01*
X144681518Y-99385499D01*
X144685361Y-99384890D01*
X144685366Y-99384890D01*
X144722217Y-99379053D01*
X144775304Y-99370646D01*
X144843773Y-99335759D01*
X144881403Y-99316586D01*
X144881405Y-99316585D01*
X144888342Y-99313050D01*
X144978050Y-99223342D01*
X144989146Y-99201566D01*
X145032110Y-99117244D01*
X145032110Y-99117243D01*
X145035646Y-99110304D01*
X145037296Y-99099890D01*
X145049891Y-99020365D01*
X145049891Y-99020363D01*
X145050500Y-99016519D01*
X145050500Y-98777611D01*
X145069407Y-98719420D01*
X145079496Y-98707607D01*
X145095484Y-98691619D01*
X145104197Y-98683877D01*
X145124452Y-98667909D01*
X145132110Y-98661872D01*
X145132969Y-98660629D01*
X145184105Y-98632518D01*
X145244808Y-98640188D01*
X145272658Y-98659761D01*
X145273357Y-98660460D01*
X145276051Y-98663263D01*
X145313851Y-98704155D01*
X145313853Y-98704158D01*
X145315146Y-98705556D01*
X145314913Y-98705771D01*
X145345993Y-98753088D01*
X145349501Y-98779209D01*
X145349501Y-99016518D01*
X145350110Y-99020361D01*
X145350110Y-99020366D01*
X145351887Y-99031586D01*
X145364354Y-99110304D01*
X145388780Y-99158243D01*
X145410855Y-99201566D01*
X145421950Y-99223342D01*
X145511658Y-99313050D01*
X145518595Y-99316585D01*
X145518597Y-99316586D01*
X145617754Y-99367109D01*
X145624696Y-99370646D01*
X145632390Y-99371865D01*
X145632391Y-99371865D01*
X145714635Y-99384891D01*
X145714637Y-99384891D01*
X145718481Y-99385500D01*
X145949970Y-99385500D01*
X146181518Y-99385499D01*
X146185361Y-99384890D01*
X146185366Y-99384890D01*
X146222217Y-99379053D01*
X146275304Y-99370646D01*
X146388342Y-99313050D01*
X146389585Y-99315489D01*
X146435709Y-99300500D01*
X146534521Y-99300500D01*
X146592712Y-99319407D01*
X146604525Y-99329496D01*
X147170504Y-99895476D01*
X147198281Y-99949993D01*
X147199500Y-99965480D01*
X147199500Y-100860590D01*
X147200029Y-100864182D01*
X147209023Y-100925278D01*
X147210365Y-100934396D01*
X147213755Y-100941300D01*
X147213755Y-100941301D01*
X147227423Y-100969139D01*
X147265459Y-101046610D01*
X147271250Y-101052390D01*
X147271250Y-101052391D01*
X147299488Y-101080579D01*
X147353931Y-101134927D01*
X147411218Y-101162930D01*
X147459340Y-101186453D01*
X147459342Y-101186454D01*
X147466241Y-101189826D01*
X147496670Y-101194265D01*
X147535865Y-101199983D01*
X147535867Y-101199983D01*
X147539410Y-101200500D01*
X147960590Y-101200500D01*
X147991328Y-101195975D01*
X148026783Y-101190756D01*
X148026785Y-101190755D01*
X148034396Y-101189635D01*
X148047098Y-101183399D01*
X148086477Y-101164065D01*
X148146610Y-101134541D01*
X148234927Y-101046069D01*
X148266243Y-100982004D01*
X148286453Y-100940660D01*
X148286454Y-100940658D01*
X148289826Y-100933759D01*
X148300500Y-100860590D01*
X148300500Y-99739410D01*
X148289635Y-99665604D01*
X148277648Y-99641188D01*
X148257125Y-99599389D01*
X148234541Y-99553390D01*
X148204575Y-99523476D01*
X148151858Y-99470852D01*
X148146069Y-99465073D01*
X148082718Y-99434106D01*
X148040660Y-99413547D01*
X148040658Y-99413546D01*
X148033759Y-99410174D01*
X147985165Y-99403085D01*
X147964135Y-99400017D01*
X147964133Y-99400017D01*
X147960590Y-99399500D01*
X147565479Y-99399500D01*
X147507288Y-99380593D01*
X147495475Y-99370504D01*
X146950320Y-98825349D01*
X146947620Y-98822220D01*
X146945425Y-98817731D01*
X146934156Y-98807277D01*
X146909178Y-98784107D01*
X146906502Y-98781531D01*
X146892723Y-98767752D01*
X146889013Y-98765207D01*
X146885100Y-98761771D01*
X146870055Y-98747815D01*
X146863354Y-98741599D01*
X146852664Y-98737334D01*
X146833348Y-98727020D01*
X146831393Y-98725679D01*
X146831390Y-98725678D01*
X146823854Y-98720508D01*
X146797941Y-98714359D01*
X146784116Y-98709986D01*
X146765868Y-98702706D01*
X146765866Y-98702706D01*
X146759378Y-98700117D01*
X146753085Y-98699500D01*
X146746916Y-98699500D01*
X146724057Y-98696825D01*
X146723827Y-98696770D01*
X146723825Y-98696770D01*
X146714934Y-98694660D01*
X146686013Y-98698596D01*
X146672663Y-98699500D01*
X146649499Y-98699500D01*
X146591308Y-98680593D01*
X146555344Y-98631093D01*
X146550499Y-98600500D01*
X146550499Y-98383482D01*
X146549029Y-98374196D01*
X146537715Y-98302762D01*
X146535646Y-98289696D01*
X146478050Y-98176658D01*
X146388342Y-98086950D01*
X146381405Y-98083415D01*
X146381403Y-98083414D01*
X146282244Y-98032890D01*
X146282243Y-98032890D01*
X146275304Y-98029354D01*
X146267610Y-98028135D01*
X146267609Y-98028135D01*
X146185365Y-98015109D01*
X146185363Y-98015109D01*
X146181519Y-98014500D01*
X146149500Y-98014500D01*
X146091309Y-97995593D01*
X146055345Y-97946093D01*
X146050500Y-97915500D01*
X146050500Y-97702741D01*
X146069407Y-97644550D01*
X146118907Y-97608586D01*
X146180093Y-97608586D01*
X146191333Y-97613014D01*
X146205240Y-97619499D01*
X146243056Y-97624478D01*
X146259979Y-97628237D01*
X146328730Y-97649980D01*
X146335337Y-97650500D01*
X147450500Y-97650500D01*
X147508691Y-97669407D01*
X147544655Y-97718907D01*
X147549500Y-97749500D01*
X147549500Y-98067373D01*
X147548814Y-98079009D01*
X147544636Y-98114310D01*
X147555018Y-98171152D01*
X147555248Y-98172414D01*
X147555758Y-98175476D01*
X147564551Y-98233962D01*
X147567679Y-98240475D01*
X147568975Y-98247573D01*
X147590856Y-98289696D01*
X147596198Y-98299980D01*
X147597588Y-98302762D01*
X147619987Y-98349408D01*
X147619989Y-98349411D01*
X147623191Y-98356079D01*
X147627297Y-98360521D01*
X147628820Y-98362781D01*
X147631421Y-98367788D01*
X147635725Y-98372828D01*
X147673356Y-98410459D01*
X147676051Y-98413263D01*
X147688199Y-98426405D01*
X147713814Y-98481970D01*
X147714500Y-98493605D01*
X147714501Y-98611383D01*
X147714501Y-98731518D01*
X147715110Y-98735361D01*
X147715110Y-98735366D01*
X147718878Y-98759154D01*
X147729354Y-98825304D01*
X147753222Y-98872148D01*
X147778915Y-98922572D01*
X147786950Y-98938342D01*
X147876658Y-99028050D01*
X147883595Y-99031585D01*
X147883597Y-99031586D01*
X147970782Y-99076009D01*
X147989696Y-99085646D01*
X147997390Y-99086865D01*
X147997391Y-99086865D01*
X148079635Y-99099891D01*
X148079637Y-99099891D01*
X148083481Y-99100500D01*
X148399959Y-99100500D01*
X148716518Y-99100499D01*
X148720361Y-99099890D01*
X148720366Y-99099890D01*
X148757217Y-99094053D01*
X148810304Y-99085646D01*
X148866823Y-99056848D01*
X148916403Y-99031586D01*
X148916405Y-99031585D01*
X148923342Y-99028050D01*
X149013050Y-98938342D01*
X149021086Y-98922572D01*
X149067110Y-98832244D01*
X149067110Y-98832243D01*
X149070646Y-98825304D01*
X149071890Y-98817453D01*
X149084891Y-98735365D01*
X149084891Y-98735363D01*
X149085500Y-98731519D01*
X149085500Y-98727585D01*
X149315001Y-98727585D01*
X149315611Y-98735329D01*
X149328616Y-98817449D01*
X149333373Y-98832091D01*
X149383823Y-98931106D01*
X149392865Y-98943551D01*
X149471449Y-99022135D01*
X149483894Y-99031177D01*
X149582912Y-99081629D01*
X149597547Y-99086384D01*
X149679673Y-99099391D01*
X149687412Y-99100000D01*
X149834320Y-99100000D01*
X149847005Y-99095878D01*
X149850000Y-99091757D01*
X149850000Y-99084319D01*
X150150000Y-99084319D01*
X150154122Y-99097004D01*
X150158243Y-99099999D01*
X150312585Y-99099999D01*
X150320329Y-99099389D01*
X150402449Y-99086384D01*
X150417091Y-99081627D01*
X150516106Y-99031177D01*
X150528551Y-99022135D01*
X150607135Y-98943551D01*
X150616177Y-98931106D01*
X150666629Y-98832088D01*
X150671384Y-98817453D01*
X150684391Y-98735327D01*
X150685000Y-98727588D01*
X150685000Y-98665680D01*
X150680878Y-98652995D01*
X150676757Y-98650000D01*
X150165680Y-98650000D01*
X150152995Y-98654122D01*
X150150000Y-98658243D01*
X150150000Y-99084319D01*
X149850000Y-99084319D01*
X149850000Y-98665680D01*
X149845878Y-98652995D01*
X149841757Y-98650000D01*
X149330681Y-98650000D01*
X149317996Y-98654122D01*
X149315001Y-98658243D01*
X149315001Y-98727585D01*
X149085500Y-98727585D01*
X149085499Y-98334320D01*
X149315000Y-98334320D01*
X149319122Y-98347005D01*
X149323243Y-98350000D01*
X149834320Y-98350000D01*
X149847005Y-98345878D01*
X149850000Y-98341757D01*
X149850000Y-98334320D01*
X150150000Y-98334320D01*
X150154122Y-98347005D01*
X150158243Y-98350000D01*
X150669319Y-98350000D01*
X150682004Y-98345878D01*
X150684999Y-98341757D01*
X150684999Y-98272415D01*
X150684389Y-98264671D01*
X150671384Y-98182551D01*
X150666627Y-98167909D01*
X150616177Y-98068894D01*
X150607135Y-98056449D01*
X150528551Y-97977865D01*
X150516106Y-97968823D01*
X150417088Y-97918371D01*
X150402453Y-97913616D01*
X150320327Y-97900609D01*
X150312588Y-97900000D01*
X150165680Y-97900000D01*
X150152995Y-97904122D01*
X150150000Y-97908243D01*
X150150000Y-98334320D01*
X149850000Y-98334320D01*
X149850000Y-97915681D01*
X149845878Y-97902996D01*
X149841757Y-97900001D01*
X149687415Y-97900001D01*
X149679671Y-97900611D01*
X149597551Y-97913616D01*
X149582909Y-97918373D01*
X149483894Y-97968823D01*
X149471449Y-97977865D01*
X149392865Y-98056449D01*
X149383823Y-98068894D01*
X149333371Y-98167912D01*
X149328616Y-98182547D01*
X149315609Y-98264673D01*
X149315000Y-98272412D01*
X149315000Y-98334320D01*
X149085499Y-98334320D01*
X149085499Y-98268482D01*
X149083228Y-98254139D01*
X149074655Y-98200009D01*
X149070646Y-98174696D01*
X149032572Y-98099971D01*
X149016586Y-98068597D01*
X149016585Y-98068595D01*
X149013050Y-98061658D01*
X148923342Y-97971950D01*
X148916405Y-97968415D01*
X148916403Y-97968414D01*
X148817244Y-97917890D01*
X148817243Y-97917890D01*
X148810304Y-97914354D01*
X148802610Y-97913135D01*
X148802609Y-97913135D01*
X148720365Y-97900109D01*
X148720363Y-97900109D01*
X148716519Y-97899500D01*
X148549500Y-97899500D01*
X148491309Y-97880593D01*
X148455345Y-97831093D01*
X148450500Y-97800500D01*
X148450500Y-97599500D01*
X148469407Y-97541309D01*
X148518907Y-97505345D01*
X148549500Y-97500500D01*
X148560590Y-97500500D01*
X148591328Y-97495975D01*
X148626783Y-97490756D01*
X148626785Y-97490755D01*
X148634396Y-97489635D01*
X148746610Y-97434541D01*
X148761718Y-97419407D01*
X148829148Y-97351858D01*
X148834927Y-97346069D01*
X148863891Y-97286816D01*
X148886453Y-97240660D01*
X148886454Y-97240658D01*
X148889826Y-97233759D01*
X148900500Y-97160590D01*
X149499500Y-97160590D01*
X149510365Y-97234396D01*
X149565459Y-97346610D01*
X149653931Y-97434927D01*
X149682009Y-97448652D01*
X149759340Y-97486453D01*
X149759342Y-97486454D01*
X149766241Y-97489826D01*
X149803440Y-97495253D01*
X149835865Y-97499983D01*
X149835867Y-97499983D01*
X149839410Y-97500500D01*
X150960590Y-97500500D01*
X150991328Y-97495975D01*
X151026783Y-97490756D01*
X151026785Y-97490755D01*
X151034396Y-97489635D01*
X151146610Y-97434541D01*
X151152391Y-97428750D01*
X151154764Y-97427051D01*
X151213085Y-97408550D01*
X151272661Y-97429006D01*
X151353369Y-97490935D01*
X151397159Y-97524536D01*
X151543238Y-97585044D01*
X151700000Y-97605682D01*
X151856762Y-97585044D01*
X152002841Y-97524536D01*
X152128282Y-97428282D01*
X152224536Y-97302841D01*
X152285044Y-97156762D01*
X152305682Y-97000000D01*
X152285044Y-96843238D01*
X152224536Y-96697159D01*
X152128282Y-96571718D01*
X152002841Y-96475464D01*
X151856762Y-96414956D01*
X151700000Y-96394318D01*
X151543238Y-96414956D01*
X151537241Y-96417440D01*
X151492173Y-96436108D01*
X151397159Y-96475464D01*
X151394964Y-96477148D01*
X151336656Y-96489543D01*
X151280760Y-96464658D01*
X151250166Y-96411670D01*
X151258059Y-96347609D01*
X151285965Y-96290518D01*
X151290449Y-96276009D01*
X151299483Y-96214087D01*
X151300000Y-96206960D01*
X151300000Y-96165680D01*
X151295878Y-96152995D01*
X151291757Y-96150000D01*
X149515680Y-96150000D01*
X149502995Y-96154122D01*
X149500000Y-96158243D01*
X149500000Y-96206925D01*
X149500526Y-96214117D01*
X149509730Y-96276639D01*
X149514241Y-96291156D01*
X149562267Y-96388973D01*
X149571657Y-96402088D01*
X149574214Y-96404641D01*
X149576029Y-96408195D01*
X149576424Y-96408747D01*
X149576341Y-96408806D01*
X149602040Y-96459133D01*
X149592523Y-96519574D01*
X149574338Y-96544650D01*
X149565073Y-96553931D01*
X149547520Y-96589840D01*
X149513861Y-96658699D01*
X149510174Y-96666241D01*
X149499500Y-96739410D01*
X149499500Y-97160590D01*
X148900500Y-97160590D01*
X148900500Y-96739410D01*
X148889635Y-96665604D01*
X148876775Y-96639410D01*
X148851088Y-96587092D01*
X148834541Y-96553390D01*
X148827343Y-96546204D01*
X148786597Y-96505530D01*
X148746069Y-96465073D01*
X148664656Y-96425277D01*
X148640660Y-96413547D01*
X148640658Y-96413546D01*
X148633759Y-96410174D01*
X148595831Y-96404641D01*
X148564135Y-96400017D01*
X148564133Y-96400017D01*
X148560590Y-96399500D01*
X147439410Y-96399500D01*
X147421830Y-96402088D01*
X147373217Y-96409244D01*
X147373215Y-96409245D01*
X147365604Y-96410365D01*
X147358700Y-96413755D01*
X147358699Y-96413755D01*
X147313523Y-96435935D01*
X147253390Y-96465459D01*
X147247610Y-96471250D01*
X147247609Y-96471250D01*
X147218290Y-96500621D01*
X147165073Y-96553931D01*
X147147520Y-96589840D01*
X147113861Y-96658699D01*
X147110174Y-96666241D01*
X147109065Y-96673843D01*
X147107245Y-96679732D01*
X147071998Y-96729746D01*
X147012659Y-96749500D01*
X146914840Y-96749500D01*
X146856649Y-96730593D01*
X146820685Y-96681093D01*
X146817742Y-96631186D01*
X146824052Y-96599462D01*
X146825000Y-96589840D01*
X146825000Y-96515680D01*
X146820878Y-96502995D01*
X146816757Y-96500000D01*
X143590680Y-96500000D01*
X143577995Y-96504122D01*
X143575000Y-96508243D01*
X143575000Y-96589840D01*
X143575948Y-96599462D01*
X143582258Y-96631186D01*
X143575066Y-96691947D01*
X143533534Y-96736877D01*
X143485160Y-96749500D01*
X143299500Y-96749500D01*
X143241309Y-96730593D01*
X143205345Y-96681093D01*
X143200500Y-96650500D01*
X143200500Y-96639410D01*
X143192483Y-96584950D01*
X143190756Y-96573217D01*
X143190755Y-96573215D01*
X143189635Y-96565604D01*
X143134541Y-96453390D01*
X143127373Y-96446234D01*
X143051858Y-96370852D01*
X143046069Y-96365073D01*
X142967451Y-96326643D01*
X142940660Y-96313547D01*
X142940658Y-96313546D01*
X142933759Y-96310174D01*
X142896560Y-96304747D01*
X142864135Y-96300017D01*
X142864133Y-96300017D01*
X142860590Y-96299500D01*
X142439410Y-96299500D01*
X142408672Y-96304025D01*
X142373217Y-96309244D01*
X142373215Y-96309245D01*
X142365604Y-96310365D01*
X142253390Y-96365459D01*
X142165073Y-96453931D01*
X142142798Y-96499500D01*
X142113861Y-96558699D01*
X142110174Y-96566241D01*
X142099500Y-96639410D01*
X142099500Y-97760590D01*
X142110365Y-97834396D01*
X142165459Y-97946610D01*
X142171250Y-97952391D01*
X142176014Y-97959045D01*
X142174723Y-97959969D01*
X142198267Y-98006074D01*
X142199500Y-98021649D01*
X142199500Y-98312409D01*
X142180593Y-98370600D01*
X142131093Y-98406564D01*
X142115987Y-98410190D01*
X142109640Y-98411195D01*
X142089696Y-98414354D01*
X142079424Y-98419588D01*
X141983597Y-98468414D01*
X141983595Y-98468415D01*
X141976658Y-98471950D01*
X141886950Y-98561658D01*
X141883415Y-98568595D01*
X141883414Y-98568597D01*
X141835179Y-98663263D01*
X141829354Y-98674696D01*
X141828135Y-98682390D01*
X141828135Y-98682391D01*
X141817773Y-98747815D01*
X141814500Y-98768481D01*
X141814501Y-99231518D01*
X141829354Y-99325304D01*
X141842833Y-99351758D01*
X141872598Y-99410174D01*
X141886950Y-99438342D01*
X141976658Y-99528050D01*
X141983595Y-99531585D01*
X141983597Y-99531586D01*
X142081302Y-99581369D01*
X142089696Y-99585646D01*
X142097390Y-99586865D01*
X142097391Y-99586865D01*
X142154640Y-99595932D01*
X142209156Y-99623709D01*
X142236934Y-99678226D01*
X142227363Y-99738658D01*
X142211733Y-99761041D01*
X142184107Y-99790822D01*
X142181531Y-99793498D01*
X142167752Y-99807277D01*
X142165207Y-99810987D01*
X142161771Y-99814900D01*
X142141599Y-99836646D01*
X142138212Y-99845134D01*
X142138212Y-99845135D01*
X142137334Y-99847336D01*
X142127020Y-99866652D01*
X142125679Y-99868607D01*
X142125678Y-99868610D01*
X142120508Y-99876146D01*
X142114745Y-99900431D01*
X142114359Y-99902058D01*
X142109986Y-99915883D01*
X142101488Y-99937184D01*
X142062365Y-99984227D01*
X142009536Y-99999500D01*
X141839410Y-99999500D01*
X141808672Y-100004025D01*
X141773217Y-100009244D01*
X141773215Y-100009245D01*
X141765604Y-100010365D01*
X141758700Y-100013755D01*
X141758699Y-100013755D01*
X141735767Y-100025014D01*
X141653390Y-100065459D01*
X141647610Y-100071250D01*
X141647609Y-100071250D01*
X141624620Y-100094279D01*
X141565073Y-100153931D01*
X141542363Y-100200390D01*
X141513861Y-100258699D01*
X141510174Y-100266241D01*
X141499500Y-100339410D01*
X141499500Y-100760590D01*
X140900500Y-100760590D01*
X140900500Y-100339410D01*
X140889635Y-100265604D01*
X140834541Y-100153390D01*
X140815410Y-100134292D01*
X140779321Y-100098267D01*
X140746069Y-100065073D01*
X140672346Y-100029036D01*
X140640660Y-100013547D01*
X140640658Y-100013546D01*
X140633759Y-100010174D01*
X140596560Y-100004747D01*
X140564135Y-100000017D01*
X140564133Y-100000017D01*
X140560590Y-99999500D01*
X139439410Y-99999500D01*
X139408672Y-100004025D01*
X139373217Y-100009244D01*
X139373215Y-100009245D01*
X139365604Y-100010365D01*
X139358700Y-100013755D01*
X139358699Y-100013755D01*
X139335767Y-100025014D01*
X139253390Y-100065459D01*
X139247610Y-100071250D01*
X139247609Y-100071250D01*
X139203224Y-100115713D01*
X139148732Y-100143539D01*
X139088291Y-100134020D01*
X139054617Y-100106039D01*
X139051337Y-100101764D01*
X139028282Y-100071718D01*
X138902841Y-99975464D01*
X138756762Y-99914956D01*
X138600000Y-99894318D01*
X138443238Y-99914956D01*
X138297159Y-99975464D01*
X138171718Y-100071718D01*
X138075464Y-100197159D01*
X138014956Y-100343238D01*
X137994318Y-100500000D01*
X137400500Y-100500000D01*
X137400500Y-99392400D01*
X137419407Y-99334209D01*
X137468907Y-99298245D01*
X137530093Y-99298245D01*
X137542976Y-99303457D01*
X137609481Y-99335965D01*
X137623991Y-99340449D01*
X137685913Y-99349483D01*
X137693040Y-99350000D01*
X137734320Y-99350000D01*
X137747005Y-99345878D01*
X137750000Y-99341757D01*
X137750000Y-99334320D01*
X138050000Y-99334320D01*
X138054122Y-99347005D01*
X138058243Y-99350000D01*
X138106925Y-99350000D01*
X138114117Y-99349474D01*
X138176639Y-99340270D01*
X138191156Y-99335759D01*
X138288973Y-99287733D01*
X138302093Y-99278340D01*
X138352760Y-99227585D01*
X140215001Y-99227585D01*
X140215611Y-99235329D01*
X140228616Y-99317449D01*
X140233373Y-99332091D01*
X140283823Y-99431106D01*
X140292865Y-99443551D01*
X140371449Y-99522135D01*
X140383894Y-99531177D01*
X140482912Y-99581629D01*
X140497547Y-99586384D01*
X140579673Y-99599391D01*
X140587412Y-99600000D01*
X140734320Y-99600000D01*
X140747005Y-99595878D01*
X140750000Y-99591757D01*
X140750000Y-99584319D01*
X141050000Y-99584319D01*
X141054122Y-99597004D01*
X141058243Y-99599999D01*
X141212585Y-99599999D01*
X141220329Y-99599389D01*
X141302449Y-99586384D01*
X141317091Y-99581627D01*
X141416106Y-99531177D01*
X141428551Y-99522135D01*
X141507135Y-99443551D01*
X141516177Y-99431106D01*
X141566629Y-99332088D01*
X141571384Y-99317453D01*
X141584391Y-99235327D01*
X141585000Y-99227588D01*
X141585000Y-99165680D01*
X141580878Y-99152995D01*
X141576757Y-99150000D01*
X141065680Y-99150000D01*
X141052995Y-99154122D01*
X141050000Y-99158243D01*
X141050000Y-99584319D01*
X140750000Y-99584319D01*
X140750000Y-99165680D01*
X140745878Y-99152995D01*
X140741757Y-99150000D01*
X140230681Y-99150000D01*
X140217996Y-99154122D01*
X140215001Y-99158243D01*
X140215001Y-99227585D01*
X138352760Y-99227585D01*
X138378734Y-99201566D01*
X138388108Y-99188424D01*
X138435965Y-99090518D01*
X138440449Y-99076009D01*
X138449483Y-99014087D01*
X138450000Y-99006960D01*
X138450000Y-98834320D01*
X140215000Y-98834320D01*
X140219122Y-98847005D01*
X140223243Y-98850000D01*
X140734320Y-98850000D01*
X140747005Y-98845878D01*
X140750000Y-98841757D01*
X140750000Y-98834320D01*
X141050000Y-98834320D01*
X141054122Y-98847005D01*
X141058243Y-98850000D01*
X141569319Y-98850000D01*
X141582004Y-98845878D01*
X141584999Y-98841757D01*
X141584999Y-98772415D01*
X141584389Y-98764671D01*
X141571384Y-98682551D01*
X141566627Y-98667909D01*
X141516177Y-98568894D01*
X141507135Y-98556449D01*
X141428551Y-98477865D01*
X141416106Y-98468823D01*
X141317088Y-98418371D01*
X141302453Y-98413616D01*
X141220327Y-98400609D01*
X141212588Y-98400000D01*
X141065680Y-98400000D01*
X141052995Y-98404122D01*
X141050000Y-98408243D01*
X141050000Y-98834320D01*
X140750000Y-98834320D01*
X140750000Y-98415681D01*
X140745878Y-98402996D01*
X140741757Y-98400001D01*
X140587415Y-98400001D01*
X140579671Y-98400611D01*
X140497551Y-98413616D01*
X140482909Y-98418373D01*
X140383894Y-98468823D01*
X140371449Y-98477865D01*
X140292865Y-98556449D01*
X140283823Y-98568894D01*
X140233371Y-98667912D01*
X140228616Y-98682547D01*
X140215609Y-98764673D01*
X140215000Y-98772412D01*
X140215000Y-98834320D01*
X138450000Y-98834320D01*
X138450000Y-98665680D01*
X138445878Y-98652995D01*
X138441757Y-98650000D01*
X138065680Y-98650000D01*
X138052995Y-98654122D01*
X138050000Y-98658243D01*
X138050000Y-99334320D01*
X137750000Y-99334320D01*
X137750000Y-98334320D01*
X138050000Y-98334320D01*
X138054122Y-98347005D01*
X138058243Y-98350000D01*
X138434320Y-98350000D01*
X138447005Y-98345878D01*
X138450000Y-98341757D01*
X138450000Y-97993075D01*
X138449474Y-97985883D01*
X138440270Y-97923361D01*
X138435759Y-97908844D01*
X138387733Y-97811027D01*
X138378340Y-97797907D01*
X138301566Y-97721266D01*
X138288424Y-97711892D01*
X138190518Y-97664035D01*
X138176009Y-97659551D01*
X138114087Y-97650517D01*
X138106960Y-97650000D01*
X138065680Y-97650000D01*
X138052995Y-97654122D01*
X138050000Y-97658243D01*
X138050000Y-98334320D01*
X137750000Y-98334320D01*
X137750000Y-97665680D01*
X137745878Y-97652995D01*
X137741757Y-97650000D01*
X137693077Y-97650000D01*
X137682283Y-97650790D01*
X137622868Y-97636181D01*
X137583387Y-97589438D01*
X137578920Y-97528416D01*
X137605053Y-97482050D01*
X137657607Y-97429496D01*
X137712124Y-97401719D01*
X137727611Y-97400500D01*
X138178487Y-97400500D01*
X138236678Y-97419407D01*
X138247838Y-97428930D01*
X138248138Y-97429144D01*
X138253931Y-97434927D01*
X138282009Y-97448652D01*
X138359340Y-97486453D01*
X138359342Y-97486454D01*
X138366241Y-97489826D01*
X138403440Y-97495253D01*
X138435865Y-97499983D01*
X138435867Y-97499983D01*
X138439410Y-97500500D01*
X139460590Y-97500500D01*
X139491328Y-97495975D01*
X139526783Y-97490756D01*
X139526785Y-97490755D01*
X139534396Y-97489635D01*
X139646610Y-97434541D01*
X139652391Y-97428750D01*
X139659045Y-97423986D01*
X139659969Y-97425277D01*
X139706074Y-97401733D01*
X139721649Y-97400500D01*
X140100500Y-97400500D01*
X140158691Y-97419407D01*
X140194655Y-97468907D01*
X140199500Y-97499500D01*
X140199500Y-97760590D01*
X140210365Y-97834396D01*
X140265459Y-97946610D01*
X140271250Y-97952390D01*
X140271250Y-97952391D01*
X140296359Y-97977456D01*
X140353931Y-98034927D01*
X140383153Y-98049211D01*
X140459340Y-98086453D01*
X140459342Y-98086454D01*
X140466241Y-98089826D01*
X140503440Y-98095253D01*
X140535865Y-98099983D01*
X140535867Y-98099983D01*
X140539410Y-98100500D01*
X140960590Y-98100500D01*
X140991328Y-98095975D01*
X141026783Y-98090756D01*
X141026785Y-98090755D01*
X141034396Y-98089635D01*
X141146610Y-98034541D01*
X141159480Y-98021649D01*
X141229148Y-97951858D01*
X141234927Y-97946069D01*
X141266933Y-97880593D01*
X141286453Y-97840660D01*
X141286454Y-97840658D01*
X141289826Y-97833759D01*
X141299208Y-97769444D01*
X141299983Y-97764135D01*
X141299983Y-97764133D01*
X141300500Y-97760590D01*
X141300500Y-96639410D01*
X141292483Y-96584950D01*
X141290756Y-96573217D01*
X141290755Y-96573215D01*
X141289635Y-96565604D01*
X141234541Y-96453390D01*
X141227373Y-96446234D01*
X141151858Y-96370852D01*
X141146069Y-96365073D01*
X141067451Y-96326643D01*
X141040660Y-96313547D01*
X141040658Y-96313546D01*
X141033759Y-96310174D01*
X140996560Y-96304747D01*
X140964135Y-96300017D01*
X140964133Y-96300017D01*
X140960590Y-96299500D01*
X140539410Y-96299500D01*
X140508672Y-96304025D01*
X140473217Y-96309244D01*
X140473215Y-96309245D01*
X140465604Y-96310365D01*
X140353390Y-96365459D01*
X140265073Y-96453931D01*
X140262670Y-96458846D01*
X140214645Y-96494384D01*
X140183231Y-96499500D01*
X139721513Y-96499500D01*
X139663322Y-96480593D01*
X139652162Y-96471070D01*
X139651862Y-96470856D01*
X139646069Y-96465073D01*
X139564656Y-96425277D01*
X139540660Y-96413547D01*
X139540658Y-96413546D01*
X139533759Y-96410174D01*
X139495831Y-96404641D01*
X139464135Y-96400017D01*
X139464133Y-96400017D01*
X139460590Y-96399500D01*
X138439410Y-96399500D01*
X138421830Y-96402088D01*
X138373217Y-96409244D01*
X138373215Y-96409245D01*
X138365604Y-96410365D01*
X138358700Y-96413755D01*
X138358699Y-96413755D01*
X138313523Y-96435935D01*
X138253390Y-96465459D01*
X138247609Y-96471250D01*
X138240955Y-96476014D01*
X138240031Y-96474723D01*
X138193926Y-96498267D01*
X138178351Y-96499500D01*
X137532626Y-96499500D01*
X137520990Y-96498814D01*
X137516368Y-96498267D01*
X137485689Y-96494636D01*
X137478413Y-96495965D01*
X137478411Y-96495965D01*
X137465808Y-96498267D01*
X137427534Y-96505257D01*
X137424541Y-96505756D01*
X137366038Y-96514551D01*
X137359525Y-96517678D01*
X137352426Y-96518975D01*
X137302997Y-96544651D01*
X137300007Y-96546204D01*
X137297226Y-96547594D01*
X137255223Y-96567764D01*
X137243921Y-96573191D01*
X137239481Y-96577295D01*
X137237218Y-96578820D01*
X137232211Y-96581421D01*
X137227172Y-96585725D01*
X137189540Y-96623357D01*
X137186737Y-96626051D01*
X137149876Y-96660124D01*
X137149874Y-96660127D01*
X137144444Y-96665146D01*
X137140922Y-96671210D01*
X137134362Y-96678535D01*
X136654516Y-97158381D01*
X136645804Y-97166122D01*
X136617890Y-97188128D01*
X136617703Y-97187891D01*
X136568053Y-97215188D01*
X136507350Y-97207521D01*
X136462747Y-97165638D01*
X136450500Y-97117942D01*
X136450500Y-95256925D01*
X138100000Y-95256925D01*
X138100526Y-95264117D01*
X138109730Y-95326639D01*
X138114241Y-95341156D01*
X138162267Y-95438973D01*
X138171660Y-95452093D01*
X138248434Y-95528734D01*
X138261576Y-95538108D01*
X138359482Y-95585965D01*
X138373991Y-95590449D01*
X138435913Y-95599483D01*
X138443040Y-95600000D01*
X138784320Y-95600000D01*
X138797005Y-95595878D01*
X138800000Y-95591757D01*
X138800000Y-95584320D01*
X139100000Y-95584320D01*
X139104122Y-95597005D01*
X139108243Y-95600000D01*
X139456925Y-95600000D01*
X139464117Y-95599474D01*
X139526639Y-95590270D01*
X139541156Y-95585759D01*
X139638973Y-95537733D01*
X139652093Y-95528340D01*
X139728734Y-95451566D01*
X139738108Y-95438424D01*
X139785965Y-95340518D01*
X139790449Y-95326009D01*
X139799483Y-95264087D01*
X139800000Y-95256960D01*
X139800000Y-95215680D01*
X139795878Y-95202995D01*
X139791757Y-95200000D01*
X139115680Y-95200000D01*
X139102995Y-95204122D01*
X139100000Y-95208243D01*
X139100000Y-95584320D01*
X138800000Y-95584320D01*
X138800000Y-95215680D01*
X138795878Y-95202995D01*
X138791757Y-95200000D01*
X138115680Y-95200000D01*
X138102995Y-95204122D01*
X138100000Y-95208243D01*
X138100000Y-95256925D01*
X136450500Y-95256925D01*
X136450500Y-94884320D01*
X138100000Y-94884320D01*
X138104122Y-94897005D01*
X138108243Y-94900000D01*
X138784320Y-94900000D01*
X138797005Y-94895878D01*
X138800000Y-94891757D01*
X138800000Y-94884320D01*
X139100000Y-94884320D01*
X139104122Y-94897005D01*
X139108243Y-94900000D01*
X139784320Y-94900000D01*
X139797005Y-94895878D01*
X139800000Y-94891757D01*
X139800000Y-94843075D01*
X139799474Y-94835883D01*
X139790270Y-94773361D01*
X139785759Y-94758844D01*
X139737733Y-94661027D01*
X139728340Y-94647907D01*
X139651566Y-94571266D01*
X139638424Y-94561892D01*
X139540518Y-94514035D01*
X139526009Y-94509551D01*
X139464087Y-94500517D01*
X139456960Y-94500000D01*
X139115680Y-94500000D01*
X139102995Y-94504122D01*
X139100000Y-94508243D01*
X139100000Y-94884320D01*
X138800000Y-94884320D01*
X138800000Y-94515680D01*
X138795878Y-94502995D01*
X138791757Y-94500000D01*
X138443075Y-94500000D01*
X138435883Y-94500526D01*
X138373361Y-94509730D01*
X138358844Y-94514241D01*
X138261027Y-94562267D01*
X138247907Y-94571660D01*
X138171266Y-94648434D01*
X138161892Y-94661576D01*
X138114035Y-94759482D01*
X138109551Y-94773991D01*
X138100517Y-94835913D01*
X138100000Y-94843040D01*
X138100000Y-94884320D01*
X136450500Y-94884320D01*
X136450500Y-92810660D01*
X139770600Y-92810660D01*
X139771516Y-92817347D01*
X139789143Y-92946027D01*
X139790140Y-92953307D01*
X139847321Y-93085442D01*
X139900586Y-93153374D01*
X140094563Y-93347350D01*
X140270503Y-93523290D01*
X140298281Y-93577807D01*
X140299500Y-93593294D01*
X140299500Y-93978487D01*
X140280593Y-94036678D01*
X140271070Y-94047838D01*
X140270856Y-94048138D01*
X140265073Y-94053931D01*
X140246583Y-94091757D01*
X140213861Y-94158699D01*
X140210174Y-94166241D01*
X140199500Y-94239410D01*
X140199500Y-95360590D01*
X140210365Y-95434396D01*
X140213755Y-95441300D01*
X140213755Y-95441301D01*
X140219200Y-95452391D01*
X140265459Y-95546610D01*
X140271250Y-95552390D01*
X140271250Y-95552391D01*
X140301476Y-95582564D01*
X140353931Y-95634927D01*
X140411218Y-95662930D01*
X140459340Y-95686453D01*
X140459342Y-95686454D01*
X140466241Y-95689826D01*
X140503440Y-95695253D01*
X140535865Y-95699983D01*
X140535867Y-95699983D01*
X140539410Y-95700500D01*
X140960590Y-95700500D01*
X140991987Y-95695878D01*
X141026783Y-95690756D01*
X141026785Y-95690755D01*
X141034396Y-95689635D01*
X141045222Y-95684320D01*
X141129112Y-95643132D01*
X141146610Y-95634541D01*
X141155352Y-95625783D01*
X141209844Y-95597960D01*
X141270284Y-95607480D01*
X141295355Y-95625661D01*
X141298433Y-95628733D01*
X141311576Y-95638108D01*
X141409482Y-95685965D01*
X141423991Y-95690449D01*
X141485913Y-95699483D01*
X141493040Y-95700000D01*
X141534320Y-95700000D01*
X141547005Y-95695878D01*
X141550000Y-95691757D01*
X141550000Y-95684320D01*
X141850000Y-95684320D01*
X141854122Y-95697005D01*
X141858243Y-95700000D01*
X141906925Y-95700000D01*
X141914117Y-95699474D01*
X141976639Y-95690270D01*
X141991156Y-95685759D01*
X142088973Y-95637733D01*
X142102088Y-95628343D01*
X142104641Y-95625786D01*
X142108195Y-95623971D01*
X142108747Y-95623576D01*
X142108806Y-95623659D01*
X142159133Y-95597960D01*
X142219574Y-95607477D01*
X142244650Y-95625662D01*
X142253931Y-95634927D01*
X142311218Y-95662930D01*
X142359340Y-95686453D01*
X142359342Y-95686454D01*
X142366241Y-95689826D01*
X142403440Y-95695253D01*
X142435865Y-95699983D01*
X142435867Y-95699983D01*
X142439410Y-95700500D01*
X142860590Y-95700500D01*
X142891987Y-95695878D01*
X142926783Y-95690756D01*
X142926785Y-95690755D01*
X142934396Y-95689635D01*
X142945222Y-95684320D01*
X143029112Y-95643132D01*
X143046610Y-95634541D01*
X143055473Y-95625663D01*
X143129148Y-95551858D01*
X143134927Y-95546069D01*
X143165111Y-95484320D01*
X143186453Y-95440660D01*
X143186454Y-95440658D01*
X143189826Y-95433759D01*
X143200500Y-95360590D01*
X143200500Y-94239410D01*
X143189635Y-94165604D01*
X143134541Y-94053390D01*
X143046069Y-93965073D01*
X143038719Y-93961480D01*
X143038716Y-93961478D01*
X143010130Y-93947505D01*
X142966154Y-93904963D01*
X142955583Y-93844698D01*
X142982453Y-93789729D01*
X143000874Y-93775351D01*
X143002841Y-93774536D01*
X143128282Y-93678282D01*
X143224536Y-93552841D01*
X143285044Y-93406762D01*
X143305682Y-93250000D01*
X143285044Y-93093238D01*
X143224536Y-92947159D01*
X143128282Y-92821718D01*
X143002841Y-92725464D01*
X142880296Y-92674704D01*
X142862759Y-92667440D01*
X142856762Y-92664956D01*
X142700000Y-92644318D01*
X142543238Y-92664956D01*
X142537241Y-92667440D01*
X142519704Y-92674704D01*
X142397159Y-92725464D01*
X142271718Y-92821718D01*
X142175464Y-92947159D01*
X142114956Y-93093238D01*
X142094318Y-93250000D01*
X142114956Y-93406762D01*
X142175464Y-93552841D01*
X142271718Y-93678282D01*
X142276871Y-93682236D01*
X142310767Y-93708245D01*
X142345423Y-93758669D01*
X142349500Y-93786787D01*
X142349500Y-93856589D01*
X142330593Y-93914780D01*
X142294132Y-93945456D01*
X142253390Y-93965459D01*
X142244648Y-93974217D01*
X142190156Y-94002040D01*
X142129716Y-93992520D01*
X142104645Y-93974339D01*
X142101567Y-93971267D01*
X142088424Y-93961892D01*
X141990518Y-93914035D01*
X141976009Y-93909551D01*
X141914087Y-93900517D01*
X141906960Y-93900000D01*
X141865680Y-93900000D01*
X141852995Y-93904122D01*
X141850000Y-93908243D01*
X141850000Y-95684320D01*
X141550000Y-95684320D01*
X141550000Y-93915680D01*
X141545878Y-93902995D01*
X141541757Y-93900000D01*
X141493075Y-93900000D01*
X141485883Y-93900526D01*
X141423361Y-93909730D01*
X141408844Y-93914241D01*
X141343132Y-93946504D01*
X141282564Y-93955178D01*
X141228466Y-93926595D01*
X141201500Y-93871672D01*
X141200500Y-93857637D01*
X141200500Y-93614615D01*
X141219407Y-93556424D01*
X141229496Y-93544612D01*
X141618619Y-93155488D01*
X141620733Y-93153374D01*
X141673999Y-93085442D01*
X141731180Y-92953307D01*
X141732178Y-92946027D01*
X141749804Y-92817347D01*
X141750720Y-92810660D01*
X141748807Y-92796693D01*
X141732097Y-92674704D01*
X141732096Y-92674701D01*
X141731180Y-92668013D01*
X141673999Y-92535878D01*
X141623325Y-92471250D01*
X141622573Y-92470291D01*
X141622570Y-92470288D01*
X141620734Y-92467946D01*
X141103374Y-91950587D01*
X141101033Y-91948751D01*
X141101028Y-91948747D01*
X141045175Y-91904953D01*
X141035442Y-91897321D01*
X140919171Y-91847005D01*
X140909507Y-91842823D01*
X140903307Y-91840140D01*
X140896619Y-91839224D01*
X140896616Y-91839223D01*
X140767347Y-91821516D01*
X140760660Y-91820600D01*
X140753973Y-91821516D01*
X140624704Y-91839223D01*
X140624701Y-91839224D01*
X140618013Y-91840140D01*
X140611813Y-91842823D01*
X140602149Y-91847005D01*
X140485878Y-91897321D01*
X140417946Y-91950586D01*
X139900587Y-92467946D01*
X139898751Y-92470287D01*
X139898747Y-92470292D01*
X139880236Y-92493900D01*
X139847321Y-92535878D01*
X139790140Y-92668013D01*
X139789224Y-92674701D01*
X139789223Y-92674704D01*
X139772513Y-92796693D01*
X139770600Y-92810660D01*
X136450500Y-92810660D01*
X136450500Y-91827611D01*
X136469407Y-91769420D01*
X136479496Y-91757607D01*
X137496028Y-90741075D01*
X137550545Y-90713298D01*
X137610977Y-90722869D01*
X137654242Y-90766134D01*
X137664116Y-90797644D01*
X137668820Y-90831987D01*
X137726001Y-90964122D01*
X137729923Y-90969124D01*
X137777427Y-91029708D01*
X137779266Y-91032054D01*
X138296626Y-91549413D01*
X138298967Y-91551249D01*
X138298972Y-91551253D01*
X138302991Y-91554404D01*
X138364558Y-91602679D01*
X138496693Y-91659860D01*
X138503381Y-91660776D01*
X138503384Y-91660777D01*
X138632653Y-91678484D01*
X138639340Y-91679400D01*
X138646027Y-91678484D01*
X138775296Y-91660777D01*
X138775299Y-91660776D01*
X138781987Y-91659860D01*
X138791522Y-91655734D01*
X138892368Y-91612093D01*
X138914122Y-91602679D01*
X138932153Y-91588541D01*
X138979709Y-91551253D01*
X138979712Y-91551250D01*
X138982054Y-91549414D01*
X139024543Y-91506925D01*
X141500000Y-91506925D01*
X141500526Y-91514117D01*
X141509730Y-91576639D01*
X141514241Y-91591156D01*
X141562267Y-91688973D01*
X141571660Y-91702093D01*
X141648434Y-91778734D01*
X141661576Y-91788108D01*
X141759482Y-91835965D01*
X141773991Y-91840449D01*
X141835913Y-91849483D01*
X141843040Y-91850000D01*
X141884320Y-91850000D01*
X141897005Y-91845878D01*
X141900000Y-91841757D01*
X141900000Y-91834320D01*
X142200000Y-91834320D01*
X142204122Y-91847005D01*
X142208243Y-91850000D01*
X142256925Y-91850000D01*
X142264117Y-91849474D01*
X142326639Y-91840270D01*
X142341156Y-91835759D01*
X142438973Y-91787733D01*
X142452093Y-91778340D01*
X142528734Y-91701566D01*
X142538108Y-91688424D01*
X142585965Y-91590518D01*
X142590449Y-91576009D01*
X142599483Y-91514087D01*
X142600000Y-91506960D01*
X142600000Y-91165680D01*
X142595878Y-91152995D01*
X142591757Y-91150000D01*
X142215680Y-91150000D01*
X142202995Y-91154122D01*
X142200000Y-91158243D01*
X142200000Y-91834320D01*
X141900000Y-91834320D01*
X141900000Y-91165680D01*
X141895878Y-91152995D01*
X141891757Y-91150000D01*
X141515680Y-91150000D01*
X141502995Y-91154122D01*
X141500000Y-91158243D01*
X141500000Y-91506925D01*
X139024543Y-91506925D01*
X139499413Y-91032054D01*
X139552679Y-90964122D01*
X139608850Y-90834320D01*
X141500000Y-90834320D01*
X141504122Y-90847005D01*
X141508243Y-90850000D01*
X141884320Y-90850000D01*
X141897005Y-90845878D01*
X141900000Y-90841757D01*
X141900000Y-90834320D01*
X142200000Y-90834320D01*
X142204122Y-90847005D01*
X142208243Y-90850000D01*
X142584320Y-90850000D01*
X142597005Y-90845878D01*
X142600000Y-90841757D01*
X142600000Y-90493075D01*
X142599474Y-90485883D01*
X142590270Y-90423361D01*
X142585759Y-90408844D01*
X142537733Y-90311027D01*
X142528340Y-90297907D01*
X142451566Y-90221266D01*
X142438424Y-90211892D01*
X142340518Y-90164035D01*
X142326009Y-90159551D01*
X142264087Y-90150517D01*
X142256960Y-90150000D01*
X142215680Y-90150000D01*
X142202995Y-90154122D01*
X142200000Y-90158243D01*
X142200000Y-90834320D01*
X141900000Y-90834320D01*
X141900000Y-90165680D01*
X141895878Y-90152995D01*
X141891757Y-90150000D01*
X141843075Y-90150000D01*
X141835883Y-90150526D01*
X141773361Y-90159730D01*
X141758844Y-90164241D01*
X141661027Y-90212267D01*
X141647907Y-90221660D01*
X141571266Y-90298434D01*
X141561892Y-90311576D01*
X141514035Y-90409482D01*
X141509551Y-90423991D01*
X141500517Y-90485913D01*
X141500000Y-90493040D01*
X141500000Y-90834320D01*
X139608850Y-90834320D01*
X139609860Y-90831987D01*
X139614565Y-90797645D01*
X139628484Y-90696027D01*
X139629400Y-90689340D01*
X139609860Y-90546693D01*
X139552679Y-90414558D01*
X139548757Y-90409556D01*
X139545504Y-90404088D01*
X139546912Y-90403250D01*
X139528599Y-90353201D01*
X139545364Y-90294357D01*
X139557529Y-90279574D01*
X140357607Y-89479496D01*
X140412124Y-89451719D01*
X140427611Y-89450500D01*
X142472389Y-89450500D01*
X142530580Y-89469407D01*
G37*
%TD.AperFunction*%
%TD*%
M02*
