%TF.GenerationSoftware,KiCad,Pcbnew,8.0.9-8.0.9-0~ubuntu24.04.1*%
%TF.CreationDate,2025-04-04T21:47:20+03:00*%
%TF.ProjectId,rgbw-light,72676277-2d6c-4696-9768-742e6b696361,rev?*%
%TF.SameCoordinates,Original*%
%TF.FileFunction,Copper,L2,Bot*%
%TF.FilePolarity,Positive*%
%FSLAX46Y46*%
G04 Gerber Fmt 4.6, Leading zero omitted, Abs format (unit mm)*
G04 Created by KiCad (PCBNEW 8.0.9-8.0.9-0~ubuntu24.04.1) date 2025-04-04 21:47:20*
%MOMM*%
%LPD*%
G01*
G04 APERTURE LIST*
G04 Aperture macros list*
%AMRoundRect*
0 Rectangle with rounded corners*
0 $1 Rounding radius*
0 $2 $3 $4 $5 $6 $7 $8 $9 X,Y pos of 4 corners*
0 Add a 4 corners polygon primitive as box body*
4,1,4,$2,$3,$4,$5,$6,$7,$8,$9,$2,$3,0*
0 Add four circle primitives for the rounded corners*
1,1,$1+$1,$2,$3*
1,1,$1+$1,$4,$5*
1,1,$1+$1,$6,$7*
1,1,$1+$1,$8,$9*
0 Add four rect primitives between the rounded corners*
20,1,$1+$1,$2,$3,$4,$5,0*
20,1,$1+$1,$4,$5,$6,$7,0*
20,1,$1+$1,$6,$7,$8,$9,0*
20,1,$1+$1,$8,$9,$2,$3,0*%
G04 Aperture macros list end*
%TA.AperFunction,ComponentPad*%
%ADD10RoundRect,0.381000X-0.381000X-0.381000X0.381000X-0.381000X0.381000X0.381000X-0.381000X0.381000X0*%
%TD*%
%TA.AperFunction,ComponentPad*%
%ADD11C,1.524000*%
%TD*%
%TA.AperFunction,ViaPad*%
%ADD12C,0.800000*%
%TD*%
%TA.AperFunction,ViaPad*%
%ADD13C,4.000000*%
%TD*%
%TA.AperFunction,Conductor*%
%ADD14C,0.250000*%
%TD*%
%TA.AperFunction,Conductor*%
%ADD15C,0.500000*%
%TD*%
G04 APERTURE END LIST*
D10*
%TO.P,CN2,1*%
%TO.N,unconnected-(CN2-Pad1)*%
X155360000Y-85840000D03*
D11*
%TO.P,CN2,2*%
%TO.N,/Temperature*%
X155360000Y-88380000D03*
%TO.P,CN2,3*%
%TO.N,unconnected-(CN2-Pad3)*%
X155360000Y-90920000D03*
%TO.P,CN2,4*%
%TO.N,unconnected-(CN2-Pad4)*%
X155360000Y-93460000D03*
%TO.P,CN2,5*%
%TO.N,/B*%
X155360000Y-96000000D03*
%TO.P,CN2,6*%
%TO.N,unconnected-(CN2-Pad6)*%
X155360000Y-98540000D03*
%TO.P,CN2,7*%
%TO.N,unconnected-(CN2-Pad7)*%
X155360000Y-101080000D03*
%TO.P,CN2,8*%
%TO.N,Net-(CN2-Pad8)*%
X155360000Y-103620000D03*
%TD*%
D10*
%TO.P,CN1,1*%
%TO.N,unconnected-(CN1-Pad1)*%
X132500000Y-85840000D03*
D11*
%TO.P,CN1,2*%
%TO.N,unconnected-(CN1-Pad2)*%
X132500000Y-88380000D03*
%TO.P,CN1,3*%
%TO.N,/R*%
X132500000Y-90920000D03*
%TO.P,CN1,4*%
%TO.N,/G*%
X132500000Y-93460000D03*
%TO.P,CN1,5*%
%TO.N,unconnected-(CN1-Pad5)*%
X132500000Y-96000000D03*
%TO.P,CN1,6*%
%TO.N,/W*%
X132500000Y-98540000D03*
%TO.P,CN1,7*%
%TO.N,GND*%
X132500000Y-101080000D03*
%TO.P,CN1,8*%
%TO.N,5V*%
X132500000Y-103620000D03*
%TD*%
D12*
%TO.N,GND*%
X151830000Y-100430000D03*
X136130000Y-96330000D03*
X149430000Y-109730000D03*
X140930000Y-102730000D03*
X146830000Y-100430000D03*
X149330000Y-91930000D03*
X143930000Y-90480000D03*
X143130000Y-94730000D03*
X138430000Y-109730000D03*
X141930000Y-94730000D03*
X140730000Y-96930000D03*
X151930000Y-102730000D03*
X138530000Y-91930000D03*
X146730000Y-96930000D03*
X143930000Y-100130000D03*
X151730000Y-96330000D03*
X146930000Y-102730000D03*
D13*
X128930000Y-79730000D03*
D12*
X144730000Y-94730000D03*
X145930000Y-94730000D03*
X143930000Y-102730000D03*
X135930000Y-102730000D03*
D13*
X158930000Y-79730000D03*
X128930000Y-109730000D03*
D12*
X154430000Y-109730000D03*
D13*
X158930000Y-109730000D03*
D12*
X143930000Y-109730000D03*
%TO.N,Net-(D1A-A)*%
X137930000Y-100530000D03*
X142330000Y-92130000D03*
%TO.N,Net-(D1B-A)*%
X138930000Y-100530000D03*
X143130000Y-91530000D03*
%TO.N,Net-(D1C-A)*%
X148930000Y-100530000D03*
X144730000Y-91530000D03*
%TO.N,Net-(D1D-A)*%
X149930000Y-100530000D03*
X145530000Y-92130000D03*
%TO.N,/R*%
X134980000Y-105954500D03*
%TO.N,/G*%
X139930000Y-105879500D03*
%TO.N,/B*%
X145930000Y-105930000D03*
%TO.N,/W*%
X150930000Y-105730000D03*
%TO.N,5V*%
X146930000Y-101530000D03*
X140930000Y-101530000D03*
X135930000Y-101530000D03*
X151930000Y-101530000D03*
%TO.N,Net-(CN2-Pad8)*%
X152730000Y-94730000D03*
%TD*%
D14*
%TO.N,/R*%
X134980000Y-105954500D02*
X134655500Y-105630000D01*
X131140000Y-90920000D02*
X132500000Y-90920000D01*
X134655500Y-105630000D02*
X130993604Y-105630000D01*
X130993604Y-105630000D02*
X129530000Y-104166396D01*
X129530000Y-104166396D02*
X129530000Y-92530000D01*
X129530000Y-92530000D02*
X131140000Y-90920000D01*
%TO.N,/G*%
X139930000Y-105879500D02*
X138980500Y-104930000D01*
X134041872Y-105180000D02*
X131180000Y-105180000D01*
X138980500Y-104930000D02*
X134291872Y-104930000D01*
X134291872Y-104930000D02*
X134041872Y-105180000D01*
X131180000Y-105180000D02*
X129980000Y-103980000D01*
X129980000Y-103980000D02*
X129980000Y-94480000D01*
X129980000Y-94480000D02*
X131000000Y-93460000D01*
X131000000Y-93460000D02*
X132500000Y-93460000D01*
%TO.N,/W*%
X150930000Y-105730000D02*
X150530000Y-105730000D01*
X150530000Y-105730000D02*
X149130000Y-104330000D01*
X149130000Y-104330000D02*
X134180952Y-104330000D01*
X133780952Y-104730000D02*
X131366396Y-104730000D01*
X134180952Y-104330000D02*
X133780952Y-104730000D01*
X131366396Y-104730000D02*
X130530000Y-103893604D01*
X130530000Y-103893604D02*
X130530000Y-99330000D01*
X130530000Y-99330000D02*
X131320000Y-98540000D01*
X131320000Y-98540000D02*
X132500000Y-98540000D01*
%TO.N,/B*%
X145930000Y-105930000D02*
X147330000Y-107330000D01*
X147330000Y-107330000D02*
X155530000Y-107330000D01*
X155530000Y-107330000D02*
X157330000Y-105530000D01*
X157330000Y-105530000D02*
X157330000Y-97970000D01*
X157330000Y-97970000D02*
X155360000Y-96000000D01*
D15*
%TO.N,Net-(D1A-A)*%
X137930000Y-95130000D02*
X140930000Y-92130000D01*
X140930000Y-92130000D02*
X142330000Y-92130000D01*
X137930000Y-100530000D02*
X137930000Y-95130000D01*
%TO.N,Net-(D1B-A)*%
X142682082Y-92980000D02*
X143180000Y-92482082D01*
X141480000Y-92980000D02*
X142682082Y-92980000D01*
X143180000Y-92482082D02*
X143180000Y-91580000D01*
X138930000Y-95530000D02*
X141480000Y-92980000D01*
X143180000Y-91580000D02*
X143130000Y-91530000D01*
X138930000Y-100530000D02*
X138930000Y-95530000D01*
%TO.N,Net-(D1C-A)*%
X144730000Y-91530000D02*
X144680000Y-91580000D01*
X145177918Y-92980000D02*
X146180000Y-92980000D01*
X144680000Y-92482082D02*
X145177918Y-92980000D01*
X146180000Y-92980000D02*
X148930000Y-95730000D01*
X148930000Y-95730000D02*
X148930000Y-100530000D01*
X144680000Y-91580000D02*
X144680000Y-92482082D01*
%TO.N,Net-(D1D-A)*%
X149930000Y-95330000D02*
X146730000Y-92130000D01*
X146730000Y-92130000D02*
X145530000Y-92130000D01*
X149930000Y-100530000D02*
X149930000Y-95330000D01*
%TO.N,5V*%
X140380000Y-101530000D02*
X140930000Y-101530000D01*
X151380000Y-101530000D02*
X151930000Y-101530000D01*
X132500000Y-103620000D02*
X134590000Y-101530000D01*
X147930000Y-101980000D02*
X150930000Y-101980000D01*
X140930000Y-101530000D02*
X146930000Y-101530000D01*
X136480000Y-101530000D02*
X136930000Y-101980000D01*
X150930000Y-101980000D02*
X151380000Y-101530000D01*
X136930000Y-101980000D02*
X139930000Y-101980000D01*
X134590000Y-101530000D02*
X135930000Y-101530000D01*
X139930000Y-101980000D02*
X140380000Y-101530000D01*
X147480000Y-101530000D02*
X147930000Y-101980000D01*
X135930000Y-101530000D02*
X136480000Y-101530000D01*
X146930000Y-101530000D02*
X147480000Y-101530000D01*
D14*
%TO.N,Net-(CN2-Pad8)*%
X152730000Y-94730000D02*
X153530000Y-95530000D01*
X153530000Y-101790000D02*
X155360000Y-103620000D01*
X153530000Y-95530000D02*
X153530000Y-101790000D01*
%TD*%
%TA.AperFunction,Conductor*%
%TO.N,GND*%
G36*
X158930712Y-76730010D02*
G01*
X158934911Y-76730068D01*
X159093486Y-76732291D01*
X159103155Y-76732902D01*
X159427401Y-76769435D01*
X159438330Y-76771293D01*
X159755754Y-76843742D01*
X159766400Y-76846810D01*
X160073710Y-76954342D01*
X160083958Y-76958587D01*
X160377292Y-77099849D01*
X160387000Y-77105214D01*
X160604936Y-77242153D01*
X160662679Y-77278435D01*
X160671733Y-77284860D01*
X160926260Y-77487838D01*
X160934539Y-77495235D01*
X161164764Y-77725460D01*
X161172161Y-77733739D01*
X161375139Y-77988266D01*
X161381564Y-77997320D01*
X161554782Y-78272994D01*
X161560152Y-78282711D01*
X161701410Y-78576037D01*
X161705658Y-78586293D01*
X161813185Y-78893586D01*
X161816259Y-78904255D01*
X161888705Y-79221663D01*
X161890565Y-79232608D01*
X161927096Y-79556830D01*
X161927708Y-79566526D01*
X161929990Y-79729286D01*
X161930000Y-79730674D01*
X161930000Y-109729325D01*
X161929990Y-109730713D01*
X161927708Y-109893473D01*
X161927096Y-109903169D01*
X161890565Y-110227391D01*
X161888705Y-110238336D01*
X161816259Y-110555744D01*
X161813185Y-110566413D01*
X161705658Y-110873706D01*
X161701410Y-110883962D01*
X161560152Y-111177288D01*
X161554782Y-111187005D01*
X161381564Y-111462679D01*
X161375139Y-111471733D01*
X161172161Y-111726260D01*
X161164764Y-111734539D01*
X160934539Y-111964764D01*
X160926260Y-111972161D01*
X160671733Y-112175139D01*
X160662679Y-112181564D01*
X160387005Y-112354782D01*
X160377288Y-112360152D01*
X160083962Y-112501410D01*
X160073706Y-112505658D01*
X159766413Y-112613185D01*
X159755744Y-112616259D01*
X159438336Y-112688705D01*
X159427391Y-112690565D01*
X159103169Y-112727096D01*
X159093473Y-112727708D01*
X158930713Y-112729990D01*
X158929325Y-112730000D01*
X128930675Y-112730000D01*
X128929287Y-112729990D01*
X128766526Y-112727708D01*
X128756830Y-112727096D01*
X128432608Y-112690565D01*
X128421663Y-112688705D01*
X128104255Y-112616259D01*
X128093586Y-112613185D01*
X127786293Y-112505658D01*
X127776037Y-112501410D01*
X127482711Y-112360152D01*
X127472994Y-112354782D01*
X127197320Y-112181564D01*
X127188266Y-112175139D01*
X126933739Y-111972161D01*
X126925460Y-111964764D01*
X126695235Y-111734539D01*
X126687838Y-111726260D01*
X126484860Y-111471733D01*
X126478435Y-111462679D01*
X126305217Y-111187005D01*
X126299847Y-111177288D01*
X126158589Y-110883962D01*
X126154341Y-110873706D01*
X126046810Y-110566400D01*
X126043742Y-110555754D01*
X125971293Y-110238330D01*
X125969435Y-110227401D01*
X125932902Y-109903155D01*
X125932291Y-109893486D01*
X125930010Y-109730712D01*
X125930000Y-109729325D01*
X125930000Y-92487147D01*
X129204500Y-92487147D01*
X129204500Y-104123543D01*
X129204500Y-104209249D01*
X129213462Y-104242695D01*
X129226683Y-104292039D01*
X129269531Y-104366253D01*
X129269533Y-104366255D01*
X129269535Y-104366258D01*
X130733137Y-105829859D01*
X130733139Y-105829862D01*
X130793742Y-105890465D01*
X130830431Y-105911647D01*
X130861416Y-105929536D01*
X130867964Y-105933317D01*
X130867968Y-105933319D01*
X130926157Y-105948910D01*
X130950748Y-105955500D01*
X130950750Y-105955501D01*
X130950751Y-105955501D01*
X131042520Y-105955501D01*
X131042536Y-105955500D01*
X134287629Y-105955500D01*
X134345820Y-105974407D01*
X134381784Y-106023907D01*
X134385782Y-106041578D01*
X134394955Y-106111258D01*
X134394957Y-106111266D01*
X134455462Y-106257338D01*
X134455462Y-106257339D01*
X134551713Y-106382776D01*
X134551718Y-106382782D01*
X134677159Y-106479036D01*
X134677160Y-106479036D01*
X134677161Y-106479037D01*
X134788471Y-106525143D01*
X134823238Y-106539544D01*
X134927665Y-106553292D01*
X134979999Y-106560182D01*
X134980000Y-106560182D01*
X134980001Y-106560182D01*
X135011352Y-106556054D01*
X135136762Y-106539544D01*
X135282841Y-106479036D01*
X135408282Y-106382782D01*
X135504536Y-106257341D01*
X135565044Y-106111262D01*
X135585682Y-105954500D01*
X135582893Y-105933319D01*
X135577252Y-105890465D01*
X135565044Y-105797738D01*
X135531407Y-105716532D01*
X135504537Y-105651661D01*
X135504537Y-105651660D01*
X135408286Y-105526223D01*
X135408285Y-105526222D01*
X135408282Y-105526218D01*
X135408277Y-105526214D01*
X135408276Y-105526213D01*
X135286852Y-105433042D01*
X135252196Y-105382618D01*
X135253797Y-105321453D01*
X135291044Y-105272912D01*
X135347119Y-105255500D01*
X138804665Y-105255500D01*
X138862856Y-105274407D01*
X138874668Y-105284496D01*
X139306705Y-105716532D01*
X139334483Y-105771049D01*
X139334855Y-105799457D01*
X139324318Y-105879498D01*
X139324318Y-105879500D01*
X139344955Y-106036258D01*
X139344957Y-106036266D01*
X139405462Y-106182338D01*
X139405462Y-106182339D01*
X139463013Y-106257341D01*
X139501718Y-106307782D01*
X139627159Y-106404036D01*
X139627160Y-106404036D01*
X139627161Y-106404037D01*
X139749079Y-106454537D01*
X139773238Y-106464544D01*
X139883316Y-106479036D01*
X139929999Y-106485182D01*
X139930000Y-106485182D01*
X139930001Y-106485182D01*
X139976676Y-106479037D01*
X140086762Y-106464544D01*
X140232841Y-106404036D01*
X140358282Y-106307782D01*
X140454536Y-106182341D01*
X140515044Y-106036262D01*
X140529034Y-105929999D01*
X145324318Y-105929999D01*
X145324318Y-105930000D01*
X145344955Y-106086758D01*
X145344957Y-106086766D01*
X145405462Y-106232838D01*
X145405462Y-106232839D01*
X145468540Y-106315044D01*
X145501718Y-106358282D01*
X145627159Y-106454536D01*
X145627160Y-106454536D01*
X145627161Y-106454537D01*
X145701145Y-106485182D01*
X145773238Y-106515044D01*
X145930000Y-106535682D01*
X146010041Y-106525143D01*
X146070199Y-106536292D01*
X146092962Y-106553289D01*
X147130138Y-107590465D01*
X147130140Y-107590466D01*
X147130142Y-107590468D01*
X147204357Y-107633316D01*
X147204355Y-107633316D01*
X147204359Y-107633317D01*
X147204361Y-107633318D01*
X147287147Y-107655500D01*
X147287149Y-107655500D01*
X155572851Y-107655500D01*
X155572853Y-107655500D01*
X155655639Y-107633318D01*
X155655641Y-107633316D01*
X155655643Y-107633316D01*
X155729857Y-107590468D01*
X155729857Y-107590467D01*
X155729862Y-107590465D01*
X157590465Y-105729862D01*
X157615126Y-105687147D01*
X157633318Y-105655638D01*
X157655500Y-105572853D01*
X157655500Y-98020840D01*
X157655501Y-98020827D01*
X157655501Y-97927149D01*
X157655501Y-97927147D01*
X157633318Y-97844361D01*
X157631737Y-97841622D01*
X157611893Y-97807251D01*
X157611889Y-97807247D01*
X157590465Y-97770138D01*
X157529862Y-97709535D01*
X157529859Y-97709533D01*
X156280808Y-96460481D01*
X156253032Y-96405966D01*
X156256075Y-96361746D01*
X156308573Y-96188683D01*
X156308573Y-96188679D01*
X156308574Y-96188678D01*
X156327157Y-96000003D01*
X156327157Y-95999996D01*
X156308574Y-95811321D01*
X156308573Y-95811316D01*
X156271878Y-95690348D01*
X156253537Y-95629885D01*
X156164162Y-95462676D01*
X156043883Y-95316117D01*
X155897324Y-95195838D01*
X155827062Y-95158282D01*
X155730120Y-95106465D01*
X155730115Y-95106463D01*
X155548683Y-95051426D01*
X155548678Y-95051425D01*
X155360003Y-95032843D01*
X155359997Y-95032843D01*
X155171321Y-95051425D01*
X155171316Y-95051426D01*
X154989884Y-95106463D01*
X154989879Y-95106465D01*
X154822681Y-95195835D01*
X154822671Y-95195841D01*
X154676121Y-95316113D01*
X154676113Y-95316121D01*
X154555841Y-95462671D01*
X154555835Y-95462681D01*
X154466465Y-95629879D01*
X154466463Y-95629884D01*
X154411426Y-95811316D01*
X154411425Y-95811321D01*
X154392843Y-95999996D01*
X154392843Y-96000003D01*
X154411425Y-96188678D01*
X154411426Y-96188683D01*
X154466463Y-96370115D01*
X154466465Y-96370120D01*
X154534797Y-96497959D01*
X154555838Y-96537324D01*
X154676117Y-96683883D01*
X154822676Y-96804162D01*
X154989885Y-96893537D01*
X155116280Y-96931877D01*
X155171316Y-96948573D01*
X155171321Y-96948574D01*
X155359997Y-96967157D01*
X155360000Y-96967157D01*
X155360003Y-96967157D01*
X155548678Y-96948574D01*
X155548679Y-96948573D01*
X155548683Y-96948573D01*
X155721744Y-96896076D01*
X155782914Y-96897277D01*
X155820480Y-96920807D01*
X156472517Y-97572843D01*
X156975504Y-98075830D01*
X157003281Y-98130347D01*
X157004500Y-98145834D01*
X157004500Y-105354165D01*
X156985593Y-105412356D01*
X156975504Y-105424169D01*
X155424169Y-106975504D01*
X155369652Y-107003281D01*
X155354165Y-107004500D01*
X147505835Y-107004500D01*
X147447644Y-106985593D01*
X147435831Y-106975504D01*
X146553292Y-106092965D01*
X146525515Y-106038448D01*
X146525143Y-106010045D01*
X146535682Y-105930000D01*
X146515044Y-105773238D01*
X146497075Y-105729858D01*
X146454537Y-105627161D01*
X146454537Y-105627160D01*
X146358286Y-105501723D01*
X146358285Y-105501722D01*
X146358282Y-105501718D01*
X146358277Y-105501714D01*
X146358276Y-105501713D01*
X146261116Y-105427160D01*
X146232841Y-105405464D01*
X146232840Y-105405463D01*
X146232838Y-105405462D01*
X146086766Y-105344957D01*
X146086758Y-105344955D01*
X145930001Y-105324318D01*
X145929999Y-105324318D01*
X145773241Y-105344955D01*
X145773233Y-105344957D01*
X145627161Y-105405462D01*
X145627160Y-105405462D01*
X145501723Y-105501713D01*
X145501713Y-105501723D01*
X145405462Y-105627160D01*
X145405462Y-105627161D01*
X145344957Y-105773233D01*
X145344955Y-105773241D01*
X145324318Y-105929999D01*
X140529034Y-105929999D01*
X140535682Y-105879500D01*
X140515044Y-105722738D01*
X140485603Y-105651661D01*
X140454537Y-105576661D01*
X140454537Y-105576660D01*
X140358286Y-105451223D01*
X140358285Y-105451222D01*
X140358282Y-105451218D01*
X140358277Y-105451214D01*
X140358276Y-105451213D01*
X140232838Y-105354962D01*
X140086766Y-105294457D01*
X140086758Y-105294455D01*
X139930001Y-105273818D01*
X139929998Y-105273818D01*
X139849957Y-105284355D01*
X139789797Y-105273205D01*
X139767032Y-105256206D01*
X139635144Y-105124318D01*
X139335329Y-104824502D01*
X139307553Y-104769987D01*
X139317124Y-104709555D01*
X139360389Y-104666290D01*
X139405334Y-104655500D01*
X148954165Y-104655500D01*
X149012356Y-104674407D01*
X149024169Y-104684496D01*
X150330138Y-105990465D01*
X150330140Y-105990466D01*
X150389946Y-106024996D01*
X150418987Y-106050465D01*
X150501713Y-106158276D01*
X150501718Y-106158282D01*
X150627159Y-106254536D01*
X150627160Y-106254536D01*
X150627161Y-106254537D01*
X150773233Y-106315042D01*
X150773238Y-106315044D01*
X150890809Y-106330522D01*
X150929999Y-106335682D01*
X150930000Y-106335682D01*
X150930001Y-106335682D01*
X150961352Y-106331554D01*
X151086762Y-106315044D01*
X151232841Y-106254536D01*
X151358282Y-106158282D01*
X151454536Y-106032841D01*
X151515044Y-105886762D01*
X151535682Y-105730000D01*
X151515044Y-105573238D01*
X151495566Y-105526213D01*
X151454537Y-105427161D01*
X151454537Y-105427160D01*
X151358286Y-105301723D01*
X151358285Y-105301722D01*
X151358282Y-105301718D01*
X151358277Y-105301714D01*
X151358276Y-105301713D01*
X151232838Y-105205462D01*
X151086766Y-105144957D01*
X151086758Y-105144955D01*
X150930001Y-105124318D01*
X150929999Y-105124318D01*
X150773241Y-105144955D01*
X150773236Y-105144957D01*
X150627160Y-105205463D01*
X150627158Y-105205464D01*
X150604731Y-105222673D01*
X150547054Y-105243096D01*
X150488389Y-105225717D01*
X150474461Y-105214134D01*
X149915827Y-104655500D01*
X149329862Y-104069535D01*
X149329859Y-104069533D01*
X149329858Y-104069532D01*
X149329857Y-104069531D01*
X149255642Y-104026683D01*
X149255644Y-104026683D01*
X149223521Y-104018076D01*
X149172853Y-104004500D01*
X134138099Y-104004500D01*
X134055314Y-104026682D01*
X133981096Y-104069532D01*
X133981087Y-104069537D01*
X133675120Y-104375504D01*
X133620604Y-104403281D01*
X133605117Y-104404500D01*
X133310627Y-104404500D01*
X133252436Y-104385593D01*
X133216472Y-104336093D01*
X133216472Y-104274907D01*
X133234099Y-104242695D01*
X133304162Y-104157324D01*
X133393537Y-103990115D01*
X133448573Y-103808683D01*
X133448574Y-103808678D01*
X133467157Y-103620003D01*
X133467157Y-103619996D01*
X133448574Y-103431321D01*
X133448573Y-103431316D01*
X133437220Y-103393890D01*
X133438421Y-103332716D01*
X133461951Y-103295150D01*
X134747607Y-102009496D01*
X134802124Y-101981719D01*
X134817611Y-101980500D01*
X135497068Y-101980500D01*
X135555259Y-101999407D01*
X135557315Y-102000943D01*
X135627159Y-102054536D01*
X135773238Y-102115044D01*
X135890809Y-102130522D01*
X135929999Y-102135682D01*
X135930000Y-102135682D01*
X135930001Y-102135682D01*
X135961352Y-102131554D01*
X136086762Y-102115044D01*
X136232841Y-102054536D01*
X136232844Y-102054534D01*
X136240115Y-102048955D01*
X136297790Y-102028529D01*
X136356456Y-102045905D01*
X136370387Y-102057491D01*
X136653385Y-102340488D01*
X136653390Y-102340492D01*
X136756107Y-102399796D01*
X136756109Y-102399797D01*
X136756113Y-102399799D01*
X136780322Y-102406284D01*
X136780325Y-102406287D01*
X136780326Y-102406286D01*
X136870688Y-102430499D01*
X136870690Y-102430500D01*
X136870691Y-102430500D01*
X139989309Y-102430500D01*
X140079669Y-102406287D01*
X140079672Y-102406287D01*
X140092903Y-102402741D01*
X140103887Y-102399799D01*
X140206614Y-102340489D01*
X140489612Y-102057489D01*
X140544127Y-102029713D01*
X140604559Y-102039284D01*
X140619881Y-102048952D01*
X140627157Y-102054535D01*
X140627159Y-102054536D01*
X140773238Y-102115044D01*
X140890809Y-102130522D01*
X140929999Y-102135682D01*
X140930000Y-102135682D01*
X140930001Y-102135682D01*
X140961352Y-102131554D01*
X141086762Y-102115044D01*
X141232841Y-102054536D01*
X141302665Y-102000957D01*
X141360341Y-101980534D01*
X141362932Y-101980500D01*
X146497068Y-101980500D01*
X146555259Y-101999407D01*
X146557315Y-102000943D01*
X146627159Y-102054536D01*
X146773238Y-102115044D01*
X146890809Y-102130522D01*
X146929999Y-102135682D01*
X146930000Y-102135682D01*
X146930001Y-102135682D01*
X146961352Y-102131554D01*
X147086762Y-102115044D01*
X147232841Y-102054536D01*
X147232844Y-102054534D01*
X147240115Y-102048955D01*
X147297790Y-102028529D01*
X147356456Y-102045905D01*
X147370387Y-102057491D01*
X147653385Y-102340488D01*
X147653390Y-102340492D01*
X147756107Y-102399796D01*
X147756109Y-102399797D01*
X147756113Y-102399799D01*
X147780322Y-102406284D01*
X147780325Y-102406287D01*
X147780326Y-102406286D01*
X147870688Y-102430499D01*
X147870690Y-102430500D01*
X147870691Y-102430500D01*
X150989309Y-102430500D01*
X151079669Y-102406287D01*
X151079672Y-102406287D01*
X151092903Y-102402741D01*
X151103887Y-102399799D01*
X151206614Y-102340489D01*
X151489612Y-102057489D01*
X151544127Y-102029713D01*
X151604559Y-102039284D01*
X151619881Y-102048952D01*
X151627157Y-102054535D01*
X151627159Y-102054536D01*
X151773238Y-102115044D01*
X151890809Y-102130522D01*
X151929999Y-102135682D01*
X151930000Y-102135682D01*
X151930001Y-102135682D01*
X151961352Y-102131554D01*
X152086762Y-102115044D01*
X152232841Y-102054536D01*
X152358282Y-101958282D01*
X152454536Y-101832841D01*
X152515044Y-101686762D01*
X152535682Y-101530000D01*
X152515044Y-101373238D01*
X152454537Y-101227161D01*
X152454537Y-101227160D01*
X152358286Y-101101723D01*
X152358285Y-101101722D01*
X152358282Y-101101718D01*
X152358277Y-101101714D01*
X152358276Y-101101713D01*
X152287104Y-101047101D01*
X152232841Y-101005464D01*
X152232840Y-101005463D01*
X152232838Y-101005462D01*
X152086766Y-100944957D01*
X152086758Y-100944955D01*
X151930001Y-100924318D01*
X151929999Y-100924318D01*
X151773241Y-100944955D01*
X151773233Y-100944957D01*
X151627161Y-101005462D01*
X151595391Y-101029840D01*
X151557334Y-101059042D01*
X151499659Y-101079466D01*
X151497068Y-101079500D01*
X151320691Y-101079500D01*
X151237773Y-101101718D01*
X151237772Y-101101717D01*
X151206111Y-101110201D01*
X151206109Y-101110202D01*
X151103390Y-101169507D01*
X151103385Y-101169511D01*
X150772392Y-101500504D01*
X150717876Y-101528281D01*
X150702389Y-101529500D01*
X148157611Y-101529500D01*
X148099420Y-101510593D01*
X148087608Y-101500504D01*
X147756614Y-101169511D01*
X147756609Y-101169507D01*
X147653892Y-101110203D01*
X147653889Y-101110202D01*
X147653887Y-101110201D01*
X147622227Y-101101718D01*
X147539309Y-101079500D01*
X147539308Y-101079500D01*
X147362932Y-101079500D01*
X147304741Y-101060593D01*
X147302684Y-101059056D01*
X147232841Y-101005464D01*
X147232840Y-101005463D01*
X147232838Y-101005462D01*
X147086766Y-100944957D01*
X147086758Y-100944955D01*
X146930001Y-100924318D01*
X146929999Y-100924318D01*
X146773241Y-100944955D01*
X146773233Y-100944957D01*
X146627161Y-101005462D01*
X146595391Y-101029840D01*
X146557334Y-101059042D01*
X146499659Y-101079466D01*
X146497068Y-101079500D01*
X141362932Y-101079500D01*
X141304741Y-101060593D01*
X141302684Y-101059056D01*
X141232841Y-101005464D01*
X141232840Y-101005463D01*
X141232838Y-101005462D01*
X141086766Y-100944957D01*
X141086758Y-100944955D01*
X140930001Y-100924318D01*
X140929999Y-100924318D01*
X140773241Y-100944955D01*
X140773233Y-100944957D01*
X140627161Y-101005462D01*
X140595391Y-101029840D01*
X140557334Y-101059042D01*
X140499659Y-101079466D01*
X140497068Y-101079500D01*
X140320691Y-101079500D01*
X140237773Y-101101718D01*
X140237772Y-101101717D01*
X140206111Y-101110201D01*
X140206109Y-101110202D01*
X140103390Y-101169507D01*
X140103385Y-101169511D01*
X139772392Y-101500504D01*
X139717876Y-101528281D01*
X139702389Y-101529500D01*
X137157611Y-101529500D01*
X137099420Y-101510593D01*
X137087608Y-101500504D01*
X136756614Y-101169511D01*
X136756609Y-101169507D01*
X136653892Y-101110203D01*
X136653889Y-101110202D01*
X136653887Y-101110201D01*
X136622227Y-101101718D01*
X136539309Y-101079500D01*
X136539308Y-101079500D01*
X136362932Y-101079500D01*
X136304741Y-101060593D01*
X136302684Y-101059056D01*
X136232841Y-101005464D01*
X136232840Y-101005463D01*
X136232838Y-101005462D01*
X136086766Y-100944957D01*
X136086758Y-100944955D01*
X135930001Y-100924318D01*
X135929999Y-100924318D01*
X135773241Y-100944955D01*
X135773233Y-100944957D01*
X135627161Y-101005462D01*
X135595391Y-101029840D01*
X135557334Y-101059042D01*
X135499659Y-101079466D01*
X135497068Y-101079500D01*
X134530691Y-101079500D01*
X134416114Y-101110201D01*
X134416111Y-101110202D01*
X134416105Y-101110205D01*
X134407725Y-101115042D01*
X134407726Y-101115043D01*
X134313388Y-101169509D01*
X132824849Y-102658046D01*
X132770332Y-102685823D01*
X132726108Y-102682779D01*
X132688688Y-102671428D01*
X132688673Y-102671425D01*
X132500003Y-102652843D01*
X132499997Y-102652843D01*
X132311321Y-102671425D01*
X132311316Y-102671426D01*
X132129884Y-102726463D01*
X132129879Y-102726465D01*
X131962681Y-102815835D01*
X131962671Y-102815841D01*
X131816121Y-102936113D01*
X131816113Y-102936121D01*
X131695841Y-103082671D01*
X131695835Y-103082681D01*
X131606465Y-103249879D01*
X131606463Y-103249884D01*
X131551426Y-103431316D01*
X131551425Y-103431321D01*
X131532843Y-103619996D01*
X131532843Y-103620003D01*
X131551425Y-103808678D01*
X131551426Y-103808683D01*
X131606463Y-103990115D01*
X131606465Y-103990120D01*
X131648912Y-104069532D01*
X131695838Y-104157324D01*
X131695840Y-104157326D01*
X131695841Y-104157328D01*
X131765901Y-104242695D01*
X131788201Y-104299671D01*
X131772753Y-104358874D01*
X131725456Y-104397690D01*
X131689373Y-104404500D01*
X131542230Y-104404500D01*
X131484039Y-104385593D01*
X131472226Y-104375504D01*
X130884496Y-103787773D01*
X130856719Y-103733256D01*
X130855500Y-103717769D01*
X130855500Y-101079996D01*
X131533345Y-101079996D01*
X131533345Y-101080003D01*
X131551917Y-101268580D01*
X131551918Y-101268585D01*
X131606927Y-101449923D01*
X131696255Y-101617043D01*
X131696259Y-101617049D01*
X131720851Y-101647014D01*
X132144084Y-101223780D01*
X132144964Y-101227061D01*
X132195124Y-101313940D01*
X132266060Y-101384876D01*
X132352939Y-101435036D01*
X132356216Y-101435914D01*
X131932984Y-101859147D01*
X131962950Y-101883740D01*
X131962956Y-101883744D01*
X132130076Y-101973072D01*
X132311414Y-102028081D01*
X132311419Y-102028082D01*
X132499997Y-102046655D01*
X132500003Y-102046655D01*
X132688580Y-102028082D01*
X132688585Y-102028081D01*
X132869923Y-101973072D01*
X133037046Y-101883742D01*
X133067014Y-101859147D01*
X132643781Y-101435914D01*
X132647061Y-101435036D01*
X132733940Y-101384876D01*
X132804876Y-101313940D01*
X132855036Y-101227061D01*
X132855914Y-101223781D01*
X133279147Y-101647014D01*
X133303742Y-101617046D01*
X133393072Y-101449923D01*
X133448081Y-101268585D01*
X133448082Y-101268580D01*
X133466655Y-101080003D01*
X133466655Y-101079996D01*
X133448082Y-100891419D01*
X133448081Y-100891414D01*
X133393072Y-100710076D01*
X133303744Y-100542956D01*
X133303740Y-100542950D01*
X133293111Y-100529999D01*
X137324318Y-100529999D01*
X137324318Y-100530000D01*
X137344955Y-100686758D01*
X137344957Y-100686766D01*
X137405462Y-100832838D01*
X137405462Y-100832839D01*
X137491493Y-100944957D01*
X137501718Y-100958282D01*
X137627159Y-101054536D01*
X137627160Y-101054536D01*
X137627161Y-101054537D01*
X137773233Y-101115042D01*
X137773238Y-101115044D01*
X137888056Y-101130160D01*
X137929999Y-101135682D01*
X137930000Y-101135682D01*
X137930001Y-101135682D01*
X137971944Y-101130160D01*
X138086762Y-101115044D01*
X138232841Y-101054536D01*
X138358282Y-100958282D01*
X138358288Y-100958273D01*
X138359996Y-100956567D01*
X138361547Y-100955776D01*
X138363430Y-100954332D01*
X138363697Y-100954680D01*
X138414513Y-100928790D01*
X138474945Y-100938361D01*
X138500004Y-100956567D01*
X138501713Y-100958276D01*
X138501718Y-100958282D01*
X138627159Y-101054536D01*
X138627160Y-101054536D01*
X138627161Y-101054537D01*
X138773233Y-101115042D01*
X138773238Y-101115044D01*
X138888056Y-101130160D01*
X138929999Y-101135682D01*
X138930000Y-101135682D01*
X138930001Y-101135682D01*
X138971944Y-101130160D01*
X139086762Y-101115044D01*
X139232841Y-101054536D01*
X139358282Y-100958282D01*
X139454536Y-100832841D01*
X139515044Y-100686762D01*
X139535682Y-100530000D01*
X139515044Y-100373238D01*
X139454537Y-100227161D01*
X139454537Y-100227160D01*
X139400958Y-100157334D01*
X139380534Y-100099658D01*
X139380500Y-100097067D01*
X139380500Y-95757611D01*
X139399407Y-95699420D01*
X139409496Y-95687607D01*
X141637608Y-93459496D01*
X141692125Y-93431719D01*
X141707612Y-93430500D01*
X142741391Y-93430500D01*
X142831751Y-93406287D01*
X142831754Y-93406287D01*
X142844985Y-93402741D01*
X142855969Y-93399799D01*
X142958696Y-93340489D01*
X143540489Y-92758696D01*
X143571009Y-92705834D01*
X143599767Y-92656024D01*
X143599776Y-92656006D01*
X143599798Y-92655969D01*
X143599799Y-92655968D01*
X143630500Y-92541391D01*
X143630500Y-91897771D01*
X143649407Y-91839580D01*
X143650960Y-91837501D01*
X143654536Y-91832841D01*
X143715044Y-91686762D01*
X143735682Y-91530000D01*
X143735682Y-91529999D01*
X144124318Y-91529999D01*
X144124318Y-91530000D01*
X144144955Y-91686758D01*
X144144957Y-91686766D01*
X144205462Y-91832838D01*
X144205463Y-91832839D01*
X144205464Y-91832841D01*
X144209040Y-91837501D01*
X144229466Y-91895176D01*
X144229500Y-91897771D01*
X144229500Y-92541391D01*
X144250432Y-92619510D01*
X144250431Y-92619510D01*
X144260200Y-92655968D01*
X144260202Y-92655972D01*
X144319507Y-92758691D01*
X144319509Y-92758693D01*
X144319511Y-92758696D01*
X144901304Y-93340489D01*
X144960614Y-93374731D01*
X145004032Y-93399799D01*
X145118609Y-93430500D01*
X145952389Y-93430500D01*
X146010580Y-93449407D01*
X146022393Y-93459496D01*
X148450504Y-95887607D01*
X148478281Y-95942124D01*
X148479500Y-95957611D01*
X148479500Y-100097067D01*
X148460593Y-100155258D01*
X148459042Y-100157334D01*
X148405462Y-100227160D01*
X148405462Y-100227161D01*
X148344957Y-100373233D01*
X148344955Y-100373241D01*
X148324318Y-100529999D01*
X148324318Y-100530000D01*
X148344955Y-100686758D01*
X148344957Y-100686766D01*
X148405462Y-100832838D01*
X148405462Y-100832839D01*
X148491493Y-100944957D01*
X148501718Y-100958282D01*
X148627159Y-101054536D01*
X148627160Y-101054536D01*
X148627161Y-101054537D01*
X148773233Y-101115042D01*
X148773238Y-101115044D01*
X148888056Y-101130160D01*
X148929999Y-101135682D01*
X148930000Y-101135682D01*
X148930001Y-101135682D01*
X148971944Y-101130160D01*
X149086762Y-101115044D01*
X149232841Y-101054536D01*
X149358282Y-100958282D01*
X149358288Y-100958273D01*
X149359996Y-100956567D01*
X149361547Y-100955776D01*
X149363430Y-100954332D01*
X149363697Y-100954680D01*
X149414513Y-100928790D01*
X149474945Y-100938361D01*
X149500004Y-100956567D01*
X149501713Y-100958276D01*
X149501718Y-100958282D01*
X149627159Y-101054536D01*
X149627160Y-101054536D01*
X149627161Y-101054537D01*
X149773233Y-101115042D01*
X149773238Y-101115044D01*
X149888056Y-101130160D01*
X149929999Y-101135682D01*
X149930000Y-101135682D01*
X149930001Y-101135682D01*
X149971944Y-101130160D01*
X150086762Y-101115044D01*
X150232841Y-101054536D01*
X150358282Y-100958282D01*
X150454536Y-100832841D01*
X150515044Y-100686762D01*
X150535682Y-100530000D01*
X150515044Y-100373238D01*
X150454537Y-100227161D01*
X150454537Y-100227160D01*
X150400958Y-100157334D01*
X150380534Y-100099658D01*
X150380500Y-100097067D01*
X150380500Y-95270692D01*
X150380500Y-95270691D01*
X150349799Y-95156114D01*
X150321133Y-95106463D01*
X150321133Y-95106462D01*
X150305811Y-95079924D01*
X150290489Y-95053386D01*
X149967102Y-94729999D01*
X152124318Y-94729999D01*
X152124318Y-94730000D01*
X152144955Y-94886758D01*
X152144957Y-94886766D01*
X152205462Y-95032838D01*
X152205462Y-95032839D01*
X152300053Y-95156112D01*
X152301718Y-95158282D01*
X152427159Y-95254536D01*
X152427160Y-95254536D01*
X152427161Y-95254537D01*
X152466163Y-95270692D01*
X152573238Y-95315044D01*
X152730000Y-95335682D01*
X152810041Y-95325143D01*
X152870198Y-95336292D01*
X152892965Y-95353292D01*
X153175504Y-95635831D01*
X153203281Y-95690348D01*
X153204500Y-95705835D01*
X153204500Y-101747147D01*
X153204500Y-101832853D01*
X153224062Y-101905863D01*
X153226683Y-101915643D01*
X153269531Y-101989857D01*
X153269532Y-101989858D01*
X153269533Y-101989859D01*
X153269535Y-101989862D01*
X153932516Y-102652843D01*
X154439189Y-103159516D01*
X154466966Y-103214033D01*
X154463922Y-103258257D01*
X154411427Y-103431313D01*
X154411425Y-103431321D01*
X154392843Y-103619996D01*
X154392843Y-103620003D01*
X154411425Y-103808678D01*
X154411426Y-103808683D01*
X154466463Y-103990115D01*
X154466465Y-103990120D01*
X154508912Y-104069532D01*
X154555838Y-104157324D01*
X154555840Y-104157326D01*
X154555841Y-104157328D01*
X154598452Y-104209249D01*
X154676117Y-104303883D01*
X154822676Y-104424162D01*
X154989885Y-104513537D01*
X155116280Y-104551877D01*
X155171316Y-104568573D01*
X155171321Y-104568574D01*
X155359997Y-104587157D01*
X155360000Y-104587157D01*
X155360003Y-104587157D01*
X155548678Y-104568574D01*
X155548683Y-104568573D01*
X155730115Y-104513537D01*
X155897324Y-104424162D01*
X156043883Y-104303883D01*
X156164162Y-104157324D01*
X156253537Y-103990115D01*
X156308573Y-103808683D01*
X156308574Y-103808678D01*
X156327157Y-103620003D01*
X156327157Y-103619996D01*
X156308574Y-103431321D01*
X156308573Y-103431316D01*
X156267267Y-103295148D01*
X156253537Y-103249885D01*
X156164162Y-103082676D01*
X156043883Y-102936117D01*
X155897324Y-102815838D01*
X155857959Y-102794797D01*
X155730120Y-102726465D01*
X155730115Y-102726463D01*
X155548683Y-102671426D01*
X155548678Y-102671425D01*
X155360003Y-102652843D01*
X155359997Y-102652843D01*
X155171321Y-102671425D01*
X155171313Y-102671427D01*
X154998257Y-102723922D01*
X154937084Y-102722721D01*
X154899516Y-102699189D01*
X153884496Y-101684169D01*
X153856719Y-101629652D01*
X153855500Y-101614165D01*
X153855500Y-101079996D01*
X154392843Y-101079996D01*
X154392843Y-101080003D01*
X154411425Y-101268678D01*
X154411426Y-101268683D01*
X154466463Y-101450115D01*
X154466465Y-101450120D01*
X154508895Y-101529500D01*
X154555838Y-101617324D01*
X154555840Y-101617326D01*
X154555841Y-101617328D01*
X154612825Y-101686762D01*
X154676117Y-101763883D01*
X154822676Y-101884162D01*
X154989885Y-101973537D01*
X155108428Y-102009496D01*
X155171316Y-102028573D01*
X155171321Y-102028574D01*
X155359997Y-102047157D01*
X155360000Y-102047157D01*
X155360003Y-102047157D01*
X155548678Y-102028574D01*
X155548683Y-102028573D01*
X155550305Y-102028081D01*
X155730115Y-101973537D01*
X155897324Y-101884162D01*
X156043883Y-101763883D01*
X156164162Y-101617324D01*
X156253537Y-101450115D01*
X156308573Y-101268683D01*
X156308574Y-101268678D01*
X156327157Y-101080003D01*
X156327157Y-101079996D01*
X156308574Y-100891321D01*
X156308573Y-100891316D01*
X156290834Y-100832838D01*
X156253537Y-100709885D01*
X156164162Y-100542676D01*
X156043883Y-100396117D01*
X155897832Y-100276255D01*
X155897328Y-100275841D01*
X155897326Y-100275840D01*
X155897324Y-100275838D01*
X155806252Y-100227159D01*
X155730120Y-100186465D01*
X155730115Y-100186463D01*
X155548683Y-100131426D01*
X155548678Y-100131425D01*
X155360003Y-100112843D01*
X155359997Y-100112843D01*
X155171321Y-100131425D01*
X155171316Y-100131426D01*
X154989884Y-100186463D01*
X154989879Y-100186465D01*
X154822681Y-100275835D01*
X154822671Y-100275841D01*
X154676121Y-100396113D01*
X154676113Y-100396121D01*
X154555841Y-100542671D01*
X154555835Y-100542681D01*
X154466465Y-100709879D01*
X154466463Y-100709884D01*
X154411426Y-100891316D01*
X154411425Y-100891321D01*
X154392843Y-101079996D01*
X153855500Y-101079996D01*
X153855500Y-98539996D01*
X154392843Y-98539996D01*
X154392843Y-98540003D01*
X154411425Y-98728678D01*
X154411426Y-98728683D01*
X154466463Y-98910115D01*
X154466465Y-98910120D01*
X154534797Y-99037959D01*
X154555838Y-99077324D01*
X154676117Y-99223883D01*
X154822676Y-99344162D01*
X154989885Y-99433537D01*
X155093033Y-99464826D01*
X155171316Y-99488573D01*
X155171321Y-99488574D01*
X155359997Y-99507157D01*
X155360000Y-99507157D01*
X155360003Y-99507157D01*
X155548678Y-99488574D01*
X155548683Y-99488573D01*
X155730115Y-99433537D01*
X155897324Y-99344162D01*
X156043883Y-99223883D01*
X156164162Y-99077324D01*
X156253537Y-98910115D01*
X156308573Y-98728683D01*
X156308574Y-98728678D01*
X156327157Y-98540003D01*
X156327157Y-98539996D01*
X156308574Y-98351321D01*
X156308573Y-98351316D01*
X156273799Y-98236681D01*
X156253537Y-98169885D01*
X156240681Y-98145834D01*
X156218762Y-98104826D01*
X156164162Y-98002676D01*
X156043883Y-97856117D01*
X155897324Y-97735838D01*
X155848111Y-97709533D01*
X155730120Y-97646465D01*
X155730115Y-97646463D01*
X155548683Y-97591426D01*
X155548678Y-97591425D01*
X155360003Y-97572843D01*
X155359997Y-97572843D01*
X155171321Y-97591425D01*
X155171316Y-97591426D01*
X154989884Y-97646463D01*
X154989879Y-97646465D01*
X154822681Y-97735835D01*
X154822671Y-97735841D01*
X154676121Y-97856113D01*
X154676113Y-97856121D01*
X154555841Y-98002671D01*
X154555835Y-98002681D01*
X154466465Y-98169879D01*
X154466463Y-98169884D01*
X154411426Y-98351316D01*
X154411425Y-98351321D01*
X154392843Y-98539996D01*
X153855500Y-98539996D01*
X153855500Y-95487148D01*
X153855500Y-95487147D01*
X153842967Y-95440372D01*
X153842967Y-95440371D01*
X153842967Y-95440370D01*
X153833318Y-95404361D01*
X153833316Y-95404357D01*
X153790468Y-95330142D01*
X153790466Y-95330140D01*
X153790465Y-95330138D01*
X153353290Y-94892963D01*
X153325515Y-94838449D01*
X153325143Y-94810045D01*
X153335682Y-94730000D01*
X153315044Y-94573238D01*
X153254537Y-94427161D01*
X153254537Y-94427160D01*
X153158286Y-94301723D01*
X153158285Y-94301722D01*
X153158282Y-94301718D01*
X153158277Y-94301714D01*
X153158276Y-94301713D01*
X153032838Y-94205462D01*
X152886766Y-94144957D01*
X152886758Y-94144955D01*
X152730001Y-94124318D01*
X152729999Y-94124318D01*
X152573241Y-94144955D01*
X152573233Y-94144957D01*
X152427161Y-94205462D01*
X152427160Y-94205462D01*
X152301723Y-94301713D01*
X152301713Y-94301723D01*
X152205462Y-94427160D01*
X152205462Y-94427161D01*
X152144957Y-94573233D01*
X152144955Y-94573241D01*
X152124318Y-94729999D01*
X149967102Y-94729999D01*
X148697099Y-93459996D01*
X154392843Y-93459996D01*
X154392843Y-93460003D01*
X154411425Y-93648678D01*
X154411426Y-93648683D01*
X154466463Y-93830115D01*
X154466465Y-93830120D01*
X154470587Y-93837831D01*
X154555838Y-93997324D01*
X154676117Y-94143883D01*
X154822676Y-94264162D01*
X154989885Y-94353537D01*
X155116280Y-94391877D01*
X155171316Y-94408573D01*
X155171321Y-94408574D01*
X155359997Y-94427157D01*
X155360000Y-94427157D01*
X155360003Y-94427157D01*
X155548678Y-94408574D01*
X155548683Y-94408573D01*
X155730115Y-94353537D01*
X155897324Y-94264162D01*
X156043883Y-94143883D01*
X156164162Y-93997324D01*
X156253537Y-93830115D01*
X156308573Y-93648683D01*
X156308574Y-93648678D01*
X156327157Y-93460003D01*
X156327157Y-93459996D01*
X156308574Y-93271321D01*
X156308573Y-93271316D01*
X156280299Y-93178108D01*
X156253537Y-93089885D01*
X156164162Y-92922676D01*
X156043883Y-92776117D01*
X155897551Y-92656024D01*
X155897328Y-92655841D01*
X155897326Y-92655840D01*
X155897324Y-92655838D01*
X155829359Y-92619510D01*
X155730120Y-92566465D01*
X155730115Y-92566463D01*
X155548683Y-92511426D01*
X155548678Y-92511425D01*
X155360003Y-92492843D01*
X155359997Y-92492843D01*
X155171321Y-92511425D01*
X155171316Y-92511426D01*
X154989884Y-92566463D01*
X154989879Y-92566465D01*
X154822681Y-92655835D01*
X154822671Y-92655841D01*
X154676121Y-92776113D01*
X154676113Y-92776121D01*
X154555841Y-92922671D01*
X154555835Y-92922681D01*
X154466465Y-93089879D01*
X154466463Y-93089884D01*
X154411426Y-93271316D01*
X154411425Y-93271321D01*
X154392843Y-93459996D01*
X148697099Y-93459996D01*
X147006614Y-91769511D01*
X147006611Y-91769509D01*
X147006609Y-91769507D01*
X146903892Y-91710203D01*
X146903889Y-91710202D01*
X146903887Y-91710201D01*
X146872227Y-91701718D01*
X146789309Y-91679500D01*
X146789308Y-91679500D01*
X145962932Y-91679500D01*
X145904741Y-91660593D01*
X145902684Y-91659056D01*
X145832841Y-91605464D01*
X145832840Y-91605463D01*
X145832838Y-91605462D01*
X145686766Y-91544957D01*
X145686758Y-91544955D01*
X145530001Y-91524318D01*
X145529999Y-91524318D01*
X145436410Y-91536639D01*
X145376249Y-91525489D01*
X145334132Y-91481106D01*
X145325335Y-91451408D01*
X145315044Y-91373240D01*
X145315044Y-91373238D01*
X145254537Y-91227161D01*
X145254537Y-91227160D01*
X145158286Y-91101723D01*
X145158285Y-91101722D01*
X145158282Y-91101718D01*
X145158277Y-91101714D01*
X145158276Y-91101713D01*
X145032838Y-91005462D01*
X144886766Y-90944957D01*
X144886758Y-90944955D01*
X144730001Y-90924318D01*
X144729999Y-90924318D01*
X144573241Y-90944955D01*
X144573233Y-90944957D01*
X144427161Y-91005462D01*
X144427160Y-91005462D01*
X144301723Y-91101713D01*
X144301713Y-91101723D01*
X144205462Y-91227160D01*
X144205462Y-91227161D01*
X144144957Y-91373233D01*
X144144955Y-91373241D01*
X144124318Y-91529999D01*
X143735682Y-91529999D01*
X143715044Y-91373238D01*
X143654537Y-91227161D01*
X143654537Y-91227160D01*
X143558286Y-91101723D01*
X143558285Y-91101722D01*
X143558282Y-91101718D01*
X143558277Y-91101714D01*
X143558276Y-91101713D01*
X143432838Y-91005462D01*
X143286766Y-90944957D01*
X143286758Y-90944955D01*
X143130001Y-90924318D01*
X143129999Y-90924318D01*
X142973241Y-90944955D01*
X142973233Y-90944957D01*
X142827161Y-91005462D01*
X142827160Y-91005462D01*
X142701723Y-91101713D01*
X142701713Y-91101723D01*
X142605462Y-91227160D01*
X142605462Y-91227161D01*
X142544957Y-91373233D01*
X142544955Y-91373240D01*
X142534664Y-91451409D01*
X142508322Y-91506634D01*
X142454551Y-91535828D01*
X142423589Y-91536639D01*
X142330001Y-91524318D01*
X142329999Y-91524318D01*
X142173241Y-91544955D01*
X142173233Y-91544957D01*
X142027161Y-91605462D01*
X141988994Y-91634748D01*
X141957334Y-91659042D01*
X141899659Y-91679466D01*
X141897068Y-91679500D01*
X140870691Y-91679500D01*
X140787773Y-91701718D01*
X140787772Y-91701717D01*
X140756115Y-91710200D01*
X140653386Y-91769510D01*
X137569508Y-94853389D01*
X137569507Y-94853390D01*
X137510200Y-94956112D01*
X137510200Y-94956113D01*
X137510201Y-94956114D01*
X137484663Y-95051425D01*
X137479500Y-95070692D01*
X137479500Y-100097067D01*
X137460593Y-100155258D01*
X137459042Y-100157334D01*
X137405462Y-100227160D01*
X137405462Y-100227161D01*
X137344957Y-100373233D01*
X137344955Y-100373241D01*
X137324318Y-100529999D01*
X133293111Y-100529999D01*
X133279147Y-100512984D01*
X132855914Y-100936216D01*
X132855036Y-100932939D01*
X132804876Y-100846060D01*
X132733940Y-100775124D01*
X132647061Y-100724964D01*
X132643780Y-100724084D01*
X133067014Y-100300851D01*
X133067015Y-100300851D01*
X133037049Y-100276259D01*
X133037043Y-100276255D01*
X132869923Y-100186927D01*
X132688585Y-100131918D01*
X132688580Y-100131917D01*
X132500003Y-100113345D01*
X132499997Y-100113345D01*
X132311419Y-100131917D01*
X132311414Y-100131918D01*
X132130076Y-100186927D01*
X132130071Y-100186929D01*
X131962961Y-100276252D01*
X131962951Y-100276258D01*
X131932984Y-100300851D01*
X132356218Y-100724085D01*
X132352939Y-100724964D01*
X132266060Y-100775124D01*
X132195124Y-100846060D01*
X132144964Y-100932939D01*
X132144085Y-100936218D01*
X131720851Y-100512984D01*
X131696258Y-100542951D01*
X131696252Y-100542961D01*
X131606929Y-100710071D01*
X131606927Y-100710076D01*
X131551918Y-100891414D01*
X131551917Y-100891419D01*
X131533345Y-101079996D01*
X130855500Y-101079996D01*
X130855500Y-99505834D01*
X130874407Y-99447643D01*
X130884496Y-99435830D01*
X131425830Y-98894496D01*
X131480347Y-98866719D01*
X131495834Y-98865500D01*
X131523277Y-98865500D01*
X131581468Y-98884407D01*
X131610587Y-98917831D01*
X131679196Y-99046189D01*
X131695838Y-99077324D01*
X131816117Y-99223883D01*
X131962676Y-99344162D01*
X132129885Y-99433537D01*
X132233033Y-99464826D01*
X132311316Y-99488573D01*
X132311321Y-99488574D01*
X132499997Y-99507157D01*
X132500000Y-99507157D01*
X132500003Y-99507157D01*
X132688678Y-99488574D01*
X132688683Y-99488573D01*
X132870115Y-99433537D01*
X133037324Y-99344162D01*
X133183883Y-99223883D01*
X133304162Y-99077324D01*
X133393537Y-98910115D01*
X133448573Y-98728683D01*
X133448574Y-98728678D01*
X133467157Y-98540003D01*
X133467157Y-98539996D01*
X133448574Y-98351321D01*
X133448573Y-98351316D01*
X133413799Y-98236681D01*
X133393537Y-98169885D01*
X133380681Y-98145834D01*
X133358762Y-98104826D01*
X133304162Y-98002676D01*
X133183883Y-97856117D01*
X133037324Y-97735838D01*
X132988111Y-97709533D01*
X132870120Y-97646465D01*
X132870115Y-97646463D01*
X132688683Y-97591426D01*
X132688678Y-97591425D01*
X132500003Y-97572843D01*
X132499997Y-97572843D01*
X132311321Y-97591425D01*
X132311316Y-97591426D01*
X132129884Y-97646463D01*
X132129879Y-97646465D01*
X131962681Y-97735835D01*
X131962671Y-97735841D01*
X131816121Y-97856113D01*
X131816113Y-97856121D01*
X131695841Y-98002671D01*
X131695837Y-98002677D01*
X131610587Y-98162169D01*
X131566481Y-98204575D01*
X131523277Y-98214500D01*
X131368932Y-98214500D01*
X131368916Y-98214499D01*
X131362853Y-98214499D01*
X131277147Y-98214499D01*
X131277144Y-98214499D01*
X131194361Y-98236681D01*
X131170834Y-98250265D01*
X131157250Y-98258108D01*
X131133721Y-98271692D01*
X131120137Y-98279535D01*
X131059534Y-98340137D01*
X131059535Y-98340138D01*
X130474504Y-98925169D01*
X130419987Y-98952946D01*
X130359555Y-98943375D01*
X130316290Y-98900110D01*
X130305500Y-98855165D01*
X130305500Y-95999996D01*
X131532843Y-95999996D01*
X131532843Y-96000003D01*
X131551425Y-96188678D01*
X131551426Y-96188683D01*
X131606463Y-96370115D01*
X131606465Y-96370120D01*
X131674797Y-96497959D01*
X131695838Y-96537324D01*
X131816117Y-96683883D01*
X131962676Y-96804162D01*
X132129885Y-96893537D01*
X132256280Y-96931877D01*
X132311316Y-96948573D01*
X132311321Y-96948574D01*
X132499997Y-96967157D01*
X132500000Y-96967157D01*
X132500003Y-96967157D01*
X132688678Y-96948574D01*
X132688683Y-96948573D01*
X132870115Y-96893537D01*
X133037324Y-96804162D01*
X133183883Y-96683883D01*
X133304162Y-96537324D01*
X133393537Y-96370115D01*
X133448573Y-96188683D01*
X133448574Y-96188678D01*
X133467157Y-96000003D01*
X133467157Y-95999996D01*
X133448574Y-95811321D01*
X133448573Y-95811316D01*
X133411878Y-95690348D01*
X133393537Y-95629885D01*
X133304162Y-95462676D01*
X133183883Y-95316117D01*
X133037324Y-95195838D01*
X132967062Y-95158282D01*
X132870120Y-95106465D01*
X132870115Y-95106463D01*
X132688683Y-95051426D01*
X132688678Y-95051425D01*
X132500003Y-95032843D01*
X132499997Y-95032843D01*
X132311321Y-95051425D01*
X132311316Y-95051426D01*
X132129884Y-95106463D01*
X132129879Y-95106465D01*
X131962681Y-95195835D01*
X131962671Y-95195841D01*
X131816121Y-95316113D01*
X131816113Y-95316121D01*
X131695841Y-95462671D01*
X131695835Y-95462681D01*
X131606465Y-95629879D01*
X131606463Y-95629884D01*
X131551426Y-95811316D01*
X131551425Y-95811321D01*
X131532843Y-95999996D01*
X130305500Y-95999996D01*
X130305500Y-94655834D01*
X130324407Y-94597643D01*
X130334496Y-94585830D01*
X131105830Y-93814496D01*
X131160347Y-93786719D01*
X131175834Y-93785500D01*
X131523277Y-93785500D01*
X131581468Y-93804407D01*
X131610587Y-93837831D01*
X131695838Y-93997324D01*
X131816117Y-94143883D01*
X131962676Y-94264162D01*
X132129885Y-94353537D01*
X132256280Y-94391877D01*
X132311316Y-94408573D01*
X132311321Y-94408574D01*
X132499997Y-94427157D01*
X132500000Y-94427157D01*
X132500003Y-94427157D01*
X132688678Y-94408574D01*
X132688683Y-94408573D01*
X132870115Y-94353537D01*
X133037324Y-94264162D01*
X133183883Y-94143883D01*
X133304162Y-93997324D01*
X133393537Y-93830115D01*
X133448573Y-93648683D01*
X133448574Y-93648678D01*
X133467157Y-93460003D01*
X133467157Y-93459996D01*
X133448574Y-93271321D01*
X133448573Y-93271316D01*
X133420299Y-93178108D01*
X133393537Y-93089885D01*
X133304162Y-92922676D01*
X133183883Y-92776117D01*
X133037551Y-92656024D01*
X133037328Y-92655841D01*
X133037326Y-92655840D01*
X133037324Y-92655838D01*
X132969359Y-92619510D01*
X132870120Y-92566465D01*
X132870115Y-92566463D01*
X132688683Y-92511426D01*
X132688678Y-92511425D01*
X132500003Y-92492843D01*
X132499997Y-92492843D01*
X132311321Y-92511425D01*
X132311316Y-92511426D01*
X132129884Y-92566463D01*
X132129879Y-92566465D01*
X131962681Y-92655835D01*
X131962671Y-92655841D01*
X131816121Y-92776113D01*
X131816113Y-92776121D01*
X131695841Y-92922671D01*
X131695837Y-92922677D01*
X131610587Y-93082169D01*
X131566481Y-93124575D01*
X131523277Y-93134500D01*
X131042853Y-93134500D01*
X130957147Y-93134500D01*
X130884136Y-93154062D01*
X130874357Y-93156683D01*
X130837250Y-93178108D01*
X130813721Y-93191692D01*
X130800137Y-93199535D01*
X130739534Y-93260137D01*
X130739535Y-93260138D01*
X130024504Y-93975169D01*
X129969987Y-94002946D01*
X129909555Y-93993375D01*
X129866290Y-93950110D01*
X129855500Y-93905165D01*
X129855500Y-92705834D01*
X129874407Y-92647643D01*
X129884496Y-92635830D01*
X131245830Y-91274496D01*
X131300347Y-91246719D01*
X131315834Y-91245500D01*
X131523277Y-91245500D01*
X131581468Y-91264407D01*
X131610587Y-91297831D01*
X131695837Y-91457322D01*
X131695841Y-91457328D01*
X131736306Y-91506634D01*
X131816117Y-91603883D01*
X131962676Y-91724162D01*
X132129885Y-91813537D01*
X132215739Y-91839580D01*
X132311316Y-91868573D01*
X132311321Y-91868574D01*
X132499997Y-91887157D01*
X132500000Y-91887157D01*
X132500003Y-91887157D01*
X132688678Y-91868574D01*
X132688683Y-91868573D01*
X132703214Y-91864165D01*
X132870115Y-91813537D01*
X133037324Y-91724162D01*
X133183883Y-91603883D01*
X133304162Y-91457324D01*
X133393537Y-91290115D01*
X133448573Y-91108683D01*
X133448574Y-91108678D01*
X133467157Y-90920003D01*
X133467157Y-90919996D01*
X154392843Y-90919996D01*
X154392843Y-90920003D01*
X154411425Y-91108678D01*
X154411426Y-91108683D01*
X154466463Y-91290115D01*
X154466465Y-91290120D01*
X154470587Y-91297831D01*
X154555838Y-91457324D01*
X154555840Y-91457326D01*
X154555841Y-91457328D01*
X154596306Y-91506634D01*
X154676117Y-91603883D01*
X154822676Y-91724162D01*
X154989885Y-91813537D01*
X155075739Y-91839580D01*
X155171316Y-91868573D01*
X155171321Y-91868574D01*
X155359997Y-91887157D01*
X155360000Y-91887157D01*
X155360003Y-91887157D01*
X155548678Y-91868574D01*
X155548683Y-91868573D01*
X155563214Y-91864165D01*
X155730115Y-91813537D01*
X155897324Y-91724162D01*
X156043883Y-91603883D01*
X156164162Y-91457324D01*
X156253537Y-91290115D01*
X156308573Y-91108683D01*
X156308574Y-91108678D01*
X156327157Y-90920003D01*
X156327157Y-90919996D01*
X156308574Y-90731321D01*
X156308573Y-90731316D01*
X156280299Y-90638108D01*
X156253537Y-90549885D01*
X156164162Y-90382676D01*
X156043883Y-90236117D01*
X155897324Y-90115838D01*
X155857959Y-90094797D01*
X155730120Y-90026465D01*
X155730115Y-90026463D01*
X155548683Y-89971426D01*
X155548678Y-89971425D01*
X155360003Y-89952843D01*
X155359997Y-89952843D01*
X155171321Y-89971425D01*
X155171316Y-89971426D01*
X154989884Y-90026463D01*
X154989879Y-90026465D01*
X154822681Y-90115835D01*
X154822671Y-90115841D01*
X154676121Y-90236113D01*
X154676113Y-90236121D01*
X154555841Y-90382671D01*
X154555835Y-90382681D01*
X154466465Y-90549879D01*
X154466463Y-90549884D01*
X154411426Y-90731316D01*
X154411425Y-90731321D01*
X154392843Y-90919996D01*
X133467157Y-90919996D01*
X133448574Y-90731321D01*
X133448573Y-90731316D01*
X133420299Y-90638108D01*
X133393537Y-90549885D01*
X133304162Y-90382676D01*
X133183883Y-90236117D01*
X133037324Y-90115838D01*
X132997959Y-90094797D01*
X132870120Y-90026465D01*
X132870115Y-90026463D01*
X132688683Y-89971426D01*
X132688678Y-89971425D01*
X132500003Y-89952843D01*
X132499997Y-89952843D01*
X132311321Y-89971425D01*
X132311316Y-89971426D01*
X132129884Y-90026463D01*
X132129879Y-90026465D01*
X131962681Y-90115835D01*
X131962671Y-90115841D01*
X131816121Y-90236113D01*
X131816113Y-90236121D01*
X131695841Y-90382671D01*
X131695837Y-90382677D01*
X131610587Y-90542169D01*
X131566481Y-90584575D01*
X131523277Y-90594500D01*
X131182853Y-90594500D01*
X131097147Y-90594500D01*
X131024136Y-90614062D01*
X131014357Y-90616683D01*
X130977250Y-90638108D01*
X130953721Y-90651692D01*
X130940137Y-90659535D01*
X130879534Y-90720137D01*
X130879535Y-90720138D01*
X130879533Y-90720140D01*
X129269535Y-92330138D01*
X129226682Y-92404361D01*
X129226682Y-92404362D01*
X129226679Y-92404367D01*
X129221749Y-92422771D01*
X129221749Y-92422772D01*
X129221749Y-92422773D01*
X129204500Y-92487147D01*
X125930000Y-92487147D01*
X125930000Y-88379996D01*
X131532843Y-88379996D01*
X131532843Y-88380003D01*
X131551425Y-88568678D01*
X131551426Y-88568683D01*
X131606463Y-88750115D01*
X131606465Y-88750120D01*
X131674797Y-88877959D01*
X131695838Y-88917324D01*
X131816117Y-89063883D01*
X131962676Y-89184162D01*
X132129885Y-89273537D01*
X132256280Y-89311877D01*
X132311316Y-89328573D01*
X132311321Y-89328574D01*
X132499997Y-89347157D01*
X132500000Y-89347157D01*
X132500003Y-89347157D01*
X132688678Y-89328574D01*
X132688683Y-89328573D01*
X132870115Y-89273537D01*
X133037324Y-89184162D01*
X133183883Y-89063883D01*
X133304162Y-88917324D01*
X133393537Y-88750115D01*
X133448573Y-88568683D01*
X133448574Y-88568678D01*
X133467157Y-88380003D01*
X133467157Y-88379996D01*
X154392843Y-88379996D01*
X154392843Y-88380003D01*
X154411425Y-88568678D01*
X154411426Y-88568683D01*
X154466463Y-88750115D01*
X154466465Y-88750120D01*
X154534797Y-88877959D01*
X154555838Y-88917324D01*
X154676117Y-89063883D01*
X154822676Y-89184162D01*
X154989885Y-89273537D01*
X155116280Y-89311877D01*
X155171316Y-89328573D01*
X155171321Y-89328574D01*
X155359997Y-89347157D01*
X155360000Y-89347157D01*
X155360003Y-89347157D01*
X155548678Y-89328574D01*
X155548683Y-89328573D01*
X155730115Y-89273537D01*
X155897324Y-89184162D01*
X156043883Y-89063883D01*
X156164162Y-88917324D01*
X156253537Y-88750115D01*
X156308573Y-88568683D01*
X156308574Y-88568678D01*
X156327157Y-88380003D01*
X156327157Y-88379996D01*
X156308574Y-88191321D01*
X156308573Y-88191316D01*
X156291877Y-88136280D01*
X156253537Y-88009885D01*
X156164162Y-87842676D01*
X156043883Y-87696117D01*
X155897324Y-87575838D01*
X155857959Y-87554797D01*
X155730120Y-87486465D01*
X155730115Y-87486463D01*
X155548683Y-87431426D01*
X155548678Y-87431425D01*
X155360003Y-87412843D01*
X155359997Y-87412843D01*
X155171321Y-87431425D01*
X155171316Y-87431426D01*
X154989884Y-87486463D01*
X154989879Y-87486465D01*
X154822681Y-87575835D01*
X154822671Y-87575841D01*
X154676121Y-87696113D01*
X154676113Y-87696121D01*
X154555841Y-87842671D01*
X154555835Y-87842681D01*
X154466465Y-88009879D01*
X154466463Y-88009884D01*
X154411426Y-88191316D01*
X154411425Y-88191321D01*
X154392843Y-88379996D01*
X133467157Y-88379996D01*
X133448574Y-88191321D01*
X133448573Y-88191316D01*
X133431877Y-88136280D01*
X133393537Y-88009885D01*
X133304162Y-87842676D01*
X133183883Y-87696117D01*
X133037324Y-87575838D01*
X132997959Y-87554797D01*
X132870120Y-87486465D01*
X132870115Y-87486463D01*
X132688683Y-87431426D01*
X132688678Y-87431425D01*
X132500003Y-87412843D01*
X132499997Y-87412843D01*
X132311321Y-87431425D01*
X132311316Y-87431426D01*
X132129884Y-87486463D01*
X132129879Y-87486465D01*
X131962681Y-87575835D01*
X131962671Y-87575841D01*
X131816121Y-87696113D01*
X131816113Y-87696121D01*
X131695841Y-87842671D01*
X131695835Y-87842681D01*
X131606465Y-88009879D01*
X131606463Y-88009884D01*
X131551426Y-88191316D01*
X131551425Y-88191321D01*
X131532843Y-88379996D01*
X125930000Y-88379996D01*
X125930000Y-85420883D01*
X131537500Y-85420883D01*
X131537500Y-85420884D01*
X131537500Y-86259116D01*
X131552467Y-86372802D01*
X131611061Y-86514259D01*
X131704269Y-86635731D01*
X131825741Y-86728939D01*
X131967198Y-86787533D01*
X132080884Y-86802500D01*
X132080885Y-86802500D01*
X132919115Y-86802500D01*
X132919116Y-86802500D01*
X133032802Y-86787533D01*
X133174259Y-86728939D01*
X133295731Y-86635731D01*
X133388939Y-86514259D01*
X133447533Y-86372802D01*
X133462500Y-86259116D01*
X133462500Y-85420884D01*
X133462500Y-85420883D01*
X154397500Y-85420883D01*
X154397500Y-85420884D01*
X154397500Y-86259116D01*
X154412467Y-86372802D01*
X154471061Y-86514259D01*
X154564269Y-86635731D01*
X154685741Y-86728939D01*
X154827198Y-86787533D01*
X154940884Y-86802500D01*
X154940885Y-86802500D01*
X155779115Y-86802500D01*
X155779116Y-86802500D01*
X155892802Y-86787533D01*
X156034259Y-86728939D01*
X156155731Y-86635731D01*
X156248939Y-86514259D01*
X156307533Y-86372802D01*
X156322500Y-86259116D01*
X156322500Y-85420884D01*
X156307533Y-85307198D01*
X156248939Y-85165741D01*
X156155731Y-85044269D01*
X156034259Y-84951061D01*
X155892802Y-84892467D01*
X155892799Y-84892466D01*
X155892798Y-84892466D01*
X155779116Y-84877500D01*
X154940884Y-84877500D01*
X154940883Y-84877500D01*
X154827201Y-84892466D01*
X154827196Y-84892468D01*
X154685742Y-84951060D01*
X154564273Y-85044265D01*
X154564265Y-85044273D01*
X154471060Y-85165742D01*
X154412468Y-85307196D01*
X154412466Y-85307201D01*
X154397500Y-85420883D01*
X133462500Y-85420883D01*
X133447533Y-85307198D01*
X133388939Y-85165741D01*
X133295731Y-85044269D01*
X133174259Y-84951061D01*
X133032802Y-84892467D01*
X133032799Y-84892466D01*
X133032798Y-84892466D01*
X132919116Y-84877500D01*
X132080884Y-84877500D01*
X132080883Y-84877500D01*
X131967201Y-84892466D01*
X131967196Y-84892468D01*
X131825742Y-84951060D01*
X131704273Y-85044265D01*
X131704265Y-85044273D01*
X131611060Y-85165742D01*
X131552468Y-85307196D01*
X131552466Y-85307201D01*
X131537500Y-85420883D01*
X125930000Y-85420883D01*
X125930000Y-79730674D01*
X125930010Y-79729287D01*
X125930024Y-79728264D01*
X125932291Y-79566512D01*
X125932902Y-79556845D01*
X125969436Y-79232595D01*
X125971292Y-79221672D01*
X126043744Y-78904241D01*
X126046808Y-78893603D01*
X126154345Y-78586282D01*
X126158584Y-78576047D01*
X126299853Y-78282699D01*
X126305209Y-78273006D01*
X126478439Y-77997313D01*
X126484855Y-77988272D01*
X126687845Y-77733730D01*
X126695226Y-77725469D01*
X126925469Y-77495226D01*
X126933730Y-77487845D01*
X127188272Y-77284855D01*
X127197313Y-77278439D01*
X127473006Y-77105209D01*
X127482699Y-77099853D01*
X127776047Y-76958584D01*
X127786282Y-76954345D01*
X128093603Y-76846808D01*
X128104241Y-76843744D01*
X128421672Y-76771292D01*
X128432595Y-76769436D01*
X128756845Y-76732902D01*
X128766512Y-76732291D01*
X128925169Y-76730067D01*
X128929288Y-76730010D01*
X128930675Y-76730000D01*
X158929325Y-76730000D01*
X158930712Y-76730010D01*
G37*
%TD.AperFunction*%
%TD*%
M02*
