%TF.GenerationSoftware,KiCad,Pcbnew,8.0.9-8.0.9-0~ubuntu24.04.1*%
%TF.CreationDate,2025-04-04T21:47:20+03:00*%
%TF.ProjectId,rgbw-light,72676277-2d6c-4696-9768-742e6b696361,rev?*%
%TF.SameCoordinates,Original*%
%TF.FileFunction,Copper,L1,Top*%
%TF.FilePolarity,Positive*%
%FSLAX46Y46*%
G04 Gerber Fmt 4.6, Leading zero omitted, Abs format (unit mm)*
G04 Created by KiCad (PCBNEW 8.0.9-8.0.9-0~ubuntu24.04.1) date 2025-04-04 21:47:20*
%MOMM*%
%LPD*%
G01*
G04 APERTURE LIST*
G04 Aperture macros list*
%AMRoundRect*
0 Rectangle with rounded corners*
0 $1 Rounding radius*
0 $2 $3 $4 $5 $6 $7 $8 $9 X,Y pos of 4 corners*
0 Add a 4 corners polygon primitive as box body*
4,1,4,$2,$3,$4,$5,$6,$7,$8,$9,$2,$3,0*
0 Add four circle primitives for the rounded corners*
1,1,$1+$1,$2,$3*
1,1,$1+$1,$4,$5*
1,1,$1+$1,$6,$7*
1,1,$1+$1,$8,$9*
0 Add four rect primitives between the rounded corners*
20,1,$1+$1,$2,$3,$4,$5,0*
20,1,$1+$1,$4,$5,$6,$7,0*
20,1,$1+$1,$6,$7,$8,$9,0*
20,1,$1+$1,$8,$9,$2,$3,0*%
G04 Aperture macros list end*
%TA.AperFunction,SMDPad,CuDef*%
%ADD10RoundRect,0.200000X-0.200000X0.285000X-0.200000X-0.285000X0.200000X-0.285000X0.200000X0.285000X0*%
%TD*%
%TA.AperFunction,SMDPad,CuDef*%
%ADD11RoundRect,0.175000X-0.175000X-0.475000X0.175000X-0.475000X0.175000X0.475000X-0.175000X0.475000X0*%
%TD*%
%TA.AperFunction,SMDPad,CuDef*%
%ADD12RoundRect,0.325000X0.000000X0.459619X-0.459619X0.000000X0.000000X-0.459619X0.459619X0.000000X0*%
%TD*%
%TA.AperFunction,SMDPad,CuDef*%
%ADD13RoundRect,0.175000X0.475000X-0.175000X0.475000X0.175000X-0.475000X0.175000X-0.475000X-0.175000X0*%
%TD*%
%TA.AperFunction,SMDPad,CuDef*%
%ADD14RoundRect,0.175000X0.175000X-0.525000X0.175000X0.525000X-0.175000X0.525000X-0.175000X-0.525000X0*%
%TD*%
%TA.AperFunction,SMDPad,CuDef*%
%ADD15R,2.850000X1.150000*%
%TD*%
%TA.AperFunction,SMDPad,CuDef*%
%ADD16R,0.450000X0.450000*%
%TD*%
%TA.AperFunction,SMDPad,CuDef*%
%ADD17RoundRect,0.112500X-0.112500X-0.112500X0.112500X-0.112500X0.112500X0.112500X-0.112500X0.112500X0*%
%TD*%
%TA.AperFunction,ComponentPad*%
%ADD18RoundRect,0.381000X-0.381000X-0.381000X0.381000X-0.381000X0.381000X0.381000X-0.381000X0.381000X0*%
%TD*%
%TA.AperFunction,ComponentPad*%
%ADD19C,1.524000*%
%TD*%
%TA.AperFunction,SMDPad,CuDef*%
%ADD20RoundRect,0.200000X-0.285000X-0.200000X0.285000X-0.200000X0.285000X0.200000X-0.285000X0.200000X0*%
%TD*%
%TA.AperFunction,ViaPad*%
%ADD21C,0.800000*%
%TD*%
%TA.AperFunction,ViaPad*%
%ADD22C,4.000000*%
%TD*%
%TA.AperFunction,Conductor*%
%ADD23C,0.500000*%
%TD*%
%TA.AperFunction,Conductor*%
%ADD24C,0.250000*%
%TD*%
G04 APERTURE END LIST*
D10*
%TO.P,R4,1*%
%TO.N,GND*%
X150930000Y-97930000D03*
%TO.P,R4,2*%
%TO.N,Net-(D1D-K)*%
X150930000Y-99530000D03*
%TD*%
D11*
%TO.P,C4,1*%
%TO.N,Net-(D1B-A)*%
X139980000Y-109730000D03*
%TO.P,C4,2*%
%TO.N,GND*%
X141880000Y-109730000D03*
%TD*%
D12*
%TO.P,L2,1*%
%TO.N,Net-(IC2-SW)*%
X141990660Y-105669340D03*
%TO.P,L2,2*%
%TO.N,Net-(D1B-A)*%
X139869340Y-107790660D03*
%TD*%
D13*
%TO.P,C3,1*%
%TO.N,5V*%
X141930000Y-99680000D03*
%TO.P,C3,2*%
%TO.N,GND*%
X141930000Y-97780000D03*
%TD*%
D10*
%TO.P,R1,1*%
%TO.N,GND*%
X134930000Y-97930000D03*
%TO.P,R1,2*%
%TO.N,Net-(D1A-K)*%
X134930000Y-99530000D03*
%TD*%
D14*
%TO.P,IC3,1,EN*%
%TO.N,/B*%
X145980000Y-103930000D03*
%TO.P,IC3,2,GND*%
%TO.N,GND*%
X146930000Y-103930000D03*
%TO.P,IC3,3,SW*%
%TO.N,Net-(IC3-SW)*%
X147880000Y-103930000D03*
%TO.P,IC3,4,Vin*%
%TO.N,5V*%
X147880000Y-101530000D03*
%TO.P,IC3,5,FB*%
%TO.N,Net-(D1C-K)*%
X145980000Y-101530000D03*
%TD*%
D11*
%TO.P,C2,1*%
%TO.N,Net-(D1A-A)*%
X134980000Y-109730000D03*
%TO.P,C2,2*%
%TO.N,GND*%
X136880000Y-109730000D03*
%TD*%
D13*
%TO.P,C7,1*%
%TO.N,5V*%
X152930000Y-99680000D03*
%TO.P,C7,2*%
%TO.N,GND*%
X152930000Y-97780000D03*
%TD*%
D11*
%TO.P,C8,1*%
%TO.N,Net-(D1D-A)*%
X150980000Y-109730000D03*
%TO.P,C8,2*%
%TO.N,GND*%
X152880000Y-109730000D03*
%TD*%
D15*
%TO.P,D1,0*%
%TO.N,N/C*%
X143930000Y-94730000D03*
D16*
%TO.P,D1,1,A*%
%TO.N,Net-(D1A-A)*%
X142730000Y-93530000D03*
D17*
%TO.P,D1,2,A*%
%TO.N,Net-(D1B-A)*%
X143530000Y-93530000D03*
%TO.P,D1,3,A*%
%TO.N,Net-(D1C-A)*%
X144330000Y-93530000D03*
%TO.P,D1,4,A*%
%TO.N,Net-(D1D-A)*%
X145130000Y-93530000D03*
%TO.P,D1,5,K*%
%TO.N,Net-(D1D-K)*%
X145130000Y-95930000D03*
%TO.P,D1,6,K*%
%TO.N,Net-(D1C-K)*%
X144330000Y-95930000D03*
%TO.P,D1,7,K*%
%TO.N,Net-(D1B-K)*%
X143530000Y-95930000D03*
%TO.P,D1,8,K*%
%TO.N,Net-(D1A-K)*%
X142730000Y-95930000D03*
%TD*%
D18*
%TO.P,CN2,1*%
%TO.N,unconnected-(CN2-Pad1)*%
X155360000Y-85840000D03*
D19*
%TO.P,CN2,2*%
%TO.N,/Temperature*%
X155360000Y-88380000D03*
%TO.P,CN2,3*%
%TO.N,unconnected-(CN2-Pad3)*%
X155360000Y-90920000D03*
%TO.P,CN2,4*%
%TO.N,unconnected-(CN2-Pad4)*%
X155360000Y-93460000D03*
%TO.P,CN2,5*%
%TO.N,/B*%
X155360000Y-96000000D03*
%TO.P,CN2,6*%
%TO.N,unconnected-(CN2-Pad6)*%
X155360000Y-98540000D03*
%TO.P,CN2,7*%
%TO.N,unconnected-(CN2-Pad7)*%
X155360000Y-101080000D03*
%TO.P,CN2,8*%
%TO.N,Net-(CN2-Pad8)*%
X155360000Y-103620000D03*
%TD*%
D14*
%TO.P,IC2,1,EN*%
%TO.N,/G*%
X139980000Y-103930000D03*
%TO.P,IC2,2,GND*%
%TO.N,GND*%
X140930000Y-103930000D03*
%TO.P,IC2,3,SW*%
%TO.N,Net-(IC2-SW)*%
X141880000Y-103930000D03*
%TO.P,IC2,4,Vin*%
%TO.N,5V*%
X141880000Y-101530000D03*
%TO.P,IC2,5,FB*%
%TO.N,Net-(D1B-K)*%
X139980000Y-101530000D03*
%TD*%
D13*
%TO.P,C1,1*%
%TO.N,5V*%
X136930000Y-99680000D03*
%TO.P,C1,2*%
%TO.N,GND*%
X136930000Y-97780000D03*
%TD*%
D14*
%TO.P,IC4,1,EN*%
%TO.N,/W*%
X150980000Y-103930000D03*
%TO.P,IC4,2,GND*%
%TO.N,GND*%
X151930000Y-103930000D03*
%TO.P,IC4,3,SW*%
%TO.N,Net-(IC4-SW)*%
X152880000Y-103930000D03*
%TO.P,IC4,4,Vin*%
%TO.N,5V*%
X152880000Y-101530000D03*
%TO.P,IC4,5,FB*%
%TO.N,Net-(D1D-K)*%
X150980000Y-101530000D03*
%TD*%
D20*
%TO.P,R5,1*%
%TO.N,/Temperature*%
X151130000Y-93730000D03*
%TO.P,R5,2*%
%TO.N,Net-(CN2-Pad8)*%
X152730000Y-93730000D03*
%TD*%
D10*
%TO.P,R3,1*%
%TO.N,GND*%
X145930000Y-97930000D03*
%TO.P,R3,2*%
%TO.N,Net-(D1C-K)*%
X145930000Y-99530000D03*
%TD*%
D12*
%TO.P,L3,1*%
%TO.N,Net-(IC3-SW)*%
X147990660Y-105669340D03*
%TO.P,L3,2*%
%TO.N,Net-(D1C-A)*%
X145869340Y-107790660D03*
%TD*%
D14*
%TO.P,IC1,1,EN*%
%TO.N,/R*%
X134980000Y-103930000D03*
%TO.P,IC1,2,GND*%
%TO.N,GND*%
X135930000Y-103930000D03*
%TO.P,IC1,3,SW*%
%TO.N,Net-(IC1-SW)*%
X136880000Y-103930000D03*
%TO.P,IC1,4,Vin*%
%TO.N,5V*%
X136880000Y-101530000D03*
%TO.P,IC1,5,FB*%
%TO.N,Net-(D1A-K)*%
X134980000Y-101530000D03*
%TD*%
D20*
%TO.P,NTC1,1*%
%TO.N,GND*%
X148130000Y-93730000D03*
%TO.P,NTC1,2*%
%TO.N,/Temperature*%
X149730000Y-93730000D03*
%TD*%
D13*
%TO.P,C5,1*%
%TO.N,5V*%
X147930000Y-99680000D03*
%TO.P,C5,2*%
%TO.N,GND*%
X147930000Y-97780000D03*
%TD*%
D11*
%TO.P,C6,1*%
%TO.N,Net-(D1C-A)*%
X145980000Y-109730000D03*
%TO.P,C6,2*%
%TO.N,GND*%
X147880000Y-109730000D03*
%TD*%
D10*
%TO.P,R2,1*%
%TO.N,GND*%
X139930000Y-97930000D03*
%TO.P,R2,2*%
%TO.N,Net-(D1B-K)*%
X139930000Y-99530000D03*
%TD*%
D12*
%TO.P,L1,1*%
%TO.N,Net-(IC1-SW)*%
X136990660Y-105669340D03*
%TO.P,L1,2*%
%TO.N,Net-(D1A-A)*%
X134869340Y-107790660D03*
%TD*%
%TO.P,L4,1*%
%TO.N,Net-(IC4-SW)*%
X152990660Y-105669340D03*
%TO.P,L4,2*%
%TO.N,Net-(D1D-A)*%
X150869340Y-107790660D03*
%TD*%
D18*
%TO.P,CN1,1*%
%TO.N,unconnected-(CN1-Pad1)*%
X132500000Y-85840000D03*
D19*
%TO.P,CN1,2*%
%TO.N,unconnected-(CN1-Pad2)*%
X132500000Y-88380000D03*
%TO.P,CN1,3*%
%TO.N,/R*%
X132500000Y-90920000D03*
%TO.P,CN1,4*%
%TO.N,/G*%
X132500000Y-93460000D03*
%TO.P,CN1,5*%
%TO.N,unconnected-(CN1-Pad5)*%
X132500000Y-96000000D03*
%TO.P,CN1,6*%
%TO.N,/W*%
X132500000Y-98540000D03*
%TO.P,CN1,7*%
%TO.N,GND*%
X132500000Y-101080000D03*
%TO.P,CN1,8*%
%TO.N,5V*%
X132500000Y-103620000D03*
%TD*%
D21*
%TO.N,GND*%
X151830000Y-100430000D03*
X136130000Y-96330000D03*
X149430000Y-109730000D03*
X140930000Y-102730000D03*
X146830000Y-100430000D03*
X149330000Y-91930000D03*
X143930000Y-90480000D03*
X143130000Y-94730000D03*
X138430000Y-109730000D03*
X141930000Y-94730000D03*
X140730000Y-96930000D03*
X151930000Y-102730000D03*
X138530000Y-91930000D03*
X146730000Y-96930000D03*
X143930000Y-100130000D03*
X151730000Y-96330000D03*
X146930000Y-102730000D03*
D22*
X128930000Y-79730000D03*
D21*
X144730000Y-94730000D03*
X145930000Y-94730000D03*
X143930000Y-102730000D03*
X135930000Y-102730000D03*
D22*
X158930000Y-79730000D03*
X128930000Y-109730000D03*
D21*
X154430000Y-109730000D03*
D22*
X158930000Y-109730000D03*
D21*
X143930000Y-109730000D03*
%TO.N,Net-(D1A-A)*%
X137930000Y-100530000D03*
X142330000Y-92130000D03*
%TO.N,Net-(D1B-A)*%
X138930000Y-100530000D03*
X143130000Y-91530000D03*
%TO.N,Net-(D1C-A)*%
X148930000Y-100530000D03*
X144730000Y-91530000D03*
%TO.N,Net-(D1D-A)*%
X149930000Y-100530000D03*
X145530000Y-92130000D03*
%TO.N,/R*%
X134980000Y-105954500D03*
%TO.N,/G*%
X139930000Y-105879500D03*
%TO.N,/B*%
X145930000Y-105930000D03*
%TO.N,/W*%
X150930000Y-105730000D03*
%TO.N,5V*%
X146930000Y-101530000D03*
X140930000Y-101530000D03*
X135930000Y-101530000D03*
X151930000Y-101530000D03*
%TO.N,Net-(CN2-Pad8)*%
X152730000Y-94730000D03*
%TD*%
D23*
%TO.N,Net-(D1A-A)*%
X138330000Y-105130000D02*
X138330000Y-106530000D01*
X137069340Y-107790660D02*
X134869340Y-107790660D01*
X134980000Y-109730000D02*
X134980000Y-107901320D01*
X137930000Y-100530000D02*
X137930000Y-104730000D01*
X142330000Y-92130000D02*
X142730000Y-92530000D01*
X142730000Y-92530000D02*
X142730000Y-93530000D01*
X138330000Y-106530000D02*
X137069340Y-107790660D01*
X137930000Y-104730000D02*
X138330000Y-105130000D01*
X134980000Y-107901320D02*
X134869340Y-107790660D01*
%TO.N,Net-(D1B-A)*%
X139980000Y-107901320D02*
X139869340Y-107790660D01*
X138930000Y-104740050D02*
X139030000Y-104840051D01*
X139030000Y-106951320D02*
X139869340Y-107790660D01*
X143530000Y-91930000D02*
X143530000Y-93530000D01*
X139980000Y-109730000D02*
X139980000Y-107901320D01*
X143130000Y-91530000D02*
X143530000Y-91930000D01*
X138930000Y-100530000D02*
X138930000Y-104740050D01*
X139030000Y-104840051D02*
X139030000Y-106951320D01*
%TO.N,Net-(D1C-A)*%
X145980000Y-109730000D02*
X145980000Y-107901320D01*
X149330000Y-105130000D02*
X148930000Y-104730000D01*
X145869340Y-107790660D02*
X148669340Y-107790660D01*
X144330000Y-91930000D02*
X144330000Y-93530000D01*
X144730000Y-91530000D02*
X144330000Y-91930000D01*
X149330000Y-107130000D02*
X149330000Y-105130000D01*
X148930000Y-104730000D02*
X148930000Y-100530000D01*
X145980000Y-107901320D02*
X145869340Y-107790660D01*
X148669340Y-107790660D02*
X149330000Y-107130000D01*
%TO.N,Net-(D1D-A)*%
X145130000Y-92530000D02*
X145130000Y-93530000D01*
X150980000Y-107901320D02*
X150869340Y-107790660D01*
X145530000Y-92130000D02*
X145130000Y-92530000D01*
X150030000Y-104840051D02*
X150030000Y-106951320D01*
X150980000Y-109730000D02*
X150980000Y-107901320D01*
X149930000Y-100530000D02*
X149930000Y-104740050D01*
X150030000Y-106951320D02*
X150869340Y-107790660D01*
X149930000Y-104740050D02*
X150030000Y-104840051D01*
D24*
%TO.N,/R*%
X134980000Y-105954500D02*
X134980000Y-103930000D01*
%TO.N,/G*%
X139980000Y-104976878D02*
X139980000Y-103930000D01*
X139930000Y-105879500D02*
X139930000Y-105026878D01*
X139930000Y-105026878D02*
X139980000Y-104976878D01*
%TO.N,/B*%
X145980000Y-105880000D02*
X145980000Y-103930000D01*
X145930000Y-105930000D02*
X145980000Y-105880000D01*
%TO.N,/W*%
X150980000Y-105680000D02*
X150980000Y-103930000D01*
X150930000Y-105730000D02*
X150980000Y-105680000D01*
%TO.N,/Temperature*%
X149730000Y-93730000D02*
X151130000Y-93730000D01*
X151130000Y-90630000D02*
X153380000Y-88380000D01*
X151130000Y-93730000D02*
X151130000Y-90630000D01*
X153380000Y-88380000D02*
X155360000Y-88380000D01*
D23*
%TO.N,5V*%
X135930000Y-101530000D02*
X136880000Y-101530000D01*
X140930000Y-101530000D02*
X141880000Y-101530000D01*
X146930000Y-101530000D02*
X147880000Y-101530000D01*
X147880000Y-101530000D02*
X147880000Y-99730000D01*
X141880000Y-99730000D02*
X141930000Y-99680000D01*
X152880000Y-101530000D02*
X152880000Y-99730000D01*
X152880000Y-99730000D02*
X152930000Y-99680000D01*
X141880000Y-101530000D02*
X141880000Y-99730000D01*
X136880000Y-101530000D02*
X136880000Y-99730000D01*
X151930000Y-101530000D02*
X152880000Y-101530000D01*
X147880000Y-99730000D02*
X147930000Y-99680000D01*
X136880000Y-99730000D02*
X136930000Y-99680000D01*
%TO.N,Net-(D1D-K)*%
X149530000Y-98930000D02*
X150130000Y-99530000D01*
X148930000Y-95930000D02*
X149530000Y-96530000D01*
D24*
X150980000Y-99580000D02*
X150930000Y-99530000D01*
D23*
X150130000Y-99530000D02*
X150930000Y-99530000D01*
D24*
X150980000Y-101530000D02*
X150980000Y-99580000D01*
D23*
X145130000Y-95930000D02*
X148930000Y-95930000D01*
X149530000Y-96530000D02*
X149530000Y-98930000D01*
%TO.N,Net-(D1C-K)*%
X145330000Y-99530000D02*
X145930000Y-99530000D01*
X144330000Y-98530000D02*
X145330000Y-99530000D01*
D24*
X145980000Y-101530000D02*
X145980000Y-99580000D01*
D23*
X144330000Y-95930000D02*
X144330000Y-98530000D01*
D24*
X145980000Y-99580000D02*
X145930000Y-99530000D01*
D23*
%TO.N,Net-(D1B-K)*%
X140530000Y-99530000D02*
X139930000Y-99530000D01*
X142730000Y-98730000D02*
X141330000Y-98730000D01*
X143530000Y-95930000D02*
X143530000Y-97930000D01*
D24*
X139980000Y-101530000D02*
X139980000Y-99580000D01*
X139980000Y-99580000D02*
X139930000Y-99530000D01*
D23*
X143530000Y-97930000D02*
X142730000Y-98730000D01*
X141330000Y-98730000D02*
X140530000Y-99530000D01*
%TO.N,Net-(D1A-K)*%
X138530000Y-98130000D02*
X137930000Y-98730000D01*
X136330000Y-98730000D02*
X135530000Y-99530000D01*
D24*
X134980000Y-99580000D02*
X134930000Y-99530000D01*
D23*
X142730000Y-95930000D02*
X139530000Y-95930000D01*
X138530000Y-96930000D02*
X138530000Y-98130000D01*
D24*
X134980000Y-101530000D02*
X134980000Y-99580000D01*
D23*
X137930000Y-98730000D02*
X136330000Y-98730000D01*
X139530000Y-95930000D02*
X138530000Y-96930000D01*
X135530000Y-99530000D02*
X134930000Y-99530000D01*
%TO.N,Net-(IC1-SW)*%
X136880000Y-105558680D02*
X136990660Y-105669340D01*
X136880000Y-103930000D02*
X136880000Y-105558680D01*
%TO.N,Net-(IC2-SW)*%
X141880000Y-103930000D02*
X141880000Y-105558680D01*
X141880000Y-105558680D02*
X141990660Y-105669340D01*
%TO.N,Net-(IC3-SW)*%
X147880000Y-105558680D02*
X147990660Y-105669340D01*
X147880000Y-103930000D02*
X147880000Y-105558680D01*
%TO.N,Net-(IC4-SW)*%
X152880000Y-103930000D02*
X152880000Y-105558680D01*
X152880000Y-105558680D02*
X152990660Y-105669340D01*
D24*
%TO.N,Net-(CN2-Pad8)*%
X152730000Y-93730000D02*
X152730000Y-94730000D01*
%TD*%
%TA.AperFunction,Conductor*%
%TO.N,GND*%
G36*
X144921335Y-96343015D02*
G01*
X144935240Y-96349499D01*
X144967646Y-96353765D01*
X144980333Y-96356288D01*
X145070691Y-96380500D01*
X148702389Y-96380500D01*
X148760580Y-96399407D01*
X148772393Y-96409496D01*
X149050504Y-96687607D01*
X149078281Y-96742124D01*
X149079500Y-96757611D01*
X149079500Y-98989309D01*
X149085625Y-99012168D01*
X149103084Y-99077325D01*
X149103084Y-99077326D01*
X149110198Y-99103881D01*
X149110202Y-99103889D01*
X149169507Y-99206609D01*
X149169509Y-99206611D01*
X149169511Y-99206614D01*
X149763658Y-99800761D01*
X149791434Y-99855276D01*
X149781863Y-99915708D01*
X149738598Y-99958973D01*
X149731539Y-99962227D01*
X149627160Y-100005463D01*
X149501715Y-100101719D01*
X149499998Y-100103437D01*
X149498449Y-100104225D01*
X149496570Y-100105668D01*
X149496302Y-100105319D01*
X149445479Y-100131210D01*
X149385048Y-100121634D01*
X149360002Y-100103437D01*
X149358284Y-100101719D01*
X149232838Y-100005462D01*
X149086766Y-99944957D01*
X149086758Y-99944955D01*
X148930001Y-99924318D01*
X148929999Y-99924318D01*
X148892422Y-99929265D01*
X148832261Y-99918115D01*
X148790144Y-99873732D01*
X148780500Y-99831112D01*
X148780500Y-99469367D01*
X148775280Y-99433536D01*
X148769866Y-99396375D01*
X148714826Y-99283789D01*
X148626211Y-99195174D01*
X148513625Y-99140134D01*
X148513626Y-99140134D01*
X148495377Y-99137475D01*
X148440636Y-99129500D01*
X147419364Y-99129500D01*
X147375570Y-99135880D01*
X147346373Y-99140134D01*
X147233790Y-99195173D01*
X147145173Y-99283790D01*
X147090134Y-99396373D01*
X147090134Y-99396375D01*
X147079500Y-99469364D01*
X147079500Y-99890636D01*
X147083153Y-99915708D01*
X147090134Y-99963626D01*
X147110587Y-100005462D01*
X147145174Y-100076211D01*
X147233789Y-100164826D01*
X147346375Y-100219866D01*
X147346379Y-100219866D01*
X147353717Y-100222134D01*
X147353203Y-100223796D01*
X147399629Y-100246731D01*
X147428081Y-100300899D01*
X147429500Y-100317598D01*
X147429500Y-100708455D01*
X147410593Y-100766646D01*
X147400507Y-100778455D01*
X147395176Y-100783785D01*
X147395174Y-100783788D01*
X147340134Y-100896373D01*
X147340134Y-100896374D01*
X147340134Y-100896375D01*
X147337376Y-100915303D01*
X147310277Y-100970158D01*
X147256109Y-100998610D01*
X147201526Y-100992492D01*
X147086767Y-100944957D01*
X147086758Y-100944955D01*
X146930001Y-100924318D01*
X146929999Y-100924318D01*
X146773241Y-100944955D01*
X146773232Y-100944957D01*
X146658473Y-100992492D01*
X146597476Y-100997292D01*
X146545307Y-100965323D01*
X146522623Y-100915301D01*
X146519866Y-100896375D01*
X146464826Y-100783789D01*
X146376211Y-100695174D01*
X146361018Y-100687746D01*
X146317045Y-100645203D01*
X146305500Y-100598806D01*
X146305500Y-100235737D01*
X146324407Y-100177546D01*
X146359556Y-100147527D01*
X146368338Y-100143052D01*
X146368337Y-100143052D01*
X146368342Y-100143050D01*
X146458050Y-100053342D01*
X146515646Y-99940304D01*
X146530500Y-99846519D01*
X146530499Y-99213482D01*
X146520414Y-99149800D01*
X146515647Y-99119700D01*
X146515646Y-99119698D01*
X146515646Y-99119696D01*
X146458050Y-99006658D01*
X146368342Y-98916950D01*
X146255304Y-98859354D01*
X146255305Y-98859354D01*
X146161522Y-98844500D01*
X145698479Y-98844500D01*
X145698476Y-98844501D01*
X145604700Y-98859352D01*
X145604695Y-98859354D01*
X145491658Y-98916950D01*
X145485353Y-98921531D01*
X145484317Y-98920105D01*
X145438319Y-98943529D01*
X145377889Y-98933943D01*
X145352851Y-98915748D01*
X144809496Y-98372393D01*
X144781719Y-98317876D01*
X144780500Y-98302389D01*
X144780500Y-98080001D01*
X145330001Y-98080001D01*
X145330001Y-98246485D01*
X145344833Y-98340141D01*
X145344836Y-98340151D01*
X145402358Y-98453043D01*
X145491956Y-98542641D01*
X145604848Y-98600163D01*
X145604852Y-98600164D01*
X145698515Y-98614999D01*
X145779999Y-98614998D01*
X145780000Y-98614998D01*
X145780000Y-98080001D01*
X146080000Y-98080001D01*
X146080000Y-98614998D01*
X146080001Y-98614999D01*
X146161483Y-98614999D01*
X146161485Y-98614998D01*
X146255141Y-98600166D01*
X146255151Y-98600163D01*
X146368043Y-98542641D01*
X146457641Y-98453043D01*
X146515163Y-98340151D01*
X146515164Y-98340147D01*
X146530000Y-98246484D01*
X146530000Y-98080001D01*
X146529999Y-98080000D01*
X146080001Y-98080000D01*
X146080000Y-98080001D01*
X145780000Y-98080001D01*
X145779999Y-98080000D01*
X145330002Y-98080000D01*
X145330001Y-98080001D01*
X144780500Y-98080001D01*
X144780500Y-97930001D01*
X147080000Y-97930001D01*
X147080000Y-97990584D01*
X147090620Y-98063480D01*
X147145586Y-98175915D01*
X147234084Y-98264413D01*
X147346519Y-98319379D01*
X147419415Y-98330000D01*
X147779999Y-98330000D01*
X147780000Y-98329999D01*
X147780000Y-97930001D01*
X148080000Y-97930001D01*
X148080000Y-98329999D01*
X148080001Y-98330000D01*
X148440584Y-98330000D01*
X148513480Y-98319379D01*
X148625915Y-98264413D01*
X148714413Y-98175915D01*
X148769379Y-98063480D01*
X148780000Y-97990584D01*
X148780000Y-97930001D01*
X148779999Y-97930000D01*
X148080001Y-97930000D01*
X148080000Y-97930001D01*
X147780000Y-97930001D01*
X147779999Y-97930000D01*
X147080001Y-97930000D01*
X147080000Y-97930001D01*
X144780500Y-97930001D01*
X144780500Y-97613515D01*
X145330000Y-97613515D01*
X145330000Y-97779999D01*
X145330001Y-97780000D01*
X145779999Y-97780000D01*
X145780000Y-97779999D01*
X145780000Y-97245001D01*
X146080000Y-97245001D01*
X146080000Y-97779999D01*
X146080001Y-97780000D01*
X146529998Y-97780000D01*
X146529999Y-97779999D01*
X146529999Y-97613516D01*
X146529998Y-97613514D01*
X146523014Y-97569415D01*
X147080000Y-97569415D01*
X147080000Y-97629999D01*
X147080001Y-97630000D01*
X147779999Y-97630000D01*
X147780000Y-97629999D01*
X147780000Y-97230001D01*
X148080000Y-97230001D01*
X148080000Y-97629999D01*
X148080001Y-97630000D01*
X148779999Y-97630000D01*
X148780000Y-97629999D01*
X148780000Y-97569415D01*
X148769379Y-97496519D01*
X148714413Y-97384084D01*
X148625915Y-97295586D01*
X148513480Y-97240620D01*
X148440585Y-97230000D01*
X148080001Y-97230000D01*
X148080000Y-97230001D01*
X147780000Y-97230001D01*
X147779999Y-97230000D01*
X147419415Y-97230000D01*
X147346519Y-97240620D01*
X147234084Y-97295586D01*
X147145586Y-97384084D01*
X147090620Y-97496519D01*
X147080000Y-97569415D01*
X146523014Y-97569415D01*
X146515166Y-97519858D01*
X146515163Y-97519848D01*
X146457641Y-97406956D01*
X146368043Y-97317358D01*
X146255151Y-97259836D01*
X146255147Y-97259835D01*
X146161484Y-97245000D01*
X146080001Y-97245000D01*
X146080000Y-97245001D01*
X145780000Y-97245001D01*
X145779998Y-97244999D01*
X145698517Y-97245000D01*
X145698514Y-97245001D01*
X145604858Y-97259833D01*
X145604848Y-97259836D01*
X145491956Y-97317358D01*
X145402358Y-97406956D01*
X145344836Y-97519848D01*
X145344835Y-97519852D01*
X145330000Y-97613515D01*
X144780500Y-97613515D01*
X144780500Y-96432741D01*
X144799407Y-96374550D01*
X144848907Y-96338586D01*
X144910093Y-96338586D01*
X144921335Y-96343015D01*
G37*
%TD.AperFunction*%
%TA.AperFunction,Conductor*%
G36*
X143052902Y-96365221D02*
G01*
X143078762Y-96420673D01*
X143079500Y-96432741D01*
X143079500Y-97702388D01*
X143060593Y-97760579D01*
X143050503Y-97772392D01*
X142906450Y-97916444D01*
X142851934Y-97944221D01*
X142791502Y-97934649D01*
X142785103Y-97930000D01*
X141080001Y-97930000D01*
X141080000Y-97930001D01*
X141080000Y-97990584D01*
X141090620Y-98063480D01*
X141145586Y-98175915D01*
X141150354Y-98182593D01*
X141148545Y-98183884D01*
X141171119Y-98228188D01*
X141161548Y-98288620D01*
X141122839Y-98329411D01*
X141053385Y-98369510D01*
X140507146Y-98915748D01*
X140452630Y-98943525D01*
X140392198Y-98933954D01*
X140374803Y-98921316D01*
X140374647Y-98921531D01*
X140368344Y-98916952D01*
X140368342Y-98916950D01*
X140255304Y-98859354D01*
X140255305Y-98859354D01*
X140161522Y-98844500D01*
X139698479Y-98844500D01*
X139698476Y-98844501D01*
X139604700Y-98859352D01*
X139604695Y-98859354D01*
X139491659Y-98916949D01*
X139401949Y-99006659D01*
X139344354Y-99119695D01*
X139329500Y-99213477D01*
X139329500Y-99846517D01*
X139335575Y-99884874D01*
X139326001Y-99945305D01*
X139282736Y-99988569D01*
X139222303Y-99998139D01*
X139199908Y-99991822D01*
X139086766Y-99944957D01*
X139086758Y-99944955D01*
X138930001Y-99924318D01*
X138929999Y-99924318D01*
X138773241Y-99944955D01*
X138773233Y-99944957D01*
X138627161Y-100005462D01*
X138627160Y-100005462D01*
X138501715Y-100101719D01*
X138499998Y-100103437D01*
X138498449Y-100104225D01*
X138496570Y-100105668D01*
X138496302Y-100105319D01*
X138445479Y-100131210D01*
X138385048Y-100121634D01*
X138360002Y-100103437D01*
X138358284Y-100101719D01*
X138232838Y-100005462D01*
X138086766Y-99944957D01*
X138086758Y-99944955D01*
X137930001Y-99924318D01*
X137929999Y-99924318D01*
X137892422Y-99929265D01*
X137832261Y-99918115D01*
X137790144Y-99873732D01*
X137780500Y-99831112D01*
X137780500Y-99469367D01*
X137775280Y-99433536D01*
X137769866Y-99396375D01*
X137733986Y-99322981D01*
X137725414Y-99262399D01*
X137754089Y-99208349D01*
X137809057Y-99181476D01*
X137822926Y-99180500D01*
X137989309Y-99180500D01*
X138079669Y-99156287D01*
X138079672Y-99156287D01*
X138092903Y-99152741D01*
X138103887Y-99149799D01*
X138206614Y-99090489D01*
X138890489Y-98406614D01*
X138949799Y-98303887D01*
X138956332Y-98279503D01*
X138956334Y-98279500D01*
X138956333Y-98279500D01*
X138970082Y-98228188D01*
X138980500Y-98189309D01*
X138980500Y-98080001D01*
X139330001Y-98080001D01*
X139330001Y-98246485D01*
X139344833Y-98340141D01*
X139344836Y-98340151D01*
X139402358Y-98453043D01*
X139491956Y-98542641D01*
X139604848Y-98600163D01*
X139604852Y-98600164D01*
X139698515Y-98614999D01*
X139779999Y-98614998D01*
X139780000Y-98614998D01*
X139780000Y-98080001D01*
X140080000Y-98080001D01*
X140080000Y-98614998D01*
X140080001Y-98614999D01*
X140161483Y-98614999D01*
X140161485Y-98614998D01*
X140255141Y-98600166D01*
X140255151Y-98600163D01*
X140368043Y-98542641D01*
X140457641Y-98453043D01*
X140515163Y-98340151D01*
X140515164Y-98340147D01*
X140530000Y-98246484D01*
X140530000Y-98080001D01*
X140529999Y-98080000D01*
X140080001Y-98080000D01*
X140080000Y-98080001D01*
X139780000Y-98080001D01*
X139779999Y-98080000D01*
X139330002Y-98080000D01*
X139330001Y-98080001D01*
X138980500Y-98080001D01*
X138980500Y-97613515D01*
X139330000Y-97613515D01*
X139330000Y-97779999D01*
X139330001Y-97780000D01*
X139779999Y-97780000D01*
X139780000Y-97779999D01*
X139780000Y-97245001D01*
X140080000Y-97245001D01*
X140080000Y-97779999D01*
X140080001Y-97780000D01*
X140529998Y-97780000D01*
X140529999Y-97779999D01*
X140529999Y-97613516D01*
X140529998Y-97613514D01*
X140523014Y-97569415D01*
X141080000Y-97569415D01*
X141080000Y-97629999D01*
X141080001Y-97630000D01*
X141779999Y-97630000D01*
X141780000Y-97629999D01*
X141780000Y-97230001D01*
X142080000Y-97230001D01*
X142080000Y-97629999D01*
X142080001Y-97630000D01*
X142779999Y-97630000D01*
X142780000Y-97629999D01*
X142780000Y-97569415D01*
X142769379Y-97496519D01*
X142714413Y-97384084D01*
X142625915Y-97295586D01*
X142513480Y-97240620D01*
X142440585Y-97230000D01*
X142080001Y-97230000D01*
X142080000Y-97230001D01*
X141780000Y-97230001D01*
X141779999Y-97230000D01*
X141419415Y-97230000D01*
X141346519Y-97240620D01*
X141234084Y-97295586D01*
X141145586Y-97384084D01*
X141090620Y-97496519D01*
X141080000Y-97569415D01*
X140523014Y-97569415D01*
X140515166Y-97519858D01*
X140515163Y-97519848D01*
X140457641Y-97406956D01*
X140368043Y-97317358D01*
X140255151Y-97259836D01*
X140255147Y-97259835D01*
X140161484Y-97245000D01*
X140080001Y-97245000D01*
X140080000Y-97245001D01*
X139780000Y-97245001D01*
X139779998Y-97244999D01*
X139698517Y-97245000D01*
X139698514Y-97245001D01*
X139604858Y-97259833D01*
X139604848Y-97259836D01*
X139491956Y-97317358D01*
X139402358Y-97406956D01*
X139344836Y-97519848D01*
X139344835Y-97519852D01*
X139330000Y-97613515D01*
X138980500Y-97613515D01*
X138980500Y-97157611D01*
X138999407Y-97099420D01*
X139009496Y-97087607D01*
X139687607Y-96409496D01*
X139742124Y-96381719D01*
X139757611Y-96380500D01*
X142789308Y-96380500D01*
X142789309Y-96380500D01*
X142860745Y-96361358D01*
X142879668Y-96356288D01*
X142892359Y-96353763D01*
X142924760Y-96349499D01*
X142938658Y-96343017D01*
X142999388Y-96335559D01*
X143052902Y-96365221D01*
G37*
%TD.AperFunction*%
%TA.AperFunction,Conductor*%
G36*
X158930712Y-76730010D02*
G01*
X158934911Y-76730068D01*
X159093486Y-76732291D01*
X159103155Y-76732902D01*
X159427401Y-76769435D01*
X159438330Y-76771293D01*
X159755754Y-76843742D01*
X159766400Y-76846810D01*
X160073710Y-76954342D01*
X160083958Y-76958587D01*
X160377292Y-77099849D01*
X160387000Y-77105214D01*
X160604936Y-77242153D01*
X160662679Y-77278435D01*
X160671733Y-77284860D01*
X160926260Y-77487838D01*
X160934539Y-77495235D01*
X161164764Y-77725460D01*
X161172161Y-77733739D01*
X161375139Y-77988266D01*
X161381564Y-77997320D01*
X161554782Y-78272994D01*
X161560152Y-78282711D01*
X161701410Y-78576037D01*
X161705658Y-78586293D01*
X161813185Y-78893586D01*
X161816259Y-78904255D01*
X161888705Y-79221663D01*
X161890565Y-79232608D01*
X161927096Y-79556830D01*
X161927708Y-79566526D01*
X161929990Y-79729286D01*
X161930000Y-79730674D01*
X161930000Y-109729325D01*
X161929990Y-109730713D01*
X161927708Y-109893473D01*
X161927096Y-109903169D01*
X161890565Y-110227391D01*
X161888705Y-110238336D01*
X161816259Y-110555744D01*
X161813185Y-110566413D01*
X161705658Y-110873706D01*
X161701410Y-110883962D01*
X161560152Y-111177288D01*
X161554782Y-111187005D01*
X161381564Y-111462679D01*
X161375139Y-111471733D01*
X161172161Y-111726260D01*
X161164764Y-111734539D01*
X160934539Y-111964764D01*
X160926260Y-111972161D01*
X160671733Y-112175139D01*
X160662679Y-112181564D01*
X160387005Y-112354782D01*
X160377288Y-112360152D01*
X160083962Y-112501410D01*
X160073706Y-112505658D01*
X159766413Y-112613185D01*
X159755744Y-112616259D01*
X159438336Y-112688705D01*
X159427391Y-112690565D01*
X159103169Y-112727096D01*
X159093473Y-112727708D01*
X158930713Y-112729990D01*
X158929325Y-112730000D01*
X128930675Y-112730000D01*
X128929287Y-112729990D01*
X128766526Y-112727708D01*
X128756830Y-112727096D01*
X128432608Y-112690565D01*
X128421663Y-112688705D01*
X128104255Y-112616259D01*
X128093586Y-112613185D01*
X127786293Y-112505658D01*
X127776037Y-112501410D01*
X127482711Y-112360152D01*
X127472994Y-112354782D01*
X127197320Y-112181564D01*
X127188266Y-112175139D01*
X126933739Y-111972161D01*
X126925460Y-111964764D01*
X126695235Y-111734539D01*
X126687838Y-111726260D01*
X126484860Y-111471733D01*
X126478435Y-111462679D01*
X126305217Y-111187005D01*
X126299847Y-111177288D01*
X126158589Y-110883962D01*
X126154341Y-110873706D01*
X126046810Y-110566400D01*
X126043742Y-110555754D01*
X125971293Y-110238330D01*
X125969435Y-110227401D01*
X125932902Y-109903155D01*
X125932291Y-109893486D01*
X125930010Y-109730712D01*
X125930000Y-109729325D01*
X125930000Y-107790659D01*
X133879280Y-107790659D01*
X133879280Y-107790660D01*
X133898949Y-107933769D01*
X133898949Y-107933770D01*
X133956502Y-108066270D01*
X134009035Y-108133142D01*
X134009039Y-108133146D01*
X134009043Y-108133151D01*
X134500505Y-108624613D01*
X134528281Y-108679128D01*
X134529500Y-108694615D01*
X134529500Y-108958455D01*
X134510593Y-109016646D01*
X134500507Y-109028455D01*
X134495176Y-109033785D01*
X134495174Y-109033788D01*
X134440134Y-109146373D01*
X134440134Y-109146375D01*
X134429500Y-109219364D01*
X134429500Y-110240636D01*
X134440134Y-110313625D01*
X134495174Y-110426211D01*
X134583789Y-110514826D01*
X134696375Y-110569866D01*
X134769364Y-110580500D01*
X134769367Y-110580500D01*
X135190632Y-110580500D01*
X135190636Y-110580500D01*
X135263625Y-110569866D01*
X135376211Y-110514826D01*
X135464826Y-110426211D01*
X135519866Y-110313625D01*
X135530500Y-110240636D01*
X135530500Y-109880001D01*
X136330000Y-109880001D01*
X136330000Y-110240584D01*
X136340620Y-110313480D01*
X136395586Y-110425915D01*
X136484084Y-110514413D01*
X136596519Y-110569379D01*
X136669415Y-110580000D01*
X136729999Y-110580000D01*
X136730000Y-110579999D01*
X136730000Y-109880001D01*
X137030000Y-109880001D01*
X137030000Y-110579999D01*
X137030001Y-110580000D01*
X137090584Y-110580000D01*
X137163480Y-110569379D01*
X137275915Y-110514413D01*
X137364413Y-110425915D01*
X137419379Y-110313480D01*
X137430000Y-110240584D01*
X137430000Y-109880001D01*
X137429999Y-109880000D01*
X137030001Y-109880000D01*
X137030000Y-109880001D01*
X136730000Y-109880001D01*
X136729999Y-109880000D01*
X136330001Y-109880000D01*
X136330000Y-109880001D01*
X135530500Y-109880001D01*
X135530500Y-109219415D01*
X136330000Y-109219415D01*
X136330000Y-109579999D01*
X136330001Y-109580000D01*
X136729999Y-109580000D01*
X136730000Y-109579999D01*
X136730000Y-108880001D01*
X137030000Y-108880001D01*
X137030000Y-109579999D01*
X137030001Y-109580000D01*
X137429999Y-109580000D01*
X137430000Y-109579999D01*
X137430000Y-109219415D01*
X137419379Y-109146519D01*
X137364413Y-109034084D01*
X137275915Y-108945586D01*
X137163480Y-108890620D01*
X137090585Y-108880000D01*
X137030001Y-108880000D01*
X137030000Y-108880001D01*
X136730000Y-108880001D01*
X136729999Y-108880000D01*
X136669415Y-108880000D01*
X136596519Y-108890620D01*
X136484084Y-108945586D01*
X136395586Y-109034084D01*
X136340620Y-109146519D01*
X136330000Y-109219415D01*
X135530500Y-109219415D01*
X135530500Y-109219364D01*
X135519866Y-109146375D01*
X135464826Y-109033789D01*
X135464825Y-109033788D01*
X135464823Y-109033785D01*
X135459493Y-109028455D01*
X135431718Y-108973938D01*
X135430500Y-108958455D01*
X135430500Y-108473296D01*
X135449407Y-108415105D01*
X135459496Y-108403292D01*
X135592632Y-108270156D01*
X135647149Y-108242379D01*
X135662636Y-108241160D01*
X137128649Y-108241160D01*
X137219009Y-108216947D01*
X137219012Y-108216947D01*
X137232243Y-108213401D01*
X137243227Y-108210459D01*
X137345954Y-108151149D01*
X138438593Y-107058509D01*
X138493108Y-107030734D01*
X138553540Y-107040305D01*
X138596805Y-107083570D01*
X138604221Y-107102890D01*
X138610202Y-107125210D01*
X138669507Y-107227929D01*
X138669511Y-107227934D01*
X138908895Y-107467319D01*
X138936672Y-107521835D01*
X138929696Y-107576762D01*
X138898949Y-107647549D01*
X138898949Y-107647550D01*
X138879280Y-107790659D01*
X138879280Y-107790660D01*
X138898949Y-107933769D01*
X138898949Y-107933770D01*
X138956502Y-108066270D01*
X139009035Y-108133142D01*
X139009039Y-108133146D01*
X139009043Y-108133151D01*
X139500505Y-108624613D01*
X139528281Y-108679128D01*
X139529500Y-108694615D01*
X139529500Y-108958455D01*
X139510593Y-109016646D01*
X139500507Y-109028455D01*
X139495176Y-109033785D01*
X139495174Y-109033788D01*
X139440134Y-109146373D01*
X139440134Y-109146375D01*
X139429500Y-109219364D01*
X139429500Y-110240636D01*
X139440134Y-110313625D01*
X139495174Y-110426211D01*
X139583789Y-110514826D01*
X139696375Y-110569866D01*
X139769364Y-110580500D01*
X139769367Y-110580500D01*
X140190632Y-110580500D01*
X140190636Y-110580500D01*
X140263625Y-110569866D01*
X140376211Y-110514826D01*
X140464826Y-110426211D01*
X140519866Y-110313625D01*
X140530500Y-110240636D01*
X140530500Y-109880001D01*
X141330000Y-109880001D01*
X141330000Y-110240584D01*
X141340620Y-110313480D01*
X141395586Y-110425915D01*
X141484084Y-110514413D01*
X141596519Y-110569379D01*
X141669415Y-110580000D01*
X141729999Y-110580000D01*
X141730000Y-110579999D01*
X141730000Y-109880001D01*
X142030000Y-109880001D01*
X142030000Y-110579999D01*
X142030001Y-110580000D01*
X142090584Y-110580000D01*
X142163480Y-110569379D01*
X142275915Y-110514413D01*
X142364413Y-110425915D01*
X142419379Y-110313480D01*
X142430000Y-110240584D01*
X142430000Y-109880001D01*
X142429999Y-109880000D01*
X142030001Y-109880000D01*
X142030000Y-109880001D01*
X141730000Y-109880001D01*
X141729999Y-109880000D01*
X141330001Y-109880000D01*
X141330000Y-109880001D01*
X140530500Y-109880001D01*
X140530500Y-109219415D01*
X141330000Y-109219415D01*
X141330000Y-109579999D01*
X141330001Y-109580000D01*
X141729999Y-109580000D01*
X141730000Y-109579999D01*
X141730000Y-108880001D01*
X142030000Y-108880001D01*
X142030000Y-109579999D01*
X142030001Y-109580000D01*
X142429999Y-109580000D01*
X142430000Y-109579999D01*
X142430000Y-109219415D01*
X142419379Y-109146519D01*
X142364413Y-109034084D01*
X142275915Y-108945586D01*
X142163480Y-108890620D01*
X142090585Y-108880000D01*
X142030001Y-108880000D01*
X142030000Y-108880001D01*
X141730000Y-108880001D01*
X141729999Y-108880000D01*
X141669415Y-108880000D01*
X141596519Y-108890620D01*
X141484084Y-108945586D01*
X141395586Y-109034084D01*
X141340620Y-109146519D01*
X141330000Y-109219415D01*
X140530500Y-109219415D01*
X140530500Y-109219364D01*
X140519866Y-109146375D01*
X140464826Y-109033789D01*
X140464825Y-109033788D01*
X140464823Y-109033785D01*
X140459493Y-109028455D01*
X140431718Y-108973938D01*
X140430500Y-108958455D01*
X140430500Y-108473295D01*
X140449407Y-108415104D01*
X140459490Y-108403297D01*
X140729637Y-108133151D01*
X140782179Y-108066268D01*
X140839730Y-107933771D01*
X140859400Y-107790660D01*
X140839730Y-107647549D01*
X140782179Y-107515052D01*
X140782177Y-107515049D01*
X140729644Y-107448177D01*
X140729640Y-107448173D01*
X140729637Y-107448169D01*
X140211831Y-106930363D01*
X140211826Y-106930359D01*
X140211822Y-106930355D01*
X140144950Y-106877822D01*
X140012449Y-106820269D01*
X139869340Y-106800600D01*
X139726230Y-106820269D01*
X139726229Y-106820269D01*
X139655442Y-106851016D01*
X139594536Y-106856856D01*
X139545998Y-106830215D01*
X139509496Y-106793713D01*
X139481719Y-106739196D01*
X139480500Y-106723709D01*
X139480500Y-106490835D01*
X139499407Y-106432644D01*
X139548907Y-106396680D01*
X139610093Y-106396680D01*
X139621143Y-106401601D01*
X139621163Y-106401553D01*
X139749079Y-106454537D01*
X139773238Y-106464544D01*
X139883316Y-106479036D01*
X139929999Y-106485182D01*
X139930000Y-106485182D01*
X139930001Y-106485182D01*
X139976676Y-106479037D01*
X140086762Y-106464544D01*
X140232841Y-106404036D01*
X140358282Y-106307782D01*
X140454536Y-106182341D01*
X140515044Y-106036262D01*
X140535682Y-105879500D01*
X140515044Y-105722738D01*
X140492925Y-105669339D01*
X141000600Y-105669339D01*
X141000600Y-105669340D01*
X141020269Y-105812449D01*
X141020269Y-105812450D01*
X141077822Y-105944950D01*
X141130355Y-106011822D01*
X141130359Y-106011826D01*
X141130363Y-106011831D01*
X141648169Y-106529637D01*
X141648173Y-106529640D01*
X141648177Y-106529644D01*
X141715049Y-106582177D01*
X141715052Y-106582179D01*
X141847549Y-106639730D01*
X141990660Y-106659400D01*
X142133771Y-106639730D01*
X142266268Y-106582179D01*
X142333151Y-106529637D01*
X142850957Y-106011831D01*
X142903499Y-105944948D01*
X142909992Y-105929999D01*
X145324318Y-105929999D01*
X145324318Y-105930000D01*
X145344955Y-106086758D01*
X145344957Y-106086766D01*
X145405462Y-106232838D01*
X145405462Y-106232839D01*
X145468540Y-106315044D01*
X145501718Y-106358282D01*
X145627159Y-106454536D01*
X145627160Y-106454536D01*
X145627161Y-106454537D01*
X145701145Y-106485182D01*
X145773238Y-106515044D01*
X145884137Y-106529644D01*
X145929999Y-106535682D01*
X145930000Y-106535682D01*
X145930001Y-106535682D01*
X145975863Y-106529644D01*
X146086762Y-106515044D01*
X146232841Y-106454536D01*
X146358282Y-106358282D01*
X146454536Y-106232841D01*
X146515044Y-106086762D01*
X146535682Y-105930000D01*
X146515044Y-105773238D01*
X146497134Y-105729999D01*
X146454537Y-105627161D01*
X146454537Y-105627160D01*
X146358286Y-105501723D01*
X146358285Y-105501722D01*
X146358282Y-105501718D01*
X146344231Y-105490936D01*
X146309576Y-105440511D01*
X146305500Y-105412395D01*
X146305500Y-104861193D01*
X146324407Y-104803002D01*
X146361021Y-104772252D01*
X146363305Y-104771134D01*
X146376211Y-104764826D01*
X146385349Y-104755687D01*
X146439863Y-104727909D01*
X146500295Y-104737479D01*
X146525357Y-104755686D01*
X146534084Y-104764413D01*
X146646519Y-104819379D01*
X146719415Y-104830000D01*
X146779999Y-104830000D01*
X146780000Y-104829999D01*
X146780000Y-103030001D01*
X146779999Y-103030000D01*
X146719415Y-103030000D01*
X146646519Y-103040620D01*
X146534084Y-103095586D01*
X146534080Y-103095589D01*
X146525354Y-103104315D01*
X146470837Y-103132091D01*
X146410405Y-103122517D01*
X146385352Y-103104315D01*
X146376211Y-103095174D01*
X146263625Y-103040134D01*
X146263626Y-103040134D01*
X146245377Y-103037475D01*
X146190636Y-103029500D01*
X145769364Y-103029500D01*
X145725570Y-103035880D01*
X145696373Y-103040134D01*
X145583790Y-103095173D01*
X145495173Y-103183790D01*
X145440134Y-103296373D01*
X145440134Y-103296375D01*
X145429500Y-103369364D01*
X145429500Y-104490636D01*
X145432837Y-104513537D01*
X145440134Y-104563626D01*
X145442553Y-104568574D01*
X145495174Y-104676211D01*
X145583789Y-104764826D01*
X145583790Y-104764826D01*
X145583791Y-104764827D01*
X145598979Y-104772252D01*
X145642954Y-104814794D01*
X145654500Y-104861193D01*
X145654500Y-105335662D01*
X145635593Y-105393853D01*
X145615768Y-105414204D01*
X145501720Y-105501716D01*
X145501713Y-105501723D01*
X145405462Y-105627160D01*
X145405462Y-105627161D01*
X145344957Y-105773233D01*
X145344955Y-105773241D01*
X145324318Y-105929999D01*
X142909992Y-105929999D01*
X142961050Y-105812451D01*
X142980720Y-105669340D01*
X142961050Y-105526229D01*
X142903499Y-105393732D01*
X142879500Y-105363182D01*
X142850964Y-105326857D01*
X142850959Y-105326852D01*
X142850957Y-105326849D01*
X142359494Y-104835386D01*
X142331719Y-104780872D01*
X142330500Y-104765385D01*
X142330500Y-104751544D01*
X142349407Y-104693353D01*
X142359490Y-104681546D01*
X142364826Y-104676211D01*
X142419866Y-104563625D01*
X142430500Y-104490636D01*
X142430500Y-103369364D01*
X142419866Y-103296375D01*
X142364826Y-103183789D01*
X142276211Y-103095174D01*
X142163625Y-103040134D01*
X142163626Y-103040134D01*
X142145377Y-103037475D01*
X142090636Y-103029500D01*
X141669364Y-103029500D01*
X141625570Y-103035880D01*
X141596373Y-103040134D01*
X141483785Y-103095176D01*
X141474647Y-103104314D01*
X141420130Y-103132090D01*
X141359698Y-103122516D01*
X141334645Y-103104314D01*
X141325919Y-103095589D01*
X141325915Y-103095586D01*
X141213480Y-103040620D01*
X141140585Y-103030000D01*
X141080001Y-103030000D01*
X141080000Y-103030001D01*
X141080000Y-104829999D01*
X141080001Y-104830000D01*
X141140584Y-104830000D01*
X141213479Y-104819379D01*
X141287019Y-104783428D01*
X141347601Y-104774857D01*
X141401651Y-104803532D01*
X141428524Y-104858500D01*
X141429500Y-104872369D01*
X141429500Y-104986704D01*
X141410593Y-105044895D01*
X141400504Y-105056707D01*
X141130359Y-105326852D01*
X141077822Y-105393729D01*
X141020269Y-105526229D01*
X141020269Y-105526230D01*
X141000600Y-105669339D01*
X140492925Y-105669339D01*
X140485603Y-105651661D01*
X140454537Y-105576661D01*
X140454537Y-105576660D01*
X140358281Y-105451217D01*
X140294232Y-105402070D01*
X140259577Y-105351645D01*
X140255500Y-105323528D01*
X140255500Y-105177224D01*
X140268765Y-105127722D01*
X140275148Y-105116667D01*
X140283318Y-105102517D01*
X140305501Y-105019731D01*
X140305501Y-104934025D01*
X140305501Y-104927963D01*
X140305500Y-104927945D01*
X140305500Y-104861193D01*
X140324407Y-104803002D01*
X140361021Y-104772252D01*
X140363305Y-104771134D01*
X140376211Y-104764826D01*
X140385349Y-104755687D01*
X140439863Y-104727909D01*
X140500295Y-104737479D01*
X140525357Y-104755686D01*
X140534084Y-104764413D01*
X140646519Y-104819379D01*
X140719415Y-104830000D01*
X140779999Y-104830000D01*
X140780000Y-104829999D01*
X140780000Y-103030001D01*
X140779999Y-103030000D01*
X140719415Y-103030000D01*
X140646519Y-103040620D01*
X140534084Y-103095586D01*
X140534080Y-103095589D01*
X140525354Y-103104315D01*
X140470837Y-103132091D01*
X140410405Y-103122517D01*
X140385352Y-103104315D01*
X140376211Y-103095174D01*
X140263625Y-103040134D01*
X140263626Y-103040134D01*
X140245377Y-103037475D01*
X140190636Y-103029500D01*
X139769364Y-103029500D01*
X139725570Y-103035880D01*
X139696373Y-103040134D01*
X139583790Y-103095173D01*
X139583789Y-103095173D01*
X139583789Y-103095174D01*
X139549501Y-103129461D01*
X139494987Y-103157237D01*
X139434555Y-103147666D01*
X139391290Y-103104401D01*
X139380500Y-103059456D01*
X139380500Y-102400544D01*
X139399407Y-102342353D01*
X139448907Y-102306389D01*
X139510093Y-102306389D01*
X139549501Y-102330538D01*
X139583789Y-102364826D01*
X139696375Y-102419866D01*
X139769364Y-102430500D01*
X139769367Y-102430500D01*
X140190632Y-102430500D01*
X140190636Y-102430500D01*
X140263625Y-102419866D01*
X140376211Y-102364826D01*
X140464826Y-102276211D01*
X140519866Y-102163625D01*
X140522624Y-102144698D01*
X140549719Y-102089844D01*
X140603886Y-102061390D01*
X140658473Y-102067506D01*
X140773238Y-102115044D01*
X140890809Y-102130522D01*
X140929999Y-102135682D01*
X140930000Y-102135682D01*
X140930001Y-102135682D01*
X140961352Y-102131554D01*
X141086762Y-102115044D01*
X141201526Y-102067506D01*
X141262522Y-102062706D01*
X141314691Y-102094675D01*
X141337376Y-102144696D01*
X141340134Y-102163625D01*
X141395174Y-102276211D01*
X141483789Y-102364826D01*
X141596375Y-102419866D01*
X141669364Y-102430500D01*
X141669367Y-102430500D01*
X142090632Y-102430500D01*
X142090636Y-102430500D01*
X142163625Y-102419866D01*
X142276211Y-102364826D01*
X142364826Y-102276211D01*
X142419866Y-102163625D01*
X142430500Y-102090636D01*
X142430500Y-100969364D01*
X142419866Y-100896375D01*
X142364826Y-100783789D01*
X142364825Y-100783788D01*
X142364823Y-100783785D01*
X142359493Y-100778455D01*
X142331718Y-100723938D01*
X142330500Y-100708455D01*
X142330500Y-100329500D01*
X142349407Y-100271309D01*
X142398907Y-100235345D01*
X142429500Y-100230500D01*
X142440632Y-100230500D01*
X142440636Y-100230500D01*
X142513625Y-100219866D01*
X142626211Y-100164826D01*
X142714826Y-100076211D01*
X142769866Y-99963625D01*
X142780500Y-99890636D01*
X142780500Y-99469364D01*
X142769866Y-99396375D01*
X142731602Y-99318104D01*
X142723030Y-99257522D01*
X142751705Y-99203472D01*
X142794916Y-99178997D01*
X142879669Y-99156287D01*
X142879672Y-99156287D01*
X142892903Y-99152741D01*
X142903887Y-99149799D01*
X143006614Y-99090489D01*
X143710498Y-98386604D01*
X143765013Y-98358829D01*
X143825445Y-98368400D01*
X143868710Y-98411665D01*
X143879500Y-98456610D01*
X143879500Y-98589308D01*
X143901305Y-98670689D01*
X143910201Y-98703888D01*
X143910202Y-98703890D01*
X143969507Y-98806609D01*
X143969509Y-98806611D01*
X143969511Y-98806614D01*
X145053387Y-99890490D01*
X145053633Y-99890632D01*
X145139665Y-99940303D01*
X145139666Y-99940303D01*
X145139668Y-99940304D01*
X145156114Y-99949799D01*
X145270691Y-99980500D01*
X145304168Y-99980500D01*
X145362359Y-99999407D01*
X145392376Y-100034553D01*
X145401950Y-100053342D01*
X145491658Y-100143050D01*
X145600447Y-100198481D01*
X145643710Y-100241744D01*
X145654500Y-100286689D01*
X145654500Y-100598806D01*
X145635593Y-100656997D01*
X145598981Y-100687747D01*
X145583790Y-100695173D01*
X145495173Y-100783790D01*
X145440134Y-100896373D01*
X145440134Y-100896374D01*
X145440134Y-100896375D01*
X145429500Y-100969364D01*
X145429500Y-102090636D01*
X145440134Y-102163625D01*
X145495174Y-102276211D01*
X145583789Y-102364826D01*
X145696375Y-102419866D01*
X145769364Y-102430500D01*
X145769367Y-102430500D01*
X146190632Y-102430500D01*
X146190636Y-102430500D01*
X146263625Y-102419866D01*
X146376211Y-102364826D01*
X146464826Y-102276211D01*
X146519866Y-102163625D01*
X146522624Y-102144698D01*
X146549719Y-102089844D01*
X146603886Y-102061390D01*
X146658473Y-102067506D01*
X146773238Y-102115044D01*
X146890809Y-102130522D01*
X146929999Y-102135682D01*
X146930000Y-102135682D01*
X146930001Y-102135682D01*
X146961352Y-102131554D01*
X147086762Y-102115044D01*
X147201526Y-102067506D01*
X147262522Y-102062706D01*
X147314691Y-102094675D01*
X147337376Y-102144696D01*
X147340134Y-102163625D01*
X147395174Y-102276211D01*
X147483789Y-102364826D01*
X147596375Y-102419866D01*
X147669364Y-102430500D01*
X147669367Y-102430500D01*
X148090632Y-102430500D01*
X148090636Y-102430500D01*
X148163625Y-102419866D01*
X148276211Y-102364826D01*
X148310498Y-102330538D01*
X148365013Y-102302763D01*
X148425445Y-102312334D01*
X148468710Y-102355599D01*
X148479500Y-102400544D01*
X148479500Y-103059456D01*
X148460593Y-103117647D01*
X148411093Y-103153611D01*
X148349907Y-103153611D01*
X148310498Y-103129461D01*
X148276211Y-103095174D01*
X148163625Y-103040134D01*
X148163626Y-103040134D01*
X148145377Y-103037475D01*
X148090636Y-103029500D01*
X147669364Y-103029500D01*
X147625570Y-103035880D01*
X147596373Y-103040134D01*
X147483785Y-103095176D01*
X147474647Y-103104314D01*
X147420130Y-103132090D01*
X147359698Y-103122516D01*
X147334645Y-103104314D01*
X147325919Y-103095589D01*
X147325915Y-103095586D01*
X147213480Y-103040620D01*
X147140585Y-103030000D01*
X147080001Y-103030000D01*
X147080000Y-103030001D01*
X147080000Y-104829999D01*
X147080001Y-104830000D01*
X147140584Y-104830000D01*
X147213479Y-104819379D01*
X147287019Y-104783428D01*
X147347601Y-104774857D01*
X147401651Y-104803532D01*
X147428524Y-104858500D01*
X147429500Y-104872369D01*
X147429500Y-104986704D01*
X147410593Y-105044895D01*
X147400504Y-105056707D01*
X147130359Y-105326852D01*
X147077822Y-105393729D01*
X147020269Y-105526229D01*
X147020269Y-105526230D01*
X147000600Y-105669339D01*
X147000600Y-105669340D01*
X147020269Y-105812449D01*
X147020269Y-105812450D01*
X147077822Y-105944950D01*
X147130355Y-106011822D01*
X147130359Y-106011826D01*
X147130363Y-106011831D01*
X147648169Y-106529637D01*
X147648173Y-106529640D01*
X147648177Y-106529644D01*
X147715049Y-106582177D01*
X147715052Y-106582179D01*
X147847549Y-106639730D01*
X147990660Y-106659400D01*
X148133771Y-106639730D01*
X148266268Y-106582179D01*
X148333151Y-106529637D01*
X148710498Y-106152289D01*
X148765013Y-106124514D01*
X148825445Y-106134085D01*
X148868710Y-106177350D01*
X148879500Y-106222295D01*
X148879500Y-106902389D01*
X148860593Y-106960580D01*
X148850504Y-106972393D01*
X148511733Y-107311164D01*
X148457216Y-107338941D01*
X148441729Y-107340160D01*
X146662636Y-107340160D01*
X146604445Y-107321253D01*
X146592633Y-107311164D01*
X146211827Y-106930359D01*
X146144950Y-106877822D01*
X146012449Y-106820269D01*
X145869340Y-106800600D01*
X145726230Y-106820269D01*
X145726229Y-106820269D01*
X145593729Y-106877822D01*
X145526857Y-106930355D01*
X145009035Y-107448177D01*
X144956502Y-107515049D01*
X144898949Y-107647549D01*
X144898949Y-107647550D01*
X144879280Y-107790659D01*
X144879280Y-107790660D01*
X144898949Y-107933769D01*
X144898949Y-107933770D01*
X144956502Y-108066270D01*
X145009035Y-108133142D01*
X145009039Y-108133146D01*
X145009043Y-108133151D01*
X145500505Y-108624613D01*
X145528281Y-108679128D01*
X145529500Y-108694615D01*
X145529500Y-108958455D01*
X145510593Y-109016646D01*
X145500507Y-109028455D01*
X145495176Y-109033785D01*
X145495174Y-109033788D01*
X145440134Y-109146373D01*
X145440134Y-109146375D01*
X145429500Y-109219364D01*
X145429500Y-110240636D01*
X145440134Y-110313625D01*
X145495174Y-110426211D01*
X145583789Y-110514826D01*
X145696375Y-110569866D01*
X145769364Y-110580500D01*
X145769367Y-110580500D01*
X146190632Y-110580500D01*
X146190636Y-110580500D01*
X146263625Y-110569866D01*
X146376211Y-110514826D01*
X146464826Y-110426211D01*
X146519866Y-110313625D01*
X146530500Y-110240636D01*
X146530500Y-109880001D01*
X147330000Y-109880001D01*
X147330000Y-110240584D01*
X147340620Y-110313480D01*
X147395586Y-110425915D01*
X147484084Y-110514413D01*
X147596519Y-110569379D01*
X147669415Y-110580000D01*
X147729999Y-110580000D01*
X147730000Y-110579999D01*
X147730000Y-109880001D01*
X148030000Y-109880001D01*
X148030000Y-110579999D01*
X148030001Y-110580000D01*
X148090584Y-110580000D01*
X148163480Y-110569379D01*
X148275915Y-110514413D01*
X148364413Y-110425915D01*
X148419379Y-110313480D01*
X148430000Y-110240584D01*
X148430000Y-109880001D01*
X148429999Y-109880000D01*
X148030001Y-109880000D01*
X148030000Y-109880001D01*
X147730000Y-109880001D01*
X147729999Y-109880000D01*
X147330001Y-109880000D01*
X147330000Y-109880001D01*
X146530500Y-109880001D01*
X146530500Y-109219415D01*
X147330000Y-109219415D01*
X147330000Y-109579999D01*
X147330001Y-109580000D01*
X147729999Y-109580000D01*
X147730000Y-109579999D01*
X147730000Y-108880001D01*
X148030000Y-108880001D01*
X148030000Y-109579999D01*
X148030001Y-109580000D01*
X148429999Y-109580000D01*
X148430000Y-109579999D01*
X148430000Y-109219415D01*
X148419379Y-109146519D01*
X148364413Y-109034084D01*
X148275915Y-108945586D01*
X148163480Y-108890620D01*
X148090585Y-108880000D01*
X148030001Y-108880000D01*
X148030000Y-108880001D01*
X147730000Y-108880001D01*
X147729999Y-108880000D01*
X147669415Y-108880000D01*
X147596519Y-108890620D01*
X147484084Y-108945586D01*
X147395586Y-109034084D01*
X147340620Y-109146519D01*
X147330000Y-109219415D01*
X146530500Y-109219415D01*
X146530500Y-109219364D01*
X146519866Y-109146375D01*
X146464826Y-109033789D01*
X146464825Y-109033788D01*
X146464823Y-109033785D01*
X146459493Y-109028455D01*
X146431718Y-108973938D01*
X146430500Y-108958455D01*
X146430500Y-108473296D01*
X146449407Y-108415105D01*
X146459496Y-108403292D01*
X146592632Y-108270156D01*
X146647149Y-108242379D01*
X146662636Y-108241160D01*
X148728649Y-108241160D01*
X148819009Y-108216947D01*
X148819012Y-108216947D01*
X148832243Y-108213401D01*
X148843227Y-108210459D01*
X148945954Y-108151149D01*
X149690489Y-107406614D01*
X149690490Y-107406611D01*
X149695077Y-107402025D01*
X149696022Y-107402970D01*
X149740642Y-107372291D01*
X149801806Y-107373881D01*
X149838782Y-107397205D01*
X149908895Y-107467318D01*
X149936672Y-107521835D01*
X149929696Y-107576762D01*
X149898949Y-107647549D01*
X149898949Y-107647550D01*
X149879280Y-107790659D01*
X149879280Y-107790660D01*
X149898949Y-107933769D01*
X149898949Y-107933770D01*
X149956502Y-108066270D01*
X150009035Y-108133142D01*
X150009039Y-108133146D01*
X150009043Y-108133151D01*
X150500505Y-108624613D01*
X150528281Y-108679128D01*
X150529500Y-108694615D01*
X150529500Y-108958455D01*
X150510593Y-109016646D01*
X150500507Y-109028455D01*
X150495176Y-109033785D01*
X150495174Y-109033788D01*
X150440134Y-109146373D01*
X150440134Y-109146375D01*
X150429500Y-109219364D01*
X150429500Y-110240636D01*
X150440134Y-110313625D01*
X150495174Y-110426211D01*
X150583789Y-110514826D01*
X150696375Y-110569866D01*
X150769364Y-110580500D01*
X150769367Y-110580500D01*
X151190632Y-110580500D01*
X151190636Y-110580500D01*
X151263625Y-110569866D01*
X151376211Y-110514826D01*
X151464826Y-110426211D01*
X151519866Y-110313625D01*
X151530500Y-110240636D01*
X151530500Y-109880001D01*
X152330000Y-109880001D01*
X152330000Y-110240584D01*
X152340620Y-110313480D01*
X152395586Y-110425915D01*
X152484084Y-110514413D01*
X152596519Y-110569379D01*
X152669415Y-110580000D01*
X152729999Y-110580000D01*
X152730000Y-110579999D01*
X152730000Y-109880001D01*
X153030000Y-109880001D01*
X153030000Y-110579999D01*
X153030001Y-110580000D01*
X153090584Y-110580000D01*
X153163480Y-110569379D01*
X153275915Y-110514413D01*
X153364413Y-110425915D01*
X153419379Y-110313480D01*
X153430000Y-110240584D01*
X153430000Y-109880001D01*
X153429999Y-109880000D01*
X153030001Y-109880000D01*
X153030000Y-109880001D01*
X152730000Y-109880001D01*
X152729999Y-109880000D01*
X152330001Y-109880000D01*
X152330000Y-109880001D01*
X151530500Y-109880001D01*
X151530500Y-109219415D01*
X152330000Y-109219415D01*
X152330000Y-109579999D01*
X152330001Y-109580000D01*
X152729999Y-109580000D01*
X152730000Y-109579999D01*
X152730000Y-108880001D01*
X153030000Y-108880001D01*
X153030000Y-109579999D01*
X153030001Y-109580000D01*
X153429999Y-109580000D01*
X153430000Y-109579999D01*
X153430000Y-109219415D01*
X153419379Y-109146519D01*
X153364413Y-109034084D01*
X153275915Y-108945586D01*
X153163480Y-108890620D01*
X153090585Y-108880000D01*
X153030001Y-108880000D01*
X153030000Y-108880001D01*
X152730000Y-108880001D01*
X152729999Y-108880000D01*
X152669415Y-108880000D01*
X152596519Y-108890620D01*
X152484084Y-108945586D01*
X152395586Y-109034084D01*
X152340620Y-109146519D01*
X152330000Y-109219415D01*
X151530500Y-109219415D01*
X151530500Y-109219364D01*
X151519866Y-109146375D01*
X151464826Y-109033789D01*
X151464825Y-109033788D01*
X151464823Y-109033785D01*
X151459493Y-109028455D01*
X151431718Y-108973938D01*
X151430500Y-108958455D01*
X151430500Y-108473295D01*
X151449407Y-108415104D01*
X151459490Y-108403297D01*
X151729637Y-108133151D01*
X151782179Y-108066268D01*
X151839730Y-107933771D01*
X151859400Y-107790660D01*
X151839730Y-107647549D01*
X151782179Y-107515052D01*
X151782177Y-107515049D01*
X151729644Y-107448177D01*
X151729640Y-107448173D01*
X151729637Y-107448169D01*
X151211831Y-106930363D01*
X151211826Y-106930359D01*
X151211822Y-106930355D01*
X151144950Y-106877822D01*
X151012449Y-106820269D01*
X150869340Y-106800600D01*
X150726230Y-106820269D01*
X150726229Y-106820269D01*
X150655442Y-106851016D01*
X150594536Y-106856856D01*
X150545998Y-106830215D01*
X150509496Y-106793713D01*
X150481719Y-106739196D01*
X150480500Y-106723709D01*
X150480500Y-106341335D01*
X150499407Y-106283144D01*
X150548907Y-106247180D01*
X150610093Y-106247180D01*
X150621143Y-106252101D01*
X150621163Y-106252053D01*
X150773233Y-106315042D01*
X150773238Y-106315044D01*
X150890809Y-106330522D01*
X150929999Y-106335682D01*
X150930000Y-106335682D01*
X150930001Y-106335682D01*
X150961352Y-106331554D01*
X151086762Y-106315044D01*
X151232841Y-106254536D01*
X151358282Y-106158282D01*
X151454536Y-106032841D01*
X151515044Y-105886762D01*
X151535682Y-105730000D01*
X151527696Y-105669339D01*
X152000600Y-105669339D01*
X152000600Y-105669340D01*
X152020269Y-105812449D01*
X152020269Y-105812450D01*
X152077822Y-105944950D01*
X152130355Y-106011822D01*
X152130359Y-106011826D01*
X152130363Y-106011831D01*
X152648169Y-106529637D01*
X152648173Y-106529640D01*
X152648177Y-106529644D01*
X152715049Y-106582177D01*
X152715052Y-106582179D01*
X152847549Y-106639730D01*
X152990660Y-106659400D01*
X153133771Y-106639730D01*
X153266268Y-106582179D01*
X153333151Y-106529637D01*
X153850957Y-106011831D01*
X153903499Y-105944948D01*
X153961050Y-105812451D01*
X153980720Y-105669340D01*
X153961050Y-105526229D01*
X153903499Y-105393732D01*
X153879500Y-105363182D01*
X153850964Y-105326857D01*
X153850959Y-105326852D01*
X153850957Y-105326849D01*
X153359494Y-104835386D01*
X153331719Y-104780872D01*
X153330500Y-104765385D01*
X153330500Y-104751544D01*
X153349407Y-104693353D01*
X153359490Y-104681546D01*
X153364826Y-104676211D01*
X153419866Y-104563625D01*
X153430500Y-104490636D01*
X153430500Y-103619996D01*
X154392843Y-103619996D01*
X154392843Y-103620003D01*
X154411425Y-103808678D01*
X154411426Y-103808683D01*
X154466463Y-103990115D01*
X154466465Y-103990120D01*
X154534797Y-104117959D01*
X154555838Y-104157324D01*
X154676117Y-104303883D01*
X154822676Y-104424162D01*
X154989885Y-104513537D01*
X155088322Y-104543397D01*
X155171316Y-104568573D01*
X155171321Y-104568574D01*
X155359997Y-104587157D01*
X155360000Y-104587157D01*
X155360003Y-104587157D01*
X155548678Y-104568574D01*
X155548683Y-104568573D01*
X155564991Y-104563626D01*
X155730115Y-104513537D01*
X155897324Y-104424162D01*
X156043883Y-104303883D01*
X156164162Y-104157324D01*
X156253537Y-103990115D01*
X156308573Y-103808683D01*
X156308574Y-103808678D01*
X156327157Y-103620003D01*
X156327157Y-103619996D01*
X156308574Y-103431321D01*
X156308573Y-103431316D01*
X156267639Y-103296375D01*
X156253537Y-103249885D01*
X156164162Y-103082676D01*
X156043883Y-102936117D01*
X155897324Y-102815838D01*
X155857959Y-102794797D01*
X155730120Y-102726465D01*
X155730115Y-102726463D01*
X155548683Y-102671426D01*
X155548678Y-102671425D01*
X155360003Y-102652843D01*
X155359997Y-102652843D01*
X155171321Y-102671425D01*
X155171316Y-102671426D01*
X154989884Y-102726463D01*
X154989879Y-102726465D01*
X154822681Y-102815835D01*
X154822671Y-102815841D01*
X154676121Y-102936113D01*
X154676113Y-102936121D01*
X154555841Y-103082671D01*
X154555835Y-103082681D01*
X154466465Y-103249879D01*
X154466463Y-103249884D01*
X154411426Y-103431316D01*
X154411425Y-103431321D01*
X154392843Y-103619996D01*
X153430500Y-103619996D01*
X153430500Y-103369364D01*
X153419866Y-103296375D01*
X153364826Y-103183789D01*
X153276211Y-103095174D01*
X153163625Y-103040134D01*
X153163626Y-103040134D01*
X153145377Y-103037475D01*
X153090636Y-103029500D01*
X152669364Y-103029500D01*
X152625570Y-103035880D01*
X152596373Y-103040134D01*
X152483785Y-103095176D01*
X152474647Y-103104314D01*
X152420130Y-103132090D01*
X152359698Y-103122516D01*
X152334645Y-103104314D01*
X152325919Y-103095589D01*
X152325915Y-103095586D01*
X152213480Y-103040620D01*
X152140585Y-103030000D01*
X152080001Y-103030000D01*
X152080000Y-103030001D01*
X152080000Y-104829999D01*
X152080001Y-104830000D01*
X152140584Y-104830000D01*
X152213479Y-104819379D01*
X152287019Y-104783428D01*
X152347601Y-104774857D01*
X152401651Y-104803532D01*
X152428524Y-104858500D01*
X152429500Y-104872369D01*
X152429500Y-104986704D01*
X152410593Y-105044895D01*
X152400504Y-105056707D01*
X152130359Y-105326852D01*
X152077822Y-105393729D01*
X152020269Y-105526229D01*
X152020269Y-105526230D01*
X152000600Y-105669339D01*
X151527696Y-105669339D01*
X151515044Y-105573238D01*
X151495567Y-105526217D01*
X151454537Y-105427161D01*
X151454537Y-105427160D01*
X151358286Y-105301723D01*
X151358285Y-105301722D01*
X151358282Y-105301718D01*
X151344231Y-105290936D01*
X151309576Y-105240511D01*
X151305500Y-105212395D01*
X151305500Y-104861193D01*
X151324407Y-104803002D01*
X151361021Y-104772252D01*
X151363305Y-104771134D01*
X151376211Y-104764826D01*
X151385349Y-104755687D01*
X151439863Y-104727909D01*
X151500295Y-104737479D01*
X151525357Y-104755686D01*
X151534084Y-104764413D01*
X151646519Y-104819379D01*
X151719415Y-104830000D01*
X151779999Y-104830000D01*
X151780000Y-104829999D01*
X151780000Y-103030001D01*
X151779999Y-103030000D01*
X151719415Y-103030000D01*
X151646519Y-103040620D01*
X151534084Y-103095586D01*
X151534080Y-103095589D01*
X151525354Y-103104315D01*
X151470837Y-103132091D01*
X151410405Y-103122517D01*
X151385352Y-103104315D01*
X151376211Y-103095174D01*
X151263625Y-103040134D01*
X151263626Y-103040134D01*
X151245377Y-103037475D01*
X151190636Y-103029500D01*
X150769364Y-103029500D01*
X150725570Y-103035880D01*
X150696373Y-103040134D01*
X150583790Y-103095173D01*
X150583789Y-103095173D01*
X150583789Y-103095174D01*
X150549501Y-103129461D01*
X150494987Y-103157237D01*
X150434555Y-103147666D01*
X150391290Y-103104401D01*
X150380500Y-103059456D01*
X150380500Y-102400544D01*
X150399407Y-102342353D01*
X150448907Y-102306389D01*
X150510093Y-102306389D01*
X150549501Y-102330538D01*
X150583789Y-102364826D01*
X150696375Y-102419866D01*
X150769364Y-102430500D01*
X150769367Y-102430500D01*
X151190632Y-102430500D01*
X151190636Y-102430500D01*
X151263625Y-102419866D01*
X151376211Y-102364826D01*
X151464826Y-102276211D01*
X151519866Y-102163625D01*
X151522624Y-102144698D01*
X151549719Y-102089844D01*
X151603886Y-102061390D01*
X151658473Y-102067506D01*
X151773238Y-102115044D01*
X151890809Y-102130522D01*
X151929999Y-102135682D01*
X151930000Y-102135682D01*
X151930001Y-102135682D01*
X151961352Y-102131554D01*
X152086762Y-102115044D01*
X152201526Y-102067506D01*
X152262522Y-102062706D01*
X152314691Y-102094675D01*
X152337376Y-102144696D01*
X152340134Y-102163625D01*
X152395174Y-102276211D01*
X152483789Y-102364826D01*
X152596375Y-102419866D01*
X152669364Y-102430500D01*
X152669367Y-102430500D01*
X153090632Y-102430500D01*
X153090636Y-102430500D01*
X153163625Y-102419866D01*
X153276211Y-102364826D01*
X153364826Y-102276211D01*
X153419866Y-102163625D01*
X153430500Y-102090636D01*
X153430500Y-101079996D01*
X154392843Y-101079996D01*
X154392843Y-101080003D01*
X154411425Y-101268678D01*
X154411426Y-101268683D01*
X154466463Y-101450115D01*
X154466465Y-101450120D01*
X154472281Y-101461000D01*
X154555838Y-101617324D01*
X154676117Y-101763883D01*
X154822676Y-101884162D01*
X154989885Y-101973537D01*
X155116280Y-102011877D01*
X155171316Y-102028573D01*
X155171321Y-102028574D01*
X155359997Y-102047157D01*
X155360000Y-102047157D01*
X155360003Y-102047157D01*
X155548678Y-102028574D01*
X155548683Y-102028573D01*
X155550305Y-102028081D01*
X155730115Y-101973537D01*
X155897324Y-101884162D01*
X156043883Y-101763883D01*
X156164162Y-101617324D01*
X156253537Y-101450115D01*
X156308573Y-101268683D01*
X156308574Y-101268678D01*
X156327157Y-101080003D01*
X156327157Y-101079996D01*
X156308574Y-100891321D01*
X156308573Y-100891316D01*
X156290835Y-100832841D01*
X156253537Y-100709885D01*
X156164162Y-100542676D01*
X156043883Y-100396117D01*
X155897832Y-100276255D01*
X155897328Y-100275841D01*
X155897326Y-100275840D01*
X155897324Y-100275838D01*
X155833539Y-100241744D01*
X155730120Y-100186465D01*
X155730115Y-100186463D01*
X155548683Y-100131426D01*
X155548678Y-100131425D01*
X155360003Y-100112843D01*
X155359997Y-100112843D01*
X155171321Y-100131425D01*
X155171316Y-100131426D01*
X154989884Y-100186463D01*
X154989879Y-100186465D01*
X154822681Y-100275835D01*
X154822671Y-100275841D01*
X154676121Y-100396113D01*
X154676113Y-100396121D01*
X154555841Y-100542671D01*
X154555835Y-100542681D01*
X154466465Y-100709879D01*
X154466463Y-100709884D01*
X154411426Y-100891316D01*
X154411425Y-100891321D01*
X154392843Y-101079996D01*
X153430500Y-101079996D01*
X153430500Y-100969364D01*
X153419866Y-100896375D01*
X153364826Y-100783789D01*
X153364825Y-100783788D01*
X153364823Y-100783785D01*
X153359493Y-100778455D01*
X153331718Y-100723938D01*
X153330500Y-100708455D01*
X153330500Y-100329500D01*
X153349407Y-100271309D01*
X153398907Y-100235345D01*
X153429500Y-100230500D01*
X153440632Y-100230500D01*
X153440636Y-100230500D01*
X153513625Y-100219866D01*
X153626211Y-100164826D01*
X153714826Y-100076211D01*
X153769866Y-99963625D01*
X153780500Y-99890636D01*
X153780500Y-99469364D01*
X153769866Y-99396375D01*
X153714826Y-99283789D01*
X153626211Y-99195174D01*
X153513625Y-99140134D01*
X153513626Y-99140134D01*
X153495377Y-99137475D01*
X153440636Y-99129500D01*
X152419364Y-99129500D01*
X152375570Y-99135880D01*
X152346373Y-99140134D01*
X152233790Y-99195173D01*
X152145173Y-99283790D01*
X152090134Y-99396373D01*
X152090134Y-99396375D01*
X152079500Y-99469364D01*
X152079500Y-99890636D01*
X152083153Y-99915708D01*
X152090134Y-99963626D01*
X152110587Y-100005462D01*
X152145174Y-100076211D01*
X152233789Y-100164826D01*
X152346375Y-100219866D01*
X152346379Y-100219866D01*
X152353717Y-100222134D01*
X152353203Y-100223796D01*
X152399629Y-100246731D01*
X152428081Y-100300899D01*
X152429500Y-100317598D01*
X152429500Y-100708455D01*
X152410593Y-100766646D01*
X152400507Y-100778455D01*
X152395176Y-100783785D01*
X152395174Y-100783788D01*
X152340134Y-100896373D01*
X152340134Y-100896374D01*
X152340134Y-100896375D01*
X152337376Y-100915303D01*
X152310277Y-100970158D01*
X152256109Y-100998610D01*
X152201526Y-100992492D01*
X152086767Y-100944957D01*
X152086758Y-100944955D01*
X151930001Y-100924318D01*
X151929999Y-100924318D01*
X151773241Y-100944955D01*
X151773232Y-100944957D01*
X151658473Y-100992492D01*
X151597476Y-100997292D01*
X151545307Y-100965323D01*
X151522623Y-100915301D01*
X151519866Y-100896375D01*
X151464826Y-100783789D01*
X151376211Y-100695174D01*
X151361018Y-100687746D01*
X151317045Y-100645203D01*
X151305500Y-100598806D01*
X151305500Y-100235737D01*
X151324407Y-100177546D01*
X151359556Y-100147527D01*
X151368338Y-100143052D01*
X151368337Y-100143052D01*
X151368342Y-100143050D01*
X151458050Y-100053342D01*
X151515646Y-99940304D01*
X151530500Y-99846519D01*
X151530499Y-99213482D01*
X151520414Y-99149800D01*
X151515647Y-99119700D01*
X151515646Y-99119698D01*
X151515646Y-99119696D01*
X151458050Y-99006658D01*
X151368342Y-98916950D01*
X151255304Y-98859354D01*
X151255305Y-98859354D01*
X151161522Y-98844500D01*
X150698479Y-98844500D01*
X150698476Y-98844501D01*
X150604700Y-98859352D01*
X150604695Y-98859354D01*
X150491659Y-98916949D01*
X150491658Y-98916949D01*
X150491658Y-98916950D01*
X150401950Y-99006658D01*
X150401949Y-99006659D01*
X150396441Y-99012168D01*
X150394979Y-99010706D01*
X150354011Y-99040468D01*
X150292826Y-99040465D01*
X150253419Y-99016316D01*
X150009496Y-98772393D01*
X149981719Y-98717876D01*
X149980500Y-98702389D01*
X149980500Y-98080001D01*
X150330001Y-98080001D01*
X150330001Y-98246485D01*
X150344833Y-98340141D01*
X150344836Y-98340151D01*
X150402358Y-98453043D01*
X150491956Y-98542641D01*
X150604848Y-98600163D01*
X150604852Y-98600164D01*
X150698515Y-98614999D01*
X150779999Y-98614998D01*
X150780000Y-98614998D01*
X150780000Y-98080001D01*
X151080000Y-98080001D01*
X151080000Y-98614998D01*
X151080001Y-98614999D01*
X151161483Y-98614999D01*
X151161485Y-98614998D01*
X151255141Y-98600166D01*
X151255151Y-98600163D01*
X151368043Y-98542641D01*
X151370688Y-98539996D01*
X154392843Y-98539996D01*
X154392843Y-98540003D01*
X154411425Y-98728678D01*
X154411426Y-98728683D01*
X154466463Y-98910115D01*
X154466465Y-98910120D01*
X154534797Y-99037959D01*
X154555838Y-99077324D01*
X154676117Y-99223883D01*
X154822676Y-99344162D01*
X154989885Y-99433537D01*
X155116280Y-99471877D01*
X155171316Y-99488573D01*
X155171321Y-99488574D01*
X155359997Y-99507157D01*
X155360000Y-99507157D01*
X155360003Y-99507157D01*
X155548678Y-99488574D01*
X155548683Y-99488573D01*
X155730115Y-99433537D01*
X155897324Y-99344162D01*
X156043883Y-99223883D01*
X156164162Y-99077324D01*
X156253537Y-98910115D01*
X156308573Y-98728683D01*
X156308574Y-98728678D01*
X156327157Y-98540003D01*
X156327157Y-98539996D01*
X156308574Y-98351321D01*
X156308573Y-98351316D01*
X156276773Y-98246485D01*
X156253537Y-98169885D01*
X156164162Y-98002676D01*
X156154237Y-97990583D01*
X156116189Y-97944221D01*
X156043883Y-97856117D01*
X155927471Y-97760579D01*
X155897328Y-97735841D01*
X155897326Y-97735840D01*
X155897324Y-97735838D01*
X155857959Y-97714797D01*
X155730120Y-97646465D01*
X155730115Y-97646463D01*
X155548683Y-97591426D01*
X155548678Y-97591425D01*
X155360003Y-97572843D01*
X155359997Y-97572843D01*
X155171321Y-97591425D01*
X155171316Y-97591426D01*
X154989884Y-97646463D01*
X154989879Y-97646465D01*
X154822681Y-97735835D01*
X154822671Y-97735841D01*
X154676121Y-97856113D01*
X154676113Y-97856121D01*
X154555841Y-98002671D01*
X154555835Y-98002681D01*
X154466465Y-98169879D01*
X154466463Y-98169884D01*
X154411426Y-98351316D01*
X154411425Y-98351321D01*
X154392843Y-98539996D01*
X151370688Y-98539996D01*
X151457641Y-98453043D01*
X151515163Y-98340151D01*
X151515164Y-98340147D01*
X151530000Y-98246484D01*
X151530000Y-98080001D01*
X151529999Y-98080000D01*
X151080001Y-98080000D01*
X151080000Y-98080001D01*
X150780000Y-98080001D01*
X150779999Y-98080000D01*
X150330002Y-98080000D01*
X150330001Y-98080001D01*
X149980500Y-98080001D01*
X149980500Y-97930001D01*
X152080000Y-97930001D01*
X152080000Y-97990584D01*
X152090620Y-98063480D01*
X152145586Y-98175915D01*
X152234084Y-98264413D01*
X152346519Y-98319379D01*
X152419415Y-98330000D01*
X152779999Y-98330000D01*
X152780000Y-98329999D01*
X152780000Y-97930001D01*
X153080000Y-97930001D01*
X153080000Y-98329999D01*
X153080001Y-98330000D01*
X153440584Y-98330000D01*
X153513480Y-98319379D01*
X153625915Y-98264413D01*
X153714413Y-98175915D01*
X153769379Y-98063480D01*
X153780000Y-97990584D01*
X153780000Y-97930001D01*
X153779999Y-97930000D01*
X153080001Y-97930000D01*
X153080000Y-97930001D01*
X152780000Y-97930001D01*
X152779999Y-97930000D01*
X152080001Y-97930000D01*
X152080000Y-97930001D01*
X149980500Y-97930001D01*
X149980500Y-97613515D01*
X150330000Y-97613515D01*
X150330000Y-97779999D01*
X150330001Y-97780000D01*
X150779999Y-97780000D01*
X150780000Y-97779999D01*
X150780000Y-97245001D01*
X151080000Y-97245001D01*
X151080000Y-97779999D01*
X151080001Y-97780000D01*
X151529998Y-97780000D01*
X151529999Y-97779999D01*
X151529999Y-97613516D01*
X151529998Y-97613514D01*
X151523014Y-97569415D01*
X152080000Y-97569415D01*
X152080000Y-97629999D01*
X152080001Y-97630000D01*
X152779999Y-97630000D01*
X152780000Y-97629999D01*
X152780000Y-97230001D01*
X153080000Y-97230001D01*
X153080000Y-97629999D01*
X153080001Y-97630000D01*
X153779999Y-97630000D01*
X153780000Y-97629999D01*
X153780000Y-97569415D01*
X153769379Y-97496519D01*
X153714413Y-97384084D01*
X153625915Y-97295586D01*
X153513480Y-97240620D01*
X153440585Y-97230000D01*
X153080001Y-97230000D01*
X153080000Y-97230001D01*
X152780000Y-97230001D01*
X152779999Y-97230000D01*
X152419415Y-97230000D01*
X152346519Y-97240620D01*
X152234084Y-97295586D01*
X152145586Y-97384084D01*
X152090620Y-97496519D01*
X152080000Y-97569415D01*
X151523014Y-97569415D01*
X151515166Y-97519858D01*
X151515163Y-97519848D01*
X151457641Y-97406956D01*
X151368043Y-97317358D01*
X151255151Y-97259836D01*
X151255147Y-97259835D01*
X151161484Y-97245000D01*
X151080001Y-97245000D01*
X151080000Y-97245001D01*
X150780000Y-97245001D01*
X150779998Y-97244999D01*
X150698517Y-97245000D01*
X150698514Y-97245001D01*
X150604858Y-97259833D01*
X150604848Y-97259836D01*
X150491956Y-97317358D01*
X150402358Y-97406956D01*
X150344836Y-97519848D01*
X150344835Y-97519852D01*
X150330000Y-97613515D01*
X149980500Y-97613515D01*
X149980500Y-96470692D01*
X149967097Y-96420673D01*
X149949799Y-96356114D01*
X149949799Y-96356113D01*
X149949799Y-96356112D01*
X149890492Y-96253390D01*
X149890490Y-96253388D01*
X149890489Y-96253386D01*
X149637099Y-95999996D01*
X154392843Y-95999996D01*
X154392843Y-96000003D01*
X154411425Y-96188678D01*
X154411426Y-96188683D01*
X154466463Y-96370115D01*
X154466465Y-96370120D01*
X154499937Y-96432741D01*
X154555838Y-96537324D01*
X154676117Y-96683883D01*
X154822676Y-96804162D01*
X154989885Y-96893537D01*
X155116280Y-96931877D01*
X155171316Y-96948573D01*
X155171321Y-96948574D01*
X155359997Y-96967157D01*
X155360000Y-96967157D01*
X155360003Y-96967157D01*
X155548678Y-96948574D01*
X155548683Y-96948573D01*
X155730115Y-96893537D01*
X155897324Y-96804162D01*
X156043883Y-96683883D01*
X156164162Y-96537324D01*
X156253537Y-96370115D01*
X156308573Y-96188683D01*
X156308574Y-96188678D01*
X156327157Y-96000003D01*
X156327157Y-95999996D01*
X156308574Y-95811321D01*
X156308573Y-95811316D01*
X156272811Y-95693424D01*
X156253537Y-95629885D01*
X156164162Y-95462676D01*
X156043883Y-95316117D01*
X155897324Y-95195838D01*
X155827062Y-95158282D01*
X155730120Y-95106465D01*
X155730115Y-95106463D01*
X155548683Y-95051426D01*
X155548678Y-95051425D01*
X155360003Y-95032843D01*
X155359997Y-95032843D01*
X155171321Y-95051425D01*
X155171316Y-95051426D01*
X154989884Y-95106463D01*
X154989879Y-95106465D01*
X154822681Y-95195835D01*
X154822671Y-95195841D01*
X154676121Y-95316113D01*
X154676113Y-95316121D01*
X154555841Y-95462671D01*
X154555835Y-95462681D01*
X154466465Y-95629879D01*
X154466463Y-95629884D01*
X154411426Y-95811316D01*
X154411425Y-95811321D01*
X154392843Y-95999996D01*
X149637099Y-95999996D01*
X149206614Y-95569511D01*
X149206611Y-95569509D01*
X149206609Y-95569507D01*
X149103890Y-95510202D01*
X149103886Y-95510200D01*
X149079673Y-95503712D01*
X149079673Y-95503713D01*
X148989309Y-95479500D01*
X148989307Y-95479500D01*
X145645350Y-95479500D01*
X145587159Y-95460593D01*
X145551195Y-95411093D01*
X145548252Y-95361186D01*
X145553325Y-95335682D01*
X145555500Y-95324748D01*
X145555500Y-94135252D01*
X145543867Y-94076769D01*
X145499552Y-94010448D01*
X145490540Y-94004426D01*
X145452662Y-93956377D01*
X145450260Y-93895239D01*
X145459191Y-93880001D01*
X147445001Y-93880001D01*
X147445001Y-93961485D01*
X147459833Y-94055141D01*
X147459836Y-94055151D01*
X147517358Y-94168043D01*
X147606956Y-94257641D01*
X147719848Y-94315163D01*
X147719852Y-94315164D01*
X147813515Y-94329999D01*
X147980000Y-94329999D01*
X147980000Y-93880001D01*
X148280000Y-93880001D01*
X148280000Y-94329998D01*
X148280001Y-94329999D01*
X148446483Y-94329999D01*
X148446485Y-94329998D01*
X148540141Y-94315166D01*
X148540151Y-94315163D01*
X148653043Y-94257641D01*
X148742641Y-94168043D01*
X148800163Y-94055151D01*
X148800164Y-94055147D01*
X148815000Y-93961484D01*
X148815000Y-93880001D01*
X148814999Y-93880000D01*
X148280001Y-93880000D01*
X148280000Y-93880001D01*
X147980000Y-93880001D01*
X147979999Y-93880000D01*
X147445002Y-93880000D01*
X147445001Y-93880001D01*
X145459191Y-93880001D01*
X145475537Y-93852111D01*
X145502850Y-93824799D01*
X145549499Y-93724760D01*
X145553765Y-93692351D01*
X145556291Y-93679657D01*
X145558873Y-93670020D01*
X145580500Y-93589309D01*
X145580500Y-93498515D01*
X147445000Y-93498515D01*
X147445000Y-93579999D01*
X147445001Y-93580000D01*
X147979999Y-93580000D01*
X147980000Y-93579999D01*
X147980000Y-93130001D01*
X148280000Y-93130001D01*
X148280000Y-93579999D01*
X148280001Y-93580000D01*
X148814998Y-93580000D01*
X148814999Y-93579999D01*
X148814999Y-93498516D01*
X148814998Y-93498514D01*
X148814992Y-93498477D01*
X149044500Y-93498477D01*
X149044500Y-93961520D01*
X149044501Y-93961523D01*
X149059352Y-94055299D01*
X149059354Y-94055304D01*
X149116950Y-94168342D01*
X149206658Y-94258050D01*
X149319696Y-94315646D01*
X149413481Y-94330500D01*
X150046518Y-94330499D01*
X150046520Y-94330499D01*
X150046521Y-94330498D01*
X150093411Y-94323072D01*
X150140299Y-94315647D01*
X150140299Y-94315646D01*
X150140304Y-94315646D01*
X150253342Y-94258050D01*
X150343050Y-94168342D01*
X150343052Y-94168336D01*
X150347628Y-94162040D01*
X150349328Y-94163275D01*
X150385054Y-94127549D01*
X150445485Y-94117977D01*
X150500002Y-94145753D01*
X150512020Y-94162295D01*
X150512372Y-94162040D01*
X150516948Y-94168339D01*
X150516950Y-94168342D01*
X150606658Y-94258050D01*
X150719696Y-94315646D01*
X150813481Y-94330500D01*
X151446518Y-94330499D01*
X151446520Y-94330499D01*
X151446521Y-94330498D01*
X151493411Y-94323072D01*
X151540299Y-94315647D01*
X151540299Y-94315646D01*
X151540304Y-94315646D01*
X151653342Y-94258050D01*
X151743050Y-94168342D01*
X151800646Y-94055304D01*
X151815500Y-93961519D01*
X151815499Y-93498482D01*
X151815498Y-93498477D01*
X152044500Y-93498477D01*
X152044500Y-93961520D01*
X152044501Y-93961523D01*
X152059352Y-94055299D01*
X152059354Y-94055304D01*
X152116950Y-94168342D01*
X152206658Y-94258050D01*
X152206663Y-94258052D01*
X152206987Y-94258288D01*
X152207226Y-94258617D01*
X152212168Y-94263559D01*
X152211385Y-94264341D01*
X152242951Y-94307788D01*
X152242952Y-94368973D01*
X152227341Y-94398647D01*
X152205466Y-94427157D01*
X152205463Y-94427160D01*
X152144957Y-94573236D01*
X152144955Y-94573241D01*
X152124318Y-94729999D01*
X152124318Y-94730000D01*
X152144955Y-94886758D01*
X152144957Y-94886766D01*
X152205462Y-95032838D01*
X152205462Y-95032839D01*
X152301713Y-95158276D01*
X152301718Y-95158282D01*
X152427159Y-95254536D01*
X152573238Y-95315044D01*
X152690809Y-95330522D01*
X152729999Y-95335682D01*
X152730000Y-95335682D01*
X152730001Y-95335682D01*
X152761352Y-95331554D01*
X152886762Y-95315044D01*
X153032841Y-95254536D01*
X153158282Y-95158282D01*
X153254536Y-95032841D01*
X153315044Y-94886762D01*
X153335682Y-94730000D01*
X153315044Y-94573238D01*
X153254536Y-94427159D01*
X153232659Y-94398648D01*
X153212236Y-94340972D01*
X153229614Y-94282307D01*
X153247855Y-94263582D01*
X153247832Y-94263559D01*
X153249652Y-94261738D01*
X153253018Y-94258284D01*
X153253331Y-94258055D01*
X153253342Y-94258050D01*
X153343050Y-94168342D01*
X153400646Y-94055304D01*
X153415500Y-93961519D01*
X153415499Y-93498482D01*
X153409404Y-93459996D01*
X154392843Y-93459996D01*
X154392843Y-93460003D01*
X154411425Y-93648678D01*
X154411426Y-93648683D01*
X154466463Y-93830115D01*
X154466465Y-93830120D01*
X154527265Y-93943867D01*
X154555838Y-93997324D01*
X154555840Y-93997326D01*
X154555841Y-93997328D01*
X154603296Y-94055151D01*
X154676117Y-94143883D01*
X154705918Y-94168340D01*
X154815518Y-94258288D01*
X154822676Y-94264162D01*
X154946782Y-94330498D01*
X154966377Y-94340972D01*
X154989885Y-94353537D01*
X155116280Y-94391877D01*
X155171316Y-94408573D01*
X155171321Y-94408574D01*
X155359997Y-94427157D01*
X155360000Y-94427157D01*
X155360003Y-94427157D01*
X155548678Y-94408574D01*
X155548683Y-94408573D01*
X155730115Y-94353537D01*
X155897324Y-94264162D01*
X156043883Y-94143883D01*
X156164162Y-93997324D01*
X156253537Y-93830115D01*
X156308573Y-93648683D01*
X156308574Y-93648678D01*
X156327157Y-93460003D01*
X156327157Y-93459996D01*
X156308574Y-93271321D01*
X156308573Y-93271316D01*
X156270206Y-93144836D01*
X156253537Y-93089885D01*
X156238551Y-93061849D01*
X156230277Y-93046368D01*
X156164162Y-92922676D01*
X156043883Y-92776117D01*
X155897324Y-92655838D01*
X155857959Y-92634797D01*
X155730120Y-92566465D01*
X155730115Y-92566463D01*
X155548683Y-92511426D01*
X155548678Y-92511425D01*
X155360003Y-92492843D01*
X155359997Y-92492843D01*
X155171321Y-92511425D01*
X155171316Y-92511426D01*
X154989884Y-92566463D01*
X154989879Y-92566465D01*
X154822681Y-92655835D01*
X154822671Y-92655841D01*
X154676121Y-92776113D01*
X154676113Y-92776121D01*
X154555841Y-92922671D01*
X154555835Y-92922681D01*
X154466465Y-93089879D01*
X154466463Y-93089884D01*
X154411426Y-93271316D01*
X154411425Y-93271321D01*
X154392843Y-93459996D01*
X153409404Y-93459996D01*
X153400646Y-93404696D01*
X153343050Y-93291658D01*
X153253342Y-93201950D01*
X153140304Y-93144354D01*
X153140305Y-93144354D01*
X153046522Y-93129500D01*
X152413479Y-93129500D01*
X152413476Y-93129501D01*
X152319700Y-93144352D01*
X152319695Y-93144354D01*
X152206659Y-93201949D01*
X152116949Y-93291659D01*
X152059354Y-93404695D01*
X152044500Y-93498477D01*
X151815498Y-93498477D01*
X151800646Y-93404696D01*
X151743050Y-93291658D01*
X151653342Y-93201950D01*
X151540304Y-93144354D01*
X151540301Y-93144353D01*
X151539007Y-93144148D01*
X151537840Y-93143553D01*
X151532896Y-93141947D01*
X151533150Y-93141163D01*
X151484492Y-93116367D01*
X151456718Y-93061849D01*
X151455500Y-93046368D01*
X151455500Y-90919996D01*
X154392843Y-90919996D01*
X154392843Y-90920003D01*
X154411425Y-91108678D01*
X154411426Y-91108683D01*
X154466463Y-91290115D01*
X154466465Y-91290120D01*
X154510893Y-91373238D01*
X154555838Y-91457324D01*
X154555840Y-91457326D01*
X154555841Y-91457328D01*
X154596306Y-91506634D01*
X154676117Y-91603883D01*
X154822676Y-91724162D01*
X154989885Y-91813537D01*
X155116280Y-91851877D01*
X155171316Y-91868573D01*
X155171321Y-91868574D01*
X155359997Y-91887157D01*
X155360000Y-91887157D01*
X155360003Y-91887157D01*
X155548678Y-91868574D01*
X155548683Y-91868573D01*
X155730115Y-91813537D01*
X155897324Y-91724162D01*
X156043883Y-91603883D01*
X156164162Y-91457324D01*
X156253537Y-91290115D01*
X156308573Y-91108683D01*
X156308574Y-91108678D01*
X156327157Y-90920003D01*
X156327157Y-90919996D01*
X156308574Y-90731321D01*
X156308573Y-90731316D01*
X156264840Y-90587147D01*
X156253537Y-90549885D01*
X156164162Y-90382676D01*
X156043883Y-90236117D01*
X155897324Y-90115838D01*
X155857959Y-90094797D01*
X155730120Y-90026465D01*
X155730115Y-90026463D01*
X155548683Y-89971426D01*
X155548678Y-89971425D01*
X155360003Y-89952843D01*
X155359997Y-89952843D01*
X155171321Y-89971425D01*
X155171316Y-89971426D01*
X154989884Y-90026463D01*
X154989879Y-90026465D01*
X154822681Y-90115835D01*
X154822671Y-90115841D01*
X154676121Y-90236113D01*
X154676113Y-90236121D01*
X154555841Y-90382671D01*
X154555835Y-90382681D01*
X154466465Y-90549879D01*
X154466463Y-90549884D01*
X154411426Y-90731316D01*
X154411425Y-90731321D01*
X154392843Y-90919996D01*
X151455500Y-90919996D01*
X151455500Y-90805834D01*
X151474407Y-90747643D01*
X151484496Y-90735830D01*
X153485830Y-88734496D01*
X153540347Y-88706719D01*
X153555834Y-88705500D01*
X154383277Y-88705500D01*
X154441468Y-88724407D01*
X154470587Y-88757831D01*
X154555838Y-88917324D01*
X154676117Y-89063883D01*
X154822676Y-89184162D01*
X154989885Y-89273537D01*
X155116280Y-89311877D01*
X155171316Y-89328573D01*
X155171321Y-89328574D01*
X155359997Y-89347157D01*
X155360000Y-89347157D01*
X155360003Y-89347157D01*
X155548678Y-89328574D01*
X155548683Y-89328573D01*
X155730115Y-89273537D01*
X155897324Y-89184162D01*
X156043883Y-89063883D01*
X156164162Y-88917324D01*
X156253537Y-88750115D01*
X156308573Y-88568683D01*
X156308574Y-88568678D01*
X156327157Y-88380003D01*
X156327157Y-88379996D01*
X156308574Y-88191321D01*
X156308573Y-88191316D01*
X156273799Y-88076682D01*
X156253537Y-88009885D01*
X156164162Y-87842676D01*
X156043883Y-87696117D01*
X155897324Y-87575838D01*
X155857959Y-87554797D01*
X155730120Y-87486465D01*
X155730115Y-87486463D01*
X155548683Y-87431426D01*
X155548678Y-87431425D01*
X155360003Y-87412843D01*
X155359997Y-87412843D01*
X155171321Y-87431425D01*
X155171316Y-87431426D01*
X154989884Y-87486463D01*
X154989879Y-87486465D01*
X154822681Y-87575835D01*
X154822671Y-87575841D01*
X154676121Y-87696113D01*
X154676113Y-87696121D01*
X154555841Y-87842671D01*
X154555837Y-87842677D01*
X154470587Y-88002169D01*
X154426481Y-88044575D01*
X154383277Y-88054500D01*
X153428932Y-88054500D01*
X153428916Y-88054499D01*
X153422853Y-88054499D01*
X153337148Y-88054499D01*
X153337145Y-88054499D01*
X153254365Y-88076680D01*
X153180135Y-88119537D01*
X153119534Y-88180137D01*
X153119535Y-88180138D01*
X150869531Y-90430142D01*
X150826682Y-90504360D01*
X150826681Y-90504360D01*
X150826682Y-90504361D01*
X150804500Y-90587147D01*
X150804500Y-93046368D01*
X150785593Y-93104559D01*
X150736093Y-93140523D01*
X150720995Y-93144148D01*
X150719699Y-93144353D01*
X150719692Y-93144355D01*
X150606659Y-93201949D01*
X150516948Y-93291660D01*
X150512372Y-93297960D01*
X150510672Y-93296725D01*
X150474938Y-93332454D01*
X150414506Y-93342021D01*
X150359991Y-93314239D01*
X150347978Y-93297705D01*
X150347628Y-93297960D01*
X150343051Y-93291660D01*
X150343050Y-93291658D01*
X150253342Y-93201950D01*
X150140304Y-93144354D01*
X150140305Y-93144354D01*
X150046522Y-93129500D01*
X149413479Y-93129500D01*
X149413476Y-93129501D01*
X149319700Y-93144352D01*
X149319695Y-93144354D01*
X149206659Y-93201949D01*
X149116949Y-93291659D01*
X149059354Y-93404695D01*
X149044500Y-93498477D01*
X148814992Y-93498477D01*
X148800166Y-93404858D01*
X148800163Y-93404848D01*
X148742641Y-93291956D01*
X148653043Y-93202358D01*
X148540151Y-93144836D01*
X148540147Y-93144835D01*
X148446484Y-93130000D01*
X148280001Y-93130000D01*
X148280000Y-93130001D01*
X147980000Y-93130001D01*
X147979999Y-93130000D01*
X147813517Y-93130000D01*
X147813514Y-93130001D01*
X147719858Y-93144833D01*
X147719848Y-93144836D01*
X147606956Y-93202358D01*
X147517358Y-93291956D01*
X147459836Y-93404848D01*
X147459835Y-93404852D01*
X147445000Y-93498515D01*
X145580500Y-93498515D01*
X145580500Y-92815854D01*
X145599407Y-92757663D01*
X145648907Y-92721699D01*
X145666579Y-92717701D01*
X145686762Y-92715044D01*
X145832841Y-92654536D01*
X145958282Y-92558282D01*
X146054536Y-92432841D01*
X146115044Y-92286762D01*
X146135682Y-92130000D01*
X146115044Y-91973238D01*
X146054537Y-91827161D01*
X146054537Y-91827160D01*
X145958286Y-91701723D01*
X145958285Y-91701722D01*
X145958282Y-91701718D01*
X145958277Y-91701714D01*
X145958276Y-91701713D01*
X145855555Y-91622893D01*
X145832841Y-91605464D01*
X145832840Y-91605463D01*
X145832838Y-91605462D01*
X145686766Y-91544957D01*
X145686758Y-91544955D01*
X145530001Y-91524318D01*
X145529999Y-91524318D01*
X145436410Y-91536639D01*
X145376249Y-91525489D01*
X145334132Y-91481106D01*
X145325335Y-91451408D01*
X145315044Y-91373240D01*
X145315044Y-91373238D01*
X145254537Y-91227161D01*
X145254537Y-91227160D01*
X145158286Y-91101723D01*
X145158285Y-91101722D01*
X145158282Y-91101718D01*
X145158277Y-91101714D01*
X145158276Y-91101713D01*
X145032838Y-91005462D01*
X144886766Y-90944957D01*
X144886758Y-90944955D01*
X144730001Y-90924318D01*
X144729999Y-90924318D01*
X144573241Y-90944955D01*
X144573233Y-90944957D01*
X144427161Y-91005462D01*
X144427160Y-91005462D01*
X144301723Y-91101713D01*
X144301713Y-91101723D01*
X144205462Y-91227160D01*
X144205462Y-91227161D01*
X144144956Y-91373237D01*
X144133467Y-91460497D01*
X144107125Y-91515722D01*
X144105318Y-91517578D01*
X144000003Y-91622893D01*
X143945486Y-91650670D01*
X143885054Y-91641099D01*
X143859995Y-91622892D01*
X143754680Y-91517576D01*
X143726903Y-91463060D01*
X143726535Y-91460525D01*
X143715044Y-91373238D01*
X143654537Y-91227161D01*
X143654537Y-91227160D01*
X143558286Y-91101723D01*
X143558285Y-91101722D01*
X143558282Y-91101718D01*
X143558277Y-91101714D01*
X143558276Y-91101713D01*
X143432838Y-91005462D01*
X143286766Y-90944957D01*
X143286758Y-90944955D01*
X143130001Y-90924318D01*
X143129999Y-90924318D01*
X142973241Y-90944955D01*
X142973233Y-90944957D01*
X142827161Y-91005462D01*
X142827160Y-91005462D01*
X142701723Y-91101713D01*
X142701713Y-91101723D01*
X142605462Y-91227160D01*
X142605462Y-91227161D01*
X142544957Y-91373233D01*
X142544955Y-91373240D01*
X142534664Y-91451409D01*
X142508322Y-91506634D01*
X142454551Y-91535828D01*
X142423589Y-91536639D01*
X142330001Y-91524318D01*
X142329999Y-91524318D01*
X142173241Y-91544955D01*
X142173233Y-91544957D01*
X142027161Y-91605462D01*
X142027160Y-91605462D01*
X141901723Y-91701713D01*
X141901713Y-91701723D01*
X141805462Y-91827160D01*
X141805462Y-91827161D01*
X141744957Y-91973233D01*
X141744955Y-91973241D01*
X141724318Y-92129999D01*
X141724318Y-92130000D01*
X141744955Y-92286758D01*
X141744957Y-92286766D01*
X141805462Y-92432838D01*
X141805462Y-92432839D01*
X141805464Y-92432841D01*
X141901718Y-92558282D01*
X142027159Y-92654536D01*
X142027160Y-92654536D01*
X142027161Y-92654537D01*
X142173233Y-92715042D01*
X142173238Y-92715044D01*
X142193421Y-92717701D01*
X142248647Y-92744041D01*
X142277842Y-92797812D01*
X142279500Y-92815854D01*
X142279500Y-93589309D01*
X142301127Y-93670020D01*
X142304500Y-93695643D01*
X142304500Y-93774746D01*
X142304501Y-93774758D01*
X142316132Y-93833227D01*
X142316134Y-93833233D01*
X142360746Y-93899998D01*
X142377355Y-93958886D01*
X142360746Y-94010002D01*
X142316134Y-94076766D01*
X142316132Y-94076772D01*
X142304501Y-94135241D01*
X142304500Y-94135253D01*
X142304500Y-95324750D01*
X142311748Y-95361186D01*
X142304556Y-95421947D01*
X142263024Y-95466877D01*
X142214650Y-95479500D01*
X139470691Y-95479500D01*
X139358797Y-95509482D01*
X139358794Y-95509482D01*
X139356115Y-95510200D01*
X139356106Y-95510204D01*
X139253389Y-95569508D01*
X138169507Y-96653390D01*
X138110200Y-96756112D01*
X138110200Y-96756113D01*
X138110201Y-96756114D01*
X138097327Y-96804162D01*
X138079500Y-96870692D01*
X138079500Y-97902389D01*
X138060593Y-97960580D01*
X138050503Y-97972393D01*
X137947957Y-98074938D01*
X137893441Y-98102715D01*
X137833009Y-98093143D01*
X137789744Y-98049879D01*
X137780581Y-97994218D01*
X137779741Y-97994158D01*
X137779994Y-97990655D01*
X137779992Y-97990638D01*
X137780000Y-97990583D01*
X137780000Y-97930001D01*
X137779999Y-97930000D01*
X136080001Y-97930000D01*
X136080000Y-97930001D01*
X136080000Y-97990584D01*
X136090620Y-98063480D01*
X136145586Y-98175915D01*
X136150354Y-98182593D01*
X136148545Y-98183884D01*
X136171119Y-98228188D01*
X136161548Y-98288620D01*
X136122839Y-98329411D01*
X136053385Y-98369510D01*
X135507146Y-98915748D01*
X135452630Y-98943525D01*
X135392198Y-98933954D01*
X135374803Y-98921316D01*
X135374647Y-98921531D01*
X135368344Y-98916952D01*
X135368342Y-98916950D01*
X135255304Y-98859354D01*
X135255305Y-98859354D01*
X135161522Y-98844500D01*
X134698479Y-98844500D01*
X134698476Y-98844501D01*
X134604700Y-98859352D01*
X134604695Y-98859354D01*
X134491659Y-98916949D01*
X134401949Y-99006659D01*
X134344354Y-99119695D01*
X134329500Y-99213477D01*
X134329500Y-99846520D01*
X134329501Y-99846523D01*
X134344352Y-99940299D01*
X134344353Y-99940303D01*
X134377554Y-100005462D01*
X134401950Y-100053342D01*
X134491658Y-100143050D01*
X134600447Y-100198481D01*
X134643710Y-100241744D01*
X134654500Y-100286689D01*
X134654500Y-100598806D01*
X134635593Y-100656997D01*
X134598981Y-100687747D01*
X134583790Y-100695173D01*
X134495173Y-100783790D01*
X134440134Y-100896373D01*
X134440134Y-100896374D01*
X134440134Y-100896375D01*
X134429500Y-100969364D01*
X134429500Y-102090636D01*
X134440134Y-102163625D01*
X134495174Y-102276211D01*
X134583789Y-102364826D01*
X134696375Y-102419866D01*
X134769364Y-102430500D01*
X134769367Y-102430500D01*
X135190632Y-102430500D01*
X135190636Y-102430500D01*
X135263625Y-102419866D01*
X135376211Y-102364826D01*
X135464826Y-102276211D01*
X135519866Y-102163625D01*
X135522624Y-102144698D01*
X135549719Y-102089844D01*
X135603886Y-102061390D01*
X135658473Y-102067506D01*
X135773238Y-102115044D01*
X135890809Y-102130522D01*
X135929999Y-102135682D01*
X135930000Y-102135682D01*
X135930001Y-102135682D01*
X135961352Y-102131554D01*
X136086762Y-102115044D01*
X136201526Y-102067506D01*
X136262522Y-102062706D01*
X136314691Y-102094675D01*
X136337376Y-102144696D01*
X136340134Y-102163625D01*
X136395174Y-102276211D01*
X136483789Y-102364826D01*
X136596375Y-102419866D01*
X136669364Y-102430500D01*
X136669367Y-102430500D01*
X137090632Y-102430500D01*
X137090636Y-102430500D01*
X137163625Y-102419866D01*
X137276211Y-102364826D01*
X137310498Y-102330538D01*
X137365013Y-102302763D01*
X137425445Y-102312334D01*
X137468710Y-102355599D01*
X137479500Y-102400544D01*
X137479500Y-103059456D01*
X137460593Y-103117647D01*
X137411093Y-103153611D01*
X137349907Y-103153611D01*
X137310498Y-103129461D01*
X137276211Y-103095174D01*
X137163625Y-103040134D01*
X137163626Y-103040134D01*
X137145377Y-103037475D01*
X137090636Y-103029500D01*
X136669364Y-103029500D01*
X136625570Y-103035880D01*
X136596373Y-103040134D01*
X136483785Y-103095176D01*
X136474647Y-103104314D01*
X136420130Y-103132090D01*
X136359698Y-103122516D01*
X136334645Y-103104314D01*
X136325919Y-103095589D01*
X136325915Y-103095586D01*
X136213480Y-103040620D01*
X136140585Y-103030000D01*
X136080001Y-103030000D01*
X136080000Y-103030001D01*
X136080000Y-104829999D01*
X136080001Y-104830000D01*
X136140584Y-104830000D01*
X136213479Y-104819379D01*
X136287019Y-104783428D01*
X136347601Y-104774857D01*
X136401651Y-104803532D01*
X136428524Y-104858500D01*
X136429500Y-104872369D01*
X136429500Y-104986704D01*
X136410593Y-105044895D01*
X136400504Y-105056707D01*
X136130359Y-105326852D01*
X136077822Y-105393729D01*
X136020269Y-105526229D01*
X136020269Y-105526230D01*
X136000600Y-105669339D01*
X136000600Y-105669340D01*
X136020269Y-105812449D01*
X136020269Y-105812450D01*
X136077822Y-105944950D01*
X136130355Y-106011822D01*
X136130359Y-106011826D01*
X136130363Y-106011831D01*
X136648169Y-106529637D01*
X136648173Y-106529640D01*
X136648177Y-106529644D01*
X136715049Y-106582177D01*
X136715052Y-106582179D01*
X136847549Y-106639730D01*
X136990660Y-106659400D01*
X137133771Y-106639730D01*
X137266268Y-106582179D01*
X137333151Y-106529637D01*
X137710498Y-106152289D01*
X137765013Y-106124514D01*
X137825445Y-106134085D01*
X137868710Y-106177350D01*
X137879500Y-106222295D01*
X137879500Y-106302389D01*
X137860593Y-106360580D01*
X137850504Y-106372393D01*
X136911733Y-107311164D01*
X136857216Y-107338941D01*
X136841729Y-107340160D01*
X135662636Y-107340160D01*
X135604445Y-107321253D01*
X135592633Y-107311164D01*
X135211827Y-106930359D01*
X135144950Y-106877822D01*
X135012449Y-106820269D01*
X134869340Y-106800600D01*
X134726230Y-106820269D01*
X134726229Y-106820269D01*
X134593729Y-106877822D01*
X134526857Y-106930355D01*
X134009035Y-107448177D01*
X133956502Y-107515049D01*
X133898949Y-107647549D01*
X133898949Y-107647550D01*
X133879280Y-107790659D01*
X125930000Y-107790659D01*
X125930000Y-105954499D01*
X134374318Y-105954499D01*
X134374318Y-105954500D01*
X134394955Y-106111258D01*
X134394957Y-106111266D01*
X134455462Y-106257338D01*
X134455462Y-106257339D01*
X134543746Y-106372393D01*
X134551718Y-106382782D01*
X134677159Y-106479036D01*
X134677160Y-106479036D01*
X134677161Y-106479037D01*
X134705644Y-106490835D01*
X134823238Y-106539544D01*
X134940809Y-106555022D01*
X134979999Y-106560182D01*
X134980000Y-106560182D01*
X134980001Y-106560182D01*
X135011352Y-106556054D01*
X135136762Y-106539544D01*
X135282841Y-106479036D01*
X135408282Y-106382782D01*
X135504536Y-106257341D01*
X135565044Y-106111262D01*
X135585682Y-105954500D01*
X135584424Y-105944948D01*
X135566981Y-105812450D01*
X135565044Y-105797738D01*
X135504537Y-105651661D01*
X135504537Y-105651660D01*
X135408281Y-105526217D01*
X135344232Y-105477070D01*
X135309577Y-105426645D01*
X135305500Y-105398528D01*
X135305500Y-104861193D01*
X135324407Y-104803002D01*
X135361021Y-104772252D01*
X135363305Y-104771134D01*
X135376211Y-104764826D01*
X135385349Y-104755687D01*
X135439863Y-104727909D01*
X135500295Y-104737479D01*
X135525357Y-104755686D01*
X135534084Y-104764413D01*
X135646519Y-104819379D01*
X135719415Y-104830000D01*
X135779999Y-104830000D01*
X135780000Y-104829999D01*
X135780000Y-103030001D01*
X135779999Y-103030000D01*
X135719415Y-103030000D01*
X135646519Y-103040620D01*
X135534084Y-103095586D01*
X135534080Y-103095589D01*
X135525354Y-103104315D01*
X135470837Y-103132091D01*
X135410405Y-103122517D01*
X135385352Y-103104315D01*
X135376211Y-103095174D01*
X135263625Y-103040134D01*
X135263626Y-103040134D01*
X135245377Y-103037475D01*
X135190636Y-103029500D01*
X134769364Y-103029500D01*
X134725570Y-103035880D01*
X134696373Y-103040134D01*
X134583790Y-103095173D01*
X134495173Y-103183790D01*
X134440134Y-103296373D01*
X134440134Y-103296375D01*
X134429500Y-103369364D01*
X134429500Y-104490636D01*
X134432837Y-104513537D01*
X134440134Y-104563626D01*
X134442553Y-104568574D01*
X134495174Y-104676211D01*
X134583789Y-104764826D01*
X134583790Y-104764826D01*
X134583791Y-104764827D01*
X134598979Y-104772252D01*
X134642954Y-104814794D01*
X134654500Y-104861193D01*
X134654500Y-105398528D01*
X134635593Y-105456719D01*
X134615768Y-105477070D01*
X134551718Y-105526217D01*
X134455462Y-105651660D01*
X134455462Y-105651661D01*
X134394957Y-105797733D01*
X134394955Y-105797741D01*
X134374318Y-105954499D01*
X125930000Y-105954499D01*
X125930000Y-103619996D01*
X131532843Y-103619996D01*
X131532843Y-103620003D01*
X131551425Y-103808678D01*
X131551426Y-103808683D01*
X131606463Y-103990115D01*
X131606465Y-103990120D01*
X131674797Y-104117959D01*
X131695838Y-104157324D01*
X131816117Y-104303883D01*
X131962676Y-104424162D01*
X132129885Y-104513537D01*
X132228322Y-104543397D01*
X132311316Y-104568573D01*
X132311321Y-104568574D01*
X132499997Y-104587157D01*
X132500000Y-104587157D01*
X132500003Y-104587157D01*
X132688678Y-104568574D01*
X132688683Y-104568573D01*
X132704991Y-104563626D01*
X132870115Y-104513537D01*
X133037324Y-104424162D01*
X133183883Y-104303883D01*
X133304162Y-104157324D01*
X133393537Y-103990115D01*
X133448573Y-103808683D01*
X133448574Y-103808678D01*
X133467157Y-103620003D01*
X133467157Y-103619996D01*
X133448574Y-103431321D01*
X133448573Y-103431316D01*
X133407639Y-103296375D01*
X133393537Y-103249885D01*
X133304162Y-103082676D01*
X133183883Y-102936117D01*
X133037324Y-102815838D01*
X132997959Y-102794797D01*
X132870120Y-102726465D01*
X132870115Y-102726463D01*
X132688683Y-102671426D01*
X132688678Y-102671425D01*
X132500003Y-102652843D01*
X132499997Y-102652843D01*
X132311321Y-102671425D01*
X132311316Y-102671426D01*
X132129884Y-102726463D01*
X132129879Y-102726465D01*
X131962681Y-102815835D01*
X131962671Y-102815841D01*
X131816121Y-102936113D01*
X131816113Y-102936121D01*
X131695841Y-103082671D01*
X131695835Y-103082681D01*
X131606465Y-103249879D01*
X131606463Y-103249884D01*
X131551426Y-103431316D01*
X131551425Y-103431321D01*
X131532843Y-103619996D01*
X125930000Y-103619996D01*
X125930000Y-101079996D01*
X131533345Y-101079996D01*
X131533345Y-101080003D01*
X131551917Y-101268580D01*
X131551918Y-101268585D01*
X131606927Y-101449923D01*
X131696255Y-101617043D01*
X131696259Y-101617049D01*
X131720851Y-101647014D01*
X132144084Y-101223780D01*
X132144964Y-101227061D01*
X132195124Y-101313940D01*
X132266060Y-101384876D01*
X132352939Y-101435036D01*
X132356216Y-101435914D01*
X131932984Y-101859147D01*
X131962950Y-101883740D01*
X131962956Y-101883744D01*
X132130076Y-101973072D01*
X132311414Y-102028081D01*
X132311419Y-102028082D01*
X132499997Y-102046655D01*
X132500003Y-102046655D01*
X132688580Y-102028082D01*
X132688585Y-102028081D01*
X132869923Y-101973072D01*
X133037046Y-101883742D01*
X133067014Y-101859147D01*
X132643781Y-101435914D01*
X132647061Y-101435036D01*
X132733940Y-101384876D01*
X132804876Y-101313940D01*
X132855036Y-101227061D01*
X132855914Y-101223781D01*
X133279147Y-101647014D01*
X133303742Y-101617046D01*
X133393072Y-101449923D01*
X133448081Y-101268585D01*
X133448082Y-101268580D01*
X133466655Y-101080003D01*
X133466655Y-101079996D01*
X133448082Y-100891419D01*
X133448081Y-100891414D01*
X133393072Y-100710076D01*
X133303744Y-100542956D01*
X133303740Y-100542950D01*
X133279147Y-100512984D01*
X132855914Y-100936216D01*
X132855036Y-100932939D01*
X132804876Y-100846060D01*
X132733940Y-100775124D01*
X132647061Y-100724964D01*
X132643780Y-100724084D01*
X133067014Y-100300851D01*
X133067015Y-100300851D01*
X133037049Y-100276259D01*
X133037043Y-100276255D01*
X132869923Y-100186927D01*
X132688585Y-100131918D01*
X132688580Y-100131917D01*
X132500003Y-100113345D01*
X132499997Y-100113345D01*
X132311419Y-100131917D01*
X132311414Y-100131918D01*
X132130076Y-100186927D01*
X132130071Y-100186929D01*
X131962961Y-100276252D01*
X131962951Y-100276258D01*
X131932984Y-100300851D01*
X132356218Y-100724085D01*
X132352939Y-100724964D01*
X132266060Y-100775124D01*
X132195124Y-100846060D01*
X132144964Y-100932939D01*
X132144085Y-100936218D01*
X131720851Y-100512984D01*
X131696258Y-100542951D01*
X131696252Y-100542961D01*
X131606929Y-100710071D01*
X131606927Y-100710076D01*
X131551918Y-100891414D01*
X131551917Y-100891419D01*
X131533345Y-101079996D01*
X125930000Y-101079996D01*
X125930000Y-98539996D01*
X131532843Y-98539996D01*
X131532843Y-98540003D01*
X131551425Y-98728678D01*
X131551426Y-98728683D01*
X131606463Y-98910115D01*
X131606465Y-98910120D01*
X131674797Y-99037959D01*
X131695838Y-99077324D01*
X131816117Y-99223883D01*
X131962676Y-99344162D01*
X132129885Y-99433537D01*
X132256280Y-99471877D01*
X132311316Y-99488573D01*
X132311321Y-99488574D01*
X132499997Y-99507157D01*
X132500000Y-99507157D01*
X132500003Y-99507157D01*
X132688678Y-99488574D01*
X132688683Y-99488573D01*
X132870115Y-99433537D01*
X133037324Y-99344162D01*
X133183883Y-99223883D01*
X133304162Y-99077324D01*
X133393537Y-98910115D01*
X133448573Y-98728683D01*
X133448574Y-98728678D01*
X133467157Y-98540003D01*
X133467157Y-98539996D01*
X133448574Y-98351321D01*
X133448573Y-98351316D01*
X133416773Y-98246485D01*
X133393537Y-98169885D01*
X133345493Y-98080001D01*
X134330001Y-98080001D01*
X134330001Y-98246485D01*
X134344833Y-98340141D01*
X134344836Y-98340151D01*
X134402358Y-98453043D01*
X134491956Y-98542641D01*
X134604848Y-98600163D01*
X134604852Y-98600164D01*
X134698515Y-98614999D01*
X134779999Y-98614998D01*
X134780000Y-98614998D01*
X134780000Y-98080001D01*
X135080000Y-98080001D01*
X135080000Y-98614998D01*
X135080001Y-98614999D01*
X135161483Y-98614999D01*
X135161485Y-98614998D01*
X135255141Y-98600166D01*
X135255151Y-98600163D01*
X135368043Y-98542641D01*
X135457641Y-98453043D01*
X135515163Y-98340151D01*
X135515164Y-98340147D01*
X135530000Y-98246484D01*
X135530000Y-98080001D01*
X135529999Y-98080000D01*
X135080001Y-98080000D01*
X135080000Y-98080001D01*
X134780000Y-98080001D01*
X134779999Y-98080000D01*
X134330002Y-98080000D01*
X134330001Y-98080001D01*
X133345493Y-98080001D01*
X133304162Y-98002676D01*
X133294237Y-97990583D01*
X133256189Y-97944221D01*
X133183883Y-97856117D01*
X133067471Y-97760579D01*
X133037328Y-97735841D01*
X133037326Y-97735840D01*
X133037324Y-97735838D01*
X132997959Y-97714797D01*
X132870120Y-97646465D01*
X132870115Y-97646463D01*
X132761500Y-97613515D01*
X134330000Y-97613515D01*
X134330000Y-97779999D01*
X134330001Y-97780000D01*
X134779999Y-97780000D01*
X134780000Y-97779999D01*
X134780000Y-97245001D01*
X135080000Y-97245001D01*
X135080000Y-97779999D01*
X135080001Y-97780000D01*
X135529998Y-97780000D01*
X135529999Y-97779999D01*
X135529999Y-97613516D01*
X135529998Y-97613514D01*
X135523014Y-97569415D01*
X136080000Y-97569415D01*
X136080000Y-97629999D01*
X136080001Y-97630000D01*
X136779999Y-97630000D01*
X136780000Y-97629999D01*
X136780000Y-97230001D01*
X137080000Y-97230001D01*
X137080000Y-97629999D01*
X137080001Y-97630000D01*
X137779999Y-97630000D01*
X137780000Y-97629999D01*
X137780000Y-97569415D01*
X137769379Y-97496519D01*
X137714413Y-97384084D01*
X137625915Y-97295586D01*
X137513480Y-97240620D01*
X137440585Y-97230000D01*
X137080001Y-97230000D01*
X137080000Y-97230001D01*
X136780000Y-97230001D01*
X136779999Y-97230000D01*
X136419415Y-97230000D01*
X136346519Y-97240620D01*
X136234084Y-97295586D01*
X136145586Y-97384084D01*
X136090620Y-97496519D01*
X136080000Y-97569415D01*
X135523014Y-97569415D01*
X135515166Y-97519858D01*
X135515163Y-97519848D01*
X135457641Y-97406956D01*
X135368043Y-97317358D01*
X135255151Y-97259836D01*
X135255147Y-97259835D01*
X135161484Y-97245000D01*
X135080001Y-97245000D01*
X135080000Y-97245001D01*
X134780000Y-97245001D01*
X134779998Y-97244999D01*
X134698517Y-97245000D01*
X134698514Y-97245001D01*
X134604858Y-97259833D01*
X134604848Y-97259836D01*
X134491956Y-97317358D01*
X134402358Y-97406956D01*
X134344836Y-97519848D01*
X134344835Y-97519852D01*
X134330000Y-97613515D01*
X132761500Y-97613515D01*
X132688683Y-97591426D01*
X132688678Y-97591425D01*
X132500003Y-97572843D01*
X132499997Y-97572843D01*
X132311321Y-97591425D01*
X132311316Y-97591426D01*
X132129884Y-97646463D01*
X132129879Y-97646465D01*
X131962681Y-97735835D01*
X131962671Y-97735841D01*
X131816121Y-97856113D01*
X131816113Y-97856121D01*
X131695841Y-98002671D01*
X131695835Y-98002681D01*
X131606465Y-98169879D01*
X131606463Y-98169884D01*
X131551426Y-98351316D01*
X131551425Y-98351321D01*
X131532843Y-98539996D01*
X125930000Y-98539996D01*
X125930000Y-95999996D01*
X131532843Y-95999996D01*
X131532843Y-96000003D01*
X131551425Y-96188678D01*
X131551426Y-96188683D01*
X131606463Y-96370115D01*
X131606465Y-96370120D01*
X131639937Y-96432741D01*
X131695838Y-96537324D01*
X131816117Y-96683883D01*
X131962676Y-96804162D01*
X132129885Y-96893537D01*
X132256280Y-96931877D01*
X132311316Y-96948573D01*
X132311321Y-96948574D01*
X132499997Y-96967157D01*
X132500000Y-96967157D01*
X132500003Y-96967157D01*
X132688678Y-96948574D01*
X132688683Y-96948573D01*
X132870115Y-96893537D01*
X133037324Y-96804162D01*
X133183883Y-96683883D01*
X133304162Y-96537324D01*
X133393537Y-96370115D01*
X133448573Y-96188683D01*
X133448574Y-96188678D01*
X133467157Y-96000003D01*
X133467157Y-95999996D01*
X133448574Y-95811321D01*
X133448573Y-95811316D01*
X133412811Y-95693424D01*
X133393537Y-95629885D01*
X133304162Y-95462676D01*
X133183883Y-95316117D01*
X133037324Y-95195838D01*
X132967062Y-95158282D01*
X132870120Y-95106465D01*
X132870115Y-95106463D01*
X132688683Y-95051426D01*
X132688678Y-95051425D01*
X132500003Y-95032843D01*
X132499997Y-95032843D01*
X132311321Y-95051425D01*
X132311316Y-95051426D01*
X132129884Y-95106463D01*
X132129879Y-95106465D01*
X131962681Y-95195835D01*
X131962671Y-95195841D01*
X131816121Y-95316113D01*
X131816113Y-95316121D01*
X131695841Y-95462671D01*
X131695835Y-95462681D01*
X131606465Y-95629879D01*
X131606463Y-95629884D01*
X131551426Y-95811316D01*
X131551425Y-95811321D01*
X131532843Y-95999996D01*
X125930000Y-95999996D01*
X125930000Y-93459996D01*
X131532843Y-93459996D01*
X131532843Y-93460003D01*
X131551425Y-93648678D01*
X131551426Y-93648683D01*
X131606463Y-93830115D01*
X131606465Y-93830120D01*
X131667265Y-93943867D01*
X131695838Y-93997324D01*
X131695840Y-93997326D01*
X131695841Y-93997328D01*
X131743296Y-94055151D01*
X131816117Y-94143883D01*
X131845918Y-94168340D01*
X131955518Y-94258288D01*
X131962676Y-94264162D01*
X132086782Y-94330498D01*
X132106377Y-94340972D01*
X132129885Y-94353537D01*
X132256280Y-94391877D01*
X132311316Y-94408573D01*
X132311321Y-94408574D01*
X132499997Y-94427157D01*
X132500000Y-94427157D01*
X132500003Y-94427157D01*
X132688678Y-94408574D01*
X132688683Y-94408573D01*
X132870115Y-94353537D01*
X133037324Y-94264162D01*
X133183883Y-94143883D01*
X133304162Y-93997324D01*
X133393537Y-93830115D01*
X133448573Y-93648683D01*
X133448574Y-93648678D01*
X133467157Y-93460003D01*
X133467157Y-93459996D01*
X133448574Y-93271321D01*
X133448573Y-93271316D01*
X133410206Y-93144836D01*
X133393537Y-93089885D01*
X133378551Y-93061849D01*
X133370277Y-93046368D01*
X133304162Y-92922676D01*
X133183883Y-92776117D01*
X133037324Y-92655838D01*
X132997959Y-92634797D01*
X132870120Y-92566465D01*
X132870115Y-92566463D01*
X132688683Y-92511426D01*
X132688678Y-92511425D01*
X132500003Y-92492843D01*
X132499997Y-92492843D01*
X132311321Y-92511425D01*
X132311316Y-92511426D01*
X132129884Y-92566463D01*
X132129879Y-92566465D01*
X131962681Y-92655835D01*
X131962671Y-92655841D01*
X131816121Y-92776113D01*
X131816113Y-92776121D01*
X131695841Y-92922671D01*
X131695835Y-92922681D01*
X131606465Y-93089879D01*
X131606463Y-93089884D01*
X131551426Y-93271316D01*
X131551425Y-93271321D01*
X131532843Y-93459996D01*
X125930000Y-93459996D01*
X125930000Y-90919996D01*
X131532843Y-90919996D01*
X131532843Y-90920003D01*
X131551425Y-91108678D01*
X131551426Y-91108683D01*
X131606463Y-91290115D01*
X131606465Y-91290120D01*
X131650893Y-91373238D01*
X131695838Y-91457324D01*
X131695840Y-91457326D01*
X131695841Y-91457328D01*
X131736306Y-91506634D01*
X131816117Y-91603883D01*
X131962676Y-91724162D01*
X132129885Y-91813537D01*
X132256280Y-91851877D01*
X132311316Y-91868573D01*
X132311321Y-91868574D01*
X132499997Y-91887157D01*
X132500000Y-91887157D01*
X132500003Y-91887157D01*
X132688678Y-91868574D01*
X132688683Y-91868573D01*
X132870115Y-91813537D01*
X133037324Y-91724162D01*
X133183883Y-91603883D01*
X133304162Y-91457324D01*
X133393537Y-91290115D01*
X133448573Y-91108683D01*
X133448574Y-91108678D01*
X133467157Y-90920003D01*
X133467157Y-90919996D01*
X133448574Y-90731321D01*
X133448573Y-90731316D01*
X133404840Y-90587147D01*
X133393537Y-90549885D01*
X133304162Y-90382676D01*
X133183883Y-90236117D01*
X133037324Y-90115838D01*
X132997959Y-90094797D01*
X132870120Y-90026465D01*
X132870115Y-90026463D01*
X132688683Y-89971426D01*
X132688678Y-89971425D01*
X132500003Y-89952843D01*
X132499997Y-89952843D01*
X132311321Y-89971425D01*
X132311316Y-89971426D01*
X132129884Y-90026463D01*
X132129879Y-90026465D01*
X131962681Y-90115835D01*
X131962671Y-90115841D01*
X131816121Y-90236113D01*
X131816113Y-90236121D01*
X131695841Y-90382671D01*
X131695835Y-90382681D01*
X131606465Y-90549879D01*
X131606463Y-90549884D01*
X131551426Y-90731316D01*
X131551425Y-90731321D01*
X131532843Y-90919996D01*
X125930000Y-90919996D01*
X125930000Y-88379996D01*
X131532843Y-88379996D01*
X131532843Y-88380003D01*
X131551425Y-88568678D01*
X131551426Y-88568683D01*
X131606463Y-88750115D01*
X131606465Y-88750120D01*
X131610587Y-88757831D01*
X131695838Y-88917324D01*
X131816117Y-89063883D01*
X131962676Y-89184162D01*
X132129885Y-89273537D01*
X132256280Y-89311877D01*
X132311316Y-89328573D01*
X132311321Y-89328574D01*
X132499997Y-89347157D01*
X132500000Y-89347157D01*
X132500003Y-89347157D01*
X132688678Y-89328574D01*
X132688683Y-89328573D01*
X132870115Y-89273537D01*
X133037324Y-89184162D01*
X133183883Y-89063883D01*
X133304162Y-88917324D01*
X133393537Y-88750115D01*
X133448573Y-88568683D01*
X133448574Y-88568678D01*
X133467157Y-88380003D01*
X133467157Y-88379996D01*
X133448574Y-88191321D01*
X133448573Y-88191316D01*
X133413799Y-88076682D01*
X133393537Y-88009885D01*
X133304162Y-87842676D01*
X133183883Y-87696117D01*
X133037324Y-87575838D01*
X132997959Y-87554797D01*
X132870120Y-87486465D01*
X132870115Y-87486463D01*
X132688683Y-87431426D01*
X132688678Y-87431425D01*
X132500003Y-87412843D01*
X132499997Y-87412843D01*
X132311321Y-87431425D01*
X132311316Y-87431426D01*
X132129884Y-87486463D01*
X132129879Y-87486465D01*
X131962681Y-87575835D01*
X131962671Y-87575841D01*
X131816121Y-87696113D01*
X131816113Y-87696121D01*
X131695841Y-87842671D01*
X131695835Y-87842681D01*
X131606465Y-88009879D01*
X131606463Y-88009884D01*
X131551426Y-88191316D01*
X131551425Y-88191321D01*
X131532843Y-88379996D01*
X125930000Y-88379996D01*
X125930000Y-85420883D01*
X131537500Y-85420883D01*
X131537500Y-85420884D01*
X131537500Y-86259116D01*
X131552467Y-86372802D01*
X131611061Y-86514259D01*
X131704269Y-86635731D01*
X131825741Y-86728939D01*
X131967198Y-86787533D01*
X132080884Y-86802500D01*
X132080885Y-86802500D01*
X132919115Y-86802500D01*
X132919116Y-86802500D01*
X133032802Y-86787533D01*
X133174259Y-86728939D01*
X133295731Y-86635731D01*
X133388939Y-86514259D01*
X133447533Y-86372802D01*
X133462500Y-86259116D01*
X133462500Y-85420884D01*
X133462500Y-85420883D01*
X154397500Y-85420883D01*
X154397500Y-85420884D01*
X154397500Y-86259116D01*
X154412467Y-86372802D01*
X154471061Y-86514259D01*
X154564269Y-86635731D01*
X154685741Y-86728939D01*
X154827198Y-86787533D01*
X154940884Y-86802500D01*
X154940885Y-86802500D01*
X155779115Y-86802500D01*
X155779116Y-86802500D01*
X155892802Y-86787533D01*
X156034259Y-86728939D01*
X156155731Y-86635731D01*
X156248939Y-86514259D01*
X156307533Y-86372802D01*
X156322500Y-86259116D01*
X156322500Y-85420884D01*
X156307533Y-85307198D01*
X156248939Y-85165741D01*
X156155731Y-85044269D01*
X156034259Y-84951061D01*
X155892802Y-84892467D01*
X155892799Y-84892466D01*
X155892798Y-84892466D01*
X155779116Y-84877500D01*
X154940884Y-84877500D01*
X154940883Y-84877500D01*
X154827201Y-84892466D01*
X154827196Y-84892468D01*
X154685742Y-84951060D01*
X154564273Y-85044265D01*
X154564265Y-85044273D01*
X154471060Y-85165742D01*
X154412468Y-85307196D01*
X154412466Y-85307201D01*
X154397500Y-85420883D01*
X133462500Y-85420883D01*
X133447533Y-85307198D01*
X133388939Y-85165741D01*
X133295731Y-85044269D01*
X133174259Y-84951061D01*
X133032802Y-84892467D01*
X133032799Y-84892466D01*
X133032798Y-84892466D01*
X132919116Y-84877500D01*
X132080884Y-84877500D01*
X132080883Y-84877500D01*
X131967201Y-84892466D01*
X131967196Y-84892468D01*
X131825742Y-84951060D01*
X131704273Y-85044265D01*
X131704265Y-85044273D01*
X131611060Y-85165742D01*
X131552468Y-85307196D01*
X131552466Y-85307201D01*
X131537500Y-85420883D01*
X125930000Y-85420883D01*
X125930000Y-79730674D01*
X125930010Y-79729287D01*
X125930024Y-79728264D01*
X125932291Y-79566512D01*
X125932902Y-79556845D01*
X125969436Y-79232595D01*
X125971292Y-79221672D01*
X126043744Y-78904241D01*
X126046808Y-78893603D01*
X126154345Y-78586282D01*
X126158584Y-78576047D01*
X126299853Y-78282699D01*
X126305209Y-78273006D01*
X126478439Y-77997313D01*
X126484855Y-77988272D01*
X126687845Y-77733730D01*
X126695226Y-77725469D01*
X126925469Y-77495226D01*
X126933730Y-77487845D01*
X127188272Y-77284855D01*
X127197313Y-77278439D01*
X127473006Y-77105209D01*
X127482699Y-77099853D01*
X127776047Y-76958584D01*
X127786282Y-76954345D01*
X128093603Y-76846808D01*
X128104241Y-76843744D01*
X128421672Y-76771292D01*
X128432595Y-76769436D01*
X128756845Y-76732902D01*
X128766512Y-76732291D01*
X128925169Y-76730067D01*
X128929288Y-76730010D01*
X128930675Y-76730000D01*
X158929325Y-76730000D01*
X158930712Y-76730010D01*
G37*
%TD.AperFunction*%
%TD*%
M02*
