M48
; DRILL file {KiCad 7.0.9-7.0.9~ubuntu22.04.1} date ti 19. maaliskuuta 2024 18.59.19
; FORMAT={-:-/ absolute / inch / decimal}
; #@! TF.CreationDate,2024-03-19T18:59:19+02:00
; #@! TF.GenerationSoftware,Kicad,Pcbnew,7.0.9-7.0.9~ubuntu22.04.1
; #@! TF.FileFunction,Plated,1,2,PTH
FMAT,2
INCH
; #@! TA.AperFunction,Plated,PTH,ViaDrill
T1C0.0157
; #@! TA.AperFunction,Plated,PTH,ComponentDrill
T2C0.0300
; #@! TA.AperFunction,Plated,PTH,ViaDrill
T3C0.1260
%
G90
G05
T1
X5.3142Y-4.1714
X5.3516Y-3.9972
X5.3516Y-4.0445
X5.3594Y-3.7925
X5.4303Y-3.9579
X5.45Y-4.3201
X5.4539Y-3.6193
X5.4697Y-3.9579
X5.5091Y-4.1685
X5.5406Y-3.8161
X5.5484Y-3.9972
X5.5484Y-4.0445
X5.5878Y-3.7295
X5.6035Y-3.6272
X5.635Y-3.6035
X5.635Y-3.7295
X5.6665Y-3.5622
X5.6665Y-3.9421
X5.6665Y-4.0445
X5.6665Y-4.3201
X5.698Y-3.6035
X5.698Y-3.7295
X5.7295Y-3.6272
X5.7453Y-3.7295
X5.7453Y-4.1705
X5.7768Y-3.8161
X5.7807Y-3.9539
X5.7846Y-3.9972
X5.7846Y-4.0445
X5.8634Y-3.9579
X5.8791Y-3.6193
X5.8831Y-4.3201
X5.9028Y-3.9579
X5.9421Y-4.1626
X5.9736Y-3.7925
X5.9776Y-3.9539
X5.9815Y-3.9972
X5.9815Y-4.0445
X6.013Y-3.7295
X6.0799Y-4.3201
T2
X5.2165Y-3.3795
X5.2165Y-3.4795
X5.2165Y-3.5795
X5.2165Y-3.6795
X5.2165Y-3.7795
X5.2165Y-3.8795
X5.2165Y-3.9795
X5.2165Y-4.0795
X6.1165Y-3.3795
X6.1165Y-3.4795
X6.1165Y-3.5795
X6.1165Y-3.6795
X6.1165Y-3.7795
X6.1165Y-3.8795
X6.1165Y-3.9795
X6.1165Y-4.0795
T3
X5.076Y-3.139
X5.076Y-4.3201
X6.2571Y-3.139
X6.2571Y-4.3201
T0
M30
