%TF.GenerationSoftware,KiCad,Pcbnew,6.0.4-6f826c9f35~116~ubuntu21.10.1*%
%TF.CreationDate,2023-03-02T20:15:44+02:00*%
%TF.ProjectId,rgbw-light,72676277-2d6c-4696-9768-742e6b696361,rev?*%
%TF.SameCoordinates,Original*%
%TF.FileFunction,Copper,L2,Bot*%
%TF.FilePolarity,Positive*%
%FSLAX46Y46*%
G04 Gerber Fmt 4.6, Leading zero omitted, Abs format (unit mm)*
G04 Created by KiCad (PCBNEW 6.0.4-6f826c9f35~116~ubuntu21.10.1) date 2023-03-02 20:15:44*
%MOMM*%
%LPD*%
G01*
G04 APERTURE LIST*
G04 Aperture macros list*
%AMRoundRect*
0 Rectangle with rounded corners*
0 $1 Rounding radius*
0 $2 $3 $4 $5 $6 $7 $8 $9 X,Y pos of 4 corners*
0 Add a 4 corners polygon primitive as box body*
4,1,4,$2,$3,$4,$5,$6,$7,$8,$9,$2,$3,0*
0 Add four circle primitives for the rounded corners*
1,1,$1+$1,$2,$3*
1,1,$1+$1,$4,$5*
1,1,$1+$1,$6,$7*
1,1,$1+$1,$8,$9*
0 Add four rect primitives between the rounded corners*
20,1,$1+$1,$2,$3,$4,$5,0*
20,1,$1+$1,$4,$5,$6,$7,0*
20,1,$1+$1,$6,$7,$8,$9,0*
20,1,$1+$1,$8,$9,$2,$3,0*%
G04 Aperture macros list end*
%TA.AperFunction,ComponentPad*%
%ADD10RoundRect,0.381000X-0.381000X0.381000X-0.381000X-0.381000X0.381000X-0.381000X0.381000X0.381000X0*%
%TD*%
%TA.AperFunction,ComponentPad*%
%ADD11C,1.524000*%
%TD*%
%TA.AperFunction,ViaPad*%
%ADD12C,0.800000*%
%TD*%
%TA.AperFunction,ViaPad*%
%ADD13C,4.000000*%
%TD*%
%TA.AperFunction,Conductor*%
%ADD14C,0.250000*%
%TD*%
%TA.AperFunction,Conductor*%
%ADD15C,0.200000*%
%TD*%
G04 APERTURE END LIST*
D10*
%TO.P,CN1,1*%
%TO.N,GND*%
X152820000Y-83300000D03*
D11*
%TO.P,CN1,2*%
%TO.N,/Temperature*%
X150280000Y-83300000D03*
%TO.P,CN1,3*%
%TO.N,/W*%
X147740000Y-83300000D03*
%TO.P,CN1,4*%
%TO.N,/B*%
X145200000Y-83300000D03*
%TO.P,CN1,5*%
%TO.N,/G*%
X142660000Y-83300000D03*
%TO.P,CN1,6*%
%TO.N,/R*%
X140120000Y-83300000D03*
%TO.P,CN1,7*%
%TO.N,5V*%
X137580000Y-83300000D03*
%TD*%
D12*
%TO.N,GND*%
X155000000Y-103800000D03*
X151450000Y-93500000D03*
X143950000Y-106500000D03*
X148950000Y-96000000D03*
X141700000Y-96250000D03*
X133700000Y-102500000D03*
X145200000Y-101250000D03*
X149950000Y-90500000D03*
X138200000Y-105500000D03*
X145200000Y-88250000D03*
X137200000Y-95500000D03*
X145950000Y-96000000D03*
X148600000Y-106000000D03*
X152600000Y-106000000D03*
X151200000Y-103750000D03*
D13*
X132500000Y-83300000D03*
D12*
X153200000Y-99000000D03*
D13*
X157900000Y-83300000D03*
D12*
X144450000Y-96000000D03*
D13*
X132500000Y-108700000D03*
D12*
X139450000Y-98750000D03*
X141450000Y-101500000D03*
D13*
X157900000Y-108700000D03*
D12*
X140450000Y-91000000D03*
X148700000Y-101250000D03*
%TO.N,/R*%
X141400000Y-85600000D03*
X142700000Y-93250000D03*
%TO.N,/G*%
X138600000Y-100500000D03*
X134200000Y-99400000D03*
%TO.N,/B*%
X147740000Y-106750000D03*
X147700000Y-109349500D03*
%TO.N,/W*%
X151700000Y-97000000D03*
X157474020Y-97000000D03*
%TO.N,/Temperature*%
X145200000Y-109400000D03*
X145200000Y-105250000D03*
%TD*%
D14*
%TO.N,/G*%
X134200000Y-99400000D02*
X135300000Y-100500000D01*
X135300000Y-100500000D02*
X138600000Y-100500000D01*
%TO.N,/R*%
X141400000Y-85600000D02*
X141400000Y-86187799D01*
X141400000Y-86187799D02*
X142200000Y-86987799D01*
D15*
X142700000Y-93250000D02*
X142200000Y-92750000D01*
X142200000Y-92750000D02*
X142200000Y-86987799D01*
%TO.N,/B*%
X147740000Y-106750000D02*
X147740000Y-109309500D01*
X147740000Y-109309500D02*
X147700000Y-109349500D01*
%TO.N,/W*%
X151700000Y-97000000D02*
X157474020Y-97000000D01*
D14*
X151700000Y-97000000D02*
X155200000Y-97000000D01*
D15*
%TO.N,/Temperature*%
X145200000Y-105250000D02*
X145200000Y-109400000D01*
%TD*%
%TA.AperFunction,Conductor*%
%TO.N,GND*%
G36*
X157888169Y-80963018D02*
G01*
X157899641Y-80965656D01*
X157910517Y-80963195D01*
X157921664Y-80963214D01*
X157921664Y-80963243D01*
X157931772Y-80962422D01*
X158072548Y-80970937D01*
X158176024Y-80977197D01*
X158187880Y-80978636D01*
X158453995Y-81027404D01*
X158465588Y-81030261D01*
X158674696Y-81095422D01*
X158723879Y-81110748D01*
X158735057Y-81114987D01*
X158981763Y-81226020D01*
X158992348Y-81231576D01*
X159223860Y-81371530D01*
X159233699Y-81378321D01*
X159446656Y-81545162D01*
X159455605Y-81553089D01*
X159646911Y-81744395D01*
X159654838Y-81753344D01*
X159821679Y-81966301D01*
X159828470Y-81976140D01*
X159968424Y-82207652D01*
X159973980Y-82218237D01*
X160085013Y-82464943D01*
X160089252Y-82476121D01*
X160097090Y-82501274D01*
X160137823Y-82631988D01*
X160169737Y-82734404D01*
X160172596Y-82746005D01*
X160221364Y-83012122D01*
X160222803Y-83023974D01*
X160237547Y-83267712D01*
X160236724Y-83277627D01*
X160236862Y-83277627D01*
X160236842Y-83288777D01*
X160234344Y-83299641D01*
X160236804Y-83310513D01*
X160237059Y-83311638D01*
X160239500Y-83333488D01*
X160239500Y-108665983D01*
X160236982Y-108688169D01*
X160234344Y-108699641D01*
X160236805Y-108710517D01*
X160236786Y-108721664D01*
X160236757Y-108721664D01*
X160237578Y-108731772D01*
X160222804Y-108976018D01*
X160221364Y-108987880D01*
X160173389Y-109249674D01*
X160172598Y-109253988D01*
X160169739Y-109265588D01*
X160125850Y-109406434D01*
X160089252Y-109523879D01*
X160085013Y-109535057D01*
X159973980Y-109781763D01*
X159968424Y-109792348D01*
X159828470Y-110023860D01*
X159821679Y-110033699D01*
X159654838Y-110246656D01*
X159646911Y-110255605D01*
X159455605Y-110446911D01*
X159446656Y-110454838D01*
X159233699Y-110621679D01*
X159223860Y-110628470D01*
X158992348Y-110768424D01*
X158981763Y-110773980D01*
X158735057Y-110885013D01*
X158723879Y-110889252D01*
X158465588Y-110969739D01*
X158453995Y-110972596D01*
X158187878Y-111021364D01*
X158176026Y-111022803D01*
X157932287Y-111037547D01*
X157922373Y-111036724D01*
X157922373Y-111036862D01*
X157911223Y-111036842D01*
X157900359Y-111034344D01*
X157888359Y-111037059D01*
X157866512Y-111039500D01*
X132534017Y-111039500D01*
X132511831Y-111036982D01*
X132511801Y-111036975D01*
X132500359Y-111034344D01*
X132489483Y-111036805D01*
X132478336Y-111036786D01*
X132478336Y-111036757D01*
X132468228Y-111037578D01*
X132327452Y-111029063D01*
X132223976Y-111022803D01*
X132212120Y-111021364D01*
X131946005Y-110972596D01*
X131934412Y-110969739D01*
X131676121Y-110889252D01*
X131664943Y-110885013D01*
X131418237Y-110773980D01*
X131407652Y-110768424D01*
X131176140Y-110628470D01*
X131166301Y-110621679D01*
X130953344Y-110454838D01*
X130944395Y-110446911D01*
X130753089Y-110255605D01*
X130745162Y-110246656D01*
X130578321Y-110033699D01*
X130571530Y-110023860D01*
X130431576Y-109792348D01*
X130426020Y-109781763D01*
X130314987Y-109535057D01*
X130310748Y-109523879D01*
X130274150Y-109406434D01*
X130272145Y-109400000D01*
X144594318Y-109400000D01*
X144614956Y-109556762D01*
X144675464Y-109702841D01*
X144771718Y-109828282D01*
X144897159Y-109924536D01*
X145043238Y-109985044D01*
X145200000Y-110005682D01*
X145356762Y-109985044D01*
X145502841Y-109924536D01*
X145628282Y-109828282D01*
X145724536Y-109702841D01*
X145785044Y-109556762D01*
X145805682Y-109400000D01*
X145799034Y-109349500D01*
X147094318Y-109349500D01*
X147114956Y-109506262D01*
X147175464Y-109652341D01*
X147271718Y-109777782D01*
X147397159Y-109874036D01*
X147543238Y-109934544D01*
X147700000Y-109955182D01*
X147856762Y-109934544D01*
X148002841Y-109874036D01*
X148128282Y-109777782D01*
X148224536Y-109652341D01*
X148285044Y-109506262D01*
X148305682Y-109349500D01*
X148285044Y-109192738D01*
X148224536Y-109046659D01*
X148128282Y-108921218D01*
X148079233Y-108883581D01*
X148044577Y-108833158D01*
X148040500Y-108805040D01*
X148040500Y-107325154D01*
X148059407Y-107266963D01*
X148079232Y-107246612D01*
X148168282Y-107178282D01*
X148264536Y-107052841D01*
X148325044Y-106906762D01*
X148345682Y-106750000D01*
X148325044Y-106593238D01*
X148264536Y-106447159D01*
X148168282Y-106321718D01*
X148042841Y-106225464D01*
X147896762Y-106164956D01*
X147740000Y-106144318D01*
X147583238Y-106164956D01*
X147437159Y-106225464D01*
X147311718Y-106321718D01*
X147215464Y-106447159D01*
X147154956Y-106593238D01*
X147134318Y-106750000D01*
X147154956Y-106906762D01*
X147215464Y-107052841D01*
X147311718Y-107178282D01*
X147400768Y-107246612D01*
X147435423Y-107297037D01*
X147439500Y-107325154D01*
X147439500Y-108744339D01*
X147420593Y-108802530D01*
X147396553Y-108824175D01*
X147397159Y-108824964D01*
X147271718Y-108921218D01*
X147175464Y-109046659D01*
X147114956Y-109192738D01*
X147094318Y-109349500D01*
X145799034Y-109349500D01*
X145785044Y-109243238D01*
X145724536Y-109097159D01*
X145628282Y-108971718D01*
X145539232Y-108903387D01*
X145504577Y-108852963D01*
X145500500Y-108824846D01*
X145500500Y-105825154D01*
X145519407Y-105766963D01*
X145539232Y-105746612D01*
X145628282Y-105678282D01*
X145724536Y-105552841D01*
X145785044Y-105406762D01*
X145805682Y-105250000D01*
X145785044Y-105093238D01*
X145724536Y-104947159D01*
X145628282Y-104821718D01*
X145502841Y-104725464D01*
X145356762Y-104664956D01*
X145200000Y-104644318D01*
X145043238Y-104664956D01*
X144897159Y-104725464D01*
X144771718Y-104821718D01*
X144675464Y-104947159D01*
X144614956Y-105093238D01*
X144594318Y-105250000D01*
X144614956Y-105406762D01*
X144675464Y-105552841D01*
X144771718Y-105678282D01*
X144860768Y-105746612D01*
X144895423Y-105797037D01*
X144899500Y-105825154D01*
X144899500Y-108824846D01*
X144880593Y-108883037D01*
X144860769Y-108903387D01*
X144771718Y-108971718D01*
X144675464Y-109097159D01*
X144614956Y-109243238D01*
X144594318Y-109400000D01*
X130272145Y-109400000D01*
X130230261Y-109265588D01*
X130227402Y-109253988D01*
X130226612Y-109249674D01*
X130178636Y-108987880D01*
X130177196Y-108976018D01*
X130162469Y-108732548D01*
X130164207Y-108711810D01*
X130163747Y-108711757D01*
X130164389Y-108706179D01*
X130165655Y-108700718D01*
X130165656Y-108700000D01*
X130164412Y-108694545D01*
X130162980Y-108688266D01*
X130160500Y-108666248D01*
X130160500Y-99400000D01*
X133594318Y-99400000D01*
X133614956Y-99556762D01*
X133675464Y-99702841D01*
X133771718Y-99828282D01*
X133897159Y-99924536D01*
X134043238Y-99985044D01*
X134200000Y-100005682D01*
X134280042Y-99995144D01*
X134340201Y-100006294D01*
X134362967Y-100023293D01*
X135056731Y-100717057D01*
X135062565Y-100723424D01*
X135087545Y-100753194D01*
X135121205Y-100772627D01*
X135128489Y-100777268D01*
X135160316Y-100799554D01*
X135168684Y-100801796D01*
X135173971Y-100804262D01*
X135179456Y-100806258D01*
X135186955Y-100810588D01*
X135195481Y-100812091D01*
X135195483Y-100812092D01*
X135225216Y-100817334D01*
X135233650Y-100819204D01*
X135271193Y-100829264D01*
X135279822Y-100828509D01*
X135309905Y-100825877D01*
X135318534Y-100825500D01*
X138044030Y-100825500D01*
X138102221Y-100844407D01*
X138122571Y-100864232D01*
X138171718Y-100928282D01*
X138297159Y-101024536D01*
X138443238Y-101085044D01*
X138600000Y-101105682D01*
X138756762Y-101085044D01*
X138902841Y-101024536D01*
X139028282Y-100928282D01*
X139124536Y-100802841D01*
X139185044Y-100656762D01*
X139205682Y-100500000D01*
X139185044Y-100343238D01*
X139124536Y-100197159D01*
X139028282Y-100071718D01*
X138902841Y-99975464D01*
X138756762Y-99914956D01*
X138600000Y-99894318D01*
X138443238Y-99914956D01*
X138297159Y-99975464D01*
X138171718Y-100071718D01*
X138167764Y-100076871D01*
X138122572Y-100135767D01*
X138072148Y-100170423D01*
X138044030Y-100174500D01*
X135475834Y-100174500D01*
X135417643Y-100155593D01*
X135405830Y-100145504D01*
X134823293Y-99562967D01*
X134795516Y-99508450D01*
X134795144Y-99480045D01*
X134805682Y-99400000D01*
X134785044Y-99243238D01*
X134724536Y-99097159D01*
X134628282Y-98971718D01*
X134502841Y-98875464D01*
X134356762Y-98814956D01*
X134200000Y-98794318D01*
X134043238Y-98814956D01*
X133897159Y-98875464D01*
X133771718Y-98971718D01*
X133675464Y-99097159D01*
X133614956Y-99243238D01*
X133594318Y-99400000D01*
X130160500Y-99400000D01*
X130160500Y-97000000D01*
X151094318Y-97000000D01*
X151114956Y-97156762D01*
X151175464Y-97302841D01*
X151271718Y-97428282D01*
X151397159Y-97524536D01*
X151543238Y-97585044D01*
X151700000Y-97605682D01*
X151856762Y-97585044D01*
X152002841Y-97524536D01*
X152128282Y-97428282D01*
X152177429Y-97364233D01*
X152227852Y-97329577D01*
X152255970Y-97325500D01*
X155228475Y-97325500D01*
X155313045Y-97310588D01*
X155320272Y-97306415D01*
X155353821Y-97300500D01*
X156898866Y-97300500D01*
X156957057Y-97319407D01*
X156977407Y-97339231D01*
X157045738Y-97428282D01*
X157171179Y-97524536D01*
X157317258Y-97585044D01*
X157474020Y-97605682D01*
X157630782Y-97585044D01*
X157776861Y-97524536D01*
X157902302Y-97428282D01*
X157998556Y-97302841D01*
X158059064Y-97156762D01*
X158079702Y-97000000D01*
X158059064Y-96843238D01*
X157998556Y-96697159D01*
X157902302Y-96571718D01*
X157776861Y-96475464D01*
X157630782Y-96414956D01*
X157474020Y-96394318D01*
X157317258Y-96414956D01*
X157171179Y-96475464D01*
X157045738Y-96571718D01*
X156996592Y-96635767D01*
X156977408Y-96660768D01*
X156926983Y-96695423D01*
X156898866Y-96699500D01*
X155353821Y-96699500D01*
X155320272Y-96693585D01*
X155313045Y-96689412D01*
X155228475Y-96674500D01*
X152255970Y-96674500D01*
X152197779Y-96655593D01*
X152177428Y-96635767D01*
X152132236Y-96576871D01*
X152128282Y-96571718D01*
X152002841Y-96475464D01*
X151856762Y-96414956D01*
X151700000Y-96394318D01*
X151543238Y-96414956D01*
X151397159Y-96475464D01*
X151271718Y-96571718D01*
X151175464Y-96697159D01*
X151114956Y-96843238D01*
X151094318Y-97000000D01*
X130160500Y-97000000D01*
X130160500Y-85600000D01*
X140794318Y-85600000D01*
X140814956Y-85756762D01*
X140875464Y-85902841D01*
X140971718Y-86028282D01*
X140995427Y-86046474D01*
X141035767Y-86077428D01*
X141070423Y-86127852D01*
X141074500Y-86155970D01*
X141074500Y-86169265D01*
X141074123Y-86177894D01*
X141070736Y-86216606D01*
X141072978Y-86224973D01*
X141080796Y-86254148D01*
X141082666Y-86262582D01*
X141089412Y-86300844D01*
X141093742Y-86308343D01*
X141095738Y-86313828D01*
X141098204Y-86319115D01*
X141100446Y-86327483D01*
X141121013Y-86356855D01*
X141122732Y-86359310D01*
X141127371Y-86366591D01*
X141146806Y-86400254D01*
X141176571Y-86425230D01*
X141182939Y-86431064D01*
X141870504Y-87118629D01*
X141898281Y-87173146D01*
X141899500Y-87188633D01*
X141899500Y-92696492D01*
X141899197Y-92700617D01*
X141897575Y-92705342D01*
X141897918Y-92714476D01*
X141899430Y-92754761D01*
X141899500Y-92758474D01*
X141899500Y-92777948D01*
X141900325Y-92782378D01*
X141900661Y-92787571D01*
X141901774Y-92817208D01*
X141905380Y-92825602D01*
X141905381Y-92825605D01*
X141906317Y-92827783D01*
X141912683Y-92848734D01*
X141914791Y-92860053D01*
X141919588Y-92867835D01*
X141928768Y-92882728D01*
X141935451Y-92895595D01*
X141945964Y-92920063D01*
X141949978Y-92924949D01*
X141954342Y-92929313D01*
X141968613Y-92947368D01*
X141973532Y-92955348D01*
X141996769Y-92973018D01*
X142006839Y-92981810D01*
X142080820Y-93055791D01*
X142108597Y-93110308D01*
X142108969Y-93138714D01*
X142094318Y-93250000D01*
X142114956Y-93406762D01*
X142175464Y-93552841D01*
X142271718Y-93678282D01*
X142397159Y-93774536D01*
X142543238Y-93835044D01*
X142700000Y-93855682D01*
X142856762Y-93835044D01*
X143002841Y-93774536D01*
X143128282Y-93678282D01*
X143224536Y-93552841D01*
X143285044Y-93406762D01*
X143305682Y-93250000D01*
X143285044Y-93093238D01*
X143224536Y-92947159D01*
X143128282Y-92821718D01*
X143002841Y-92725464D01*
X142856762Y-92664956D01*
X142700000Y-92644318D01*
X142612421Y-92655848D01*
X142552261Y-92644698D01*
X142510144Y-92600316D01*
X142500500Y-92557695D01*
X142500500Y-87135523D01*
X142509775Y-87093685D01*
X142515599Y-87081195D01*
X142515600Y-87081192D01*
X142519259Y-87073345D01*
X142529264Y-86958992D01*
X142499554Y-86848115D01*
X142450298Y-86777771D01*
X141833950Y-86161423D01*
X141806173Y-86106906D01*
X141815744Y-86046474D01*
X141828718Y-86028616D01*
X141828282Y-86028282D01*
X141920585Y-85907990D01*
X141924536Y-85902841D01*
X141985044Y-85756762D01*
X142005682Y-85600000D01*
X141985044Y-85443238D01*
X141924536Y-85297159D01*
X141828282Y-85171718D01*
X141702841Y-85075464D01*
X141556762Y-85014956D01*
X141400000Y-84994318D01*
X141243238Y-85014956D01*
X141097159Y-85075464D01*
X140971718Y-85171718D01*
X140875464Y-85297159D01*
X140814956Y-85443238D01*
X140794318Y-85600000D01*
X130160500Y-85600000D01*
X130160500Y-83334281D01*
X130163057Y-83311926D01*
X130163141Y-83311565D01*
X130165655Y-83300718D01*
X130165656Y-83300000D01*
X130164413Y-83294549D01*
X130163791Y-83288995D01*
X130164159Y-83288954D01*
X130163957Y-83286496D01*
X136612937Y-83286496D01*
X136615954Y-83322427D01*
X136627984Y-83465680D01*
X136628732Y-83474590D01*
X136630065Y-83479238D01*
X136630065Y-83479239D01*
X136640111Y-83514272D01*
X136680760Y-83656034D01*
X136682975Y-83660344D01*
X136764827Y-83819612D01*
X136764830Y-83819616D01*
X136767040Y-83823917D01*
X136884285Y-83971844D01*
X136887972Y-83974982D01*
X136887974Y-83974984D01*
X137024342Y-84091042D01*
X137024347Y-84091045D01*
X137028030Y-84094180D01*
X137032253Y-84096540D01*
X137032257Y-84096543D01*
X137072046Y-84118780D01*
X137192800Y-84186267D01*
X137207321Y-84190985D01*
X137367718Y-84243101D01*
X137367721Y-84243102D01*
X137372317Y-84244595D01*
X137377113Y-84245167D01*
X137377118Y-84245168D01*
X137466031Y-84255770D01*
X137559745Y-84266945D01*
X137564567Y-84266574D01*
X137564570Y-84266574D01*
X137629522Y-84261576D01*
X137747945Y-84252464D01*
X137929748Y-84201703D01*
X138098229Y-84116598D01*
X138246970Y-84000388D01*
X138250132Y-83996725D01*
X138250137Y-83996720D01*
X138367143Y-83861166D01*
X138370307Y-83857501D01*
X138381007Y-83838667D01*
X138461153Y-83697584D01*
X138461154Y-83697581D01*
X138463542Y-83693378D01*
X138477515Y-83651376D01*
X138521596Y-83518863D01*
X138521596Y-83518861D01*
X138523123Y-83514272D01*
X138546780Y-83327005D01*
X138547157Y-83300000D01*
X138545833Y-83286496D01*
X139152937Y-83286496D01*
X139155954Y-83322427D01*
X139167984Y-83465680D01*
X139168732Y-83474590D01*
X139170065Y-83479238D01*
X139170065Y-83479239D01*
X139180111Y-83514272D01*
X139220760Y-83656034D01*
X139222975Y-83660344D01*
X139304827Y-83819612D01*
X139304830Y-83819616D01*
X139307040Y-83823917D01*
X139424285Y-83971844D01*
X139427972Y-83974982D01*
X139427974Y-83974984D01*
X139564342Y-84091042D01*
X139564347Y-84091045D01*
X139568030Y-84094180D01*
X139572253Y-84096540D01*
X139572257Y-84096543D01*
X139612046Y-84118780D01*
X139732800Y-84186267D01*
X139747321Y-84190985D01*
X139907718Y-84243101D01*
X139907721Y-84243102D01*
X139912317Y-84244595D01*
X139917113Y-84245167D01*
X139917118Y-84245168D01*
X140006031Y-84255770D01*
X140099745Y-84266945D01*
X140104567Y-84266574D01*
X140104570Y-84266574D01*
X140169522Y-84261576D01*
X140287945Y-84252464D01*
X140469748Y-84201703D01*
X140638229Y-84116598D01*
X140786970Y-84000388D01*
X140790132Y-83996725D01*
X140790137Y-83996720D01*
X140907143Y-83861166D01*
X140910307Y-83857501D01*
X140921007Y-83838667D01*
X141001153Y-83697584D01*
X141001154Y-83697581D01*
X141003542Y-83693378D01*
X141017515Y-83651376D01*
X141061596Y-83518863D01*
X141061596Y-83518861D01*
X141063123Y-83514272D01*
X141086780Y-83327005D01*
X141087157Y-83300000D01*
X141085833Y-83286496D01*
X141692937Y-83286496D01*
X141695954Y-83322427D01*
X141707984Y-83465680D01*
X141708732Y-83474590D01*
X141710065Y-83479238D01*
X141710065Y-83479239D01*
X141720111Y-83514272D01*
X141760760Y-83656034D01*
X141762975Y-83660344D01*
X141844827Y-83819612D01*
X141844830Y-83819616D01*
X141847040Y-83823917D01*
X141964285Y-83971844D01*
X141967972Y-83974982D01*
X141967974Y-83974984D01*
X142104342Y-84091042D01*
X142104347Y-84091045D01*
X142108030Y-84094180D01*
X142112253Y-84096540D01*
X142112257Y-84096543D01*
X142152046Y-84118780D01*
X142272800Y-84186267D01*
X142287321Y-84190985D01*
X142447718Y-84243101D01*
X142447721Y-84243102D01*
X142452317Y-84244595D01*
X142457113Y-84245167D01*
X142457118Y-84245168D01*
X142546031Y-84255770D01*
X142639745Y-84266945D01*
X142644567Y-84266574D01*
X142644570Y-84266574D01*
X142709522Y-84261576D01*
X142827945Y-84252464D01*
X143009748Y-84201703D01*
X143178229Y-84116598D01*
X143326970Y-84000388D01*
X143330132Y-83996725D01*
X143330137Y-83996720D01*
X143447143Y-83861166D01*
X143450307Y-83857501D01*
X143461007Y-83838667D01*
X143541153Y-83697584D01*
X143541154Y-83697581D01*
X143543542Y-83693378D01*
X143557515Y-83651376D01*
X143601596Y-83518863D01*
X143601596Y-83518861D01*
X143603123Y-83514272D01*
X143626780Y-83327005D01*
X143627157Y-83300000D01*
X143625833Y-83286496D01*
X144232937Y-83286496D01*
X144235954Y-83322427D01*
X144247984Y-83465680D01*
X144248732Y-83474590D01*
X144250065Y-83479238D01*
X144250065Y-83479239D01*
X144260111Y-83514272D01*
X144300760Y-83656034D01*
X144302975Y-83660344D01*
X144384827Y-83819612D01*
X144384830Y-83819616D01*
X144387040Y-83823917D01*
X144504285Y-83971844D01*
X144507972Y-83974982D01*
X144507974Y-83974984D01*
X144644342Y-84091042D01*
X144644347Y-84091045D01*
X144648030Y-84094180D01*
X144652253Y-84096540D01*
X144652257Y-84096543D01*
X144692046Y-84118780D01*
X144812800Y-84186267D01*
X144827321Y-84190985D01*
X144987718Y-84243101D01*
X144987721Y-84243102D01*
X144992317Y-84244595D01*
X144997113Y-84245167D01*
X144997118Y-84245168D01*
X145086031Y-84255770D01*
X145179745Y-84266945D01*
X145184567Y-84266574D01*
X145184570Y-84266574D01*
X145249522Y-84261576D01*
X145367945Y-84252464D01*
X145549748Y-84201703D01*
X145718229Y-84116598D01*
X145866970Y-84000388D01*
X145870132Y-83996725D01*
X145870137Y-83996720D01*
X145987143Y-83861166D01*
X145990307Y-83857501D01*
X146001007Y-83838667D01*
X146081153Y-83697584D01*
X146081154Y-83697581D01*
X146083542Y-83693378D01*
X146097515Y-83651376D01*
X146141596Y-83518863D01*
X146141596Y-83518861D01*
X146143123Y-83514272D01*
X146166780Y-83327005D01*
X146167157Y-83300000D01*
X146165833Y-83286496D01*
X146772937Y-83286496D01*
X146775954Y-83322427D01*
X146787984Y-83465680D01*
X146788732Y-83474590D01*
X146790065Y-83479238D01*
X146790065Y-83479239D01*
X146800111Y-83514272D01*
X146840760Y-83656034D01*
X146842975Y-83660344D01*
X146924827Y-83819612D01*
X146924830Y-83819616D01*
X146927040Y-83823917D01*
X147044285Y-83971844D01*
X147047972Y-83974982D01*
X147047974Y-83974984D01*
X147184342Y-84091042D01*
X147184347Y-84091045D01*
X147188030Y-84094180D01*
X147192253Y-84096540D01*
X147192257Y-84096543D01*
X147232046Y-84118780D01*
X147352800Y-84186267D01*
X147367321Y-84190985D01*
X147527718Y-84243101D01*
X147527721Y-84243102D01*
X147532317Y-84244595D01*
X147537113Y-84245167D01*
X147537118Y-84245168D01*
X147626031Y-84255770D01*
X147719745Y-84266945D01*
X147724567Y-84266574D01*
X147724570Y-84266574D01*
X147789522Y-84261576D01*
X147907945Y-84252464D01*
X148089748Y-84201703D01*
X148258229Y-84116598D01*
X148406970Y-84000388D01*
X148410132Y-83996725D01*
X148410137Y-83996720D01*
X148527143Y-83861166D01*
X148530307Y-83857501D01*
X148541007Y-83838667D01*
X148621153Y-83697584D01*
X148621154Y-83697581D01*
X148623542Y-83693378D01*
X148637515Y-83651376D01*
X148681596Y-83518863D01*
X148681596Y-83518861D01*
X148683123Y-83514272D01*
X148706780Y-83327005D01*
X148707157Y-83300000D01*
X148705833Y-83286496D01*
X149312937Y-83286496D01*
X149315954Y-83322427D01*
X149327984Y-83465680D01*
X149328732Y-83474590D01*
X149330065Y-83479238D01*
X149330065Y-83479239D01*
X149340111Y-83514272D01*
X149380760Y-83656034D01*
X149382975Y-83660344D01*
X149464827Y-83819612D01*
X149464830Y-83819616D01*
X149467040Y-83823917D01*
X149584285Y-83971844D01*
X149587972Y-83974982D01*
X149587974Y-83974984D01*
X149724342Y-84091042D01*
X149724347Y-84091045D01*
X149728030Y-84094180D01*
X149732253Y-84096540D01*
X149732257Y-84096543D01*
X149772046Y-84118780D01*
X149892800Y-84186267D01*
X149907321Y-84190985D01*
X150067718Y-84243101D01*
X150067721Y-84243102D01*
X150072317Y-84244595D01*
X150077113Y-84245167D01*
X150077118Y-84245168D01*
X150166031Y-84255770D01*
X150259745Y-84266945D01*
X150264567Y-84266574D01*
X150264570Y-84266574D01*
X150329522Y-84261576D01*
X150447945Y-84252464D01*
X150629748Y-84201703D01*
X150798229Y-84116598D01*
X150946970Y-84000388D01*
X150950132Y-83996725D01*
X150950137Y-83996720D01*
X151067143Y-83861166D01*
X151070307Y-83857501D01*
X151081007Y-83838667D01*
X151150786Y-83715834D01*
X151858001Y-83715834D01*
X151858424Y-83722292D01*
X151872108Y-83826236D01*
X151875439Y-83838667D01*
X151929015Y-83968012D01*
X151935449Y-83979156D01*
X152020672Y-84090221D01*
X152029779Y-84099328D01*
X152140845Y-84184551D01*
X152151989Y-84190985D01*
X152281332Y-84244561D01*
X152293765Y-84247892D01*
X152397710Y-84261577D01*
X152404164Y-84262000D01*
X152654320Y-84262000D01*
X152667005Y-84257878D01*
X152670000Y-84253757D01*
X152670000Y-84246319D01*
X152970000Y-84246319D01*
X152974122Y-84259004D01*
X152978243Y-84261999D01*
X153235834Y-84261999D01*
X153242292Y-84261576D01*
X153346236Y-84247892D01*
X153358667Y-84244561D01*
X153488012Y-84190985D01*
X153499156Y-84184551D01*
X153610221Y-84099328D01*
X153619328Y-84090221D01*
X153704551Y-83979155D01*
X153710985Y-83968011D01*
X153764561Y-83838668D01*
X153767892Y-83826235D01*
X153781577Y-83722290D01*
X153782000Y-83715836D01*
X153782000Y-83465680D01*
X153777878Y-83452995D01*
X153773757Y-83450000D01*
X152985680Y-83450000D01*
X152972995Y-83454122D01*
X152970000Y-83458243D01*
X152970000Y-84246319D01*
X152670000Y-84246319D01*
X152670000Y-83465680D01*
X152665878Y-83452995D01*
X152661757Y-83450000D01*
X151873681Y-83450000D01*
X151860996Y-83454122D01*
X151858001Y-83458243D01*
X151858001Y-83715834D01*
X151150786Y-83715834D01*
X151161153Y-83697584D01*
X151161154Y-83697581D01*
X151163542Y-83693378D01*
X151177515Y-83651376D01*
X151221596Y-83518863D01*
X151221596Y-83518861D01*
X151223123Y-83514272D01*
X151246780Y-83327005D01*
X151247157Y-83300000D01*
X151232156Y-83147005D01*
X151230912Y-83134320D01*
X151858000Y-83134320D01*
X151862122Y-83147005D01*
X151866243Y-83150000D01*
X152654320Y-83150000D01*
X152667005Y-83145878D01*
X152670000Y-83141757D01*
X152670000Y-83134320D01*
X152970000Y-83134320D01*
X152974122Y-83147005D01*
X152978243Y-83150000D01*
X153766319Y-83150000D01*
X153779004Y-83145878D01*
X153781999Y-83141757D01*
X153781999Y-82884166D01*
X153781576Y-82877708D01*
X153767892Y-82773764D01*
X153764561Y-82761333D01*
X153710985Y-82631988D01*
X153704551Y-82620844D01*
X153619328Y-82509779D01*
X153610221Y-82500672D01*
X153499155Y-82415449D01*
X153488011Y-82409015D01*
X153358668Y-82355439D01*
X153346235Y-82352108D01*
X153242290Y-82338423D01*
X153235836Y-82338000D01*
X152985680Y-82338000D01*
X152972995Y-82342122D01*
X152970000Y-82346243D01*
X152970000Y-83134320D01*
X152670000Y-83134320D01*
X152670000Y-82353681D01*
X152665878Y-82340996D01*
X152661757Y-82338001D01*
X152404166Y-82338001D01*
X152397708Y-82338424D01*
X152293764Y-82352108D01*
X152281333Y-82355439D01*
X152151988Y-82409015D01*
X152140844Y-82415449D01*
X152029779Y-82500672D01*
X152020672Y-82509779D01*
X151935449Y-82620845D01*
X151929015Y-82631989D01*
X151875439Y-82761332D01*
X151872108Y-82773765D01*
X151858423Y-82877710D01*
X151858000Y-82884164D01*
X151858000Y-83134320D01*
X151230912Y-83134320D01*
X151229210Y-83116955D01*
X151229209Y-83116951D01*
X151228738Y-83112145D01*
X151174181Y-82931445D01*
X151085566Y-82764783D01*
X150966266Y-82618508D01*
X150820827Y-82498191D01*
X150654788Y-82408414D01*
X150474474Y-82352597D01*
X150462524Y-82351341D01*
X150291568Y-82333373D01*
X150291566Y-82333373D01*
X150286752Y-82332867D01*
X150231883Y-82337860D01*
X150103592Y-82349535D01*
X150103588Y-82349536D01*
X150098773Y-82349974D01*
X150080205Y-82355439D01*
X149922344Y-82401900D01*
X149922341Y-82401901D01*
X149917697Y-82403268D01*
X149894397Y-82415449D01*
X149754717Y-82488471D01*
X149754713Y-82488474D01*
X149750420Y-82490718D01*
X149746644Y-82493754D01*
X149746641Y-82493756D01*
X149607088Y-82605960D01*
X149603316Y-82608993D01*
X149600207Y-82612698D01*
X149600204Y-82612701D01*
X149535996Y-82689221D01*
X149481986Y-82753588D01*
X149391052Y-82918996D01*
X149333978Y-83098917D01*
X149332494Y-83112145D01*
X149315015Y-83267973D01*
X149312937Y-83286496D01*
X148705833Y-83286496D01*
X148692156Y-83147005D01*
X148689210Y-83116955D01*
X148689209Y-83116951D01*
X148688738Y-83112145D01*
X148634181Y-82931445D01*
X148545566Y-82764783D01*
X148426266Y-82618508D01*
X148280827Y-82498191D01*
X148114788Y-82408414D01*
X147934474Y-82352597D01*
X147922524Y-82351341D01*
X147751568Y-82333373D01*
X147751566Y-82333373D01*
X147746752Y-82332867D01*
X147691883Y-82337860D01*
X147563592Y-82349535D01*
X147563588Y-82349536D01*
X147558773Y-82349974D01*
X147540205Y-82355439D01*
X147382344Y-82401900D01*
X147382341Y-82401901D01*
X147377697Y-82403268D01*
X147354397Y-82415449D01*
X147214717Y-82488471D01*
X147214713Y-82488474D01*
X147210420Y-82490718D01*
X147206644Y-82493754D01*
X147206641Y-82493756D01*
X147067088Y-82605960D01*
X147063316Y-82608993D01*
X147060207Y-82612698D01*
X147060204Y-82612701D01*
X146995996Y-82689221D01*
X146941986Y-82753588D01*
X146851052Y-82918996D01*
X146793978Y-83098917D01*
X146792494Y-83112145D01*
X146775015Y-83267973D01*
X146772937Y-83286496D01*
X146165833Y-83286496D01*
X146152156Y-83147005D01*
X146149210Y-83116955D01*
X146149209Y-83116951D01*
X146148738Y-83112145D01*
X146094181Y-82931445D01*
X146005566Y-82764783D01*
X145886266Y-82618508D01*
X145740827Y-82498191D01*
X145574788Y-82408414D01*
X145394474Y-82352597D01*
X145382524Y-82351341D01*
X145211568Y-82333373D01*
X145211566Y-82333373D01*
X145206752Y-82332867D01*
X145151883Y-82337860D01*
X145023592Y-82349535D01*
X145023588Y-82349536D01*
X145018773Y-82349974D01*
X145000205Y-82355439D01*
X144842344Y-82401900D01*
X144842341Y-82401901D01*
X144837697Y-82403268D01*
X144814397Y-82415449D01*
X144674717Y-82488471D01*
X144674713Y-82488474D01*
X144670420Y-82490718D01*
X144666644Y-82493754D01*
X144666641Y-82493756D01*
X144527088Y-82605960D01*
X144523316Y-82608993D01*
X144520207Y-82612698D01*
X144520204Y-82612701D01*
X144455996Y-82689221D01*
X144401986Y-82753588D01*
X144311052Y-82918996D01*
X144253978Y-83098917D01*
X144252494Y-83112145D01*
X144235015Y-83267973D01*
X144232937Y-83286496D01*
X143625833Y-83286496D01*
X143612156Y-83147005D01*
X143609210Y-83116955D01*
X143609209Y-83116951D01*
X143608738Y-83112145D01*
X143554181Y-82931445D01*
X143465566Y-82764783D01*
X143346266Y-82618508D01*
X143200827Y-82498191D01*
X143034788Y-82408414D01*
X142854474Y-82352597D01*
X142842524Y-82351341D01*
X142671568Y-82333373D01*
X142671566Y-82333373D01*
X142666752Y-82332867D01*
X142611883Y-82337860D01*
X142483592Y-82349535D01*
X142483588Y-82349536D01*
X142478773Y-82349974D01*
X142460205Y-82355439D01*
X142302344Y-82401900D01*
X142302341Y-82401901D01*
X142297697Y-82403268D01*
X142274397Y-82415449D01*
X142134717Y-82488471D01*
X142134713Y-82488474D01*
X142130420Y-82490718D01*
X142126644Y-82493754D01*
X142126641Y-82493756D01*
X141987088Y-82605960D01*
X141983316Y-82608993D01*
X141980207Y-82612698D01*
X141980204Y-82612701D01*
X141915996Y-82689221D01*
X141861986Y-82753588D01*
X141771052Y-82918996D01*
X141713978Y-83098917D01*
X141712494Y-83112145D01*
X141695015Y-83267973D01*
X141692937Y-83286496D01*
X141085833Y-83286496D01*
X141072156Y-83147005D01*
X141069210Y-83116955D01*
X141069209Y-83116951D01*
X141068738Y-83112145D01*
X141014181Y-82931445D01*
X140925566Y-82764783D01*
X140806266Y-82618508D01*
X140660827Y-82498191D01*
X140494788Y-82408414D01*
X140314474Y-82352597D01*
X140302524Y-82351341D01*
X140131568Y-82333373D01*
X140131566Y-82333373D01*
X140126752Y-82332867D01*
X140071883Y-82337860D01*
X139943592Y-82349535D01*
X139943588Y-82349536D01*
X139938773Y-82349974D01*
X139920205Y-82355439D01*
X139762344Y-82401900D01*
X139762341Y-82401901D01*
X139757697Y-82403268D01*
X139734397Y-82415449D01*
X139594717Y-82488471D01*
X139594713Y-82488474D01*
X139590420Y-82490718D01*
X139586644Y-82493754D01*
X139586641Y-82493756D01*
X139447088Y-82605960D01*
X139443316Y-82608993D01*
X139440207Y-82612698D01*
X139440204Y-82612701D01*
X139375996Y-82689221D01*
X139321986Y-82753588D01*
X139231052Y-82918996D01*
X139173978Y-83098917D01*
X139172494Y-83112145D01*
X139155015Y-83267973D01*
X139152937Y-83286496D01*
X138545833Y-83286496D01*
X138532156Y-83147005D01*
X138529210Y-83116955D01*
X138529209Y-83116951D01*
X138528738Y-83112145D01*
X138474181Y-82931445D01*
X138385566Y-82764783D01*
X138266266Y-82618508D01*
X138120827Y-82498191D01*
X137954788Y-82408414D01*
X137774474Y-82352597D01*
X137762524Y-82351341D01*
X137591568Y-82333373D01*
X137591566Y-82333373D01*
X137586752Y-82332867D01*
X137531883Y-82337860D01*
X137403592Y-82349535D01*
X137403588Y-82349536D01*
X137398773Y-82349974D01*
X137380205Y-82355439D01*
X137222344Y-82401900D01*
X137222341Y-82401901D01*
X137217697Y-82403268D01*
X137194397Y-82415449D01*
X137054717Y-82488471D01*
X137054713Y-82488474D01*
X137050420Y-82490718D01*
X137046644Y-82493754D01*
X137046641Y-82493756D01*
X136907088Y-82605960D01*
X136903316Y-82608993D01*
X136900207Y-82612698D01*
X136900204Y-82612701D01*
X136835996Y-82689221D01*
X136781986Y-82753588D01*
X136691052Y-82918996D01*
X136633978Y-83098917D01*
X136632494Y-83112145D01*
X136615015Y-83267973D01*
X136612937Y-83286496D01*
X130163957Y-83286496D01*
X130162438Y-83267973D01*
X130170522Y-83134320D01*
X130177197Y-83023974D01*
X130178636Y-83012122D01*
X130227404Y-82746005D01*
X130230263Y-82734404D01*
X130262178Y-82631988D01*
X130302910Y-82501274D01*
X130310748Y-82476121D01*
X130314987Y-82464943D01*
X130426020Y-82218237D01*
X130431576Y-82207652D01*
X130571530Y-81976140D01*
X130578321Y-81966301D01*
X130745162Y-81753344D01*
X130753089Y-81744395D01*
X130944395Y-81553089D01*
X130953344Y-81545162D01*
X131166301Y-81378321D01*
X131176140Y-81371530D01*
X131407652Y-81231576D01*
X131418237Y-81226020D01*
X131664943Y-81114987D01*
X131676121Y-81110748D01*
X131725304Y-81095422D01*
X131934412Y-81030261D01*
X131946005Y-81027404D01*
X132212122Y-80978636D01*
X132223974Y-80977197D01*
X132467713Y-80962453D01*
X132477627Y-80963276D01*
X132477627Y-80963138D01*
X132488777Y-80963158D01*
X132499641Y-80965656D01*
X132511641Y-80962941D01*
X132533488Y-80960500D01*
X157865983Y-80960500D01*
X157888169Y-80963018D01*
G37*
%TD.AperFunction*%
%TD*%
M02*
